<svg xmlns="http://www.w3.org/2000/svg" width="320" height="639.999" viewBox="0 0 8466.66 16933.32" shape-rendering="geometricPrecision" text-rendering="geometricPrecision" image-rendering="optimizeQuality" fill-rule="evenodd" clip-rule="evenodd"><defs><style>.fil0{fill:#2c251d}</style></defs><g id="Слой_x0020_1"><path class="fil0" d="M4351.08 13112.79h18.68c1.57 70.36 63.81 192.52 74.74 233.46-28.7 42.84-43.24 67.38-74.74 84.04 0-124.24-4.99-210.77-18.68-317.5zm532.52-6807.56c46.89-4.1 21.45-13.41 9.34-65.37 44.67 10.4 55.4 42.43 81.42 77.37l320.84 473.06c19.88 32.8 36.61 66.16 57.29 101.48l101.07 197.8c1 1.82 2.36 4.16 3.36 5.98.99 1.83 2.37 4.15 3.35 5.99 74.19 139.58 153.37 337.78 183.05 414.69 52.43 162.53 86.84 336.54 168.13 485.56 32.23 59.1 155.65 590.02 164.97 675.6 6.65 61.16 18.94 45.34 18.94 121.14-41.2-47.37-170.38-413.23-204.35-486.77-18.9-40.89-38.43-70.23-51.09-117.02-31.72-81.13-59.7-143.68-96.2-221.35-18.24-38.81-21.49-77.7-45.17-113.6-2.19-3.33-10.1-15.25-11.1-16.91l-457.9-905.7c-1.04-1.75-2.53-4.02-3.58-5.75-1.05-1.74-2.6-3.96-3.64-5.7-11.89-19.86-8.69-16.16-19.35-36.69-13.26-25.51-24.05-38.82-38.98-63.76-10.35-17.27-13.26-21.26-20.86-35.18-3.68-6.75-7.05-14-9.46-18.56l-52.49-87.61c-1.61-2.22-6.39-8.45-8.04-10.64l-74.54-93.58c-94.26-104.12-192.52-44.25-192.52 89.71v84.04l194.18 468.93c7.19 16.59 5.97 16.59 14.01 32.68.95 1.89 2.29 4.22 3.27 6.08l110.66 234.9c21.05 45.06 35.4 76.92 54.99 122.46l218.12 491.69c32.65 85.08 77.68 164.45 104.35 250.55 14.35 46.33 25.56 87.87 43.68 133.77l180.32 538.81c7.28 19.96.51-5.19 10.5 26.85l32.21 107.88c7.23 26.22 10.03 42.08 16.37 67.68 1.56 6.33 6.32 25.63 10.21 36.49l44.12 133.32c5.25 16.63 5.2 22.12 8.09 38.61 7.16 40.9 12.01 41.06 17.14 66.9l48.18 222.66c34.94 143.88 60.01 305.31 80.14 452.17 3.73 27.14 3.19 50.3 6.52 77.53 3.91 32.09 12.45 38.4 16.99 76.4l47.81 484.49c4.12 54.21 6.6 102.62 8.41 169.02 1.74 63.82 19 96.65 19 167.77-54.51 4.54-91.06 24.38-119.23 58.26-18.28 22-20.78 35.07-30.77 62.62l-5.1 13.58c-1.45 3.88-6.77 17.05-7.77 20.25l-16 114.74c-3.15 27.42-12.86 50.01-15.95 77.44-6.18 54.96-7.04 118.38-42.28 144.5-19.69 14.6-118.07 27.17-147.25 30.25-101.44 10.73-230.71-1.23-352.56 11.79-21.36 2.28-59.78 12.6-78.34 15.08-30.82 4.11-63.67 5.85-84.54 8.88l-222.48 48.43c-108.24 34.97-238.75 66.11-335.73 121.99l-106.34 71.14c-188.23 139.77-92.31 275.75-154.68 405.68l-50.05-24.68c-82.25-49.63-159.59-113.88-247.72-153.94-56.21-25.55-112.42-53.75-173.26-69.61-91.58-23.88-197.99-31.91-295.06-31.91-65.65 0-95.9 14.22-149.48 18.67 3.42-41.04 39.31-97.15 55.03-131.76l252.38-681.55c36.36-146.72 99.3-291.28 129.21-440.48l146.61-600.52c.36-2.33 5.92-36.7 6.72-39.98l61.48-265.38c5.46-32.71 7-53.96 11.06-82.33l82.34-487.33c15.31-75.79 9.96-176.42 24.9-255.26 16.05-84.65 8.25-97.24 16.41-170.36 16.64-149.14 47.81-788.14 30.6-901.78-17.56-115.99 7.91-242.96-15.88-357.65-16.31-78.63-4.5-181.71-18.35-261.81-5.18-30-14.52-33.63-16.47-76.92-2.57-57.14-1-308.2-74.69-308.2-61.03 0-57.81 50.64-72.32 95.8-14.2 44.24-24.34 89.86-38.92 129.19l-200.97 546.17c-40.37 126.86-79.72 258.84-105.53 389.45-24.55 124.18-55.32 221.51-68.87 351.38l-104.53 726.63c-1.33 11.09-6.76 52.7-10.74 73.3-32.26 166.99-50.48 484.41-74.8 597.58-25.39 118.13-30.79 250.2-47.98 372.27-28 198.73-30.91 450.09-53 610.03l-17.01 151.1c-3.07 40.22-10.84 113.26-16.97 151.86-7.27 45.79-10.82 76.1-10.7 137.92.24 114.74-18.87 130.91 9.54 140.33 0-122.68 47.53-332.69 46.3-486.01-.52-64.65 19.4-78.12 19.22-139.53l90.78-768.38c22.27-76.22 60.52-420.94 81.45-534.91 8.86-48.27 8.93-94.36 15.86-142.9 3.64-25.46 11.09-39.21 14.76-59.95 3.95-22.37 7.38-61.7 9.07-74.98l41.85-266.33c3.3-23.19 4.26-37.16 8.13-66.58 5.13-39.01 9.61-31.21 15.43-59.28l54.92-327.97c22.49-118.52 31.26-219.43 66.94-334.64l55.35-206.14c51.05-168.63 101.64-330.45 170.05-493.04 9.29-22.08 11.95-30 20.24-54.48l64.32-150.49c.9-1.79 2.43-4.48 3.27-6.07l6.83-11.85c0 111.19 28.95 243.05 28.15 382.75-.44 76.97 3.5 133.53 8.73 196.71l-14.25 601.1c-9.79 64.62 1.7 135.38-5.28 200.16-11.91 110.49-14.23 264.23-40.02 380.22-12.18 54.77-6.94 126.14-18.66 186.8l-28.25 177.19c-16.56 90.07-20.26 182.91-46.47 271.05-22.83 76.78-33.71 172.06-55.23 252.97l-301.14 997c-13.3 27.96-5.49 6.42-15.51 40.53l-82.29 225.91c-98.85 240.21-196.03 484.17-330.47 706.23-78.69 129.98-157.49 254.55-258.09 367.68-49.79 55.99-60.05 152.45 5.42 209.98 55.01 48.34 133.19 34.98 187.32 1.35l81.18-77.61c26.05-33.29 32.02-58.4 78.58-70.86 18.34-4.91 114.74-15.35 142.78-16.04 103.24-2.56 165.85-8.11 265.62 15.02 42.75 9.91 75.69 20.69 112.55 36.91 35.33 15.55 18.57 9.22 46.77 27.95l179.26 129.43c22 16.1 24.96 15.73 28.43 38.58 2.23 14.69-14.26 222.7-21.25 269.83l-13.28 593.71c-1.3-1.87-2.98-7.22-3.43-5.9l-11.34-26.02c-3.34-9.36-3.55-12.11-6.77-21.25l-35.42-95.33c-10.94-29.62-17.76-40.6-30.52-72.21l-128.45-291.84c-16.06-37.79-7.92-46.46-45.66-66.42 18.12 77.73 48.6 134.57 69.36 210.82 3.79 13.92 7.83 31.51 11.5 44.54 29.42 104.28 85.5 268.21 93.86 365.36 5.25 61.15-34.58 27.86-34.58 79.65 0 49.26 72 61.11 121.45 28.01 0 56.99-7.3 121.4 46.72 121.4 64.39 0 46.71-180.49 46.71-233.46l-18.69-877.79c131.82 69.72 102.77 77.33 102.77 354.85l-9.34 915.15c0 85.87-24.38 240.17 46.19 271.45 38 16.84 79.67 19.78 112.18-.65 14.32-9.01 7.85-5.1 20.57-17.21 1.4-1.33 3.28-3.35 4.65-4.71 52.86-52.87 54.86-122.44 59.28-202.22 6.05-109.09 72.23-254.53 104.61-362.35 77.11-256.77 195.53-73.5 16.67-403.15-37.26-68.69-90.29-211.94-116.02-294.91-5.29-17.04-9.75-31.06-13.37-42.66-11.35-36.31-12.92-52.06-29.23-82.85 126.07 0 197.49-42.55 238.76-134.89 23.25-52.02 12.88-196.77 27.08-271.75 6.5-34.34 3.37-44.3 4.66-79.39 2.68-72.8 69.67-92.97 127.13-125.05 115.64-64.56 415.37-126.88 546.23-126.38l322.84-13.48c96.49-13.94 191.54-25.41 279.96-56.35 104.41-36.54 102.12-103.19 163.02-173.23 0 48.69 5.79 56.81 8.85 93.88 5.73 69.25-17.88 144.63 41.48 191.99 35.86 28.61 91.21 25.66 118.77 4.55l9.8-8.88c56.87-54.47 50.72-141.33 62.98-189.88l-8.11-138.55c.51-63.11-10.99-97.97-18.15-149.95-10.37-75.31-36.48-139.78-62.43-208.41l-5.54-13.13c-7.31-21.18-6.02-6.21-7.89-38.8-10.25-178.54-27.83-293.46-27.35-458.25L5924.5 9410.98c-26.19-133.68-79.08-261.28-112.9-391.41l-60.06-192.11c-6.09-17.18-2.96-11.12-7.81-29.54l-15.94-49.44c-.77-2.3-1.47-4.8-2.23-7.11l-57.61-166.53c-10.15-29.97-10.92-24.69-22.38-61.67-7.92-25.55-11.88-38.7-19.76-64.3l-78.54-210.98c-7.18-19.49-4.66-13.93-12.93-33.77-8.81-21.15-15.37-40.76-23.56-60.5l-121.01-308.6c-349.11-777.48 198.79 372.74 293.71 621.57l144.58 387.77c.82 2.13 1.81 4.57 2.67 6.66l22.73 61.33c7.32 26.67 11.22 37.25 18.19 56.53l18.48 46.89c7.84 22.76 7.9 37.14 14.82 59.89 7.36 24.17 7.28 13.11 17.57 47.81 4.67 15.76 11.62 40.95 16.94 57.77l182.5 732.73c4.68 21.43 5.65 43.64 9.51 65.21l63.53 356.71 52.48 769.31c-1.82 311.94 183.51 222.66 187.41 47 3.29-148.28 11.86-306.59.06-449.16-5.18-62.51 7.1-132.16-5.84-190.26-12.91-57.95-18.78-109.62-22.79-173.33l-59.63-341.94c-9.41-35.61-9.04-49.45-16.66-86.07l-21.06-81.67c-6.62-38.93-9.21-42.48-19.61-73.78l-229.66-1273.9c-61.65-299.54-155.49-590.68-260.69-878.69l-30.61-72.12c-.95-1.88-2.36-4.16-3.33-6.01l-170.83-370.87c-.99-1.84-2.3-4.21-3.29-6.05l-215.73-372.68c-13.97-23.88-20.47-37.53-35.11-58.29L5188.57 6514c-44.9-59.43-92.06-121.92-145.42-172.14-1.4-1.32-3.39-3.24-4.77-4.57-2.53-2.43-13.66-13.61-14.04-13.99-1.33-1.38-3.28-3.34-4.6-4.74l-74.65-84.28c-17.31-15.04-59.89-55.58-74.91-10.73-5.77 17.24 12.55 42.75 13.42 81.68z"/><path class="fil0" d="M6471.83 11534.63l54.14-104.64c6.43-10.63 5.19-6.68 14.94-22.41 10.33-16.66 8.35-15.52 16.62-30.08 11.3-19.87 18.15-27.11 32.84-51.22 41.33-67.83 80.63-142.07 143.05-183.85-35.05 131.19-99.44 378.72-261.59 392.2zm1195.84-261.47c-47.72 0-62.99-5.43-94.65-36.13-1.38-1.33-3.27-3.35-4.63-4.71l-57.8-63.62c-23.69-25.18-26.51-15.16-29.77-54.29 28.92-7.72 7.41 1.3 31.54-15.16 32.23-21.97-19.62 15.02 10.34-8.34 76.98-60.01 143.05-88.56 247.74-88.56 0 80.17-13.01 131.67-36.7 196.78-6.22 17.11-2.47 14.44-13.55 33.15-9.78 16.51-30.96 40.88-52.52 40.88zM5135.85 6221.18zm0 0c-47.44-3.94-174.4-84.38-228.3-107.98-35.23-15.43 7.38-9.25-42.63-13.41 9.48 35.48 221.34 176.26 254.46 203.23l452.82 471.87L5770.1 7072c1.03 1.78 2.46 4.08 3.49 5.86 1.02 1.77 2.44 4.09 3.46 5.87l6.71 11.97c1.38 2.46 5.24 9.61 6.64 12.05l22.09 33.94c87.33 132.84 194.39 362.73 268.82 515.71 7.51 15.42 9.08 17.63 19.27 36.77 2.97 5.58 5.4 10.23 9.65 18.37l154.65 331.01c11.93 25.63 27.93 63.73 36.15 85.27 12.26 32.14 17.48 54.76 30.14 81.93.91 1.95 2.17 4.3 3.12 6.21l321.93 882.86L6792.09 9599c33.79 126.49 69.11 298.77 105.61 408.05 38.47 115.16 65.89 250.32 98.26 368.69 23.32 85.26 49.8 188.38 84.76 270.13l194.56 449.87-242.81 289.57c-1.26 1.47-3.01 3.61-4.29 5.05l-28.02 28.02c-80.33 70.88-171.6 150.23-265.19 201.85-83.34 45.96-197.91 63.81-291.17 63.81 25.28-37.73 95.32-65.62 137.66-95.85l99.63-96.52c54.12-64.69 151.6-352.74 99.04-405.27-31.54-31.53-95.79-1.26-120.26 29.2l-287.22 487.98c-38.31 36.73-73.82 117.52-27.05 159.92 130.73 118.54 584.48-62.76 667.53-173.4 25.06-33.38 121.3-105.35 160.42-147.82l102.57-112.25c1.35-1.37 3.43-3.19 4.81-4.54 9.62-9.42 8.62-7.87 18.97-18.39 1.9-1.93 7.31-7.53 9.18-9.5l59.63-61.79 119.32 151.54c67.38 65.67 184.76 99 272.15 52.99 77.91-41.03 118.31-85.07 149.55-168.02 34.4-91.37 78.56-317.6 6.43-387.61-99.22-96.29-260.01-60.88-366.03-9.18-46.18 22.52-141.5 101.03-172.08 108.15l-107.74-219.15c-6.44-16.71-10.41-32.75-16.03-49.34l-258.98-1001.8c-4.56-29.71-3.06-30.18-9.38-55.99-35.9-146.65-86.79-400.16-131-532.07-36.78-109.7-56.19-241.1-104.46-353.16l-132.35-399.99c-8.72-24.89-12.05-26.8-20.17-45.22l-115.96-285.63c-75.96-183.65-158.53-365.22-252.46-541.41-.98-1.85-2.29-4.21-3.28-6.05l-84.7-158.13c-65.13-120.26-131.51-238.33-210.23-350.17l-192.2-256.12c-12.68-15.3-16.69-20.71-29.36-36.02l-343.08-320.1c-79.15-61.94-77.66-38.89-135.64-135.23-33.93-56.39-62.33-110.54-95.72-165.79-66.11-109.43-122.39-228.15-224.1-308.28-27.26-21.48-36.04-45.8-47.5-83.26l-56.14-214.69c-5.74-27.42-8.69-28.17-14.86-50.52-5.39-19.54-7.87-39.12-10.13-55.24-1.23-8.73-1.62-16.3-3.37-24.64-8.5-40.56.48.13-8.91-28.45-18.21-55.37-2.77-131.32-45.52-159.94 0 174.8-2.43 276.7 9.35 448.23 3.37 49.16 9.04 35.91 17.51 75.88 18.2 85.95 28.51 141.45 93.8 195.72 1.49 1.24 3.67 2.95 5.15 4.19 59.89 50.43 106.09 112.04 153.23 173.69l32.5 42.22c33.19 44.02 81.76 84.89 99.53 133.96zm-3316.59 5901.76c0-62.17-37.88-130.79-53.6-189.22l-129.37-477.67c-42.47-164.12-100.56-331.22-125.12-500.6-5.15-35.5-6.42-70.27-13.41-107.99-44.21-238.5-30.25-655.84 1.59-893.25 5.59-41.67 10.11-110.62 11.48-147.28 4.12-110.27 48.26-265.95 66.86-381.4l30.5-128.26c32.32-138.31 107.88-391.71 167.67-514.1 9.4-19.23 14.69-34.03 23.42-51.3l188.87-371.51c1.05-1.75 2.47-4.07 3.51-5.83l16.53-30.17c73.79-124.69 148.88-254.63 236.75-370.34l291.23-390.59c13.91-18.65 16.45-28.22 29.16-45.56 20.62-28.14 47.15-55.29 66.77-82.67l253.45-325.64c1.18-1.55 2.85-3.75 4.05-5.29 1.2-1.54 2.9-3.7 4.11-5.23 1.21-1.51 2.97-3.64 4.19-5.15l36.89-47.17c4.5-6.19 12.46-17.48 16.08-21.28 13.46-14.13 5.46-12.1 26.86-19.84-14.16 60.74-49.52 119.64-75.93 176.23l-196.34 494.78c-45.18 107.66-75.18 223.81-116.29 332l-85.72 259.83c-10.18 34.88-13.48 32.6-23.37 60.68-45.95 130.41-77.41 267.64-125.6 397.4l-58.88 211.96c-10.64 62.65-81.02 233.58 46.84 233.58 36.66 0 51.43-42.65 61.74-69.02 10.21-26.1 3.76-4.9 12.82-33.88 15.02-48.04 25.75-86.83 39.49-137.96 58.7-218.53 153.07-504.22 238.98-713.62 28.15-68.6 71.4-191.98 105.15-244.65 7.44-11.6 12.67-43.36 24.93-73.44 1.98-4.85 20.16-35.39 20.46-35.7 39.57-42.03 55.36-105.48 83.82-168.35 50.14-110.79 122.43-214.42 184.49-319.86l279.61-383.53c1.25-1.48 2.98-3.64 4.23-5.11 83.26-98.6 173.79-186.24 271.66-270.08l10.11-8.58c2.15-1.68 8.64-6.2 10.88-7.8 61.55-43.83 197.51-143.12 267.88-143.12 18.09 0 30.4 12.7 56.06 18.68-58.95-88-174.9-3.02-269.68 47.94-66.54 35.78-128.18 82.78-188.19 129.39l-157.74 141.16a513.498 513.498 0 0 0-9.65 9.03l-121.5 130.69c-7.72 8.11-1.28-.27-13.32 14.71-7.74 9.63-10.35 14.93-15.4 21.95l-110.67 141.51c-18.33 25-33.34 42.62-51.92 69.51l-138.2 207.37c-7.05 9.88-11.21 14.13-16.81 20.56 7.3-87.59 137.78-330.94 177.44-429.63 10.7-26.6 18.86-41.98 31.51-71.22l33.08-69.66c12.96-29.67 21.77-36.21 34.45-68.28 24.88-62.92 99.97-235.68 136.6-274.35 19.07-20.13 31.59-29.67 50.75-52l44.17-58.57c7.58-13.22 9.72-21.58 14.32-32.37 6.19-14.51 2.43-7.35 8.74-19.29 11.49-21.77 10.81 4.49 10.81-17.2 0-75.11-48.6-121.4-121.45-121.4-66.46 0-264.18 186.59-321.17 239.27-58.27 53.87-106.65 118.39-159.54 176.71-86.43 95.31-208.36 255.01-277.82 357.31-68.14 100.33-152.4 193.47-216.15 297.55-17.9 29.23-27.55 46.21-47.58 73.84-20.41 28.15-37 45.89-55.18 75.58l-165.92 254.38c-124.89 208.04-238.18 418.17-342.43 638.24l-117.2 275.06c-12.36 32.33-15.28 63.59-26.63 94.77-84.6 232.34-138.07 477.85-168.62 727.93-19.38 158.57-36.23 318.22-35.63 477.99.32 86.55-17.67 155.61-8.01 241.4 8.66 76.93 8.37 163.03 7.85 253.62l14.65 237.49c12.36 84.88 20.76 146.66 33.44 228.05l35.93 150.84c7.01 24.6 11.34 28.76 16.12 49.26 10.76 46.07 10.56 62.94 24.84 105.9 12.38 37.23 18.43 61.45 30.55 100.21l180.99 584.82c12.06 32.44 18.77 63.04 31.89 98.87 12.62 34.47 17.47 69.42 42.79 87.96zM3641.05 2037.66c20.48-30.57 24.44-12.99 28.03-56.03 51.31 13.7 71.46 70.7 121.45 84.05v18.67c-140.18 0-273.43 185.11-345.68 233.46 6.9-25.83 32.4-60.47 48.05-82.71l11.96-16.06c45.61-63.31 108.73-163.54 210.93-172.04-5.81-8.35-8.04-35.22-74.74-9.34zm439.05 1662.2v420.27l-9.25-.02c0-73.41-3.69-11.03 18.64-37.33 18.58 2.97 9.6-7.13 9.91-45.48.22-27.25-1.63-46 1.92-73.47l31.42-342.13c9.28-36 11.83-18.12 12.8-61.91 119.59 80.04 65.48 112.06 289.62 112.06v-18.68c-108.52 0-194.31-54.49-243.06-149.25-14.59-28.37-37.75-61.96-37.75-102.55-.01-39.37 15.97-73.64 18.84-112.76 3.54-48.16 1.87-84.91 7.17-123.57 10.93-79.72 8.49-193.36-6.79-258.92 69.78-5.81 106.72-40.33 140.09-93.43 51.66-82.19 60.73-184.64 65.67-280l3.84-240.35c-4.18-110.84-80.56-216.91-144.12-292.11-43.38-51.33-81.84-105.6-157.69-91.88-39.69 7.18-5.81 3.91-26.89 8.34-36.73 7.72-61.86-23.69-110.59-16.08-55.41 8.65-65.31 30.04-105.48 15.55-33.57-12.11-234.05-167.09-253.41 65.47-98.36 0-152.85-35.78-240.87-58.98-88.62-23.36-132.83 72.17-132.83 152.36 24.67-18.06 19.15-25.68 31.41-52.65l13.76-23.61c29.74-41.34 59.55-47.58 107.7-20.66 23.11 12.92 16.56 12.37 40.87 24.68 57.97 29.36 95.38 53.57 170.62 53.57-5.76 5-11.19 10.28-20.52 16.83l-221.63 198.7-160.52 222.43c-46.06 80.08-16.72 207.41 95.89 171.06 56.21-18.13 61.6-46.66 110.59-58.07 0 106.87 15.75 70.58 56.05 130.74-22.15 33.06-189.75 157.18-229.47 190.85-121.57 103.05-204.15 304.02-168.93 468.83l24.7 50.02c0-102.8 6.44-130.21 33.58-209.22 18.58-54.06 42.03-86.69 77.95-127.53l17.92-19.44c65.71-69.2 178.45-122.2 266.92-162.77 32.84-15.06 18.05-9.58 41.88-23.51l370.62-245.87c1.36-1.35 3.34-3.28 4.71-4.63l53.34-58.74c34.78-49.47 80.76-103.02 86.02-166.15 34.21 25.05 30.16 95.67 16.01 127.81-.9 2.03-2.3 4.24-3.18 6.29l-12.01 44.15c-2.72 25.05-.6 57.7-.53 83.51.19 69.35-20.19 224.64-37.63 279.88-27.22 86.22-36.66 148.07-115.71 201.85-79.76 54.26-93.65 59.62-183.96 58.92-48.47-.38-45.22-7.25-64.72 19.35 138.74 32.31 149.63 105.01 329.12 11.47l49.94-24.79c19.68-12.58 21.8-20.29 41.35-33.37 2.38 28.55 11.78 89.94 15.86 114.88 6.71 40.94 16.8 77.02 20.37 110.38 9.09 85.04-3.3 158.76 10.44 269.66z"/><path d="M4089.49 4082.78c-22.33 26.3-18.64-36.08-18.64 37.33l9.25.02 5.06-665.74c-25.4 12.7-25.46 264.64-24.38 319.84l-4.26 126.96-3.91 116.67c-9.46 114.29 25.18 207.47 30.99 265.14 3.46 34.38-3.31 56.14-35.76 62.24-33.94 6.37-73.94 25.69-200.59-1.71-123.71-26.77-250.15-67.49-374.62-73.79-93.82-4.74-114.91 6.45-134.97-42.51l-45.8-131.64c-15.68-46.45-27.31-92.17-43.18-134.27l-40.69-137.4c-20.56-86.56-1.52-83.37 72.8-63.12l356.31 83.09c154.46 21.62 202.5 9.54 240.25-131.95 23.17-86.83 29.59-293.21 15.95-357.59h-18.69c-8.52 36.58-19.21 61.97-27.07 94.34l-103.72 260.51-167.79-28.39c-102.03-22.74-590.76-196.29-455.74 166.04l170.91 380.12c15.54 35.73 9.29-8.26 13.52 42.53-83.44 1.85-105.09 80.05-112.62 159-6.52 68.29 10.44 166.43 29.35 232.39 10.1 35.25 20.4 68.72 32.4 107.68l55.8 149.67c18.76 51.7 46.78 111.56 51.12 163.68h18.69c0-62.78-29.37-120.88-41.34-182.79-8.56-44.27-15.16-55-23.49-88.59-14.86-59.88-89.42-489.92 27.46-457 16.95 4.77 55.54 91.83 74.74 112.06-3.56-42.75-24.55-60.97-28.03-102.72 182.76 0 475.99 134.06 607.94 148.75 284.01 31.62 406.43-120.74 625.27-120.74 53.65 101.35 36.47 162.83 28.67 271.45l-46.21 215.28c-31.85 107.11-214.12 448-244.05 456.43-17.37 4.89-270.46-106.81-313.61-125.42l-190.88-80.02c25.54 48.27 218.39 137.18 278.14 170.22l121.78 65.04c21.5 10.85 37.15 21.69 57.86 35.55-28.38 53.6-31.78 66.61-111.64 65.84-81.18-.78-290.02 2.5-349.07 24.62-51.3 19.23-90.99 92.73-35.78 144.32 6.86 6.42 19.84 14.7 28.47 18.27 22.13 9.16 48.66 11.91 83.68 7.62 26.31-3.21 50.81-13.84 77.08-16.83 95.28-10.86 262.74-6.75 357.74 13.86 36.41 7.9 38.27 13.11 80.31 13.11-40.25 54.91-392.16 79.76-485.21 103.32-113.96 28.85-251.06 59.24-364.88 64.84-56.74 2.79-115.88-11.23-152.19 16-39.48 29.62-40.14 80.1-8.98 116.8 50.08 58.97 220.55 15.99 301.01 16.32 117.83.49 231.02-13.18 317.5-14.59 338.93-5.54 585.51-78.08 607.63-78.57v-28.02c-77.64 0-129.56 9.34-214.88 9.34 20.29-27.67 144.75-65.83 188.36-91.87l54.89-47.86c27.81-36.16 37.58-94.26 6.93-138.32-26.9-38.66-70-72.69-119.38-76.8 7.67-32.93 9.34-30.68 9.34-74.71l-140.14-74.7 51.06-61.03c7.15-8.46 11.1-12.99 16.98-20.38 71.27-89.67 127.5-184.48 186.09-280.9 97.38-160.25 161.93-460.97 114.35-631.66-8.14-29.2-12.6-35.35-20.58-54.14l-17.3-38.73c-100.9-168.98-325.74-65.51-469.55-13.89-17.62 6.32-35.64 10.97-56.01 18.72-145.2 55.31-173.08 73.3-169.64-66.84 1.23-50.34 9.59-77.39 9.59-139.78zM2435.86 6986.92c38.8-10.36 44.17-37.86 87.64-89.83l89.93-124.89c1.17-1.58 2.82-3.78 3.97-5.37 1.15-1.6 2.76-3.83 3.9-5.44 2.65-3.77 9.73-14.81 11.16-16.86 16.22-23.19 23.25-26.09 40.14-53.26l130.1-234.15c32.93-69.05 126.58-344.82 128.32-422.7-26.47 17.72-52.68 77.29-68.44 109.02l-109.68 198.54c-4.79 8.94-10.98 20.56-16.16 30.54l-122.04 242.2c-14.21 32.79-18.13 33.26-31.84 61.56-12.17 25.14-17.25 38.34-29.91 63.48l-55.64 121.82c-7.82 17.47-9.65 18.63-15.92 30.77l-31.38 62.02c-6.52 13.1-8.76 21.33-14.15 32.55z" fill="#2d261e"/><path d="M4593.98 3821.26c29.97-8 26.5-12.51 50.34-33.73 37.53-33.39 118.12-95.53 164.54-106.34 21.68 32.36 24.21 26.59 40.1 81.31 27.86 95.91 16.09 248.06-6.12 335.52l-15.29 218.17 90.35-301.9c49.85-195.28-14.09-515.04-201.61-332.25-1.37 1.34-3.34 3.28-4.69 4.65l-79.71 79.08c-1.41 1.31-3.46 3.16-4.86 4.48-19.89 18.86-26.79 24.18-33.05 51.01z" fill="#2f2820"/></g></svg>