<svg xmlns="http://www.w3.org/2000/svg" height="480" width="256"><path d="M110.52 480.257c-.352-.144-.928-.582-1.28-.973-.622-.692-.636-1.045-.48-12.598.24-17.845.193-41.21-.086-42.206-.135-.484-.447-.88-.693-.88-.246 0-.496-.114-.554-.254-.127-.302-2.314-1.666-2.671-1.666-.216 0 .047 9.992.346 13.12.276 2.892.135 27.486-.162 28.267-.185.486-.569.85-.892.848-1.167-.01-1.492-.551-1.63-2.707-.074-1.164-.225-2.069-.336-2.012-1.946 1.005-1.954 1.006-3.09.464-1.38-.657-1.513-1.804-.302-2.597.446-.292.726-.668.623-.835-.103-.167-.33-1.204-.505-2.306-.174-1.1-.45-2.434-.612-2.962-.162-.528-.512-1.752-.778-2.72-1.263-4.603-1.85-6.612-2.104-7.2-.152-.352-.374-1.144-.492-1.76-.119-.616-.327-1.264-.462-1.44-.135-.176-.353-.824-.483-1.44s-.377-1.21-.549-1.318c-.17-.11-.248-.47-.17-.8.105-.45.304-.24.792.838.359.792 1.05 2.304 1.537 3.36 2.437 5.285 6.233 14.864 6.233 15.727 0 .259.126.393.28.297.155-.095.376-4.891.492-10.658.116-5.767.342-11.71.503-13.206.161-1.496.38-4.376.487-6.4l.194-3.68-1.679-1.28c-.924-.704-1.904-1.511-2.178-1.794-.771-.794-4.923-3.486-5.376-3.486-.221 0-.403-.127-.403-.283 0-.31-.075-.334-4.462-1.503-2.389-.636-3.764-.801-6.56-.79-1.946.006-3.898.077-4.338.156-.44.079-1.942.298-3.338.487-1.396.188-2.557.377-2.58.418-.645 1.165-2.787 3.694-3.79 4.477-2.083 1.624-2.63 1.838-4.696 1.838-1.862 0-1.985-.052-3.364-1.432-1.32-1.319-1.432-1.558-1.432-3.055 0-1.909.552-3.106 2.18-4.73 1.07-1.064 2.557-3.014 3.42-4.48.176-.298.392-.615.48-.703.46-.46 1.6-2.255 1.6-2.52 0-.169.117-.355.26-.413.339-.14 4.54-7.14 4.54-7.566 0-.18.123-.376.274-.434.316-.124 5.562-10.82 7.743-15.787.154-.352.8-1.936 1.433-3.52 1.467-3.664 2.025-4.981 2.406-5.676.167-.305.304-.847.304-1.204s.127-.899.283-1.204c.155-.306.428-.916.607-1.356.179-.44.555-1.326.837-1.968.282-.643.513-1.444.513-1.78 0-.336.27-.902.602-1.257.33-.356.76-1.382.952-2.28.193-.9 1.223-4.272 2.289-7.495s2.17-6.652 2.452-7.62c.283-.968.628-2.048.767-2.4.798-2.027 3.823-13.011 4.361-15.84.084-.44.34-1.448.57-2.24.4-1.375.95-3.905 1.917-8.8l.918-4.64c.69-3.486 1.128-6.204 1.485-9.22.173-1.463.374-2.76.448-2.88.074-.121.441-3.244.816-6.94.375-3.696.827-8.016 1.003-9.6.866-7.765 1.502-36.227.969-43.36-.204-2.728-.498-6.976-.654-9.44-.156-2.464-.414-4.825-.573-5.246-.268-.706-.348-.62-1.036 1.12-.41 1.037-.985 2.462-1.279 3.166-.293.704-.761 1.856-1.04 2.56-.278.704-.818 2.052-1.2 2.996-3.354 8.277-6.616 18.887-8.768 28.524-.986 4.418-3.122 16.734-5.938 34.24-1.445 8.985-3.913 26.017-5.75 39.68l-1.507 11.2c-.565 4.188-.626 4.835-.967 10.16-.116 1.804-.324 3.28-.463 3.28-.138 0-.262 1.188-.275 2.64-.013 1.452-.237 4.296-.498 6.32a246.605 246.605 0 0 0-.801 7.2c-.408 4.392-.546 5.198-.576 3.36-.035-2.132 1.256-17.135 1.695-19.7.092-.54.24-1.98.328-3.2.432-5.961 1.186-13.881 1.918-20.14.288-2.464.719-6.208.957-8.32.239-2.112.66-5.604.936-7.76l1.005-7.84c.277-2.156.703-5.504.947-7.44.551-4.37 1.245-9.479 1.913-14.08.281-1.936.713-5.032.96-6.88 2.081-15.594 4.726-29.26 7.525-38.88.694-2.386 3.242-9.914 3.698-10.928.25-.555.454-1.23.454-1.501 0-.271.128-.572.285-.67.156-.096.38-.572.496-1.058.26-1.08 2.125-6.2 2.421-6.643.118-.176.537-1.256.932-2.4.394-1.144.848-2.327 1.008-2.63.16-.301.427-1.093.595-1.76 1.14-4.528 1.502-5.21 2.77-5.21 1.123 0 2.053 1.43 2.055 3.163.001.812.138 2.341.303 3.397.165 1.056.377 2.712.47 3.68.093.968.387 3.992.653 6.72 2.132 21.834 1.196 53.253-2.249 75.52-1.39 8.987-2.351 14.241-3.978 21.76a1492.46 1492.46 0 0 0-2.116 9.914c-.757 3.615-4.702 18.91-6.067 23.526-.468 1.584-.922 3.42-1.009 4.082-.086.661-.285 1.282-.443 1.379-.157.097-.286.571-.286 1.054 0 .482-.123 1.014-.272 1.181-.15.167-.527 1.24-.837 2.384-1.685 6.213-6.862 20.424-9.617 26.4-2.45 5.315-3.011 6.658-2.875 6.878.086.14.697.134 1.357-.015 5.626-1.269 14.743-.24 20.111 2.27 1.115.52 2.176.947 2.36.947.183 0 .333.144.333.32 0 .176.161.32.358.32.353 0 4.13 2.175 4.442 2.557.088.108.736.542 1.44.963.704.421 1.352.858 1.44.97.088.113.825.591 1.637 1.063 1.162.675 1.547.77 1.81.452.183-.223.433-1.917.554-3.765.372-5.65 1.287-7.918 4.381-10.86 1.193-1.134 1.798-1.62 2.017-1.62.27 0 2.222-1.396 2.348-1.68.058-.132.259-.24.445-.24s1.002-.308 1.813-.683c5.59-2.59 16.836-5.46 24.195-6.175 2.104-.204 4.485-.351 13.022-.805 3.962-.211 5.946-.449 6.61-.793 1.45-.749 2.168-3.282 2.777-9.784.215-2.298.563-3.63 1.489-5.701.648-1.45 2.034-2.508 4.065-3.102l1.104-.323-.076-2.237c-.042-1.23-.13-2.741-.196-3.357-.066-.616-.274-3.28-.462-5.92-.403-5.662-1.18-13.36-1.601-15.84-.164-.968-.608-4.28-.986-7.36-.748-6.091-1.984-13.065-3.345-18.88-.268-1.144-.698-3.16-.956-4.48a105.075 105.075 0 0 0-2.084-8.8c-.394-1.408-.788-2.958-.876-3.444-.087-.486-.286-.963-.442-1.059-.156-.096-.283-.45-.283-.785s-.199-1.227-.441-1.98c-.499-1.55-1.085-3.479-2.118-6.972-1.12-3.79-4.45-13.87-4.759-14.41-.154-.27-.39-.986-.522-1.59-.133-.604-.356-1.32-.495-1.59-.14-.27-.565-1.426-.945-2.57s-.824-2.33-.986-2.636c-.162-.305-.294-.787-.294-1.071 0-.284-.206-.97-.459-1.525-.252-.554-.985-2.304-1.63-3.888-.644-1.584-1.276-3.024-1.406-3.2-.129-.176-.498-1.04-.819-1.92-.321-.88-1.066-2.637-1.655-3.905-.59-1.268-1.071-2.43-1.071-2.58 0-.151-.36-1.021-.8-1.934-.44-.912-.8-1.744-.8-1.85 0-.106-.701-1.655-1.559-3.442a304.23 304.23 0 0 1-2.28-4.849 740.16 740.16 0 0 0-1.481-3.26c-.418-.912-.76-1.812-.76-2 0-.187-.144-.34-.32-.34-.176 0-.32-.155-.32-.345 0-.19-.521-1.45-1.158-2.8-4.139-8.77-5.43-11.606-6.72-14.764a167.899 167.899 0 0 0-1.549-3.691c-1.42-3.148-2.16-6.052-1.988-7.806.184-1.89.762-4.847.992-5.077.53-.53 2.639-.928 3.44-.65 1.198.418 4.603 4.136 6.123 6.687a279.83 279.83 0 0 0 1.518 2.526c1.4 2.25 4.142 7.106 4.142 7.337 0 .16.108.338.24.396.382.17 2.593 4.428 8.529 16.427 7.229 14.614 8.511 17.284 8.511 17.719 0 .198.133.361.295.361.162 0 .393.468.514 1.04.12.572.555 1.688.965 2.48.911 1.762 2.16 4.574 2.7 6.08.22.616.6 1.574.844 2.128.243.555.442 1.091.442 1.192 0 .168 1.01 2.505 2.093 4.84.245.528.742 1.752 1.105 2.72.363.968.793 2.048.955 2.4.162.352.814 1.936 1.448 3.52a188.135 188.135 0 0 0 1.575 3.84c.233.528.686 1.68 1.007 2.56.321.88.683 1.672.804 1.76.12.088.29.448.379.8.402 1.609.18-2.355-.264-4.713-1.079-5.73-3.885-17.797-5.155-22.167-1.09-3.749-1.534-5.139-1.737-5.44-.119-.176-.313-.824-.432-1.44-.118-.616-.34-1.408-.492-1.76-.153-.352-.53-1.504-.838-2.56-.501-1.716-3.222-9.24-3.934-10.88a104.22 104.22 0 0 1-.852-2.08 123.77 123.77 0 0 0-1.159-2.782c-.32-.739-.583-1.413-.583-1.498 0-.085-.432-1.089-.96-2.23-.528-1.14-.96-2.23-.96-2.422 0-.191-.144-.348-.32-.348a.33.33 0 0 1-.32-.338c0-.498-1.07-2.842-3.352-7.342-3.333-6.575-3.837-7.515-4.088-7.627-.132-.058-.24-.254-.24-.434 0-.633-5.837-9.97-8.29-13.262a41.386 41.386 0 0 1-.99-1.4c-.264-.393-.632-.878-.817-1.076-.185-.199-1.255-1.585-2.376-3.081-1.927-2.57-3.093-3.817-3.585-3.833-.12-.004-.28.317-.356.713-.12.617-.145.595-.182-.16-.035-.705.095-.88.657-.88.645 0 2.598 1.876 6.264 6.019.576.65 1.512 1.693 2.08 2.318a39.57 39.57 0 0 1 1.835 2.189c.44.578 1.232 1.596 1.76 2.261s1.141 1.48 1.363 1.811c.222.331 1.086 1.571 1.92 2.756 1.943 2.759 4.87 7.355 5.864 9.206.425.792.845 1.512.933 1.6.416.417 7.887 15.15 8.6 16.962a77.4 77.4 0 0 0 1.084 2.558c.354.792.76 1.728.902 2.08.142.352.541 1.288.886 2.08s.877 2.232 1.184 3.2c.306.968.68 1.897.83 2.064.15.167.275.527.276.8 0 .273.212.898.468 1.39.256.491.56 1.393.674 2.003.115.61.324 1.181.464 1.268.141.087.353.733.472 1.435.119.702.347 1.358.508 1.457.16.1.292.44.292.757 0 .318.365 1.713.812 3.102.447 1.388 1.01 3.316 1.254 4.284.243.968.734 2.912 1.092 4.32 1.223 4.818 2.313 9.902 3.054 14.24.255 1.496.687 4.016.959 5.6a253.9 253.9 0 0 1 .844 5.28 824.26 824.26 0 0 0 1.74 11.36c.282 1.76.655 4.496.827 6.08.172 1.584.398 3.096.5 3.36.213.547.658 2.236 1.855 7.04.46 1.848.916 3.648 1.013 4 .313 1.138 1.108 4.753 1.436 6.53.175.952.392 1.849.48 1.993.316.511 1.859 10.225 2.56 16.117 1.187 9.99 1.327 25.147.27 29.25-.749 2.9-2.08 3.925-3.985 3.066-1.665-.75-1.89-1.831-2.29-11.036-.18-4.136-.37-8.096-.422-8.8-.053-.704-.2-2.864-.327-4.8-.128-1.936-.267-3.808-.31-4.16a903.71 903.71 0 0 1-.456-4c-.808-7.183-2.828-18.472-5.01-28-1.086-4.745-1.366-5.878-2.371-9.6-.57-2.112-1.228-4.56-1.461-5.44-.403-1.52-.863-3.11-1.946-6.72-.264-.88-.67-2.248-.902-3.04-.231-.792-1.07-3.168-1.862-5.28a314.752 314.752 0 0 1-2.298-6.322c-.47-1.365-1.062-2.877-1.314-3.36-.252-.483-.459-1.025-.46-1.205-.002-.337-1.696-4.929-2.24-6.073-.167-.352-.598-1.406-.957-2.341-.755-1.969-2.378-5.594-3.058-6.828-.257-.468-.467-.996-.467-1.174 0-.179-.648-1.693-1.44-3.365-.792-1.673-1.44-3.116-1.44-3.208 0-.385-4.813-10.487-5.13-10.764-.247-.218-1.083-2.975-1-3.304.036-.145-.066-.182-.228-.082-.272.168-.854-1.27-.735-1.814.03-.132-.106-.24-.301-.24s-.272-.216-.17-.48c.126-.328-.019-.48-.458-.48-.51 0-.623.182-.55.88.05.484.244 1.024.429 1.2.185.176.69 1.112 1.12 2.08.43.968.886 1.807 1.013 1.863.126.057.322.597.435 1.2.114.604.334 1.097.49 1.097.157 0 .285.213.285.474 0 .26.356 1.376.79 2.48 1.337 3.39 4.972 12.786 5.668 14.646.361.968.784 2.01.94 2.316.155.305.283.737.284.96 0 .222.212.807.47 1.3.256.493.602 1.357.768 1.92.477 1.623 2.904 8.638 3.232 9.344.164.352.436 1.144.604 1.76.169.616.808 2.56 1.42 4.32 1.064 3.062 1.458 4.353 2.635 8.64.29 1.056.716 2.496.948 3.2.231.704.643 2.072.915 3.04 1.24 4.424 1.874 6.621 2.123 7.36.148.44.513 1.952.812 3.36.299 1.408.737 3.424.975 4.48.237 1.056.58 2.712.762 3.68.182.968.55 2.696.816 3.84 1.006 4.307 1.507 6.98 1.923 10.24l.774 6.08c.19 1.496.421 3.224.513 3.84.093.616.304 2.272.47 3.68.167 1.408.452 3.352.634 4.32.182.968.47 3.848.642 6.4.586 8.758.951 13.922 1.106 15.66.085.957.244 3.189.353 4.96.139 2.26.468 4.03 1.104 5.94 3.097 9.298 3.723 18.824 1.528 23.26-.955 1.932-2.888 2.595-5.005 1.718-1.293-.535-1.692-1.642-1.856-5.138-.078-1.672-.188-3.4-.244-3.84a26.44 26.44 0 0 1-.143-1.52c-.065-1.141-.575-.845-1.379.8-1.466 3.002-3.711 4.722-7.782 5.963-2.385.728-6.815 1.156-15.2 1.47-7.938.297-11.353.748-17.12 2.262-5.332 1.4-8.552 2.65-10.99 4.272-2.628 1.747-2.525 1.395-2.91 9.967-.217 4.828-.366 5.982-.908 7.044-1.401 2.748-3.923 4.302-6.979 4.302-1.441 0-1.731.094-1.723.56.01.562.955 3.482 1.32 4.08.107.176.3.824.43 1.44.128.616.342 1.264.474 1.44.132.176.632 1.51 1.111 2.965.479 1.454 2.061 5.046 3.517 7.982 1.455 2.936 2.58 5.587 2.5 5.893-.08.305-.576 1.033-1.102 1.618-1.39 1.542-2.219 3.34-4.07 8.835-2.26 6.704-3.228 10.465-3.231 12.547-.005 3.107-.735 4.677-2.87 6.168-.827.577-2.596.697-3.689.25zm9.713-30.38l.753-.772-.645-1.313c-.746-1.518-2.621-7.048-2.621-7.73 0-.254-.134-.462-.299-.462-.164 0-.358-.396-.432-.88-.487-3.215.076 8.305.622 12.72l.178 1.44.845-1.116a24.387 24.387 0 0 1 1.599-1.887zm-101.048-52.65c-.014-.338.062-.527.168-.42.107.106.118.382.026.613-.103.255-.178.18-.194-.193zm-.345-1.395c0-.37-.131-.755-.292-.855-.16-.1-.39-.755-.508-1.457-.119-.702-.347-1.358-.508-1.457-.16-.1-.292-.455-.292-.79 0-.336-.198-1.228-.44-1.982-.243-.754-.975-3.099-1.627-5.211-.653-2.112-1.308-4.2-1.456-4.64-.148-.44-.582-1.88-.963-3.2a160.893 160.893 0 0 0-1.432-4.64c-.98-2.977-1.55-5.111-2.394-8.96-.386-1.76-.772-3.416-.858-3.68-.4-1.222-1.4-8.264-1.577-11.092A211.621 211.621 0 0 0 6.035 342c-.33-3.413-.317-23.124.017-25.92.136-1.144.342-3.376.457-4.96.622-8.527 2.806-20.214 5.621-30.08.45-1.574 2.181-6.806 2.543-7.68.145-.352.59-1.576.988-2.72.398-1.144.826-2.224.952-2.4.126-.176.339-.679.474-1.117.135-.439.668-1.735 1.185-2.88a499.459 499.459 0 0 0 1.433-3.203c.686-1.559 3.991-8.18 4.953-9.92a606.947 606.947 0 0 0 3.669-6.72c.326-.616.674-1.192.773-1.28.374-.334 2.54-4.099 2.54-4.415 0-.183.108-.38.24-.438.284-.126 1.68-2.077 1.68-2.348 0-.102.147-.36.326-.573 1.294-1.534 1.594-1.972 1.594-2.328 0-.223.108-.453.24-.511.35-.156 1.68-2.108 1.68-2.467 0-.169.108-.355.24-.413.35-.156 1.68-2.108 1.68-2.467 0-.169.108-.355.24-.413.364-.162 1.68-2.115 1.68-2.494 0-.183.108-.334.24-.335.132-.001.595-.541 1.028-1.2a81.81 81.81 0 0 1 2.16-3.042c.755-1.014 1.372-1.924 1.372-2.022 0-.099.18-.368.4-.598.22-.23.616-.74.88-1.133.728-1.084 8.38-11.306 8.775-11.721.19-.2.561-.683.825-1.073.264-.39.743-1.018 1.064-1.396a72.128 72.128 0 0 0 1.746-2.21c.639-.838 1.276-1.523 1.416-1.523.14 0 .254-.151.254-.336 0-.563 8.645-9.018 11.12-10.876 1.276-.958 2.32-1.85 2.32-1.985 0-.134.198-.243.44-.243.243 0 .618-.213.834-.473.585-.705 2.228-1.447 3.202-1.447.514 0 1.359.434 2.11 1.083 1.142.987 1.253 1.223 1.245 2.64-.011 2.023-.754 3.482-2.94 5.773-1.476 1.549-2.303 2.947-4.886 8.264-1.71 3.52-3.335 6.904-3.61 7.52l-1.357 3.04a261.457 261.457 0 0 1-1.76 3.84c-1.422 3.028-4.477 10.046-4.489 10.316-.006.134-.289.82-.629 1.524-.34.704-.623 1.5-.63 1.769-.005.269-.237.812-.514 1.208-.277.396-.444.896-.37 1.111.132.39 2.766-3.38 3.638-5.208.126-.264.312-.552.413-.64.32-.28 1.623-2.206 1.623-2.4 0-.103.147-.36.328-.574 1.08-1.274 4.472-6.07 4.472-6.323 0-.167.13-.303.289-.303.158 0 .554-.414.88-.92 1.553-2.418 9.864-11.088 13.071-13.636a72.032 72.032 0 0 0 1.96-1.597c.2-.18.684-.543 1.078-.807a35.083 35.083 0 0 0 1.45-1.04c.403-.308.878-.56 1.056-.56a.49.49 0 0 0 .43-.283c.105-.28 5.275-3.235 5.665-3.239.11 0 .633-.228 1.161-.504s1.68-.558 2.56-.627l1.6-.126-1.745.316c-.96.174-1.824.426-1.92.56-.096.135-.931.598-1.855 1.03-.924.431-1.68.894-1.68 1.029 0 .134-.157.244-.35.244-.192 0-.68.252-1.083.56-.403.308-1.058.776-1.454 1.04-2.007 1.335-4.239 3.29-7.79 6.824-3.339 3.322-4.75 4.89-7.724 8.591-.915 1.139-4.639 6.383-4.639 6.533 0 .088-.147.333-.327.546-.798.944-4.47 6.823-4.471 7.16-.001.205-.112.42-.247.48-.269.116-2.107 3.2-3.117 5.226-.351.704-.73 1.352-.84 1.44-.112.088-1.103 2-2.202 4.247-1.1 2.248-2.114 4.158-2.254 4.244-.139.086-.499.896-.799 1.8-.3.903-.89 2.15-1.312 2.772-.422.622-.84 1.5-.928 1.954-.089.452-.366 1.399-.616 2.103-.583 1.641-3.994 10.678-4.349 11.52-.713 1.695-5.64 16.97-6.71 20.8a146.726 146.726 0 0 1-1.15 3.931c-.241.754-.438 1.571-.438 1.816 0 .546-1.823 2.413-2.357 2.413-.213 0-.875-.407-1.471-.905l-1.084-.905.565-3.495c.504-3.12.935-4.92 1.793-7.495.146-.44.576-1.88.954-3.2.378-1.32.806-2.76.951-3.2.146-.44 1.018-3.176 1.939-6.08.92-2.904 1.79-5.568 1.932-5.92.142-.352 1.425-4.168 2.852-8.48 1.427-4.312 2.714-8.06 2.86-8.33.145-.27.368-.964.495-1.542.127-.578.433-1.437.68-1.91.245-.472.448-1.101.449-1.4.001-.297.135-.622.297-.723.163-.1.397-.644.521-1.208s.34-1.247.479-1.516c.14-.27.567-1.427.95-2.571.723-2.155.804-2.364 1.898-4.862.361-.827.657-1.698.657-1.936 0-.239.12-.57.267-.738.147-.167.525-1.024.84-1.904.673-1.876 1.204-3.126 2.457-5.785.504-1.07.916-2.053.916-2.185 0-.132.484-1.273 1.075-2.535 1.717-3.667 2.126-4.614 2.116-4.903-.01-.308-1.23 1.073-3.438 3.888a148.323 148.323 0 0 1-2.043 2.56c-1.254 1.493-4.662 5.847-5.385 6.88-.431.616-.995 1.336-1.254 1.6-.5.511-16.18 21.46-16.991 22.7a29.809 29.809 0 0 1-1.04 1.468c-.308.403-.56.824-.56.936 0 .112-.147.377-.326.59-1.294 1.534-1.594 1.972-1.594 2.328 0 .223-.116.453-.259.511-.142.059-1.032 1.403-1.979 2.987-.946 1.584-1.829 2.955-1.961 3.047-.133.091-.394.523-.58.96-.187.436-.48 1.009-.651 1.273-2.395 3.69-8.97 16.895-8.97 18.017 0 .228-.12.552-.268.719-.287.326-1.634 3.96-3.195 8.624-1.136 3.394-2.96 10.146-3.718 13.76a221.607 221.607 0 0 1-.837 3.84c-.34 1.449-.703 3.63-1.588 9.545C7.605 326.642 7.459 348.9 9.262 358c1.27 6.414 3.479 15.419 5.258 21.44a195.38 195.38 0 0 1 1.764 6.4c.204.792.494 1.728.645 2.08.15.352.363 1.144.472 1.76.11.616.322 1.48.473 1.92.828 2.414 1.353 4.52 1.172 4.7-.113.114-.206-.097-.206-.468zm175.783-5.713c-.383-.087-.869-.365-1.079-.618-.21-.254-.564-.461-.786-.461-.222 0-.49-.324-.596-.72a5.362 5.362 0 0 1 2.035-5.733c.72-.52 1.34-1.374 1.73-2.38.56-1.442 3.987-8.502 5.034-10.367 2.088-3.72 4.79-6.72 6.053-6.72.36 0 .948.275 1.31.612.555.518.634.897.513 2.48-.183 2.412-.872 5.942-1.234 6.332-.156.167-.283.523-.283.791 0 .884-2.326 5.153-3.59 6.588-.681.775-2.133 1.947-3.225 2.606-1.092.658-2.033 1.313-2.092 1.454-.058.141-.244.257-.413.257-.558 0-2.2 1.393-2.2 1.866 0 1.071 8.355-.58 11.52-2.277.968-.519 1.832-1.034 1.92-1.146.088-.112.88-.697 1.76-1.3 1.9-1.302 1.917-1.316 4.874-4.009 2.43-2.211 5.664-5.608 7.286-7.651a87.102 87.102 0 0 1 1.556-1.906 136.1 136.1 0 0 0 1.76-2.137c.64-.792 1.276-1.49 1.412-1.55.136-.06-.032-.563-.375-1.12-1.341-2.174-3.873-7.568-5.356-11.41a123.264 123.264 0 0 0-1.078-2.72c-1.603-3.726-4.548-14.229-10.228-36.48-1.922-7.527-3.53-13.48-4.844-17.92-.52-1.76-1.169-3.992-1.44-4.96-1.148-4.1-7.57-23.034-8.645-25.488-.243-.555-.442-1.169-.442-1.365 0-.195-.139-.606-.309-.911-.17-.306-.608-1.276-.973-2.156-.365-.88-.874-1.982-1.131-2.45-.257-.467-.467-.996-.467-1.177 0-.18-.41-1.238-.912-2.35-.501-1.113-1.1-2.527-1.33-3.143-1.721-4.612-15.688-32.911-16.398-33.227-.132-.058-.24-.278-.24-.487 0-.21-.504-1.146-1.12-2.081-.616-.936-1.12-1.832-1.12-1.993 0-.16-.144-.292-.32-.292-.176 0-.32-.187-.32-.415 0-.229-.936-1.826-2.08-3.549-1.144-1.723-2.08-3.252-2.08-3.397a.442.442 0 0 0-.24-.372c-.132-.059-.804-.935-1.493-1.947-.69-1.012-1.373-1.84-1.52-1.84-.147 0-.267-.156-.267-.346 0-.327-1.541-2.371-3.117-4.133a476.96 476.96 0 0 1-2.24-2.538c-2.02-2.304-10.066-10.263-10.374-10.263-.134 0-.645-.365-1.136-.812-2.26-2.053-3.485-3.014-3.853-3.02-.22-.005-.4-.128-.4-.275 0-.147-.828-.83-1.84-1.518-1.012-.689-2.03-1.433-2.263-1.653-.232-.221-.58-.402-.773-.402-.193 0-.28-.07-.194-.156.15-.15 3.458 1.104 3.79 1.436.155.155 6.193 3.252 6.759 3.467.652.247.173-.558-1.493-2.51-2.764-3.238-3.026-3.56-3.026-3.73 0-.088-.54-.827-1.2-1.644a349.16 349.16 0 0 1-1.84-2.294c-.352-.445-1.931-2.134-3.51-3.754-3.162-3.246-3.419-3.774-4.489-9.215-.403-2.05-.61-5.049-.72-10.4-.085-4.136-.067-7.437.04-7.336.106.101.638 2.405 1.181 5.12.834 4.163 1.922 8.46 3.828 15.11.234.816 1.1 1.966 2.654 3.52 2.582 2.582 3.39 3.539 3.98 4.706.221.44.688 1.232 1.036 1.76.348.528.732 1.176.853 1.44s.306.552.41.64c.105.088.365.52.578.96.213.44.897 1.664 1.52 2.72.622 1.056 1.218 2.172 1.323 2.48.105.308.318.56.473.56.156 0 .283.158.283.35 0 .192.468 1.134 1.04 2.093.795 1.332 1.877 2.378 4.591 4.439 6.428 4.878 11.446 9.764 16.147 15.717l1.992 2.521c.738.929 3.079 4.326 3.748 5.44.422.704.857 1.352.966 1.44.223.18 3.03 4.838 4.244 7.04.437.792 1.531 2.772 2.433 4.4.901 1.63 1.639 3.093 1.639 3.254 0 .161.108.34.24.4.397.176 6.956 13.536 8.772 17.866.184.44.528 1.232.764 1.76s.952 2.256 1.592 3.84c.64 1.584 1.296 3.017 1.458 3.184.162.167.294.505.294.752 0 .246.206.901.457 1.456 1.274 2.811 1.77 4.04 2.281 5.648.308.968.665 1.904.794 2.08.129.176.34.824.468 1.44.129.616.345 1.264.48 1.44.135.176.351.824.48 1.44s.345 1.264.48 1.44c.135.176.351.824.48 1.44s.345 1.264.48 1.44c.135.176.351.824.48 1.44s.345 1.264.48 1.44c.135.176.351.824.48 1.44s.345 1.264.48 1.44c.135.176.353.82.484 1.43.13.61.356 1.33.5 1.6.407.76 1.5 4.752 3.334 12.17.24.968.667 2.624.95 3.68.938 3.495 1.95 7.69 2.859 11.84.777 3.55 2.453 11.382 2.774 12.96.285 1.404 1.474 6.391 2.212 9.28.203.792.563 2.304.802 3.36.402 1.78.839 3.574 1.753 7.2.463 1.835 2.79 8.769 3.437 10.24.27.616 1.355 2.895 2.41 5.064 1.798 3.696 2.582 4.718 3.077 4.014.827-1.173 5.286-3.903 8.048-4.926 3.9-1.444 9.052-.86 11.181 1.27 1.961 1.96 1.414 11.104-.949 15.858-1.372 2.76-1.932 3.339-4.348 4.487-2.457 1.168-4.42 1.355-6.414.61-3.155-1.179-4.61-2.41-7.06-5.977-1.289-1.877-2.33-2.728-2.33-1.904 0 .481-9.552 10.355-11.295 11.676a27.51 27.51 0 0 0-1.82 1.539c-.487.456-1.084.926-1.325 1.043-.242.117-.872.498-1.4.846a23.65 23.65 0 0 1-1.68 1.008c-.396.206-.72.496-.72.643 0 .148-.154.269-.342.269-.189 0-.945.412-1.68.916-1.303.893-3.857 1.824-7.089 2.585-1.734.408-7.268.71-8.386.458zm2.922-9.374c.1-.163.613-.39 1.139-.506.526-.115.956-.342.956-.504 0-.162.188-.295.417-.295.444 0 3.103-2.49 3.103-2.907 0-.136.18-.438.4-.67.775-.82 1.824-3.356 2.627-6.353 1.129-4.214 1.05-4.62-.577-2.993-1.566 1.566-5.33 7.069-5.33 7.792a.327.327 0 0 1-.32.331c-.176 0-.32.15-.32.333 0 .184-.648 1.44-1.44 2.794-.792 1.353-1.44 2.643-1.44 2.866 0 .472.517.545.785.112zm46.44-11.077c1.148-1.267 2.052-4.122 2.293-7.243l.164-2.135-.92-.112c-.507-.062-1.672.05-2.588.25-1.785.387-5.214 1.982-5.214 2.424 0 .148-.154.268-.341.268-.48 0-2.539 1.61-2.539 1.987 0 .842 4.598 5.298 5.83 5.649 1.45.414 2.168.178 3.315-1.088zM45.745 207.17c-.014-.324.183-.972.438-1.44.978-1.797 4.657-9.676 4.657-9.975 0-.173.133-.314.295-.314.162 0 .389-.432.505-.96.116-.528.332-.96.48-.96.148 0 .364-.432.48-.96.116-.528.332-.96.48-.96.148 0 .364-.432.48-.96.116-.528.328-.96.47-.96.144 0 .36-.395.48-.877.122-.482.332-.95.467-1.04.136-.09.86-1.387 1.61-2.883 1.92-3.826 2.991-5.827 4.433-8.275.688-1.169 1.343-2.341 1.455-2.605.112-.264.122.212.022 1.058-.44 3.722-4.444 14.096-7.289 18.888-.818 1.379-1.488 2.573-1.488 2.654 0 .08-.154.32-.342.534-.188.212-1.203 1.61-2.255 3.106-1.053 1.496-2.09 2.936-2.304 3.2a75.886 75.886 0 0 0-1.343 1.76c-.524.704-1.04 1.352-1.146 1.44-.107.088-.276.376-.377.64-.14.368-.188.342-.208-.11zm39.066-36.333c-1.088-.14-1.817-.413-2.007-.752a5.574 5.574 0 0 0-.771-1.005c-.725-.725-.567-1.656.452-2.675.883-.883 1.066-.927 4.09-.989 1.745-.035 5.17-.435 7.635-.89 8.994-1.66 12.775-2.309 17.59-3.014 2.996-.439 8.585-1.918 8.861-2.346.784-1.212-12.53-2.234-17.839-1.368-3.918.638-5.582.306-6.33-1.263-.293-.613-.532-1.332-.532-1.596 0-.867.953-1.958 2.167-2.482 1.338-.577 7.707-1.176 12.51-1.176 2.672 0 3.212-.09 3.743-.625 1.66-1.671 1.802-2.233.698-2.753-1.061-.5-3.572-1.878-3.757-2.062-.168-.166-.87-.547-4.641-2.512-1.232-.643-2.312-1.252-2.4-1.354-.088-.102-.88-.534-1.76-.96-.88-.426-1.648-.882-1.707-1.014-.058-.132-.302-.24-.54-.24-.24 0-.523-.142-.63-.316-.23-.371.29-.19 2.45.851.849.41 1.624.745 1.723.745.155 0 1.423.53 3.824 1.6 5.01 2.231 9.469 3.897 9.943 3.715a.769.769 0 0 0 .457-.665c0-.27.11-.49.244-.49s.386-.285.56-.632c.174-.348 1.123-1.968 2.108-3.6 2.367-3.919 5.176-9.78 6.022-12.568a109.39 109.39 0 0 1 1.017-3.2c.185-.528.418-3.496.518-6.596.174-5.437.154-5.688-.561-7.12-.457-.914-.956-1.484-1.299-1.484-.69 0-4.38.893-5.249 1.27-.352.154-2.368.808-4.48 1.455-2.112.646-4.2 1.302-4.64 1.457-.44.155-1.952.42-3.36.59-3.826.462-6.515.022-13.12-2.148-4.414-1.45-6.345-1.955-10.685-2.8-3.827-.744-4.617-.817-4.847-.445-.164.266-.137.529.068.656.188.116.28.396.205.622-.075.226-.388-.117-.694-.763-.586-1.234-.934-1.368-2.253-.867-1.876.713-2.295 6.14-.976 12.653 1.214 5.998 1.316 6.453 2.074 9.28.66 2.458 1.144 4.998.764 4-.1-.264-.307-.768-.46-1.12-.152-.352-.666-1.792-1.141-3.2a674.455 674.455 0 0 0-1.815-5.28c-1.482-4.244-1.86-5.707-2.272-8.768-.462-3.435-.182-7.657.562-8.479.28-.31.51-.7.51-.866 0-.167.647-.588 1.437-.935.79-.348 1.438-.738 1.44-.867.002-.13-.416-1.066-.929-2.08a152.542 152.542 0 0 1-1.68-3.445c-.41-.88-.844-1.673-.962-1.763-.119-.09-.314-.558-.435-1.04s-.333-.877-.47-.877c-.137 0-.344-.504-.46-1.12-.115-.616-.33-1.12-.478-1.12-.148 0-.344-.324-.437-.72-.092-.396-.553-1.783-1.023-3.083-.49-1.353-.878-3.14-.91-4.182-.05-1.735.005-1.871 1.205-2.972.691-.634 1.739-1.244 2.328-1.354 1.573-.295 6.312.144 8.974.832 1.276.33 3.387.88 4.69 1.222 1.305.342 3.427.666 4.716.72l2.345.097.708-1.44c1.269-2.581 1.967-4.313 3.08-7.633.601-1.796 1.185-3.358 1.297-3.47.287-.286.339 6.991.067 9.183-.7 5.621-1.26 6.985-3.286 7.997-1.323.66-1.746.711-4.387.526-1.717-.12-4.704-.677-7.237-1.349a642.482 642.482 0 0 0-6.073-1.583l-2.999-.75c-1.602-.402-2.121-.179-2.121.913 0 1.57 1.76 7.752 4.352 15.286l1.238 3.6 1.605.003c3.246.007 11.706 1.523 18.725 3.357 4.394 1.147 5.635 1.198 6.563.27.262-.262.477-.324.477-.138 0 .295 1.273-.091 4-1.213a49.458 49.458 0 0 1 1.76-.662 148.21 148.21 0 0 0 3.2-1.208c4.561-1.778 6.986-2.551 9.244-2.948 2.137-.375 2.537-.358 4.16.182 2.568.853 4.162 2.55 5.072 5.397 1.055 3.3 1.156 4.494.746 8.852-.625 6.66-1.71 10.451-4.516 15.788-2.117 4.023-2.67 4.955-2.946 4.958-.132 0-.24.151-.24.335 0 .29-1.143 2.102-1.607 2.547-.092.088-.945 1.168-1.896 2.4-.95 1.232-2.049 2.543-2.44 2.914-.853.809-.697 1.102.983 1.846 2.727 1.208 3.437 1.666 3.722 2.404.219.564.166.91-.201 1.314-.588.65-.218 1.094 1.21 1.453.487.122 1.53.848 2.318 1.613 1.377 1.34 1.431 1.463 1.431 3.286 0 1.692-.105 1.996-.983 2.854-1.031 1.009-6.189 3.728-7.796 4.11a9.183 9.183 0 0 0-1.76.653c-.717.374-.74.432-.181.453 1.804.07 5.968-.053 7.52-.22 1.545-.167 1.701-.133 1.28.276-.464.45-2.737 1.107-6.4 1.85-3.633.737-10.74 1.326-21.44 1.778-6.072.256-11.688.521-12.48.589-.792.067-2.21.023-3.149-.097zm34.305-20.356c-.102-.264-.511-.48-.911-.48s-.906.216-1.125.48c-.343.413-.217.48.91.48 1.033 0 1.271-.102 1.126-.48zm-13.063-46.4c.081-2.112.158-6.792.17-10.4.012-3.608.151-9.37.309-12.802.258-5.612.227-6.485-.307-8.64-.327-1.32-.697-3.442-.822-4.718-.125-1.276-.332-2.32-.46-2.32-.127 0-.561.351-.964.78-.916.975-3.485 2.2-5.736 2.734-2.173.516-4.434.275-7.083-.754l-2.08-.809 2.774-.015c2.612-.015 4.657-.576 5.013-1.376.058-.132.31-.24.56-.24.249 0 1.292-.84 2.318-1.865 1.641-1.641 1.968-2.188 2.724-4.565 1.08-3.39 1.687-7.487 1.977-13.33.124-2.508.354-4.56.51-4.56.156 0 .284-1.224.284-2.72 0-3.452-.452-3.548-1.881-.4-2.222 4.893-6.118 8.837-12.359 12.508-1.408.829-2.776 1.636-3.04 1.793-.264.158-2.136 1.122-4.16 2.143-5.98 3.015-9.29 5.133-11.293 7.225-2.811 2.937-4.376 6.653-4.401 10.453l-.014 2.118-.461-1.28c-.846-2.348-.412-6.154 1.187-10.4.428-1.138 2.014-3.972 2.64-4.719 1.224-1.46 2.892-3.033 4.83-4.553 1.227-.964 2.304-1.835 2.392-1.936.088-.1.664-.531 1.28-.957.616-.426 1.295-.923 1.509-1.104l.88-.744c.666-.559.617-.944-.149-1.187-.352-.112-.64-.327-.64-.479 0-.151-.238-.513-.529-.804-.331-.331-.54-1.097-.56-2.05-.026-1.283-.119-1.499-.59-1.377-.309.08-.56.249-.56.375 0 .127-.757.6-1.68 1.051-2.518 1.23-3.61 1.26-4.916.135-.711-.612-.872-1.018-.872-2.205 0-1.747.688-3.302 2.553-5.77.767-1.013 1.394-1.973 1.394-2.133a.46.46 0 0 1 .28-.396c.154-.059 1.042-1.115 1.973-2.347 2.46-3.254 6.028-6.657 8.268-7.888 1.073-.59 1.953-1.162 1.955-1.271.002-.11-.68-.267-1.516-.35-.836-.083-2.196-.461-3.022-.84-.827-.38-1.655-.691-1.84-.691-.186 0-.338-.112-.338-.25 0-.236-.762-.615-3.084-1.534-.87-.344-1.139-.315-2.018.22-.558.339-1.23 1.082-1.492 1.65l-.478 1.034.201-.96c.11-.528.557-1.428.992-2 .66-.867 1.004-1.04 2.065-1.04.701 0 2.17.309 3.264.687 1.095.377 2.95.858 4.123 1.067 2.166.387 3.147.2 3.147-.6 0-.763.99-2.41 1.86-3.097 1.178-.93 2.914-.697 5.824.781 2.53 1.285 3.1 1.384 4.015.692.83-.628 3.79-.63 4.747-.003.731.48 1.794.36 1.794-.201 0-.462 1.55-.328 2.62.225 1.939 1.003 5.7 5.926 7.8 10.209l.94 1.92v6.24c0 6.429-.247 8.453-1.521 12.48-1.128 3.56-2.84 5.588-5.116 6.053l-.963.197-.1 5.915c-.056 3.253-.253 7.139-.438 8.635-.705 5.687-.163 7.745 2.863 10.885 1.71 1.774 3.038 2.53 5.435 3.096l1.76.415-2.24-.11c-2.625-.13-4.734-1.063-6.911-3.058-.775-.71-1.503-1.295-1.619-1.3-.212-.008-.427 1.416-.75 4.952a274.93 274.93 0 0 1-.329 3.36c-.287 2.699-.733 7.831-1.112 12.8-.521 6.832-.98 9.35-.786 4.32zM84.335 31.04c2.74-2.646 3.653-3.44 5.705-4.963.88-.653 1.744-1.302 1.92-1.443.496-.395 3.158-1.354 3.76-1.354.349 0 .475-.17.356-.48-.102-.264-.308-.48-.46-.48-.15 0-.696-.396-1.213-.88-1.4-1.312-2.366-2-2.81-2-.218 0-.652.432-.964.96-.312.528-.688.96-.837.96-.148 0-.19.129-.093.287.102.164.686.172 1.37.017 1.71-.385 1.656-.146-.12.532-.92.352-2.188 1.25-3.186 2.255-1.54 1.553-4.993 6.419-5.468 7.705-.115.31-.363.67-.552.8-.243.166-.241.236.005.24.192.002 1.356-.968 2.586-2.156zm50.853 72.802l.772-5.3c.573-3.931.284-12.04-.483-13.502-.617-1.177-1.038-1.587-1.64-1.595-.47-.006-3.798 2.222-5.215 3.491-.603.541-1.28.984-1.503.984-.362 0 2.514-2.848 5.251-5.2 1.459-1.253 2.866-1.196 3.914.16 1.096 1.418 1.525 2.335 2.058 4.4.675 2.616.289 8.209-.774 11.2-.156.44-.747 2.312-1.313 4.16-.566 1.848-1.124 3.47-1.24 3.602-.117.134-.039-.946.173-2.4z" stroke-width=".32"/></svg>