<svg width="45" height="45" viewBox="0 0 45 45" fill="none" xmlns="http://www.w3.org/2000/svg">
<path d="M22.5 0C10.0643 0 0 10.0632 0 22.5C0 34.9357 10.0632 45 22.5 45C34.9356 45 45 34.9368 45 22.5C45 10.0644 34.9368 0 22.5 0ZM22.5 42C11.7477 42 2.99997 33.2524 2.99997 22.5C2.99997 11.7476 11.7477 2.99997 22.5 2.99997C33.2523 2.99997 42 11.7477 42 22.5C42 33.2523 33.2523 42 22.5 42Z" fill="url(#paint0_linear)"/>
<path d="M27.1388 22.0509H22.2354V13.6963C22.2354 12.868 21.5638 12.1963 20.7354 12.1963C19.9069 12.1963 19.2354 12.8679 19.2354 13.6963V23.5508C19.2354 24.3792 19.9069 25.0508 20.7354 25.0508H27.1388C27.9671 25.0508 28.6388 24.3793 28.6388 23.5508C28.6388 22.7224 27.9672 22.0509 27.1388 22.0509Z" fill="url(#paint1_linear)"/>
<defs>
<linearGradient id="paint0_linear" x1="22.5" y1="0" x2="22.5" y2="45" gradientUnits="userSpaceOnUse">
<stop stop-color="#FFE5AC"/>
<stop offset="0.0001" stop-color="#FFE5AC"/>
<stop offset="1" stop-color="#B99C5D"/>
</linearGradient>
<linearGradient id="paint1_linear" x1="23.9371" y1="12.1963" x2="23.9371" y2="25.0508" gradientUnits="userSpaceOnUse">
<stop stop-color="#FFE5AC"/>
<stop offset="0.0001" stop-color="#FFE5AC"/>
<stop offset="1" stop-color="#B99C5D"/>
</linearGradient>
</defs>
</svg>
