<svg width="45" height="45" viewBox="0 0 45 45" fill="none" xmlns="http://www.w3.org/2000/svg">
<path d="M4.8444 0H21.9223C22.2718 0 22.6072 0.139045 22.8544 0.386237L43.5838 21.115C45.4721 23.0039 45.4721 26.077 43.5838 27.9653L27.9657 43.583C27.0539 44.4948 25.8375 44.9971 24.5411 44.9975H24.5408C23.244 44.9975 22.0277 44.4948 21.1154 43.5826L0.386711 22.8536C0.139519 22.6064 0.000473022 22.2709 0.000473022 21.9214L0.0001297 4.84358C0.000473022 2.17288 2.1737 0 4.8444 0ZM2.63718 21.3756L22.98 41.7184C23.3941 42.1328 23.9485 42.3608 24.5408 42.3608C25.1333 42.3608 25.6875 42.1328 26.1015 41.7187L41.7196 26.101C42.5799 25.2407 42.5799 23.8399 41.7196 22.9792L21.3764 2.63671H4.8444C3.62732 2.63671 2.63684 3.62685 2.63684 4.84393L2.63718 21.3756Z" fill="url(#paint0_linear)"/>
<path d="M11.6207 7.47754C12.7272 7.47754 13.7674 7.90875 14.5499 8.69118C15.3323 9.47327 15.7632 10.5135 15.7632 11.6201C15.7632 12.7266 15.3323 13.7669 14.5499 14.5493C13.7674 15.3317 12.7272 15.7626 11.6207 15.7626C10.5145 15.7626 9.4742 15.3317 8.69177 14.5493C7.90933 13.7669 7.47846 12.7266 7.47846 11.6201C7.47846 10.5135 7.90933 9.47327 8.69142 8.69118C9.47386 7.90875 10.5141 7.47754 11.6207 7.47754ZM10.556 12.6847C10.8403 12.9693 11.2186 13.1259 11.6207 13.1259C12.023 13.1259 12.401 12.9693 12.6853 12.6847C12.9699 12.4004 13.1265 12.0221 13.1265 11.6201C13.1265 11.218 12.9699 10.8397 12.6853 10.5554C12.401 10.2708 12.0227 10.1143 11.6207 10.1143C11.2186 10.1143 10.8406 10.2708 10.556 10.5554C10.2714 10.8397 10.1148 11.218 10.1148 11.6201C10.1148 12.0221 10.2717 12.4004 10.556 12.6847Z" fill="url(#paint1_linear)"/>
<defs>
<linearGradient id="paint0_linear" x1="22.5001" y1="0" x2="22.5001" y2="44.9975" gradientUnits="userSpaceOnUse">
<stop stop-color="#FFE5AC"/>
<stop offset="0.0001" stop-color="#FFE5AC"/>
<stop offset="1" stop-color="#B99C5D"/>
</linearGradient>
<linearGradient id="paint1_linear" x1="11.6208" y1="7.47754" x2="11.6208" y2="15.7626" gradientUnits="userSpaceOnUse">
<stop stop-color="#FFE5AC"/>
<stop offset="0.0001" stop-color="#FFE5AC"/>
<stop offset="1" stop-color="#B99C5D"/>
</linearGradient>
</defs>
</svg>
