<?xml version="1.0" encoding="UTF-8" standalone="no"?>
<!-- Created with Inkscape (http://www.inkscape.org/) -->

<svg
   xmlns:dc="http://purl.org/dc/elements/1.1/"
   xmlns:cc="http://creativecommons.org/ns#"
   xmlns:rdf="http://www.w3.org/1999/02/22-rdf-syntax-ns#"
   xmlns:svg="http://www.w3.org/2000/svg"
   xmlns="http://www.w3.org/2000/svg"
   xmlns:sodipodi="http://sodipodi.sourceforge.net/DTD/sodipodi-0.dtd"
   xmlns:inkscape="http://www.inkscape.org/namespaces/inkscape"
   inkscape:version="0.92.2 (5c3e80d, 2017-08-06)"
   sodipodi:docname="logo_left.svg"
   viewBox="0 0 256 480"
   height="480"
   width="256"
   id="svg22"
   version="1.1">
  <metadata
     id="metadata28">
    <rdf:RDF>
      <cc:Work
         rdf:about="">
        <dc:format>image/svg+xml</dc:format>
        <dc:type
           rdf:resource="http://purl.org/dc/dcmitype/StillImage" />
        <dc:title></dc:title>
      </cc:Work>
    </rdf:RDF>
  </metadata>
  <defs
     id="defs26" />
  <sodipodi:namedview
     inkscape:current-layer="svg22"
     inkscape:window-maximized="1"
     inkscape:window-y="9"
     inkscape:window-x="-8"
     inkscape:cy="280"
     inkscape:cx="-20.5"
     inkscape:zoom="1"
     showgrid="false"
     id="namedview24"
     inkscape:window-height="1378"
     inkscape:window-width="2560"
     inkscape:pageshadow="2"
     inkscape:pageopacity="0"
     guidetolerance="10"
     gridtolerance="10"
     objecttolerance="10"
     borderopacity="1"
     bordercolor="#666666"
     pagecolor="#ffffff" />
  <path
     style="fill:#000000;stroke-width:0.31999999"
     d="m 110.52,480.25747 c -0.352,-0.14406 -0.928,-0.58227 -1.28,-0.97382 -0.62207,-0.69197 -0.63552,-1.0449 -0.48,-12.59779 0.24022,-17.84503 0.19256,-41.20944 -0.0861,-42.20586 -0.13535,-0.484 -0.44735,-0.88 -0.69333,-0.88 -0.24598,0 -0.49524,-0.11414 -0.5539,-0.25363 -0.12698,-0.30192 -2.31406,-1.66637 -2.67104,-1.66637 -0.2161,0 0.0474,9.99213 0.34605,13.12 0.27605,2.89165 0.13552,27.4857 -0.16151,28.26694 -0.18469,0.4858 -0.56885,0.85095 -0.89225,0.84816 -1.16652,-0.0102 -1.49225,-0.5512 -1.62953,-2.70713 -0.0741,-1.16371 -0.22555,-2.06896 -0.33656,-2.01165 -1.94557,1.00454 -1.9542,1.00586 -3.09031,0.4641 -1.37959,-0.65789 -1.51254,-1.80404 -0.30132,-2.59767 0.4456,-0.29197 0.72578,-0.66745 0.62261,-0.8344 -0.10318,-0.16694 -0.33022,-1.20461 -0.50453,-2.30592 -0.17431,-1.10134 -0.44979,-2.43443 -0.61217,-2.96243 -0.16238,-0.528 -0.51255,-1.752 -0.77816,-2.72 -1.26294,-4.60272 -1.85025,-6.61242 -2.10414,-7.2 -0.1521,-0.352 -0.37355,-1.144 -0.49212,-1.76 -0.11858,-0.616 -0.32634,-1.264 -0.46169,-1.44 -0.13535,-0.176 -0.35282,-0.824 -0.48325,-1.44 -0.13044,-0.616 -0.37723,-1.20925 -0.54844,-1.31834 -0.1712,-0.10908 -0.24807,-0.46908 -0.17081,-0.8 0.10511,-0.45014 0.30466,-0.23904 0.79246,0.83834 0.35859,0.792 1.05032,2.304 1.53719,3.36 2.43653,5.2848 6.23285,14.86358 6.23285,15.72659 0,0.25914 0.12621,0.39319 0.28048,0.29783 0.15426,-0.0953 0.37532,-4.89184 0.49123,-10.65888 0.11592,-5.76704 0.34248,-11.70954 0.50348,-13.20554 0.161,-1.496 0.38014,-4.37616 0.48698,-6.40035 l 0.19426,-3.68035 -1.67935,-1.27965 c -0.92364,-0.70381 -1.90383,-1.51079 -2.17821,-1.79328 C 99.04778,416.69245 94.89641,414 94.44342,414 94.22154,414 94.04,413.8728 94.04,413.71731 c 0,-0.30947 -0.0752,-0.33478 -4.46227,-1.50288 -2.38856,-0.63597 -3.76408,-0.80185 -6.56,-0.7911 -1.94575,0.007 -3.89773,0.0781 -4.33773,0.15689 -0.44,0.0788 -1.9422,0.29767 -3.33821,0.48637 -1.39601,0.18874 -2.55693,0.37696 -2.57981,0.41827 -0.64544,1.16548 -2.78673,3.69456 -3.79091,4.47741 -2.08241,1.62349 -2.62978,1.83773 -4.69515,1.83773 -1.86233,0 -1.98493,-0.0522 -3.36434,-1.43158 -1.3194,-1.3194 -1.43158,-1.55885 -1.43158,-3.05588 0,-1.90857 0.55215,-3.10585 2.18094,-4.72928 1.06816,-1.0646 2.55639,-3.01452 3.41906,-4.47974 0.176,-0.29894 0.392,-0.61552 0.48,-0.70352 0.46067,-0.46067 1.6,-2.25539 1.6,-2.52038 0,-0.16845 0.11683,-0.35428 0.25961,-0.41296 0.33943,-0.13946 4.54039,-7.13994 4.54039,-7.56608 0,-0.18 0.12331,-0.37524 0.27401,-0.43392 0.31644,-0.12317 5.5623,-10.81892 7.74277,-15.78666 0.1545,-0.352 0.7996,-1.936 1.43356,-3.52 1.46655,-3.66429 2.02465,-4.98128 2.40516,-5.67565 0.16748,-0.30563 0.3045,-0.84758 0.3045,-1.20435 0,-0.35677 0.1272,-0.89872 0.28267,-1.20435 0.15546,-0.3056 0.42878,-0.91565 0.60737,-1.35565 0.17859,-0.44 0.55539,-1.32576 0.83733,-1.96835 0.28195,-0.64263 0.51263,-1.44346 0.51263,-1.77968 0,-0.33619 0.27082,-0.90199 0.60183,-1.25728 0.331,-0.3553 0.75958,-1.38157 0.95239,-2.28064 0.19282,-0.89907 1.22264,-4.27152 2.2885,-7.49437 1.06587,-3.22282 2.16946,-6.65168 2.45243,-7.61968 0.28298,-0.968 0.62797,-2.048 0.76665,-2.4 0.79845,-2.02662 3.82283,-13.01133 4.36118,-15.84 0.0837,-0.44 0.34026,-1.448 0.57006,-2.24 0.39903,-1.37529 0.94989,-3.90462 1.91656,-8.8 0.24327,-1.232 0.65636,-3.32 0.91798,-4.64 0.69097,-3.4864 1.12875,-6.20418 1.48515,-9.22011 0.1729,-1.46306 0.37469,-2.75906 0.44844,-2.88 0.0737,-0.12094 0.44092,-3.24389 0.81595,-6.93989 0.37502,-3.696 0.82639,-8.016 1.00303,-9.6 0.86589,-7.76464 1.50163,-36.22658 0.96852,-43.36 -0.20388,-2.728 -0.49808,-6.976 -0.65379,-9.44 -0.1557,-2.464 -0.4136,-4.82475 -0.57311,-5.24611 -0.26741,-0.70639 -0.3481,-0.61909 -1.0353,1.12 -0.40991,1.03736 -0.98558,2.46211 -1.27927,3.16611 -0.29369,0.704 -0.76151,1.856 -1.03961,2.56 -0.2781,0.704 -0.81855,2.0522 -1.201,2.99601 -3.35386,8.27661 -6.61513,18.88692 -8.76735,28.52399 -0.98656,4.41756 -3.12261,16.73397 -5.93829,34.24 -1.4452,8.98532 -3.91306,26.01714 -5.7495,39.68 -0.53227,3.96 -1.21057,9 -1.50733,11.2 -0.56497,4.18822 -0.62653,4.83485 -0.96729,10.16 -0.11544,1.804 -0.32351,3.28 -0.46238,3.28 -0.13886,0 -0.26292,1.188 -0.27569,2.64 -0.0128,1.452 -0.23674,4.296 -0.49772,6.32 -0.26098,2.024 -0.62163,5.264 -0.80144,7.2 -0.4079,4.39174 -0.546,5.1976 -0.57578,3.36 -0.0346,-2.13168 1.25649,-17.13491 1.69527,-19.7009 0.0922,-0.53945 0.24002,-1.97945 0.32837,-3.2 0.43147,-5.96054 1.18559,-13.88048 1.91759,-20.1391 0.28819,-2.464 0.71897,-6.208 0.9573,-8.32 0.23832,-2.112 0.65929,-5.604 0.93548,-7.76 0.2762,-2.156 0.72863,-5.684 1.00542,-7.84 0.27679,-2.156 0.70296,-5.504 0.94704,-7.44 0.55083,-4.36912 1.24512,-9.47891 1.91311,-14.08 0.28107,-1.936 0.71285,-5.032 0.95951,-6.88 2.08144,-15.59408 4.7264,-29.25967 7.52518,-38.88 0.69427,-2.38643 3.24165,-9.91439 3.69804,-10.92836 0.24963,-0.5546 0.45387,-1.2301 0.45387,-1.50112 0,-0.27101 0.12805,-0.57189 0.28455,-0.66861 0.1565,-0.0967 0.37992,-0.57322 0.49649,-1.05889 0.25901,-1.07911 2.12526,-6.19961 2.42117,-6.64302 0.11745,-0.176 0.53657,-1.256 0.93137,-2.4 0.39481,-1.144 0.84844,-2.32713 1.00808,-2.62919 0.15964,-0.30205 0.42737,-1.09405 0.59494,-1.76 1.13967,-4.52893 1.50212,-5.21081 2.76977,-5.21081 1.12336,0 2.05321,1.43055 2.05605,3.16316 10e-4,0.81226 0.13757,2.34084 0.30276,3.39684 0.16519,1.056 0.37645,2.712 0.46946,3.68 0.093,0.968 0.38705,3.992 0.6534,6.72 2.13177,21.83374 1.19604,53.25338 -2.24909,75.52 -1.39054,8.98734 -2.35107,14.24115 -3.97828,21.76 -0.83416,3.85437 -1.47937,6.87805 -2.11549,9.91389 -0.75748,3.6151 -4.70212,18.91101 -6.0671,23.52611 -0.46849,1.584 -0.92242,3.4209 -1.00874,4.08202 -0.0863,0.66108 -0.28573,1.2816 -0.44314,1.37888 -0.15741,0.0973 -0.2862,0.57158 -0.2862,1.05398 0,0.48243 -0.12259,1.01392 -0.27242,1.18112 -0.14983,0.1672 -0.52626,1.24 -0.83652,2.384 -1.68487,6.21251 -6.86161,20.424 -9.61658,26.4 -2.45033,5.31517 -3.01179,6.65782 -2.87596,6.8776 0.0869,0.14067 0.69774,0.13405 1.35734,-0.0147 5.62615,-1.2689 14.74334,-0.2399 20.11129,2.26982 1.11439,0.52103 2.17617,0.9473 2.35951,0.9473 0.18333,0 0.33334,0.144 0.33334,0.32 0,0.176 0.16116,0.32 0.35814,0.32 0.35278,0 4.13034,2.17488 4.44186,2.55734 0.088,0.10804 0.736,0.54125 1.44,0.96266 0.704,0.42141 1.352,0.85827 1.44,0.97082 0.088,0.11251 0.8245,0.59036 1.63666,1.06188 1.16263,0.67501 1.5476,0.77117 1.81021,0.45232 0.18346,-0.22278 0.43301,-1.91702 0.55457,-3.76502 0.37165,-5.65021 1.28646,-7.91792 4.38101,-10.86003 1.19234,-1.1336 1.7979,-1.61997 2.017,-1.61997 0.27019,0 2.22117,-1.39638 2.34722,-1.68 0.0587,-0.132 0.25889,-0.24 0.44495,-0.24 0.18605,0 1.00205,-0.30758 1.81333,-0.68349 5.58911,-2.58982 16.83557,-5.45977 24.19505,-6.17427 2.104,-0.20426 4.48476,-0.35155 13.02178,-0.80576 3.9624,-0.21078 5.94667,-0.44851 6.61093,-0.79203 1.44847,-0.74903 2.16727,-3.28211 2.77646,-9.78445 0.21532,-2.29821 0.56316,-3.63021 1.48881,-5.70122 0.64833,-1.45052 2.03451,-2.50828 4.0647,-3.10166 l 1.10468,-0.32285 -0.0763,-2.23715 c -0.0419,-1.2304 -0.13033,-2.74112 -0.19639,-3.35712 -0.066,-0.616 -0.27373,-3.28 -0.4615,-5.92 -0.40274,-5.6624 -1.18087,-13.35917 -1.6014,-15.84 -0.16409,-0.968 -0.60774,-4.28 -0.98588,-7.36 -0.74782,-6.09105 -1.9834,-13.06454 -3.3452,-18.88 -0.26789,-1.144 -0.69812,-3.16 -0.95607,-4.48 -0.63091,-3.22852 -1.22356,-5.73212 -2.08315,-8.8 -0.3945,-1.408 -0.78883,-2.95776 -0.87628,-3.44392 -0.0875,-0.48615 -0.2864,-0.96265 -0.44211,-1.05888 -0.1557,-0.0962 -0.2831,-0.44944 -0.2831,-0.7849 0,-0.33546 -0.19853,-1.22697 -0.44117,-1.98112 -0.49863,-1.54974 -1.08432,-3.47806 -2.11739,-6.97118 -1.12065,-3.78926 -4.44984,-13.86927 -4.75946,-14.4105 -0.15433,-0.26978 -0.38922,-0.98506 -0.52198,-1.5895 -0.13276,-0.60444 -0.3555,-1.31972 -0.49499,-1.5895 -0.13948,-0.26977 -0.56473,-1.4265 -0.94501,-2.5705 -0.38028,-1.144 -0.82384,-2.33004 -0.9857,-2.63566 -0.16187,-0.30561 -0.2943,-0.78785 -0.2943,-1.07164 0,-0.28378 -0.20633,-0.96974 -0.4585,-1.52434 -0.25218,-0.5546 -0.98558,-2.30436 -1.62978,-3.88836 -0.64421,-1.584 -1.27709,-3.024 -1.4064,-3.2 -0.12931,-0.176 -0.49802,-1.04 -0.81935,-1.92 -0.32133,-0.88 -1.06612,-2.63734 -1.6551,-3.9052 -0.58898,-1.26787 -1.07087,-2.42892 -1.07087,-2.58012 0,-0.1512 -0.36,-1.02115 -0.8,-1.93322 -0.44,-0.91208 -0.8,-1.74489 -0.8,-1.8507 0,-0.1058 -0.70143,-1.6545 -1.55874,-3.44156 -0.8573,-1.78706 -1.88335,-3.9692 -2.28009,-4.8492 -0.39674,-0.88 -1.06331,-2.34677 -1.48126,-3.25949 -0.41795,-0.91273 -0.75991,-1.81273 -0.75991,-2 0,-0.18728 -0.144,-0.34051 -0.32,-0.34051 -0.176,0 -0.32,-0.15525 -0.32,-0.345 0,-0.18975 -0.52132,-1.44975 -1.15848,-2.8 -4.13832,-8.76976 -5.42936,-11.60642 -6.71934,-14.76373 -0.61376,-1.5022 -1.31078,-3.16327 -1.54893,-3.69127 -1.42004,-3.1483 -2.15965,-6.05156 -1.98856,-7.80588 0.18443,-1.89102 0.76197,-4.84744 0.99187,-5.07734 0.53046,-0.53047 2.63941,-0.9282 3.44064,-0.64889 1.19747,0.41744 4.60233,4.13558 6.12255,6.68588 0.67086,1.12542 1.35422,2.26223 1.51856,2.52623 1.40023,2.24927 4.14169,7.10582 4.14169,7.33708 0,0.15927 0.108,0.33759 0.24,0.39625 0.38246,0.16999 2.59324,4.42814 8.52852,16.42667 7.22911,14.61406 8.51148,17.28364 8.51148,17.7187 0,0.19872 0.13256,0.3613 0.29457,0.3613 0.16202,0 0.39346,0.468 0.51432,1.04 0.12085,0.572 0.55496,1.688 0.96468,2.48 0.91145,1.76183 2.16015,4.57368 2.70004,6.08 0.22078,0.616 0.60054,1.57376 0.84391,2.12836 0.24336,0.5546 0.44248,1.09066 0.44248,1.19125 0,0.16803 1.01082,2.50517 2.09348,4.84039 0.2448,0.528 0.74188,1.752 1.10463,2.72 0.36275,0.968 0.79242,2.048 0.95482,2.4 0.16241,0.352 0.81403,1.936 1.44805,3.52 0.63402,1.584 1.34292,3.312 1.57534,3.84 0.23241,0.528 0.68543,1.68 1.0067,2.56 0.32126,0.88 0.68286,1.672 0.80353,1.76 0.12068,0.088 0.29137,0.448 0.37931,0.8 0.40193,1.60873 0.17986,-2.35534 -0.26405,-4.7135 -1.0786,-5.72982 -3.88507,-17.79702 -5.15525,-22.1665 -1.08976,-3.74878 -1.53357,-5.13896 -1.73672,-5.44 -0.11876,-0.176 -0.31295,-0.824 -0.43153,-1.44 -0.11857,-0.616 -0.34019,-1.408 -0.4925,-1.76 -0.15231,-0.352 -0.5293,-1.504 -0.83778,-2.56 -0.50129,-1.7161 -3.22167,-9.24059 -3.93352,-10.88 -0.15284,-0.352 -0.53661,-1.288 -0.85281,-2.08 -0.31621,-0.792 -0.83744,-2.0441 -1.15831,-2.78244 -0.32087,-0.73835 -0.58339,-1.4123 -0.58339,-1.49768 0,-0.0854 -0.432,-1.08856 -0.96,-2.22931 -0.528,-1.14075 -0.96,-2.23079 -0.96,-2.42233 0,-0.19153 -0.144,-0.34824 -0.32,-0.34824 -0.176,0 -0.32,-0.1519 -0.32,-0.33756 0,-0.49798 -1.07,-2.84208 -3.35157,-7.34244 -3.33354,-6.57534 -3.83728,-7.51505 -4.08843,-7.62667 -0.132,-0.0587 -0.24,-0.25392 -0.24,-0.43389 0,-0.63354 -5.83687,-9.97042 -8.29088,-13.26241 -0.28002,-0.37563 -0.72512,-1.00527 -0.98912,-1.39921 -0.264,-0.39393 -0.63166,-0.87859 -0.81702,-1.07703 -0.18537,-0.19843 -1.25456,-1.58479 -2.37598,-3.08079 -1.92683,-2.57042 -3.09251,-3.8168 -3.58474,-3.83288 -0.11976,-0.004 -0.28015,0.31688 -0.35643,0.71288 -0.1189,0.61733 -0.14489,0.59451 -0.18225,-0.16 -0.0349,-0.70546 0.0955,-0.88 0.65743,-0.88 0.64547,0 2.59774,1.87567 6.26449,6.0187 0.57503,0.64971 1.51103,1.69297 2.08,2.31834 0.56898,0.62538 1.3945,1.61027 1.8345,2.18865 0.44,0.57837 1.232,1.59597 1.76,2.26131 0.528,0.66535 1.14149,1.48046 1.36332,1.81136 0.22183,0.3309 1.08583,1.5708 1.92,2.75534 1.94312,2.75926 4.87063,7.35543 5.8639,9.2063 0.42503,0.792 0.84478,1.51211 0.93278,1.60024 0.41643,0.41706 7.88662,15.14998 8.60036,16.96187 0.24219,0.61484 0.72977,1.76589 1.08349,2.55789 0.35373,0.792 0.75971,1.728 0.90217,2.08 0.14247,0.352 0.54111,1.288 0.88586,2.08 0.34475,0.792 0.87743,2.232 1.18373,3.2 0.30629,0.968 0.68009,1.8968 0.83065,2.064 0.15056,0.1672 0.27463,0.5272 0.27571,0.8 9.6e-4,0.2728 0.2117,0.89808 0.46804,1.38952 0.25633,0.49143 0.55977,1.39302 0.6743,2.00353 0.11453,0.61051 0.32339,1.18118 0.46412,1.26816 0.14073,0.087 0.35294,0.73263 0.47157,1.43479 0.11863,0.70216 0.34716,1.3579 0.50784,1.45721 0.16069,0.0993 0.29216,0.44004 0.29216,0.75718 0,0.31714 0.36541,1.71264 0.81203,3.10111 0.44662,1.38848 1.0109,3.3165 1.25397,4.2845 0.24307,0.968 0.73435,2.912 1.09173,4.32 1.22294,4.818 2.31327,9.90211 3.05392,14.24 0.25543,1.496 0.68716,4.016 0.9594,5.6 0.27225,1.584 0.65216,3.96 0.84424,5.28 0.51731,3.55496 1.1601,7.75308 1.73936,11.36 0.28266,1.76 0.65496,4.496 0.82734,6.08 0.17239,1.584 0.39754,3.096 0.50035,3.36 0.21287,0.54666 0.65775,2.2355 1.85448,7.04 0.46032,1.848 0.91618,3.648 1.01304,4 0.31304,1.13768 1.10783,4.75295 1.4357,6.53057 0.17555,0.95182 0.392,1.8484 0.481,1.9924 0.31584,0.51104 1.85799,10.22465 2.55876,16.11703 1.18801,9.98931 1.32783,25.14666 0.26981,29.24979 -0.74772,2.89971 -2.07974,3.9249 -3.98395,3.06624 -1.66516,-0.75088 -1.88933,-1.83123 -2.28993,-11.03603 -0.18001,-4.136 -0.37018,-8.096 -0.42261,-8.8 -0.0524,-0.704 -0.19957,-2.864 -0.32699,-4.8 -0.12742,-1.936 -0.26669,-3.808 -0.30949,-4.16 -0.0428,-0.352 -0.24794,-2.152 -0.45587,-4 -0.80823,-7.18314 -2.82807,-18.47222 -5.00976,-28 -1.08648,-4.74482 -1.3665,-5.87818 -2.37191,-9.6 -0.57054,-2.112 -1.22797,-4.56 -1.46098,-5.44 -0.40244,-1.51996 -0.8631,-3.11084 -1.94585,-6.72 -0.264,-0.88 -0.66962,-2.248 -0.90137,-3.04 -0.23176,-0.792 -1.07005,-3.168 -1.86287,-5.28 -0.79282,-2.112 -1.82669,-4.95686 -2.29749,-6.32191 -0.4708,-1.36505 -1.06212,-2.87705 -1.31406,-3.36 -0.25193,-0.48295 -0.45894,-1.02537 -0.46003,-1.20539 -0.002,-0.33639 -1.69596,-4.92877 -2.23996,-6.0727 -0.1674,-0.352 -0.59802,-1.40563 -0.95695,-2.34139 -0.75499,-1.96837 -2.37841,-5.59357 -3.05767,-6.82798 -0.25707,-0.46716 -0.46739,-0.99547 -0.46739,-1.17402 0,-0.17855 -0.648,-1.69285 -1.44,-3.36511 -0.792,-1.67226 -1.44,-3.11543 -1.44,-3.20704 0,-0.38541 -4.81318,-10.48699 -5.12903,-10.76446 -0.24803,-0.2179 -1.08363,-2.97511 -1.00124,-3.30379 0.0364,-0.14508 -0.0661,-0.18207 -0.22767,-0.0822 -0.27173,0.16794 -0.8537,-1.26925 -0.73455,-1.814 0.0289,-0.132 -0.10691,-0.24 -0.30175,-0.24 -0.19483,0 -0.27135,-0.216 -0.17004,-0.48 0.12601,-0.32838 -0.0186,-0.48 -0.45787,-0.48 -0.50944,0 -0.62305,0.18178 -0.54996,0.88 0.0507,0.484 0.24379,1.024 0.42917,1.2 0.18538,0.176 0.68938,1.112 1.12,2.08 0.43062,0.968 0.88638,1.80648 1.01281,1.86329 0.12643,0.0568 0.32245,0.59681 0.43561,1.2 0.11316,0.60319 0.33372,1.09671 0.49013,1.09671 0.15642,0 0.28439,0.21315 0.28439,0.47366 0,0.26052 0.35588,1.37652 0.79085,2.48 1.33616,3.38974 4.97161,12.78603 5.66671,14.64634 0.36168,0.968 0.7847,2.01004 0.94002,2.31566 0.15533,0.30561 0.28331,0.73761 0.28439,0.96 9.6e-4,0.22238 0.21233,0.80764 0.46944,1.30056 0.25711,0.49292 0.60299,1.35692 0.76864,1.92 0.4773,1.62248 2.90409,8.6378 3.23227,9.34378 0.16363,0.352 0.43547,1.144 0.60408,1.76 0.16862,0.616 0.80726,2.56 1.4192,4.32 1.06453,3.0617 1.45838,4.35304 2.63513,8.64 0.28986,1.056 0.71651,2.496 0.9481,3.2 0.23159,0.704 0.64321,2.072 0.9147,3.04 1.24087,4.42431 1.87462,6.621 2.12339,7.36 0.14812,0.44 0.5136,1.952 0.81218,3.36 0.29859,1.408 0.73709,3.424 0.97445,4.48 0.23737,1.056 0.58052,2.712 0.76256,3.68 0.18204,0.968 0.54943,2.696 0.81641,3.84 1.00508,4.30678 1.50693,6.98037 1.92209,10.24 0.23538,1.848 0.58369,4.584 0.77403,6.08 0.19035,1.496 0.42158,3.224 0.51386,3.84 0.0923,0.616 0.30378,2.272 0.47,3.68 0.16623,1.408 0.45119,3.352 0.63326,4.32 0.18206,0.968 0.47092,3.848 0.64191,6.4 0.5868,8.75818 0.95164,13.92224 1.10635,15.65981 0.0852,0.95689 0.24393,3.18889 0.35271,4.96 0.13883,2.26029 0.46791,4.03101 1.10393,5.94019 3.09763,9.29834 3.72354,18.82362 1.52845,23.26067 -0.95534,1.93111 -2.88811,2.59443 -5.00476,1.7177 -1.29296,-0.53555 -1.69277,-1.64221 -1.85639,-5.13837 -0.0782,-1.672 -0.18817,-3.4 -0.24427,-3.84 -0.0561,-0.44 -0.12039,-1.124 -0.14285,-1.52 -0.0647,-1.14109 -0.57489,-0.84499 -1.37839,0.8 -1.46618,3.0017 -3.71149,4.72221 -7.78245,5.96346 -2.3845,0.72707 -6.81484,1.15529 -15.2,1.46928 -7.93756,0.29721 -11.35334,0.74854 -17.12,2.26208 -5.33177,1.39939 -8.55177,2.651 -10.98968,4.27174 -2.62819,1.7472 -2.52534,1.39501 -2.91051,9.96742 -0.21693,4.82807 -0.36559,5.98205 -0.90745,7.0442 -1.40179,2.74771 -3.92302,4.30182 -6.97889,4.30182 -1.44157,0 -1.73171,0.0943 -1.72302,0.56 0.0105,0.56237 0.95436,3.48157 1.3192,4.08 0.1073,0.176 0.30065,0.824 0.42967,1.44 0.12902,0.616 0.34273,1.264 0.47491,1.44 0.13218,0.176 0.6321,1.51014 1.11092,2.96477 0.47882,1.45462 2.06124,5.04665 3.51647,7.9823 1.45524,2.93562 2.58054,5.58739 2.50067,5.89283 -0.0799,0.30541 -0.57607,1.03341 -1.10266,1.6177 -1.39014,1.54253 -2.21865,3.34106 -4.07009,8.8353 -2.25924,6.70438 -3.22745,10.46486 -3.23052,12.5471 -0.005,3.1072 -0.73504,4.67683 -2.87022,6.16758 -0.82726,0.5776 -2.59551,0.69738 -3.6888,0.24989 z m 9.71299,-30.38077 0.75298,-0.77177 -0.64475,-1.31245 c -0.74619,-1.51898 -2.62122,-7.04896 -2.62122,-7.73069 0,-0.25398 -0.13444,-0.46179 -0.29875,-0.46179 -0.16431,0 -0.35873,-0.396 -0.43205,-0.88 -0.487,-3.21478 0.0761,8.30477 0.62181,12.72 l 0.17797,1.44 0.84551,-1.11574 c 0.46503,-0.61367 1.18435,-1.46308 1.5985,-1.88756 z M 19.18526,397.22666 c -0.0139,-0.33732 0.0617,-0.52634 0.16807,-0.42 0.10634,0.10633 0.11771,0.38233 0.0253,0.61334 -0.10215,0.25526 -0.17798,0.17946 -0.19333,-0.19334 z M 18.84,395.83222 c 0,-0.37094 -0.13147,-0.75571 -0.29216,-0.855 -0.16068,-0.0993 -0.38921,-0.75508 -0.50784,-1.45722 -0.11863,-0.70214 -0.34716,-1.35789 -0.50784,-1.45722 -0.16069,-0.0993 -0.29216,-0.45504 -0.29216,-0.79049 0,-0.33546 -0.19828,-1.22695 -0.44062,-1.98112 -0.24234,-0.75415 -0.97435,-3.09917 -1.62669,-5.21117 -0.65234,-2.112 -1.30735,-4.2 -1.45558,-4.64 -0.14822,-0.44 -0.58174,-1.88 -0.96338,-3.2 -0.38163,-1.32 -1.02573,-3.408 -1.43133,-4.64 -0.98,-2.9767 -1.55036,-5.11104 -2.39442,-8.96 -0.38596,-1.76 -0.77226,-3.416 -0.85846,-3.68 -0.39913,-1.2225 -1.3997,-8.26381 -1.5762,-11.09226 C 6.38529,346.13648 6.17882,343.496 6.0345,342 c -0.32924,-3.41296 -0.3163,-23.12381 0.017,-25.92 0.13637,-1.144 0.34244,-3.376 0.45794,-4.96 0.62176,-8.52737 2.80542,-20.21378 5.62058,-30.08 0.44922,-1.57436 2.18133,-6.80586 2.5428,-7.68 0.14555,-0.352 0.59016,-1.576 0.98802,-2.72 0.39786,-1.144 0.82631,-2.224 0.9521,-2.4 0.12579,-0.176 0.33907,-0.67874 0.47394,-1.1172 0.13488,-0.43846 0.66816,-1.73446 1.18508,-2.88 0.51691,-1.14554 1.16168,-2.5868 1.43283,-3.2028 0.68618,-1.55893 3.99169,-8.17916 4.95309,-9.92 1.54531,-2.79813 3.08235,-5.61348 3.66865,-6.71976 0.3264,-0.61587 0.67425,-1.19187 0.773,-1.28 0.37436,-0.33412 2.54045,-4.09888 2.54045,-4.41543 0,-0.18231 0.108,-0.37948 0.24,-0.43814 0.2836,-0.12605 1.68,-2.07703 1.68,-2.34722 0,-0.10255 0.14667,-0.36038 0.32593,-0.57296 1.29443,-1.53494 1.59407,-1.97269 1.59407,-2.32879 0,-0.2224 0.108,-0.45237 0.24,-0.51103 0.35051,-0.15578 1.68,-2.10812 1.68,-2.46704 0,-0.16847 0.108,-0.3543 0.24,-0.41296 0.35051,-0.15578 1.68,-2.10812 1.68,-2.46704 0,-0.16847 0.108,-0.3543 0.24,-0.41296 0.36433,-0.16193 1.68,-2.11484 1.68,-2.49371 0,-0.18313 0.108,-0.33394 0.24,-0.33515 0.132,-0.001 0.59462,-0.5412 1.02805,-1.2 0.43342,-0.65879 1.40542,-2.02742 2.16,-3.04138 0.75457,-1.01397 1.37195,-1.92425 1.37195,-2.02286 0,-0.0986 0.18,-0.36736 0.4,-0.59722 0.22,-0.22986 0.616,-0.73974 0.88,-1.13306 0.72807,-1.08473 8.37965,-11.30608 8.77456,-11.7215 0.18999,-0.19985 0.56144,-0.68245 0.82544,-1.07243 0.264,-0.38998 0.74288,-1.0182 1.06419,-1.39606 0.3213,-0.37785 1.10689,-1.37242 1.74575,-2.21015 C 60.36879,198.68542 61.0059,198 61.14574,198 c 0.13983,0 0.25424,-0.15133 0.25424,-0.3363 0,-0.56286 8.64467,-9.01758 11.12,-10.87565 1.276,-0.9578 2.32,-1.85095 2.32,-1.98476 0,-0.13381 0.19837,-0.24329 0.44082,-0.24329 0.24245,0 0.6176,-0.21301 0.83367,-0.47336 0.58462,-0.70443 2.22711,-1.44664 3.20136,-1.44664 0.51438,0 1.35904,0.43353 2.11083,1.0834 1.14128,0.98656 1.25254,1.22256 1.24456,2.64 -0.0114,2.02293 -0.75405,3.48148 -2.93929,5.77254 -1.47718,1.54869 -2.30401,2.94682 -4.88725,8.26406 -1.71009,3.52 -3.3343,6.904 -3.60935,7.52 -0.27505,0.616 -0.88572,1.984 -1.35706,3.04 -0.47133,1.056 -1.26307,2.784 -1.75942,3.84 -1.42326,3.02804 -4.47775,10.04606 -4.48973,10.31565 -0.006,0.13439 -0.28908,0.82035 -0.62914,1.52435 -0.34006,0.704 -0.62317,1.49996 -0.62914,1.7688 -0.006,0.26884 -0.23762,0.81255 -0.51478,1.20824 -0.27716,0.3957 -0.44394,0.89574 -0.37063,1.1112 0.13232,0.38891 2.76613,-3.38103 3.63866,-5.20824 0.12606,-0.264 0.31171,-0.552 0.41255,-0.64 0.32036,-0.27958 1.62334,-2.20638 1.62334,-2.40055 0,-0.10255 0.14744,-0.36038 0.32765,-0.57296 1.08084,-1.27496 4.47235,-6.07009 4.47235,-6.32328 0,-0.16677 0.12986,-0.30321 0.28858,-0.30321 0.15871,0 0.55471,-0.41431 0.88,-0.92068 1.55312,-2.41779 9.86436,-11.08742 13.07142,-13.63508 0.88,-0.69907 1.76236,-1.418 1.96079,-1.59764 0.19844,-0.17963 0.6831,-0.5426 1.07703,-0.8066 0.39394,-0.264 1.0463,-0.732 1.44969,-1.04 0.40339,-0.308 0.87872,-0.56 1.0563,-0.56 0.17757,0 0.37086,-0.12735 0.42952,-0.283 0.10526,-0.27926 5.27571,-3.23515 5.66561,-3.23897 0.11058,-9.6e-4 0.63306,-0.22773 1.16106,-0.50366 0.528,-0.27592 1.68,-0.55828 2.56,-0.62746 l 1.6,-0.12579 -1.7453,0.3162 c -0.95991,0.17392 -1.82391,0.4261 -1.92,0.56041 -0.0961,0.13431 -0.9307,0.59726 -1.8547,1.02878 -0.924,0.43152 -1.68,0.89458 -1.68,1.02904 0,0.13445 -0.15729,0.24445 -0.34953,0.24445 -0.19224,0 -0.67957,0.252 -1.08296,0.56 -0.40339,0.308 -1.05812,0.776 -1.45495,1.04 -2.00677,1.33505 -4.23824,3.2898 -7.79037,6.82433 -3.3381,3.32155 -4.74864,4.89056 -7.72308,8.59071 -0.91523,1.13853 -4.63911,6.38291 -4.63911,6.53331 0,0.0873 -0.14699,0.33258 -0.32663,0.54516 -0.79795,0.94417 -4.46989,6.82369 -4.47154,7.15982 -9.6e-4,0.20534 -0.11212,0.42134 -0.24692,0.48 -0.26858,0.11689 -2.10716,3.19975 -3.11712,5.22667 -0.35078,0.704 -0.72885,1.352 -0.84015,1.44 -0.1113,0.088 -1.10219,1.99917 -2.20197,4.24706 -1.09979,2.24787 -2.11372,4.15757 -2.25317,4.24376 -0.13946,0.0862 -0.49908,0.89589 -0.79916,1.79934 -0.30008,0.90344 -0.89074,2.15122 -1.31258,2.77284 -0.42184,0.62162 -0.83951,1.50074 -0.92816,1.95361 -0.0886,0.45286 -0.36578,1.39939 -0.61584,2.10339 -0.58306,1.64144 -3.9941,10.67772 -4.34861,11.52 -0.7134,1.69497 -5.64062,16.97017 -6.70932,20.8 -0.39289,1.408 -0.91111,3.17703 -1.15159,3.93118 -0.24048,0.75415 -0.43724,1.57108 -0.43724,1.81539 0,0.54614 -1.8234,2.41343 -2.3567,2.41343 -0.21311,0 -0.8752,-0.40717 -1.47131,-0.90483 l -1.08384,-0.90482 0.56492,-3.49518 c 0.5044,-3.12073 0.93491,-4.92061 1.79275,-7.49517 0.14661,-0.44 0.57599,-1.88 0.95418,-3.2 0.37819,-1.32 0.80637,-2.76 0.95152,-3.2 0.14515,-0.44 1.01737,-3.176 1.93827,-6.08 0.9209,-2.904 1.79038,-5.568 1.93218,-5.92 0.1418,-0.352 1.42526,-4.168 2.85214,-8.48 1.42688,-4.312 2.71362,-8.06073 2.85942,-8.3305 0.1458,-0.26978 0.36897,-0.96348 0.49594,-1.54156 0.12697,-0.57808 0.43239,-1.43735 0.67872,-1.9095 0.24633,-0.47214 0.44875,-1.10194 0.44984,-1.39955 9.6e-4,-0.29762 0.13489,-0.62327 0.29735,-0.72367 0.16246,-0.10041 0.39677,-0.64418 0.52069,-1.20838 0.12392,-0.56421 0.33943,-1.24656 0.47892,-1.51634 0.13948,-0.26977 0.56724,-1.4265 0.95056,-2.5705 0.72214,-2.15511 0.80345,-2.36354 1.89698,-4.86244 0.36161,-0.82635 0.65747,-1.69755 0.65747,-1.936 0,-0.23846 0.1202,-0.57036 0.26711,-0.73756 0.14691,-0.1672 0.52516,-1.024 0.84055,-1.904 0.67226,-1.8757 1.20308,-3.12615 2.45587,-5.78529 0.50406,-1.06991 0.91647,-2.05316 0.91647,-2.185 0,-0.13184 0.48359,-1.27246 1.07464,-2.53471 1.71689,-3.66659 2.12592,-4.61408 2.11675,-4.90336 -0.01,-0.30783 -1.23062,1.07286 -3.43827,3.88836 -0.82801,1.056 -1.74743,2.208 -2.04316,2.56 -1.25403,1.49266 -4.66215,5.84685 -5.38514,6.88 -0.43106,0.616 -0.99513,1.336 -1.25347,1.6 -0.50037,0.51133 -16.18092,21.45989 -16.99135,22.69973 -0.264,0.40389 -0.732,1.06439 -1.04,1.46778 -0.308,0.40339 -0.56,0.8248 -0.56,0.93647 0,0.11167 -0.14667,0.37695 -0.32593,0.58953 -1.29443,1.53494 -1.59407,1.97269 -1.59407,2.32879 0,0.2224 -0.11636,0.45237 -0.25858,0.51103 -0.14222,0.0587 -1.0328,1.40267 -1.97905,2.98667 -0.94626,1.584 -1.82889,2.95493 -1.9614,3.04651 -0.13251,0.0916 -0.3936,0.52359 -0.58019,0.96 -0.18659,0.43642 -0.47949,1.00949 -0.6509,1.27349 -2.39535,3.68931 -8.96988,16.89487 -8.96988,18.01685 0,0.22833 -0.12057,0.55195 -0.26793,0.71915 -0.2874,0.32609 -1.63381,3.96084 -3.19456,8.624 -1.13614,3.3945 -2.96056,10.14559 -3.71852,13.76 -0.29526,1.408 -0.67196,3.136 -0.83709,3.84 -0.33978,1.44854 -0.70279,3.63021 -1.58822,9.54512 C 7.60515,326.64157 7.45876,348.8993 9.26178,358 c 1.27072,6.41392 3.47919,15.41878 5.2582,21.44 0.57932,1.96077 1.20516,4.23178 1.76369,6.4 0.20402,0.792 0.49426,1.728 0.64499,2.08 0.15073,0.352 0.36344,1.144 0.47269,1.76 0.10926,0.616 0.32212,1.48 0.47304,1.92 0.82792,2.41386 1.35278,4.51949 1.17168,4.70058 -0.11335,0.11334 -0.20609,-0.0974 -0.20609,-0.46836 z m 175.78324,-5.71321 c -0.38322,-0.0866 -0.86885,-0.3648 -1.07918,-0.61821 -0.21034,-0.25344 -0.564,-0.4608 -0.78592,-0.4608 -0.22192,0 -0.49033,-0.324 -0.59645,-0.72 -0.57592,-2.14902 0.23387,-4.43037 2.0349,-5.7327 0.72057,-0.52106 1.34125,-1.37444 1.73091,-2.37981 0.55919,-1.44285 3.98657,-8.50205 5.0336,-10.36749 2.08838,-3.72074 4.79003,-6.72 6.0532,-6.72 0.35886,0 0.94787,0.27523 1.30894,0.61158 0.55607,0.51808 0.63471,0.89738 0.51418,2.48 -0.18371,2.41223 -0.87204,5.9424 -1.23472,6.33242 -0.15549,0.1672 -0.2827,0.52333 -0.2827,0.79136 0,0.88336 -2.32603,5.15226 -3.5894,6.58755 -0.68191,0.77469 -2.13326,1.94736 -3.22522,2.60592 -1.09196,0.65859 -2.03338,1.31303 -2.09205,1.45431 -0.0587,0.14128 -0.24449,0.25686 -0.41296,0.25686 -0.55873,0 -2.20037,1.39251 -2.20037,1.86646 0,1.0705 8.35487,-0.58118 11.52,-2.27737 0.968,-0.51875 1.832,-1.03453 1.92,-1.14615 0.088,-0.11161 0.88,-0.69651 1.76,-1.29977 1.89933,-1.30202 1.91715,-1.31667 4.87387,-4.00871 2.42938,-2.2119 5.66365,-5.60851 7.28613,-7.65184 0.528,-0.66492 1.22808,-1.52256 1.55573,-1.90582 0.32765,-0.38323 1.11965,-1.3448 1.76,-2.1368 0.64035,-0.792 1.27586,-1.48918 1.41224,-1.54931 0.13639,-0.0601 -0.0324,-0.56413 -0.37517,-1.12 -1.34113,-2.17517 -3.87289,-7.56903 -5.35592,-11.41069 -0.44163,-1.144 -0.92684,-2.368 -1.07825,-2.72 -1.60258,-3.7257 -4.5473,-14.22893 -10.22765,-36.48 -1.92148,-7.5268 -3.53066,-13.47954 -4.84424,-17.92 -0.52064,-1.76 -1.16841,-3.992 -1.43948,-4.96 -1.14792,-4.09922 -7.57051,-23.03387 -8.64559,-25.48836 -0.24292,-0.5546 -0.44167,-1.16856 -0.44167,-1.36434 0,-0.19579 -0.13895,-0.60603 -0.30878,-0.91164 -0.16982,-0.30562 -0.60775,-1.27566 -0.97318,-2.15566 -0.36542,-0.88 -0.87447,-1.98222 -1.13122,-2.44937 -0.25675,-0.46716 -0.46682,-0.99711 -0.46682,-1.17768 0,-0.18056 -0.41023,-1.23835 -0.91161,-2.35062 -0.50139,-1.11228 -1.09979,-2.52633 -1.32978,-3.14233 -1.72181,-4.61172 -15.68864,-32.91112 -16.39861,-33.22667 -0.132,-0.0587 -0.24,-0.27795 -0.24,-0.48729 0,-0.20935 -0.504,-1.14592 -1.12,-2.08127 -0.616,-0.93535 -1.12,-1.83206 -1.12,-1.9927 0,-0.16064 -0.144,-0.29207 -0.32,-0.29207 -0.176,0 -0.32,-0.18693 -0.32,-0.4154 0,-0.22847 -0.936,-1.82514 -2.08,-3.54815 -1.144,-1.72301 -2.08,-3.25208 -2.08,-3.39793 0,-0.14585 -0.108,-0.31319 -0.24,-0.37185 -0.132,-0.0587 -0.80394,-0.93467 -1.49319,-1.94667 -0.68925,-1.012 -1.37325,-1.84 -1.52,-1.84 -0.14675,0 -0.26681,-0.15577 -0.26681,-0.34614 0,-0.32728 -1.54132,-2.37103 -3.11661,-4.13254 -0.39413,-0.44072 -1.40213,-1.58302 -2.24,-2.53843 C 155.78311,191.55918 147.73715,183.6 147.4286,183.6 c -0.13339,0 -0.6444,-0.36523 -1.13557,-0.81163 -2.25977,-2.05377 -3.48462,-3.01411 -3.85303,-3.02095 -0.22,-0.004 -0.4,-0.12748 -0.4,-0.27423 0,-0.14675 -0.828,-0.83003 -1.84,-1.5184 -1.012,-0.68837 -2.03028,-1.43231 -2.26286,-1.65319 -0.23257,-0.22088 -0.58057,-0.4016 -0.77333,-0.4016 -0.19276,0 -0.28006,-0.0704 -0.19399,-0.15649 0.14965,-0.14964 3.45788,1.10419 3.79018,1.43649 0.15515,0.15515 6.19302,3.25204 6.75882,3.46667 0.65221,0.24741 0.17326,-0.5578 -1.4924,-2.50903 C 143.26156,174.91877 143,174.59632 143,174.42667 c 0,-0.0874 -0.54,-0.82703 -1.2,-1.64357 -0.66,-0.81654 -1.488,-1.84877 -1.84,-2.29386 -0.352,-0.44508 -1.93116,-2.13463 -3.50925,-3.75455 -3.16235,-3.24617 -3.41943,-3.77383 -4.48954,-9.21469 -0.40308,-2.04943 -0.61088,-5.04871 -0.72054,-10.4 -0.0848,-4.136 -0.0668,-7.43719 0.04,-7.33597 0.10674,0.10121 0.63855,2.40521 1.18178,5.12 0.83306,4.16315 1.92167,8.46077 3.82725,15.10927 0.2342,0.81711 1.10085,1.96654 2.65401,3.52 2.58186,2.58236 3.39116,3.53949 3.97972,4.7067 0.22187,0.44 0.68828,1.232 1.03648,1.76 0.34819,0.528 0.73216,1.176 0.85326,1.44 0.12109,0.264 0.30561,0.552 0.41003,0.64 0.10442,0.088 0.36439,0.52 0.5777,0.96 0.21332,0.44 0.89722,1.664 1.51978,2.72 0.62256,1.056 1.21789,2.172 1.32296,2.48 0.10507,0.308 0.31824,0.56 0.47371,0.56 0.15547,0 0.28268,0.1575 0.28268,0.34999 0,0.1925 0.468,1.13427 1.04,2.09282 0.79492,1.33211 1.87691,2.37813 4.59139,4.43873 6.4271,4.8789 11.44566,9.76426 16.14642,15.71788 0.95563,1.21032 1.85198,2.34458 1.9919,2.52058 0.73823,0.9286 3.07888,4.32608 3.74783,5.44 0.42277,0.704 0.8577,1.352 0.96652,1.44 0.2226,0.18003 3.03064,4.83798 4.24405,7.04 0.43642,0.792 1.53114,2.77234 2.43269,4.40076 0.90156,1.62842 1.6392,3.09242 1.6392,3.25334 0,0.16091 0.108,0.34057 0.24,0.39923 0.3969,0.1764 6.95622,13.53644 8.77193,17.86667 0.1845,0.44 0.52827,1.232 0.76395,1.76 0.23568,0.528 0.95213,2.256 1.59213,3.84 0.63999,1.584 1.29601,3.0168 1.45781,3.184 0.1618,0.1672 0.29418,0.50544 0.29418,0.75164 0,0.2462 0.20559,0.9014 0.45687,1.456 1.27384,2.81148 1.77008,4.04014 2.28131,5.64836 0.30771,0.968 0.66488,1.904 0.7937,2.08 0.12882,0.176 0.33947,0.824 0.46812,1.44 0.12865,0.616 0.34465,1.264 0.48,1.44 0.13535,0.176 0.35135,0.824 0.48,1.44 0.12865,0.616 0.34465,1.264 0.48,1.44 0.13535,0.176 0.35135,0.824 0.48,1.44 0.12865,0.616 0.34465,1.264 0.48,1.44 0.13535,0.176 0.35135,0.824 0.48,1.44 0.12865,0.616 0.34465,1.264 0.48,1.44 0.13535,0.176 0.35135,0.824 0.48,1.44 0.12865,0.616 0.34465,1.264 0.48,1.44 0.13535,0.176 0.35304,0.81927 0.48374,1.4295 0.1307,0.61022 0.35575,1.33022 0.50012,1.6 0.40681,0.76021 1.50079,4.75299 3.33459,12.1705 0.23932,0.968 0.66687,2.624 0.95012,3.68 0.93746,3.49503 1.95027,7.6904 2.8583,11.84 0.77692,3.55044 2.45312,11.38184 2.7739,12.96 0.28538,1.404 1.4744,6.3911 2.21253,9.28 0.20236,0.792 0.56299,2.304 0.80139,3.36 0.40193,1.78029 0.83883,3.57414 1.7536,7.2 0.46304,1.83533 2.7899,8.76877 3.43655,10.24 0.27075,0.616 1.35556,2.89491 2.41069,5.06422 1.79759,3.69581 2.58105,4.71796 3.07676,4.01415 0.82659,-1.1736 5.28556,-3.90298 8.04771,-4.92611 3.89992,-1.44458 9.05241,-0.85984 11.18115,1.26889 1.96093,1.96093 1.41393,11.10448 -0.94874,15.85885 -1.37195,2.76074 -1.93232,3.33901 -4.34831,4.4872 -2.45751,1.1679 -4.42034,1.35443 -6.4143,0.60954 -3.15464,-1.17853 -4.60953,-2.41034 -7.05915,-5.97674 -1.28942,-1.87728 -2.33065,-2.72787 -2.33065,-1.90394 0,0.48122 -9.55183,10.35514 -11.29459,11.67546 -0.51433,0.38966 -1.33369,1.08224 -1.82079,1.5391 -0.4871,0.45684 -1.0834,0.9264 -1.32513,1.04352 -0.24172,0.11709 -0.87149,0.4978 -1.39949,0.84599 -0.528,0.34819 -1.284,0.80173 -1.68,1.00784 -0.396,0.20611 -0.72,0.49565 -0.72,0.64339 0,0.14774 -0.15405,0.26864 -0.34234,0.26864 -0.18829,0 -0.94429,0.41242 -1.68,0.91648 -1.3022,0.89219 -3.85681,1.82358 -7.08842,2.58442 -1.73463,0.40838 -7.26822,0.71065 -8.386,0.45811 z m 2.92154,-9.3744 c 0.10041,-0.16243 0.61291,-0.38989 1.13889,-0.50541 0.52598,-0.11552 0.95633,-0.34262 0.95633,-0.50464 0,-0.16202 0.18758,-0.29456 0.41685,-0.29456 0.44423,0 3.10315,-2.49085 3.10315,-2.90701 0,-0.136 0.18,-0.43757 0.4,-0.67014 0.77502,-0.8193 1.82363,-3.35546 2.62659,-6.35267 1.12893,-4.21396 1.05066,-4.62016 -0.57668,-2.9928 -1.56607,1.56604 -5.32991,7.06844 -5.32991,7.79184 0,0.18192 -0.144,0.33078 -0.32,0.33078 -0.176,0 -0.32,0.15002 -0.32,0.33334 0,0.18336 -0.648,1.44036 -1.44,2.79332 -0.792,1.35299 -1.44,2.64297 -1.44,2.86665 0,0.4713 0.51697,0.54464 0.78478,0.1113 z m 46.43973,-11.07613 c 1.14859,-1.26784 2.05228,-4.1223 2.29313,-7.24326 l 0.16474,-2.13476 -0.92119,-0.1128 c -0.50665,-0.062 -1.67084,0.0502 -2.58708,0.24948 -1.78491,0.38816 -5.21411,1.98316 -5.21411,2.42518 0,0.14723 -0.15361,0.26768 -0.34135,0.26768 -0.48021,0 -2.53865,1.61091 -2.53865,1.98672 0,0.84202 4.59811,5.29792 5.82949,5.64922 1.44972,0.4136 2.16888,0.17769 3.31502,-1.08746 z M 45.74526,207.16937 c -0.0139,-0.32484 0.18287,-0.97284 0.43726,-1.44 0.97857,-1.79707 4.65748,-9.67627 4.65748,-9.97502 0,-0.17289 0.13256,-0.31435 0.29457,-0.31435 0.16202,0 0.38946,-0.432 0.50543,-0.96 0.11597,-0.528 0.33197,-0.96 0.48,-0.96 0.14803,0 0.36403,-0.432 0.48,-0.96 0.11597,-0.528 0.33197,-0.96 0.48,-0.96 0.14803,0 0.36403,-0.432 0.48,-0.96 0.11597,-0.528 0.3278,-0.96 0.47074,-0.96 0.14293,0 0.35891,-0.39456 0.47994,-0.87679 0.12103,-0.48224 0.33092,-0.95024 0.4664,-1.04 0.1355,-0.0898 0.86026,-1.38721 1.61059,-2.88321 1.91912,-3.82631 2.99065,-5.82681 4.43231,-8.27488 0.68831,-1.16882 1.34322,-2.34112 1.45536,-2.60512 0.11213,-0.264 0.122,0.21219 0.0219,1.05819 -0.44021,3.7216 -4.44375,14.09596 -7.28911,18.88825 -0.81849,1.37854 -1.48817,2.57262 -1.48817,2.65351 0,0.0809 -0.15393,0.32098 -0.34207,0.53356 -0.18813,0.21257 -1.20306,1.61049 -2.25538,3.10649 -1.05233,1.496 -2.08882,2.936 -2.30333,3.2 -0.21451,0.264 -0.81877,1.056 -1.3428,1.76 -0.52403,0.704 -1.04,1.352 -1.14661,1.44 -0.10662,0.088 -0.27607,0.376 -0.37656,0.64 -0.14017,0.36822 -0.1886,0.34246 -0.20798,-0.11063 z m 39.06573,-36.33324 c -1.088,-0.13965 -1.81732,-0.41289 -2.00706,-0.75195 -0.16393,-0.29292 -0.51087,-0.74541 -0.77099,-1.00553 -0.72445,-0.72445 -0.56718,-1.65518 0.45188,-2.67424 0.88366,-0.88366 1.06571,-0.92769 4.08998,-0.98917 1.74485,-0.0355 5.171,-0.4348 7.63518,-0.88992 8.99446,-1.66121 12.77506,-2.30908 17.59002,-3.01434 2.99635,-0.43889 8.58503,-1.91845 8.86137,-2.34598 0.78363,-1.21235 -12.53069,-2.23371 -17.83938,-1.36848 -3.91757,0.63851 -5.58164,0.30669 -6.32977,-1.26216 -0.29272,-0.61384 -0.53222,-1.33225 -0.53222,-1.59648 0,-0.86686 0.95254,-1.95774 2.16704,-2.48175 1.33827,-0.57741 7.70665,-1.17613 12.51005,-1.17613 2.67143,0 3.2118,-0.0902 3.74257,-0.62464 1.65984,-1.67134 1.80222,-2.23311 0.69784,-2.75337 -1.0608,-0.49974 -3.57107,-1.87753 -3.75684,-2.06199 -0.16732,-0.16613 -0.87036,-0.54673 -4.64066,-2.51225 -1.232,-0.64226 -2.312,-1.25135 -2.4,-1.35352 -0.088,-0.10218 -0.88,-0.53418 -1.76,-0.96 -0.88,-0.42583 -1.648,-0.88223 -1.70667,-1.01423 -0.0587,-0.132 -0.30217,-0.24 -0.54111,-0.24 -0.23895,0 -0.52243,-0.14235 -0.62995,-0.31634 -0.22938,-0.37113 0.29103,-0.19032 2.45033,0.85136 0.84934,0.40974 1.62487,0.74498 1.72339,0.74498 0.15484,0 1.42348,0.53081 3.82401,1.6 5.00952,2.23123 9.46867,3.89747 9.94309,3.71542 0.2513,-0.0964 0.45691,-0.39585 0.45691,-0.66538 0,-0.26952 0.10985,-0.49004 0.24412,-0.49004 0.13426,0 0.38626,-0.28455 0.56,-0.63234 0.17373,-0.34778 1.12248,-1.96778 2.10832,-3.6 2.36681,-3.91865 5.1754,-9.78046 6.02157,-12.56766 0.37403,-1.232 0.83171,-2.672 1.01708,-3.2 0.18536,-0.528 0.41828,-3.49603 0.51758,-6.59562 0.1742,-5.43711 0.15444,-5.68791 -0.56078,-7.12 C 127.4914,110.57034 126.99238,110 126.64912,110 c -0.69083,0 -4.38084,0.89323 -5.24912,1.27064 -0.352,0.153 -2.368,0.8073 -4.48,1.45398 -2.112,0.64669 -4.2,1.30257 -4.64,1.45751 -0.44,0.15495 -1.952,0.42059 -3.36,0.59033 -3.82644,0.46129 -6.51461,0.0211 -13.12,-2.14822 -4.41364,-1.44953 -6.34496,-1.95562 -10.68492,-2.7999 -3.82721,-0.74453 -4.61706,-0.81711 -4.84681,-0.44536 -0.16431,0.26585 -0.13716,0.529 0.0676,0.65556 0.18816,0.1163 0.28048,0.39635 0.20514,0.62234 -0.0753,0.226 -0.38764,-0.11734 -0.69401,-0.76299 -0.58572,-1.23429 -0.93397,-1.36832 -2.25271,-0.86694 -1.87621,0.71333 -2.29511,6.14058 -0.97661,12.65305 1.21443,5.99849 1.31604,6.45311 2.07423,9.28 0.65917,2.45769 1.14452,4.99825 0.76416,4 -0.10059,-0.264 -0.30743,-0.768 -0.45964,-1.12 -0.15221,-0.352 -0.66599,-1.792 -1.14174,-3.2 -0.47574,-1.408 -1.2923,-3.784 -1.81457,-5.28 -1.48176,-4.24436 -1.86082,-5.70693 -2.2724,-8.76792 -0.46182,-3.43463 -0.18176,-7.6568 0.56242,-8.47911 0.28041,-0.30985 0.50983,-0.69975 0.50983,-0.86645 0,-0.1667 0.64664,-0.58736 1.43697,-0.9348 0.79034,-0.34745 1.43834,-0.73761 1.44,-0.86704 0.002,-0.12943 -0.41633,-1.06543 -0.92889,-2.08 -0.51256,-1.01457 -1.26843,-2.56468 -1.6797,-3.44468 -0.41128,-0.88 -0.8445,-1.67344 -0.9627,-1.76321 -0.11821,-0.0898 -0.31395,-0.55776 -0.43499,-1.04 C 73.58963,96.63456 73.37824,96.24 73.2409,96.24 73.10357,96.24 72.89666,95.736 72.78109,95.12 72.66553,94.504 72.45029,94 72.30278,94 c -0.1475,0 -0.34395,-0.324 -0.43653,-0.72 -0.0926,-0.396 -0.55311,-1.78342 -1.02338,-3.08315 -0.48952,-1.35295 -0.87808,-3.14052 -0.90896,-4.18165 -0.0515,-1.7351 0.004,-1.8714 1.20374,-2.97205 0.69172,-0.63446 1.7394,-1.24393 2.32817,-1.35439 1.57334,-0.29516 6.31242,0.14411 8.97416,0.83182 1.276,0.32968 3.38685,0.87958 4.69078,1.22199 1.30394,0.34242 3.42595,0.66642 4.71559,0.72 l 2.34481,0.0974 0.70781,-1.44 c 1.26873,-2.58113 1.96744,-4.31299 3.07953,-7.63309 0.6017,-1.79635 1.18568,-3.35777 1.29774,-3.46983 0.28626,-0.28626 0.33877,6.99111 0.0663,9.18292 -0.69891,5.6213 -1.25919,6.9852 -3.28513,7.997 -1.32313,0.6608 -1.74639,0.71153 -4.38768,0.52586 -1.71682,-0.12067 -4.7035,-0.67721 -7.23654,-1.34842 -2.37227,-0.62862 -5.10521,-1.34101 -6.07321,-1.5831 -0.968,-0.24209 -2.31747,-0.57995 -2.99883,-0.75081 -1.60217,-0.40176 -2.12117,-0.17832 -2.12117,0.91318 0,1.57096 1.7596,7.7519 4.35171,15.28629 l 1.23854,3.6 1.60487,0.003 c 3.24562,0.007 11.70598,1.52347 18.72488,3.35665 4.39399,1.14761 5.63539,1.19886 6.56329,0.27096 0.26219,-0.26219 0.47671,-0.32453 0.47671,-0.13852 0,0.29475 1.27278,-0.0914 4,-1.21345 0.352,-0.14483 1.144,-0.4424 1.76,-0.66127 0.616,-0.21887 2.056,-0.76277 3.2,-1.20866 4.5612,-1.77779 6.9857,-2.55088 9.24418,-2.94766 2.13717,-0.37547 2.53662,-0.35803 4.16,0.1816 2.56746,0.85347 4.16193,2.5501 5.07196,5.39696 1.05484,3.29986 1.1555,4.49401 0.74622,8.85259 -0.62545,6.66049 -1.70984,10.45095 -4.51654,15.78741 -2.11632,4.02383 -2.66997,4.95565 -2.94582,4.95798 -0.132,9.6e-4 -0.24,0.15185 -0.24,0.33498 0,0.29066 -1.14301,2.10238 -1.60693,2.54704 -0.0918,0.088 -0.94501,1.168 -1.896,2.4 -0.95099,1.232 -2.04909,2.54343 -2.44022,2.91428 -0.85316,0.80893 -0.69722,1.10174 0.98315,1.84601 2.72682,1.20776 3.43679,1.66637 3.72233,2.40447 0.21825,0.56413 0.16544,0.90886 -0.20131,1.31411 -0.58813,0.64988 -0.21837,1.09392 1.2093,1.45224 0.4877,0.1224 1.5309,0.84861 2.31821,1.61379 1.37735,1.33863 1.43147,1.46283 1.43147,3.2852 0,1.69218 -0.10468,1.99631 -0.98262,2.85466 -1.03161,1.00859 -6.18899,3.72787 -7.79605,4.11056 -0.51627,0.12293 -1.30827,0.41639 -1.76,0.65213 -0.71759,0.37447 -0.74049,0.43171 -0.18133,0.45319 1.80358,0.0693 5.96829,-0.0528 7.52,-0.22041 1.54513,-0.16688 1.7014,-0.13321 1.28,0.27585 -0.46376,0.45017 -2.73689,1.10738 -6.4,1.85037 -3.63285,0.73685 -10.73976,1.32622 -21.44,1.77799 -6.072,0.25637 -11.688,0.52123 -12.48,0.58859 -0.792,0.0674 -2.20906,0.0237 -3.14901,-0.0969 z M 119.11572,150.48 c -0.10131,-0.264 -0.51115,-0.48 -0.91077,-0.48 -0.39963,0 -0.90585,0.216 -1.12495,0.48 -0.34306,0.41336 -0.21662,0.48 0.91077,0.48 1.03222,0 1.27018,-0.10154 1.12495,-0.48 z m -13.06255,-46.4 c 0.0812,-2.112 0.15758,-6.792 0.16982,-10.4 0.0123,-3.608 0.15126,-9.36906 0.30892,-12.80235 0.25769,-5.61162 0.22665,-6.4846 -0.30718,-8.64 -0.32661,-1.31871 -0.6964,-3.44165 -0.82176,-4.71765 -0.12536,-1.276 -0.33221,-2.32 -0.45967,-2.32 -0.12745,0 -0.56153,0.35104 -0.9646,0.78009 -0.91611,0.97516 -3.48448,2.19927 -5.73616,2.73392 -2.17246,0.51584 -4.43317,0.27501 -7.08254,-0.75448 l -2.08,-0.80825 2.77407,-0.0156 c 2.6117,-0.0147 4.65724,-0.5761 5.0126,-1.37564 0.0587,-0.132 0.31066,-0.24 0.56,-0.24 0.24933,0 1.29248,-0.83915 2.31811,-1.86478 1.64138,-1.64138 1.96778,-2.18825 2.72455,-4.56489 1.07937,-3.38977 1.6869,-7.48705 1.97657,-13.33033 0.12433,-2.507998 0.35387,-4.559998 0.51008,-4.559998 0.15621,0 0.28402,-1.224 0.28402,-2.72 0,-3.452048 -0.45218,-3.548189 -1.88131,-0.4 C 101.13749,42.973053 97.24081,46.91695 91,50.58848 c -1.408,0.82834 -2.776,1.63508 -3.04,1.79276 -0.264,0.15768 -2.136,1.12171 -4.16,2.14231 -5.98018,3.01546 -9.2908,5.13372 -11.29318,7.22578 -2.81102,2.93692 -4.37567,6.6531 -4.40087,10.4524 l -0.014,2.11831 -0.46113,-1.28 c -0.84583,-2.34781 -0.41135,-6.15374 1.18734,-10.40077 0.42811,-1.1373 2.01373,-3.97161 2.63933,-4.71782 1.22496,-1.46113 2.89239,-3.03328 4.82975,-4.55375 1.22805,-0.9638 2.30481,-1.83473 2.39281,-1.93542 0.088,-0.10069 0.664,-0.5314 1.28,-0.95713 0.616,-0.42572 1.295,-0.92279 1.50889,-1.10458 0.2139,-0.18179 0.6099,-0.51621 0.88,-0.74315 0.66556,-0.55919 0.61728,-0.9442 -0.14889,-1.18738 -0.352,-0.11172 -0.64,-0.32714 -0.64,-0.47871 0,-0.15156 -0.23798,-0.51355 -0.52883,-0.80441 -0.33142,-0.33141 -0.54047,-1.09668 -0.56,-2.049982 -0.0263,-1.28249 -0.11904,-1.498496 -0.59117,-1.376708 -0.308,0.07945 -0.56,0.248295 -0.56,0.37521 0,0.126915 -0.756,0.599859 -1.68,1.050986 -2.51709,1.228934 -3.60821,1.258734 -4.91549,0.134259 -0.71065,-0.611274 -0.87118,-1.017482 -0.87118,-2.204445 0,-1.747642 0.688,-3.302467 2.55308,-5.769772 0.76647,-1.013957 1.39359,-1.973957 1.39359,-2.133325 0,-0.159368 0.12588,-0.33776 0.27973,-0.396426 0.15386,-0.05867 1.04192,-1.114667 1.97346,-2.346667 2.4605,-3.254095 6.02751,-6.657199 8.26793,-7.888023 1.07321,-0.589587 1.95299,-1.161656 1.95508,-1.271264 0.002,-0.109607 -0.6802,-0.267103 -1.5162,-0.349991 -0.836,-0.08289 -2.1961,-0.461209 -3.02245,-0.840714 C 82.91121,20.710504 82.08321,20.4 81.89756,20.4 81.7119,20.4 81.56,20.28757 81.56,20.150156 c 0,-0.235837 -0.76196,-0.614915 -3.0836,-1.534104 -0.86949,-0.344248 -1.13918,-0.3149 -2.0181,0.219602 -0.55797,0.339323 -1.22948,1.082115 -1.49223,1.650648 L 74.48833,21.52 74.68908,20.56 c 0.11041,-0.528 0.55687,-1.428 0.99212,-2 0.65944,-0.866621 1.00373,-1.04 2.06518,-1.04 0.7006,0 2.16927,0.308967 3.26372,0.686593 1.09444,0.377625 2.94996,0.858029 4.12337,1.067564 2.1657,0.386726 3.14653,0.199418 3.14653,-0.600894 0,-0.762323 0.98936,-2.409883 1.8595,-3.096587 1.17837,-0.929946 2.91422,-0.697013 5.82478,0.781625 2.52879,1.284693 3.10051,1.383224 4.01456,0.691876 0.83045,-0.628122 3.79037,-0.629941 4.74733,-0.0029 0.73091,0.478911 1.79383,0.359516 1.79383,-0.201496 0,-0.461394 1.54975,-0.328186 2.61986,0.22519 1.93914,1.002772 5.70018,5.925907 7.79921,10.209047 l 0.94093,1.92 v 6.24 c 0,6.428656 -0.24683,8.453245 -1.52149,12.480002 -1.12709,3.56056 -2.84006,5.58754 -5.11514,6.05284 l -0.96324,0.19701 -0.10067,5.91507 c -0.0554,3.25329 -0.25231,7.13908 -0.43764,8.63508 -0.70449,5.68672 -0.16302,7.74544 2.86289,10.88488 1.7097,1.77385 3.03875,2.53088 5.43529,3.09592 l 1.76,0.41497 -2.24,-0.11056 c -2.62532,-0.12957 -4.7339,-1.06235 -6.91126,-3.05735 -0.77481,-0.70991 -1.50323,-1.2946 -1.61871,-1.29931 -0.21154,-0.009 -0.42719,1.41519 -0.74996,4.95145 -0.0964,1.056 -0.2443,2.568 -0.32871,3.36 -0.28762,2.69883 -0.73374,7.83144 -1.11256,12.8 -0.52087,6.83156 -0.97893,9.3504 -0.78563,4.32 z M 84.33451,31.04 c 2.74076,-2.645556 3.65351,-3.439484 5.70549,-4.962768 0.88,-0.653265 1.744,-1.30261 1.92,-1.442988 C 92.456,24.238633 95.11806,23.28 95.72066,23.28 c 0.34787,0 0.47388,-0.170356 0.35506,-0.48 -0.10131,-0.264 -0.30782,-0.48 -0.45892,-0.48 -0.1511,0 -0.69713,-0.396 -1.21339,-0.88 -1.39992,-1.31245 -2.36607,-2 -2.8104,-2 -0.21825,0 -0.65201,0.432 -0.96391,0.96 -0.3119,0.528 -0.68854,0.96 -0.83698,0.96 -0.14844,0 -0.19016,0.129008 -0.0927,0.286685 0.10162,0.164422 0.68585,0.171963 1.3699,0.01768 1.70972,-0.385604 1.65597,-0.146248 -0.11942,0.53178 -0.92024,0.35144 -2.18907,1.249291 -3.18685,2.255084 -1.54006,1.552413 -4.99348,6.418418 -5.46833,7.705088 -0.11441,0.310024 -0.36253,0.669475 -0.55137,0.79878 -0.24306,0.166434 -0.24158,0.236531 0.005,0.24 0.19162,0.0027 1.35537,-0.9671 2.58612,-2.1551 z m 50.85312,72.80241 c 0.21145,-1.45333 0.55893,-3.83847 0.77219,-5.30032 0.5735,-3.93124 0.28369,-12.04051 -0.48253,-13.50209 -0.61727,-1.17744 -1.03855,-1.58698 -1.64083,-1.5951 -0.47009,-0.006 -3.79792,2.22191 -5.2141,3.49127 -0.60369,0.5411 -1.28018,0.98383 -1.5033,0.98383 -0.36227,0 2.5138,-2.84803 5.25119,-5.2 1.45858,-1.25321 2.86579,-1.19568 3.91341,0.16001 1.09611,1.41843 1.52503,2.33548 2.05798,4.39999 0.67527,2.61587 0.28906,8.20877 -0.7734,11.2 -0.15628,0.44 -0.74713,2.312 -1.31299,4.16 -0.56585,1.848 -1.12406,3.46908 -1.24045,3.60241 -0.11639,0.13332 -0.0386,-0.94668 0.17283,-2.4 z"
     id="path32"
     inkscape:connector-curvature="0" />
</svg>
