<svg width="442" height="537" fill="none" xmlns="http://www.w3.org/2000/svg"><mask id="a" fill="#fff"><path d="M324.419 61.766c32.559 14.417 59.496 40.634 77.405 75.338 17.909 34.703 25.986 76.333 23.208 119.625-2.778 43.293-16.285 86.304-38.813 123.594-22.528 37.289-53.065 67.184-87.75 85.902l-.291-1.002c34.509-18.623 64.892-48.366 87.306-85.467s35.852-79.894 38.616-122.967c2.763-43.073-5.272-84.492-23.09-119.02-17.818-34.527-44.619-60.612-77.014-74.955l.423-1.048z"/></mask><path d="M324.419 61.766c32.559 14.417 59.496 40.634 77.405 75.338 17.909 34.703 25.986 76.333 23.208 119.625-2.778 43.293-16.285 86.304-38.813 123.594-22.528 37.289-53.065 67.184-87.75 85.902l-.291-1.002c34.509-18.623 64.892-48.366 87.306-85.467s35.852-79.894 38.616-122.967c2.763-43.073-5.272-84.492-23.09-119.02-17.818-34.527-44.619-60.612-77.014-74.955l.423-1.048z" stroke="#7887A6" stroke-width="2" stroke-dasharray="3 5" mask="url(#a)"/><path d="M292.14 468.156l10.718-15.751-7.113 13.887 15.396 3.271-19.001-1.407z" fill="#7887A6"/></svg>