<svg width="15" height="16" viewBox="0 0 15 16" fill="none" xmlns="http://www.w3.org/2000/svg">
<g clip-path="url(#clip0)">
<path d="M14.571 2.08011C14.3503 1.85906 13.9923 1.85868 13.7716 2.07917L6.98958 8.84329L4.54265 6.18568C4.33121 5.95617 3.97373 5.94129 3.74384 6.15269C3.51412 6.36413 3.49942 6.72179 3.71085 6.9515L6.55634 10.0418C6.66055 10.155 6.80639 10.2208 6.96017 10.224C6.9643 10.2242 6.96828 10.2242 6.97224 10.2242C7.12168 10.2242 7.26544 10.1648 7.37135 10.0593L14.5699 2.87965C14.7911 2.65919 14.7915 2.30115 14.571 2.08011Z" fill="url(#paint0_linear)"/>
<path d="M14.4347 6.96395C14.1224 6.96395 13.8693 7.21702 13.8693 7.5293C13.8693 11.0415 11.0122 13.8986 7.5 13.8986C3.98801 13.8986 1.13065 11.0415 1.13065 7.5293C1.13065 4.0173 3.98801 1.15995 7.5 1.15995C7.81225 1.15995 8.06534 0.906885 8.06534 0.594639C8.06534 0.282363 7.81225 0.0292969 7.5 0.0292969C3.36445 0.0292969 0 3.39375 0 7.5293C0 11.6647 3.36445 15.0293 7.5 15.0293C11.6354 15.0293 15 11.6647 15 7.5293C15 7.21705 14.7469 6.96395 14.4347 6.96395Z" fill="url(#paint1_linear)"/>
</g>
<defs>
<linearGradient id="paint0_linear" x1="9.14874" y1="1.91406" x2="9.14874" y2="10.2242" gradientUnits="userSpaceOnUse">
<stop stop-color="#FFE5AC"/>
<stop offset="0.0001" stop-color="#FFE5AC"/>
<stop offset="1" stop-color="#B99C5D"/>
</linearGradient>
<linearGradient id="paint1_linear" x1="7.5" y1="0.0292969" x2="7.5" y2="15.0293" gradientUnits="userSpaceOnUse">
<stop stop-color="#FFE5AC"/>
<stop offset="0.0001" stop-color="#FFE5AC"/>
<stop offset="1" stop-color="#B99C5D"/>
</linearGradient>
<clipPath id="clip0">
<rect y="0.0292969" width="15" height="15" fill="white"/>
</clipPath>
</defs>
</svg>
