<svg width="23" height="23" viewBox="0 0 23 23" fill="none" xmlns="http://www.w3.org/2000/svg">
<path d="M2.47603 0H11.2047C11.3833 0 11.5548 0.0710676 11.6811 0.19741L22.2762 10.7921C23.2413 11.7576 23.2413 13.3282 22.2762 14.2934L14.2936 22.2757C13.8275 22.7418 13.2058 22.9985 12.5432 22.9987H12.5431C11.8803 22.9987 11.2586 22.7418 10.7923 22.2756L0.197653 11.6807C0.07131 11.5544 0.000242233 11.3829 0.000242233 11.2043L6.67572e-05 2.47561C0.000242233 1.11058 1.111 0 2.47603 0ZM1.34789 10.9253L11.7453 21.3227C11.957 21.5345 12.2404 21.6511 12.5431 21.6511C12.8459 21.6511 13.1291 21.5345 13.3408 21.3229L21.3233 13.3405C21.7631 12.9008 21.7631 12.1848 21.3233 11.7449L10.9257 1.34765H2.47603C1.85397 1.34765 1.34772 1.85372 1.34772 2.47578L1.34789 10.9253Z" fill="url(#paint0_linear)"/>
<path d="M5.93916 3.82178C6.50472 3.82178 7.03642 4.04218 7.43633 4.44209C7.83624 4.84182 8.05646 5.37351 8.05646 5.93907C8.05646 6.50463 7.83624 7.03632 7.43633 7.43623C7.03642 7.83614 6.50472 8.05637 5.93916 8.05637C5.37378 8.05637 4.84209 7.83614 4.44218 7.43623C4.04227 7.03632 3.82204 6.50463 3.82204 5.93907C3.82204 5.37351 4.04227 4.84182 4.442 4.44209C4.84191 4.04218 5.3736 3.82178 5.93916 3.82178ZM5.39501 6.48322C5.54031 6.62869 5.73368 6.70871 5.93916 6.70871C6.14482 6.70871 6.33802 6.62869 6.48331 6.48322C6.62878 6.33793 6.7088 6.14455 6.7088 5.93907C6.7088 5.73359 6.62878 5.54021 6.48331 5.39492C6.33802 5.24945 6.14465 5.16943 5.93916 5.16943C5.73368 5.16943 5.54048 5.24945 5.39501 5.39492C5.24954 5.54021 5.16953 5.73359 5.16953 5.93907C5.16953 6.14455 5.24972 6.33793 5.39501 6.48322Z" fill="url(#paint1_linear)"/>
<defs>
<linearGradient id="paint0_linear" x1="11.5" y1="0" x2="11.5" y2="22.9987" gradientUnits="userSpaceOnUse">
<stop stop-color="#FFE5AC"/>
<stop offset="0.0001" stop-color="#FFE5AC"/>
<stop offset="1" stop-color="#B99C5D"/>
</linearGradient>
<linearGradient id="paint1_linear" x1="5.93925" y1="3.82178" x2="5.93925" y2="8.05637" gradientUnits="userSpaceOnUse">
<stop stop-color="#FFE5AC"/>
<stop offset="0.0001" stop-color="#FFE5AC"/>
<stop offset="1" stop-color="#B99C5D"/>
</linearGradient>
</defs>
</svg>
