<svg width="13" height="13" viewBox="0 0 13 13" fill="none" xmlns="http://www.w3.org/2000/svg">
<path d="M6.49985 0C4.11049 0 2.1665 1.94398 2.1665 4.33334C2.1665 5.05063 2.34584 5.76182 2.68676 6.39262L6.26288 12.8604C6.31048 12.9466 6.4012 13 6.49985 13C6.59849 13 6.68921 12.9466 6.73682 12.8604L10.3143 6.39049C10.6539 5.76182 10.8332 5.0506 10.8332 4.33332C10.8332 1.94398 8.8892 0 6.49985 0ZM6.49985 6.5C5.30517 6.5 4.33319 5.52802 4.33319 4.33334C4.33319 3.13866 5.30517 2.16668 6.49985 2.16668C7.69453 2.16668 8.6665 3.13866 8.6665 4.33334C8.6665 5.52802 7.69453 6.5 6.49985 6.5Z" fill="#6A6A6A"/>
</svg>
