<svg width="17" height="12" viewBox="0 0 17 12" fill="none" xmlns="http://www.w3.org/2000/svg">
<path d="M10.3729 0.278858C10.1085 0.0580324 9.68906 0.0667379 9.43715 0.298881C9.18492 0.531024 9.19551 0.89839 9.45999 1.11951L14.5385 5.34189H1.30999C0.944542 5.34189 0.647949 5.60189 0.647949 5.92225C0.647949 6.24261 0.944542 6.50261 1.30999 6.50261H14.5173L9.45999 10.7253C9.19518 10.9464 9.18492 11.3138 9.43715 11.5459C9.56724 11.6655 9.74169 11.7258 9.91647 11.7258C10.0807 11.7258 10.2448 11.6727 10.3729 11.5656L16.1489 6.74288C16.3991 6.52379 16.5368 6.23245 16.5368 5.92225C16.5368 5.61205 16.3991 5.32071 16.1373 5.09176L10.3729 0.278858Z" fill="#4F4531"/>
</svg>
