<svg width="83" height="83" viewBox="0 0 83 83" fill="none" xmlns="http://www.w3.org/2000/svg">
<path d="M37.1103 28.9555L34.5166 30.0361L35.5142 32.4304L38.1079 31.3497L37.1103 28.9555Z" fill="url(#paint0_linear)"/>
<path d="M31.9228 31.1167L20.251 35.98L21.2486 38.3742L32.9204 33.5109L31.9228 31.1167Z" fill="url(#paint1_linear)"/>
<path d="M78.9516 71.9297L72.5726 65.5506C73.8623 63.3383 74.7023 60.8931 75.0444 58.3554C75.3865 55.8176 75.2239 53.2373 74.5661 50.7625C73.9083 48.2877 72.7682 45.9672 71.2112 43.9343C69.6541 41.9013 67.7109 40.1959 65.493 38.916L64.1953 41.1612C66.6632 42.5857 68.7298 44.6124 70.2021 47.052C71.6744 49.4917 72.5045 52.2646 72.6147 55.112C72.7249 57.9594 72.1117 60.7882 70.8323 63.3343C69.553 65.8805 67.6492 68.0608 65.2988 69.6718C62.9484 71.2828 60.2281 72.2718 57.3919 72.5466C54.5557 72.8213 51.6961 72.3727 49.0802 71.2428C46.4644 70.1129 44.1775 68.3384 42.4333 66.0852C40.689 63.8319 39.5443 61.1733 39.106 58.3578C39.1027 58.3367 39.099 58.3158 39.0948 58.2952C38.9697 57.4577 38.9067 56.6121 38.9062 55.7653C38.912 52.8065 39.6935 49.9009 41.1729 47.3384C42.6522 44.776 44.7776 42.6462 47.3371 41.1617C48.8356 40.2937 50.4598 39.6638 52.1517 39.2944L51.5983 36.7603C50.358 37.0315 49.1475 37.4244 47.9844 37.9333V36.3122H45.3906V39.3098C42.6152 41.0674 40.3282 43.4969 38.7413 46.3734C37.1545 49.2498 36.3191 52.4802 36.3125 55.7653C36.3125 56.0192 36.3175 56.2732 36.3276 56.5272L16.8594 48.4164V34.583L36.8113 26.2702L35.8137 23.876L15.3031 32.4216H3.89062C3.54667 32.4216 3.21681 32.5582 2.9736 32.8014C2.73038 33.0446 2.59375 33.3745 2.59375 33.7184V49.2809C2.59375 49.6249 2.73038 49.9548 2.9736 50.198C3.21681 50.4412 3.54667 50.5778 3.89062 50.5778H6.66853L9.0932 66.3374C9.14029 66.6436 9.29543 66.9229 9.53054 67.1246C9.76565 67.3263 10.0652 67.4372 10.375 67.4372H18.1562C18.3432 67.4372 18.528 67.3968 18.6979 67.3187C18.8678 67.2406 19.0188 67.1267 19.1405 66.9848C19.2623 66.8429 19.3519 66.6763 19.4032 66.4965C19.4546 66.3168 19.4665 66.128 19.438 65.9432L17.1954 51.3663L36.6691 59.4801C37.2609 62.5277 38.5738 65.3893 40.498 67.8256C42.4222 70.2619 44.9018 72.2021 47.7294 73.4838C50.557 74.7656 53.6504 75.3517 56.7509 75.1931C59.8514 75.0345 62.8688 74.1358 65.5509 72.5722L71.9299 78.9513C72.3901 79.4161 72.9376 79.7854 73.541 80.038C74.1444 80.2906 74.7917 80.4214 75.4458 80.423C76.0999 80.4246 76.7478 80.297 77.3525 80.0474C77.9571 79.7979 78.5064 79.4313 78.9689 78.9688C79.4315 78.5063 79.798 77.9569 80.0476 77.3523C80.2971 76.7477 80.4248 76.0997 80.4232 75.4456C80.4215 74.7915 80.2907 74.1442 80.0381 73.5408C79.7856 72.9375 79.4163 72.3899 78.9515 71.9297H78.9516ZM5.1875 35.0153H14.2656V47.9841H5.1875V35.0153ZM11.4876 64.8434L9.29292 50.5778H14.4499L16.6446 64.8434H11.4876ZM77.1164 77.1184C76.8962 77.3384 76.6349 77.513 76.3472 77.632C76.0596 77.7511 75.7513 77.8123 75.44 77.8122C75.1287 77.8121 74.8205 77.7507 74.533 77.6314C74.2454 77.5122 73.9842 77.3375 73.7641 77.1172L67.7359 71.089C68.9852 70.1109 70.1112 68.9849 71.0893 67.7356L77.1175 73.7638C77.3382 73.9837 77.5131 74.2451 77.6324 74.5328C77.7517 74.8206 77.8129 75.129 77.8125 75.4405C77.8135 75.7524 77.7524 76.0613 77.6329 76.3493C77.5134 76.6374 77.3378 76.8988 77.1164 77.1184Z" fill="url(#paint2_linear)"/>
<path d="M51.4859 42.1533C48.297 43.1558 45.5614 45.2464 43.7566 48.0601C41.9517 50.8738 41.1923 54.2319 41.6108 57.5484C42.0294 60.8649 43.5993 63.9291 46.0465 66.2062C48.4938 68.4833 51.663 69.8287 55.0011 70.0075C58.3391 70.1863 61.6339 69.1873 64.3104 67.1846C66.987 65.182 68.8753 62.3031 69.6457 59.0503C70.4162 55.7975 70.0199 52.3774 68.526 49.387C67.0321 46.3966 64.5355 44.0257 61.4719 42.6883L60.4344 45.0645C62.9411 46.1584 64.9841 48.0979 66.2067 50.5444C67.4293 52.991 67.754 55.7892 67.124 58.4507C66.494 61.1121 64.9493 63.4678 62.7596 65.1066C60.57 66.7455 57.8743 67.5633 55.1432 67.4173C52.4121 67.2714 49.8189 66.171 47.8163 64.3082C45.8138 62.4454 44.5289 59.9385 44.1861 57.225C43.8433 54.5116 44.4643 51.7639 45.9407 49.4616C47.417 47.1593 49.655 45.4485 52.2641 44.6279L51.4859 42.1533Z" fill="url(#paint3_linear)"/>
<path d="M55.7657 46.6875C54.735 46.6864 53.7116 46.8612 52.7397 47.2045L53.6041 49.6499C54.2984 49.4049 55.0294 49.2802 55.7657 49.2813V46.6875Z" fill="url(#paint4_linear)"/>
<path d="M51.4431 50.9322L49.7134 48.9995C48.7614 49.851 47.9998 50.8938 47.4784 52.0598C46.957 53.2257 46.6875 54.4886 46.6875 55.7658C46.6875 57.043 46.957 58.3059 47.4784 59.4718C47.9998 60.6378 48.7614 61.6806 49.7134 62.5321L51.4431 60.5994C50.7629 59.9912 50.2188 59.2463 49.8462 58.4133C49.4737 57.5804 49.2811 56.6782 49.2811 55.7658C49.2811 54.8534 49.4737 53.9512 49.8462 53.1183C50.2188 52.2853 50.7629 51.5404 51.4431 50.9322Z" fill="url(#paint5_linear)"/>
<path d="M73.9219 2.59375H45.3906C43.6715 2.59568 42.0232 3.27947 40.8076 4.49511C39.592 5.71075 38.9082 7.35895 38.9062 9.07812V27.2344C38.9082 28.9535 39.592 30.6018 40.8076 31.8174C42.0232 33.033 43.6715 33.7168 45.3906 33.7188H54.4688V44.0938C54.4688 44.3567 54.5487 44.6135 54.698 44.83C54.8473 45.0465 55.0589 45.2125 55.3047 45.3059C55.5505 45.3994 55.819 45.4159 56.0744 45.3533C56.3298 45.2907 56.5602 45.1519 56.7349 44.9554L66.7231 33.7188H73.9219C75.641 33.7168 77.2892 33.033 78.5049 31.8174C79.7205 30.6018 80.4043 28.9535 80.4062 27.2344V9.07812C80.4043 7.35895 79.7205 5.71075 78.5049 4.49511C77.2892 3.27947 75.641 2.59568 73.9219 2.59375ZM77.8125 27.2344C77.8113 28.2659 77.4011 29.2548 76.6717 29.9842C75.9423 30.7136 74.9534 31.1238 73.9219 31.125H66.1406C65.9575 31.125 65.7764 31.1638 65.6094 31.2388C65.4423 31.3138 65.293 31.4234 65.1714 31.5603L57.0625 40.6826V32.4219C57.0625 32.0779 56.9259 31.7481 56.6827 31.5048C56.4394 31.2616 56.1096 31.125 55.7656 31.125H45.3906C44.3591 31.1238 43.3702 30.7136 42.6408 29.9842C41.9114 29.2548 41.5012 28.2659 41.5 27.2344V9.07812C41.5012 8.04662 41.9114 7.0577 42.6408 6.32832C43.3702 5.59893 44.3591 5.18866 45.3906 5.1875H73.9219C74.9534 5.18866 75.9423 5.59893 76.6717 6.32832C77.4011 7.0577 77.8113 8.04662 77.8125 9.07812V27.2344Z" fill="url(#paint6_linear)"/>
<path d="M72.625 7.78125H67.4375C67.0935 7.78125 66.7637 7.91788 66.5205 8.1611C66.2773 8.40431 66.1406 8.73417 66.1406 9.07812V24.6406H63.5469V14.2656C63.5469 13.9217 63.4102 13.5918 63.167 13.3486C62.9238 13.1054 62.594 12.9688 62.25 12.9688H57.0625C56.7185 12.9688 56.3887 13.1054 56.1455 13.3486C55.9023 13.5918 55.7656 13.9217 55.7656 14.2656V24.6406H53.1719V19.4531C53.1719 19.1092 53.0352 18.7793 52.792 18.5361C52.5488 18.2929 52.219 18.1562 51.875 18.1562H46.6875C46.3435 18.1562 46.0137 18.2929 45.7705 18.5361C45.5273 18.7793 45.3906 19.1092 45.3906 19.4531V25.9375C45.3906 26.2815 45.5273 26.6113 45.7705 26.8545C46.0137 27.0977 46.3435 27.2344 46.6875 27.2344H72.625C72.969 27.2344 73.2988 27.0977 73.542 26.8545C73.7852 26.6113 73.9219 26.2815 73.9219 25.9375V9.07812C73.9219 8.73417 73.7852 8.40431 73.542 8.1611C73.2988 7.91788 72.969 7.78125 72.625 7.78125ZM47.9844 24.6406V20.75H50.5781V24.6406H47.9844ZM58.3594 24.6406V15.5625H60.9531V24.6406H58.3594ZM68.7344 24.6406V10.375H71.3281V24.6406H68.7344Z" fill="url(#paint7_linear)"/>
<defs>
<linearGradient id="paint0_linear" x1="35.8135" y1="29.4958" x2="36.811" y2="31.89" gradientUnits="userSpaceOnUse">
<stop stop-color="#FFE5AC"/>
<stop offset="0.0001" stop-color="#FFE5AC"/>
<stop offset="1" stop-color="#B99C5D"/>
</linearGradient>
<linearGradient id="paint1_linear" x1="26.0869" y1="33.5483" x2="27.0845" y2="35.9426" gradientUnits="userSpaceOnUse">
<stop stop-color="#FFE5AC"/>
<stop offset="0.0001" stop-color="#FFE5AC"/>
<stop offset="1" stop-color="#B99C5D"/>
</linearGradient>
<linearGradient id="paint2_linear" x1="41.5085" y1="23.876" x2="41.5085" y2="80.423" gradientUnits="userSpaceOnUse">
<stop stop-color="#FFE5AC"/>
<stop offset="0.0001" stop-color="#FFE5AC"/>
<stop offset="1" stop-color="#B99C5D"/>
</linearGradient>
<linearGradient id="paint3_linear" x1="55.7642" y1="42.1533" x2="55.7642" y2="70.028" gradientUnits="userSpaceOnUse">
<stop stop-color="#FFE5AC"/>
<stop offset="0.0001" stop-color="#FFE5AC"/>
<stop offset="1" stop-color="#B99C5D"/>
</linearGradient>
<linearGradient id="paint4_linear" x1="54.2527" y1="46.6875" x2="54.2527" y2="49.6499" gradientUnits="userSpaceOnUse">
<stop stop-color="#FFE5AC"/>
<stop offset="0.0001" stop-color="#FFE5AC"/>
<stop offset="1" stop-color="#B99C5D"/>
</linearGradient>
<linearGradient id="paint5_linear" x1="49.0653" y1="48.9995" x2="49.0653" y2="62.5321" gradientUnits="userSpaceOnUse">
<stop stop-color="#FFE5AC"/>
<stop offset="0.0001" stop-color="#FFE5AC"/>
<stop offset="1" stop-color="#B99C5D"/>
</linearGradient>
<linearGradient id="paint6_linear" x1="59.6562" y1="2.59375" x2="59.6562" y2="45.3906" gradientUnits="userSpaceOnUse">
<stop stop-color="#FFE5AC"/>
<stop offset="0.0001" stop-color="#FFE5AC"/>
<stop offset="1" stop-color="#B99C5D"/>
</linearGradient>
<linearGradient id="paint7_linear" x1="59.6562" y1="7.78125" x2="59.6562" y2="27.2344" gradientUnits="userSpaceOnUse">
<stop stop-color="#FFE5AC"/>
<stop offset="0.0001" stop-color="#FFE5AC"/>
<stop offset="1" stop-color="#B99C5D"/>
</linearGradient>
</defs>
</svg>
