<svg width="26" height="27" viewBox="0 0 26 27" fill="none" xmlns="http://www.w3.org/2000/svg">
<g clip-path="url(#clip0)">
<path d="M10.8392 2.42676C5.81533 2.42676 1.74268 6.49941 1.74268 11.5233C1.74268 16.5472 5.81533 20.6199 10.8392 20.6199C15.8631 20.6199 19.9358 16.5472 19.9358 11.5233C19.9303 6.50169 15.8608 2.43223 10.8392 2.42676ZM10.8392 3.2931C13.5149 3.29521 16.0223 4.59926 17.5603 6.78877L16.4774 7.87169C16.2138 7.71223 15.9121 7.6269 15.6041 7.62479C14.6472 7.62479 13.8714 8.40054 13.8714 9.35746C13.8729 9.66582 13.9578 9.96801 14.117 10.232L11.2806 13.0684C10.7435 12.7409 10.0686 12.7409 9.53149 13.0684L7.56143 11.0984C7.72068 10.8344 7.80553 10.5322 7.80704 10.2238C7.80823 9.26877 7.03503 8.49362 6.08 8.49242C5.29017 8.49145 4.60007 9.02571 4.4032 9.79063H2.79614C3.61629 6.00327 6.96409 3.29878 10.8392 3.2931ZM16.4704 9.35746C16.4704 9.83595 16.0826 10.2238 15.6041 10.2238C15.1256 10.2238 14.7377 9.83595 14.7377 9.35746C14.7377 8.87897 15.1256 8.49112 15.6041 8.49112C16.0826 8.49112 16.4704 8.87897 16.4704 9.35746ZM11.2724 14.5555C11.2724 15.034 10.8845 15.4218 10.4061 15.4218C9.92757 15.4218 9.53972 15.034 9.53972 14.5555C9.53972 14.077 9.92757 13.6892 10.4061 13.6892C10.8845 13.6892 11.2724 14.077 11.2724 14.5555ZM6.9407 10.2238C6.9407 10.7023 6.55285 11.0901 6.07437 11.0901C5.59588 11.0901 5.20803 10.7023 5.20803 10.2238C5.20803 9.74531 5.59588 9.35746 6.07437 9.35746C6.55285 9.35746 6.9407 9.74531 6.9407 10.2238ZM14.8381 18.7197C13.6149 19.3989 12.2385 19.7547 10.8392 19.7535C6.29691 19.7566 2.6121 16.0768 2.60901 11.5345C2.6088 11.2414 2.62428 10.9484 2.65536 10.6569H4.4032C4.60013 11.4196 5.2867 11.9534 6.07437 11.9564C6.38273 11.9549 6.68492 11.8701 6.94893 11.7108L8.91899 13.6809C8.75974 13.9449 8.67489 14.2471 8.67338 14.5554C8.67338 15.5124 9.44913 16.2881 10.4061 16.2881C11.363 16.2881 12.1387 15.5124 12.1387 14.5554C12.1372 14.2471 12.0524 13.9449 11.8931 13.6809L14.7295 10.8445C14.9935 11.0037 15.2957 11.0886 15.6041 11.0901C16.561 11.0901 17.3368 10.3143 17.3368 9.35741C17.3352 9.04905 17.2504 8.74686 17.0912 8.48284L18.0355 7.53897C20.24 11.5094 18.8085 16.5151 14.8381 18.7197Z" fill="#191919"/>
<path d="M21.6683 5.02742C22.456 5.02444 23.1425 4.49061 23.3395 3.72791H26V2.86157H23.3395C23.1425 2.09887 22.456 1.56504 21.6683 1.56207C20.7114 1.56207 19.9356 2.33782 19.9356 3.29474C19.9371 3.6031 20.022 3.90529 20.1812 4.16931L19.4201 4.93039C15.7785 0.18605 8.98039 -0.707903 4.23605 2.9337C-0.508286 6.57529 -1.40224 13.3735 2.23936 18.1178C5.67677 22.5961 11.9778 23.6824 16.7163 20.6137L18.0236 21.921L18.6361 22.5335L22.1231 26.0205C23.01 26.9074 24.4478 26.9074 25.3346 26.0205C26.2215 25.1337 26.2215 23.6959 25.3346 22.809L21.8476 19.322L21.2351 18.7095L19.9278 17.4022C22.2485 13.8277 22.2485 9.22228 19.9278 5.64772L20.7942 4.78138C21.058 4.94068 21.3601 5.02569 21.6683 5.02742ZM21.6683 2.4284C22.1468 2.4284 22.5346 2.81625 22.5346 3.29474C22.5346 3.77323 22.1468 4.16108 21.6683 4.16108C21.1898 4.16108 20.802 3.77323 20.802 3.29474C20.802 2.81625 21.1899 2.4284 21.6683 2.4284ZM24.7221 23.4215C25.2769 23.9638 25.287 24.8532 24.7447 25.408C24.2024 25.9628 23.313 25.9729 22.7582 25.4306C22.7506 25.4232 22.7431 25.4157 22.7356 25.408L19.2486 21.921L21.2351 19.9345L24.7221 23.4215ZM20.6226 19.322L18.6361 21.3085L17.4371 20.1095C17.4982 20.0627 17.5554 20.0112 17.6156 19.9631C17.6758 19.915 17.7455 19.8574 17.8101 19.8033C17.9049 19.7235 17.9985 19.643 18.0903 19.5602C18.1375 19.5169 18.1826 19.4736 18.2289 19.4303C18.4065 19.264 18.5785 19.092 18.7448 18.9144C18.7882 18.868 18.8315 18.823 18.8748 18.7758C18.9575 18.6839 19.0381 18.5904 19.1178 18.4955C19.1721 18.4314 19.2254 18.3666 19.2776 18.301C19.3253 18.2412 19.3768 18.1841 19.4236 18.123L20.6226 19.322ZM18.9428 17.3099C18.8063 17.5005 18.6656 17.6872 18.517 17.867C18.4737 17.9194 18.4273 17.9701 18.3827 18.0216C18.2502 18.1758 18.1133 18.3254 17.9721 18.4704C17.9105 18.5339 17.848 18.5964 17.7845 18.658C17.6401 18.7992 17.4905 18.936 17.3357 19.0686C17.2842 19.1119 17.2335 19.1591 17.1811 19.2029C17.0013 19.3515 16.8146 19.4922 16.624 19.6287C12.1399 22.8322 5.90771 21.7941 2.70415 17.3099C-0.499406 12.8258 0.538737 6.5936 5.0229 3.39004C9.50707 0.186483 15.7392 1.22457 18.9428 5.70879C21.4217 9.17859 21.4217 13.8401 18.9428 17.3099Z" fill="#191919"/>
</g>
<defs>
<clipPath id="clip0">
<rect y="0.688477" width="26" height="26" fill="white"/>
</clipPath>
</defs>
</svg>
