<svg width="110" height="110" viewBox="0 0 110 110" fill="none" xmlns="http://www.w3.org/2000/svg">
<path d="M70.173 28.5881C73.1346 28.5881 75.5441 26.1786 75.5441 23.217C75.5441 20.2554 73.1346 17.8457 70.173 17.8457C67.2113 17.8457 64.8019 20.2554 64.8019 23.217C64.8019 24.4266 65.2041 25.5438 65.8815 26.4427L57.0565 38.7749C56.5299 38.602 55.9681 38.507 55.3842 38.507C53.9729 38.507 52.6877 39.0551 51.7282 39.9484L45.846 36.6106C45.9244 36.2462 45.9665 35.8685 45.9665 35.4811C45.9665 32.5195 43.557 30.1101 40.5954 30.1101C37.6338 30.1101 35.2243 32.5195 35.2243 35.4811C35.2243 35.8685 35.2664 36.2462 35.3448 36.6106L29.4626 39.9484C28.5031 39.0551 27.218 38.5072 25.8066 38.5072C22.845 38.5072 20.4355 40.9169 20.4355 43.8785C20.4355 46.8401 22.845 49.2498 25.8066 49.2498C28.7683 49.2498 31.1777 46.8401 31.1777 43.8785C31.1777 43.4912 31.1356 43.1135 31.0572 42.7491L36.9394 39.4113C37.8989 40.3046 39.1841 40.8527 40.5954 40.8527C42.0067 40.8527 43.2917 40.3046 44.2514 39.4115L50.1336 42.7493C50.0552 43.1137 50.0131 43.4914 50.0131 43.8787C50.0131 46.8404 52.4226 49.2501 55.3842 49.2501C58.346 49.2501 60.7555 46.8404 60.7555 43.8787C60.7555 42.669 60.3531 41.5516 59.6757 40.6526L68.5006 28.3204C69.027 28.4931 69.589 28.5881 70.173 28.5881ZM70.173 21.0684C71.3576 21.0684 72.3214 22.0321 72.3214 23.217C72.3214 24.4017 71.3576 25.3654 70.173 25.3654C68.9883 25.3654 68.0245 24.4017 68.0245 23.217C68.0243 22.0321 68.9881 21.0684 70.173 21.0684ZM25.806 46.0268C24.6213 46.0268 23.6576 45.063 23.6576 43.8781C23.6576 42.6932 24.6213 41.7294 25.806 41.7294C26.9906 41.7294 27.9544 42.6932 27.9544 43.8781C27.9544 45.063 26.9906 46.0268 25.806 46.0268ZM40.595 37.6296C39.4103 37.6296 38.4465 36.6658 38.4465 35.4809C38.4465 34.2963 39.4103 33.3325 40.595 33.3325C41.7796 33.3325 42.7434 34.2963 42.7434 35.4809C42.7436 36.6658 41.7796 37.6296 40.595 37.6296ZM55.384 46.0268C54.1993 46.0268 53.2355 45.063 53.2355 43.8781C53.2355 42.6932 54.1993 41.7294 55.384 41.7294C56.5688 41.7294 57.5326 42.6932 57.5326 43.8781C57.5326 45.063 56.5686 46.0268 55.384 46.0268Z" fill="url(#paint0_linear)"/>
<path d="M89.9757 80.989H78.6994H17.2795H4.55791C3.82164 80.989 3.22266 80.3901 3.22266 79.6538V13.1771C3.22266 12.4408 3.82164 11.8418 4.55791 11.8418H12.1539C13.0438 11.8418 13.7653 11.1206 13.7653 10.2305C13.7653 9.34037 13.0438 8.61914 12.1539 8.61914H4.55791C2.04467 8.61914 0 10.6638 0 13.1771V79.6538C0 82.167 2.04467 84.2117 4.55791 84.2117H15.6681V87.7579C15.6681 89.7781 17.3117 91.4216 19.3319 91.4216H35.461L27.8685 106.245C27.4628 107.038 27.7759 108.008 28.568 108.414C28.803 108.535 29.054 108.592 29.3013 108.592C29.8867 108.592 30.4515 108.272 30.7366 107.715L39.0818 91.4216H56.8971L65.2422 107.715C65.5276 108.272 66.0922 108.592 66.6776 108.592C66.9249 108.592 67.1758 108.534 67.4109 108.414C68.203 108.008 68.5163 107.038 68.1104 106.245L60.5178 91.4216H76.647C78.6672 91.4216 80.3107 89.7783 80.3107 87.7579V84.2117H89.9757C90.8656 84.2117 91.587 83.4905 91.587 82.6004C91.587 81.7103 90.8656 80.989 89.9757 80.989ZM77.0881 87.7579C77.0881 88.0011 76.8902 88.199 76.647 88.199H19.3319C19.0887 88.199 18.8908 88.0011 18.8908 87.7579V84.2117H77.0881V87.7579Z" fill="url(#paint1_linear)"/>
<path d="M18.5991 11.8416H40.6576H55.3209H91.4206C92.1569 11.8416 92.7559 12.4405 92.7559 13.1768V28.4975C92.7559 29.3876 93.4773 30.1089 94.3672 30.1089C95.2571 30.1089 95.9785 29.3876 95.9785 28.4975V13.1768C95.9785 10.6636 93.9338 8.61891 91.4206 8.61891H56.9324V5.45168C56.9324 3.22268 55.1189 1.40918 52.8897 1.40918H43.0889C40.8599 1.40918 39.0462 3.22268 39.0462 5.45168V8.61891H18.5991C17.7092 8.61891 16.9878 9.34014 16.9878 10.2302C16.9878 11.1203 17.7092 11.8416 18.5991 11.8416ZM42.2689 5.45168C42.2689 4.99965 42.6367 4.63184 43.0889 4.63184H52.8897C53.3417 4.63184 53.7097 4.99965 53.7097 5.45168V8.61891H42.2691V5.45168H42.2689Z" fill="url(#paint2_linear)"/>
<path d="M22.5376 57.4873C21.6477 57.4873 20.9263 58.2085 20.9263 59.0986V73.3368C20.9263 74.2269 21.6477 74.9481 22.5376 74.9481H29.0746C29.9645 74.9481 30.686 74.2269 30.686 73.3368V59.0986C30.686 58.2085 29.9645 57.4873 29.0746 57.4873H22.5376ZM27.4633 71.7257H24.1489V60.7102H27.4633V71.7257Z" fill="url(#paint3_linear)"/>
<path d="M37.3262 49.2529C36.4363 49.2529 35.7148 49.9742 35.7148 50.8643V73.3371C35.7148 74.2272 36.4363 74.9484 37.3262 74.9484H43.8632C44.7531 74.9484 45.4746 74.2272 45.4746 73.3371V50.8643C45.4746 49.9742 44.7531 49.2529 43.8632 49.2529H37.3262ZM42.2521 71.7258H38.9377V52.4756H42.2521V71.7258Z" fill="url(#paint4_linear)"/>
<path d="M52.1152 57.4873C51.2254 57.4873 50.5039 58.2085 50.5039 59.0986V73.3368C50.5039 74.2269 51.2254 74.9481 52.1152 74.9481H58.6523C59.5422 74.9481 60.2636 74.2269 60.2636 73.3368V59.0986C60.2636 58.2085 59.5422 57.4873 58.6523 57.4873H52.1152ZM57.041 71.7257H53.7266V60.7102H57.041V71.7257Z" fill="url(#paint5_linear)"/>
<path d="M66.9043 66.9951C66.0144 66.9951 65.293 67.7163 65.293 68.6064V73.3367C65.293 74.2268 66.0144 74.948 66.9043 74.948H73.4413C74.3312 74.948 75.0527 74.2268 75.0527 73.3367C75.0527 72.4466 74.3312 71.7253 73.4413 71.7253H68.5156V68.6064C68.5156 67.7163 67.7942 66.9951 66.9043 66.9951Z" fill="url(#paint6_linear)"/>
<path d="M109.178 82.5047L99.9344 66.4933C102.276 63.997 103.982 60.9469 104.893 57.5472C106.349 52.1136 105.602 46.4381 102.789 41.5663C96.9824 31.5088 84.0766 28.0513 74.0197 33.8575C63.9627 39.6636 60.5048 52.5695 66.3111 62.6265C69.1239 67.4983 73.6654 70.9831 79.0991 72.4393C80.9136 72.9255 82.7546 73.1659 84.584 73.1659C86.1829 73.1659 87.7725 72.982 89.3271 72.6181L98.5693 88.6299C99.7021 90.593 101.765 91.6915 103.884 91.6912C104.922 91.6912 105.974 91.4272 106.936 90.872C108.826 89.7813 110 87.7474 110 85.5641C110 84.4944 109.716 83.4367 109.178 82.5047ZM79.9331 69.3264C75.3309 68.0932 71.4841 65.1415 69.1017 61.0152C64.184 52.4971 67.1129 41.5663 75.6308 36.6483C78.433 35.0305 81.4952 34.2622 84.5198 34.2622C90.689 34.2622 96.6978 37.4619 99.9978 43.1776C102.38 47.3039 103.013 52.1108 101.78 56.7132C100.546 61.3156 97.5947 65.1619 93.4685 67.5443C89.3424 69.9267 84.5355 70.5592 79.9331 69.3264ZM105.326 88.0808C103.939 88.8813 102.16 88.4048 101.361 87.019L92.4686 71.6139C93.3597 71.2501 94.2324 70.8248 95.0802 70.3353C95.9286 69.8455 96.7321 69.3002 97.4929 68.7098L106.387 84.1156C106.643 84.5584 106.778 85.0594 106.778 85.5643C106.778 86.5994 106.221 87.5639 105.326 88.0808Z" fill="url(#paint7_linear)"/>
<path d="M99.1594 56.635C100.297 52.9706 100.026 49.0476 98.3965 45.5886C98.0171 44.7834 97.0572 44.4383 96.2521 44.8175C95.4469 45.197 95.1019 46.1569 95.4813 46.9619C96.7667 49.6904 96.98 52.7861 96.0818 55.6792C95.1786 58.5882 93.2274 61.0294 90.5876 62.5535C87.7942 64.1666 84.5395 64.5946 81.4241 63.7599C78.3084 62.925 75.7041 60.9267 74.0914 58.1333C70.762 52.3667 72.745 44.9666 78.5116 41.6372C82.7279 39.2032 87.9605 39.5285 91.8429 42.4659C92.5527 43.003 93.5632 42.8631 94.1001 42.1533C94.6369 41.4436 94.4971 40.433 93.7872 39.8961C88.8692 36.1748 82.2405 35.763 76.9001 38.8462C73.3612 40.8893 70.8297 44.1885 69.772 48.1356C68.7143 52.0827 69.2572 56.2056 71.3004 59.7445C73.3436 63.2836 76.6427 65.8149 80.5898 66.8728C81.9079 67.226 83.2455 67.4006 84.5743 67.4006C87.225 67.4006 89.8416 66.7054 92.1987 65.3444C95.5432 63.4138 98.0151 60.3209 99.1594 56.635Z" fill="url(#paint8_linear)"/>
<defs>
<linearGradient id="paint0_linear" x1="47.9898" y1="17.8457" x2="47.9898" y2="49.2501" gradientUnits="userSpaceOnUse">
<stop stop-color="#FFE5AC"/>
<stop offset="0.0001" stop-color="#FFE5AC"/>
<stop offset="1" stop-color="#B99C5D"/>
</linearGradient>
<linearGradient id="paint1_linear" x1="45.7935" y1="8.61914" x2="45.7935" y2="108.592" gradientUnits="userSpaceOnUse">
<stop stop-color="#FFE5AC"/>
<stop offset="0.0001" stop-color="#FFE5AC"/>
<stop offset="1" stop-color="#B99C5D"/>
</linearGradient>
<linearGradient id="paint2_linear" x1="56.4832" y1="1.40918" x2="56.4832" y2="30.1089" gradientUnits="userSpaceOnUse">
<stop stop-color="#FFE5AC"/>
<stop offset="0.0001" stop-color="#FFE5AC"/>
<stop offset="1" stop-color="#B99C5D"/>
</linearGradient>
<linearGradient id="paint3_linear" x1="25.8061" y1="57.4873" x2="25.8061" y2="74.9481" gradientUnits="userSpaceOnUse">
<stop stop-color="#FFE5AC"/>
<stop offset="0.0001" stop-color="#FFE5AC"/>
<stop offset="1" stop-color="#B99C5D"/>
</linearGradient>
<linearGradient id="paint4_linear" x1="40.5947" y1="49.2529" x2="40.5947" y2="74.9484" gradientUnits="userSpaceOnUse">
<stop stop-color="#FFE5AC"/>
<stop offset="0.0001" stop-color="#FFE5AC"/>
<stop offset="1" stop-color="#B99C5D"/>
</linearGradient>
<linearGradient id="paint5_linear" x1="55.3838" y1="57.4873" x2="55.3838" y2="74.9481" gradientUnits="userSpaceOnUse">
<stop stop-color="#FFE5AC"/>
<stop offset="0.0001" stop-color="#FFE5AC"/>
<stop offset="1" stop-color="#B99C5D"/>
</linearGradient>
<linearGradient id="paint6_linear" x1="70.1728" y1="66.9951" x2="70.1728" y2="74.948" gradientUnits="userSpaceOnUse">
<stop stop-color="#FFE5AC"/>
<stop offset="0.0001" stop-color="#FFE5AC"/>
<stop offset="1" stop-color="#B99C5D"/>
</linearGradient>
<linearGradient id="paint7_linear" x1="86.747" y1="31.04" x2="86.747" y2="91.6912" gradientUnits="userSpaceOnUse">
<stop stop-color="#FFE5AC"/>
<stop offset="0.0001" stop-color="#FFE5AC"/>
<stop offset="1" stop-color="#B99C5D"/>
</linearGradient>
<linearGradient id="paint8_linear" x1="84.548" y1="36.79" x2="84.548" y2="67.4006" gradientUnits="userSpaceOnUse">
<stop stop-color="#FFE5AC"/>
<stop offset="0.0001" stop-color="#FFE5AC"/>
<stop offset="1" stop-color="#B99C5D"/>
</linearGradient>
</defs>
</svg>
