<svg width="18" height="14" viewBox="0 0 18 14" fill="none" xmlns="http://www.w3.org/2000/svg">
<path d="M10.849 0.314566C10.5744 0.0529718 10.1388 0.0632844 9.87725 0.338284C9.61531 0.613284 9.62631 1.04847 9.90097 1.31041L15.1748 6.31232H1.4375C1.058 6.31232 0.75 6.62032 0.75 6.99981C0.75 7.37931 1.058 7.68731 1.4375 7.68731H15.1528L9.90097 12.6896C9.62597 12.9515 9.61531 13.3867 9.87725 13.6617C10.0123 13.8033 10.1935 13.8748 10.375 13.8748C10.5455 13.8748 10.716 13.8119 10.849 13.6851L16.8471 7.97194C17.107 7.71241 17.25 7.36728 17.25 6.99981C17.25 6.63235 17.107 6.28722 16.8351 6.016L10.849 0.314566Z" fill="#4F4531"/>
</svg>
