<svg width="83" height="83" viewBox="0 0 83 83" fill="none" xmlns="http://www.w3.org/2000/svg">
<path d="M76.8555 10.8847H75.4333V5.39013C75.4333 2.41771 73.0156 0 70.0438 0C67.0714 0 64.6537 2.41771 64.6537 5.39013V10.8847H61.1791V5.39013C61.1791 2.41771 58.7614 0 55.7896 0C52.8172 0 50.3995 2.41771 50.3995 5.39013V10.8847H46.9249V5.39013C46.9249 2.41771 44.5072 0 41.5348 0C38.5623 0 36.1446 2.41771 36.1446 5.39013V10.8847H32.67V5.39013C32.67 2.41771 30.2523 0 27.2806 0C24.3081 0 21.8904 2.41771 21.8904 5.39013V10.8847H18.4158V5.39013C18.4158 2.41771 15.9981 0 13.0257 0C10.0539 0 7.63623 2.41771 7.63623 5.39013V10.8847H6.21397C3.77094 10.8847 1.7832 12.8725 1.7832 15.3155V40.7483C1.7832 41.422 2.32969 41.9685 3.00345 41.9685C3.67785 41.9685 4.2237 41.422 4.2237 40.7483V28.2171H60.1216C60.796 28.2171 61.3418 27.6706 61.3418 26.9969C61.3418 26.3225 60.796 25.776 60.1216 25.776H4.2237V15.3155C4.2237 14.2187 5.11657 13.3259 6.21397 13.3259H7.63623V14.0167C7.63623 16.9892 10.0539 19.4069 13.0257 19.4069C15.9981 19.4069 18.4158 16.9892 18.4158 14.0167V13.3259H21.8904V14.0167C21.8904 16.9892 24.3081 19.4069 27.2806 19.4069C30.2523 19.4069 32.67 16.9892 32.67 14.0167V13.3259H36.1446V14.0167C36.1446 16.9892 38.5623 19.4069 41.5348 19.4069C44.5072 19.4069 46.9249 16.9892 46.9249 14.0167V13.3259H50.3995V14.0167C50.3995 16.9892 52.8172 19.4069 55.789 19.4069C58.7614 19.4069 61.1791 16.9892 61.1791 14.0167V13.3259H64.6537V14.0167C64.6537 16.9892 67.0714 19.4069 70.0438 19.4069C73.0156 19.4069 75.4333 16.9892 75.4333 14.0167V13.3259H76.8555C77.9529 13.3259 78.8458 14.2187 78.8458 15.3155V25.7766H65.0026C64.3288 25.7766 63.7823 26.3231 63.7823 26.9969C63.7823 27.6706 64.3288 28.2171 65.0026 28.2171H78.8458V78.172C78.8458 79.4885 77.775 80.5594 76.4585 80.5594H6.61101C5.29451 80.5594 4.2237 79.4885 4.2237 78.172V45.6293C4.2237 44.9555 3.67785 44.409 3.00345 44.409C2.32969 44.409 1.7832 44.9555 1.7832 45.6293V78.172C1.7832 80.8342 3.94888 82.9999 6.61101 82.9999H76.4585C79.1206 82.9999 81.2863 80.8342 81.2863 78.172V15.3155C81.2863 12.8725 79.2986 10.8847 76.8555 10.8847ZM15.9753 14.0167C15.9753 15.6429 14.6525 16.9664 13.0257 16.9664C11.3996 16.9664 10.0767 15.6429 10.0767 14.0167V5.39013C10.0767 3.76397 11.3996 2.4405 13.0257 2.4405C14.6525 2.4405 15.9753 3.76397 15.9753 5.39013V14.0167ZM30.2295 14.0167C30.2295 15.6429 28.9067 16.9664 27.2806 16.9664C25.6544 16.9664 24.3309 15.6429 24.3309 14.0167V5.39013C24.3309 3.76397 25.6544 2.4405 27.2806 2.4405C28.9067 2.4405 30.2295 3.76397 30.2295 5.39013V14.0167ZM44.4844 14.0167C44.4844 15.6429 43.1609 16.9664 41.5348 16.9664C39.9086 16.9664 38.5851 15.6429 38.5851 14.0167V5.39013C38.5851 3.76397 39.9086 2.4405 41.5348 2.4405C43.1609 2.4405 44.4844 3.76397 44.4844 5.39013V14.0167ZM58.7386 14.0167C58.7386 15.6429 57.4157 16.9664 55.7896 16.9664C54.1628 16.9664 52.84 15.6429 52.84 14.0167V5.39013C52.84 3.76397 54.1628 2.4405 55.7896 2.4405C57.4157 2.4405 58.7386 3.76397 58.7386 5.39013V14.0167ZM72.9928 14.0167C72.9928 15.6429 71.6699 16.9664 70.0438 16.9664C68.417 16.9664 67.0942 15.6429 67.0942 14.0167V5.39013C67.0942 3.76397 68.417 2.4405 70.0438 2.4405C71.6699 2.4405 72.9928 3.76397 72.9928 5.39013V14.0167Z" fill="url(#paint0_linear)"/>
<path d="M41.5348 70.0439C50.8536 70.0439 58.4353 62.4621 58.4353 53.1434C58.4353 43.824 50.8536 36.2422 41.5348 36.2422C32.2161 36.2422 24.6343 43.824 24.6343 53.1434C24.6343 62.4621 32.2161 70.0439 41.5348 70.0439ZM41.5348 38.6833C49.5079 38.6833 55.9948 45.1696 55.9948 53.1434C55.9948 61.1165 49.5079 67.6034 41.5348 67.6034C33.5617 67.6034 27.0748 61.1165 27.0748 53.1434C27.0748 45.1696 33.5617 38.6833 41.5348 38.6833Z" fill="url(#paint1_linear)"/>
<path d="M28.1311 37.6021C28.3996 37.6021 28.6681 37.5147 28.8941 37.3355C29.4197 36.9144 29.5039 36.1463 29.0828 35.6188C28.6611 35.0932 27.8936 35.009 27.368 35.4301C26.8424 35.8519 26.7563 36.6193 27.1774 37.1449C27.4187 37.4463 27.7733 37.6021 28.1311 37.6021Z" fill="url(#paint2_linear)"/>
<path d="M41.5005 32.9034C42.1743 32.9015 42.7195 32.355 42.7176 31.68C42.7176 31.0062 42.1692 30.461 41.4954 30.4629C40.8216 30.4629 40.2771 31.0113 40.2783 31.6844C40.2783 32.3582 40.8248 32.9034 41.4973 32.9034H41.5005Z" fill="url(#paint3_linear)"/>
<path d="M36.7236 33.4429C36.8136 33.4429 36.906 33.4334 36.9972 33.4118C37.6545 33.2624 38.0648 32.6064 37.9135 31.951C37.7634 31.2936 37.1093 30.8833 36.452 31.0334C35.7947 31.1847 35.385 31.8382 35.5363 32.4962C35.6642 33.0604 36.167 33.4429 36.7236 33.4429Z" fill="url(#paint4_linear)"/>
<path d="M32.1919 35.0376C32.3711 35.0376 32.5535 34.999 32.7245 34.916C33.3292 34.621 33.5831 33.8921 33.2906 33.2855C32.9955 32.6788 32.2673 32.4249 31.66 32.7193C31.0533 33.0119 30.7994 33.7427 31.0939 34.3493C31.3035 34.7837 31.7398 35.0376 32.1919 35.0376Z" fill="url(#paint5_linear)"/>
<path d="M19.4114 48.1223C19.262 48.7796 19.6749 49.4338 20.3322 49.582C20.424 49.6035 20.5133 49.613 20.6026 49.613C21.1611 49.613 21.6639 49.2273 21.7918 48.6612C21.94 48.0039 21.5284 47.3498 20.8711 47.2016C20.2138 47.0534 19.5596 47.465 19.4114 48.1223Z" fill="url(#paint6_linear)"/>
<path d="M21.8019 57.6701C21.6524 57.0128 20.9983 56.6012 20.341 56.7525C19.6837 56.902 19.2734 57.5561 19.4228 58.2134C19.5513 58.7783 20.0541 59.162 20.6108 59.162C20.7007 59.162 20.7931 59.1525 20.8843 59.131C21.5416 58.9815 21.9513 58.3255 21.8019 57.6701Z" fill="url(#paint7_linear)"/>
<path d="M22.2042 63.6949C22.3828 63.6949 22.5633 63.6562 22.7343 63.5733C23.3415 63.2801 23.5955 62.55 23.3023 61.9427C23.0091 61.336 22.279 61.0821 21.6717 61.3766C21.0651 61.6691 20.8111 62.3999 21.1056 63.0053C21.3158 63.4416 21.7515 63.6949 22.2042 63.6949Z" fill="url(#paint8_linear)"/>
<path d="M22.7114 42.7548C22.1048 42.4616 21.3759 42.7174 21.0827 43.3241C20.7914 43.9326 21.0473 44.6615 21.6539 44.9528C21.8249 45.0358 22.0053 45.075 22.1827 45.075C22.6367 45.075 23.073 44.8192 23.2826 44.3816C23.5758 43.775 23.32 43.0461 22.7114 42.7548Z" fill="url(#paint9_linear)"/>
<path d="M46.2745 33.4265C46.8324 33.4265 47.3371 33.0427 47.4638 32.4747C47.6119 31.8174 47.1984 31.1652 46.543 31.017C46.5411 31.017 46.5411 31.017 46.5411 31.017C45.8838 30.8688 45.2316 31.2804 45.0834 31.9377C44.9352 32.595 45.3468 33.2492 46.006 33.3974C46.0953 33.417 46.1865 33.4265 46.2745 33.4265Z" fill="url(#paint10_linear)"/>
<path d="M18.8535 53.1683C18.8535 53.844 19.4019 54.3886 20.0757 54.3873C20.7494 54.3873 21.294 53.8402 21.294 53.167C21.294 52.4914 20.7456 51.9468 20.0725 51.9468C19.3987 51.948 18.8535 52.4945 18.8535 53.1683Z" fill="url(#paint11_linear)"/>
<path d="M59.7776 61.9231C59.4844 62.5304 59.7384 63.2606 60.345 63.5538C60.516 63.6348 60.6965 63.6741 60.8738 63.6741C61.3278 63.6741 61.7641 63.4201 61.9756 62.9845C62.2682 62.3772 62.013 61.6483 61.4063 61.3558C60.799 61.0626 60.0702 61.3165 59.7776 61.9231Z" fill="url(#paint12_linear)"/>
<path d="M27.2117 69.1721C26.7919 69.6995 26.8786 70.467 27.4055 70.8869C27.6303 71.0661 27.8981 71.1522 28.1654 71.1522C28.5231 71.1522 28.8797 70.9958 29.1203 70.6937C29.5401 70.1662 29.454 69.3981 28.9265 68.9783C28.3997 68.5585 27.6315 68.6452 27.2117 69.1721Z" fill="url(#paint13_linear)"/>
<path d="M24.0032 65.5844C23.4776 66.0055 23.3915 66.7736 23.8132 67.2992C24.0538 67.6019 24.4084 67.7577 24.7662 67.7577C25.0347 67.7577 25.3032 67.6703 25.528 67.4911C26.0549 67.0693 26.1397 66.3018 25.7199 65.7743H25.7186C25.2988 65.2487 24.5306 65.1645 24.0032 65.5844Z" fill="url(#paint14_linear)"/>
<path d="M25.4987 38.8289C24.9712 38.409 24.203 38.4971 23.7832 39.0239C23.364 39.5514 23.4501 40.3189 23.977 40.7387C24.2018 40.9179 24.4703 41.0041 24.7369 41.0041C25.0965 41.0041 25.4512 40.8464 25.6918 40.5437C26.1116 40.0162 26.0242 39.2487 25.4987 38.8289Z" fill="url(#paint15_linear)"/>
<path d="M31.1346 71.9609C30.8433 72.5681 31.0985 73.297 31.7058 73.5896C31.8767 73.6713 32.0572 73.7099 32.2345 73.7099C32.6886 73.7099 33.1249 73.456 33.3345 73.0184C33.6276 72.4117 33.3718 71.6829 32.7652 71.3897C32.1566 71.0984 31.4278 71.3523 31.1346 71.9609Z" fill="url(#paint16_linear)"/>
<path d="M60.3225 42.6922C59.7159 42.9866 59.4638 43.7155 59.7583 44.3221C59.9679 44.7565 60.4042 45.0104 60.8563 45.0104C61.0355 45.0104 61.216 44.9712 61.3882 44.8882C61.9955 44.5938 62.2475 43.8636 61.9531 43.2564C61.6599 42.651 60.9298 42.3977 60.3225 42.6922Z" fill="url(#paint17_linear)"/>
<path d="M62.464 59.1374C63.0199 59.1374 63.5246 58.7537 63.6532 58.1875C63.8013 57.5302 63.3897 56.8761 62.7337 56.7279C62.0751 56.5785 61.4223 56.9901 61.2728 57.6474C61.1234 58.3047 61.535 58.9588 62.1923 59.107C62.2828 59.1279 62.374 59.1374 62.464 59.1374Z" fill="url(#paint18_linear)"/>
<path d="M35.5807 73.8035C35.4332 74.4608 35.8448 75.1137 36.5015 75.2631C36.5933 75.2846 36.6838 75.2941 36.7719 75.2941C37.3304 75.2941 37.8332 74.9104 37.9617 74.3424C38.1112 73.6851 37.6996 73.0322 37.0423 72.8827C36.385 72.7345 35.7308 73.1462 35.5807 73.8035Z" fill="url(#paint19_linear)"/>
<path d="M62.179 47.132C61.5217 47.2834 61.1113 47.9369 61.2614 48.5948H61.2627C61.3912 49.159 61.894 49.5415 62.4506 49.5415C62.5399 49.5415 62.633 49.532 62.7242 49.5105C63.3815 49.3591 63.7918 48.705 63.6417 48.0477C63.4904 47.3904 62.8344 46.9807 62.179 47.132Z" fill="url(#paint20_linear)"/>
<path d="M64.2159 53.1442C64.2159 53.1359 64.2159 53.1277 64.2159 53.1195C64.2159 53.11 64.2159 53.1017 64.2159 53.0916C64.214 52.4185 63.6656 51.8732 62.9925 51.8745C62.3187 51.8745 61.7735 52.4229 61.7754 53.0967V53.1277V53.1442C61.7754 53.8173 62.3219 54.3644 62.9956 54.3644C63.6694 54.3644 64.2159 53.8173 64.2159 53.1442Z" fill="url(#paint21_linear)"/>
<path d="M54.1577 68.9655C53.6321 69.3866 53.5454 70.1547 53.9652 70.6802C54.2065 70.9829 54.5624 71.1393 54.9201 71.1393C55.1874 71.1393 55.4559 71.0526 55.68 70.8721H55.6819C56.2075 70.4523 56.2936 69.6848 55.8725 69.1573C55.4527 68.6317 54.6846 68.5456 54.1577 68.9655Z" fill="url(#paint22_linear)"/>
<path d="M57.3626 65.7596C56.9434 66.2871 57.0289 67.0546 57.5551 67.4744C57.7793 67.6536 58.0497 67.7417 58.3163 67.7417C58.674 67.7417 59.0293 67.5833 59.2699 67.2826C59.691 66.7557 59.6049 65.9876 59.0774 65.5677C58.5505 65.146 57.7824 65.2327 57.3626 65.7596Z" fill="url(#paint23_linear)"/>
<path d="M54.8836 37.5582C55.2433 37.5582 55.5992 37.4005 55.8398 37.0978C56.2584 36.5703 56.1723 35.8029 55.6435 35.383C55.116 34.9645 54.3479 35.0512 53.93 35.5781C53.5101 36.1068 53.5981 36.873 54.125 37.2929C54.3498 37.4721 54.6164 37.5582 54.8836 37.5582Z" fill="url(#paint24_linear)"/>
<path d="M57.5255 38.7766C56.9987 39.1977 56.9138 39.9671 57.3356 40.4927C57.5775 40.7922 57.9308 40.9486 58.2886 40.9486C58.5571 40.9486 58.8256 40.8625 59.0516 40.6814C59.5772 40.2603 59.6621 39.4921 59.2403 38.9665C59.2403 38.9653 59.2403 38.9653 59.2403 38.9653C58.8192 38.4397 58.0511 38.3548 57.5255 38.7766Z" fill="url(#paint25_linear)"/>
<path d="M50.8126 35.0065C51.2666 35.0065 51.7029 34.7513 51.9125 34.3137C52.2038 33.7064 51.9486 32.9776 51.3414 32.6863C50.7328 32.3937 50.0052 32.6508 49.7127 33.2575C49.4214 33.8641 49.6766 34.5936 50.2857 34.8862C50.4548 34.9672 50.6353 35.0065 50.8126 35.0065Z" fill="url(#paint26_linear)"/>
<path d="M46.0498 72.8783C45.3925 73.0284 44.9822 73.6825 45.1304 74.3398C45.2608 74.9059 45.7636 75.2884 46.3202 75.2884C46.4095 75.2884 46.5007 75.2783 46.5919 75.2587C47.2492 75.1073 47.6608 74.4551 47.5113 73.7978C47.3613 73.1405 46.7071 72.7289 46.0498 72.8783Z" fill="url(#paint27_linear)"/>
<path d="M40.3257 74.6045C40.3276 75.2783 40.8741 75.8254 41.5478 75.8254C42.2216 75.8235 42.7681 75.2771 42.7662 74.6033C42.7662 73.9295 42.2197 73.383 41.5459 73.3843C40.8722 73.3843 40.3257 73.9314 40.3257 74.6045Z" fill="url(#paint28_linear)"/>
<path d="M50.324 71.3811C49.7174 71.6743 49.4634 72.4031 49.7566 73.0098C49.9662 73.4461 50.4025 73.7 50.8566 73.7C51.0339 73.7 51.2144 73.6608 51.3866 73.5778C51.9939 73.2853 52.2472 72.5564 51.9546 71.9491C51.6614 71.3425 50.9307 71.0866 50.324 71.3811Z" fill="url(#paint29_linear)"/>
<path d="M38.654 59.3757C38.8814 59.6468 39.2151 59.8057 39.5684 59.8114H39.588C39.9344 59.8114 40.265 59.6639 40.4961 59.4061L50.129 48.6702C50.5786 48.1687 50.5368 47.3974 50.0353 46.9472C49.5337 46.497 48.7618 46.5394 48.3122 47.0403L39.6184 56.7301L37.3122 53.9844C36.8784 53.4683 36.109 53.4012 35.5923 53.8343C35.0768 54.2681 35.0097 55.0374 35.4429 55.5535L38.654 59.3757Z" fill="url(#paint30_linear)"/>
<defs>
<linearGradient id="paint0_linear" x1="41.5348" y1="0" x2="41.5348" y2="82.9999" gradientUnits="userSpaceOnUse">
<stop stop-color="#FFE5AC"/>
<stop offset="0.0001" stop-color="#FFE5AC"/>
<stop offset="1" stop-color="#B99C5D"/>
</linearGradient>
<linearGradient id="paint1_linear" x1="41.5348" y1="36.2422" x2="41.5348" y2="70.0439" gradientUnits="userSpaceOnUse">
<stop stop-color="#FFE5AC"/>
<stop offset="0.0001" stop-color="#FFE5AC"/>
<stop offset="1" stop-color="#B99C5D"/>
</linearGradient>
<linearGradient id="paint2_linear" x1="28.1305" y1="35.1621" x2="28.1305" y2="37.6021" gradientUnits="userSpaceOnUse">
<stop stop-color="#FFE5AC"/>
<stop offset="0.0001" stop-color="#FFE5AC"/>
<stop offset="1" stop-color="#B99C5D"/>
</linearGradient>
<linearGradient id="paint3_linear" x1="41.498" y1="30.4629" x2="41.498" y2="32.9034" gradientUnits="userSpaceOnUse">
<stop stop-color="#FFE5AC"/>
<stop offset="0.0001" stop-color="#FFE5AC"/>
<stop offset="1" stop-color="#B99C5D"/>
</linearGradient>
<linearGradient id="paint4_linear" x1="36.7249" y1="31.0024" x2="36.7249" y2="33.4429" gradientUnits="userSpaceOnUse">
<stop stop-color="#FFE5AC"/>
<stop offset="0.0001" stop-color="#FFE5AC"/>
<stop offset="1" stop-color="#B99C5D"/>
</linearGradient>
<linearGradient id="paint5_linear" x1="32.1916" y1="32.5967" x2="32.1916" y2="35.0376" gradientUnits="userSpaceOnUse">
<stop stop-color="#FFE5AC"/>
<stop offset="0.0001" stop-color="#FFE5AC"/>
<stop offset="1" stop-color="#B99C5D"/>
</linearGradient>
<linearGradient id="paint6_linear" x1="20.6014" y1="47.1714" x2="20.6014" y2="49.613" gradientUnits="userSpaceOnUse">
<stop stop-color="#FFE5AC"/>
<stop offset="0.0001" stop-color="#FFE5AC"/>
<stop offset="1" stop-color="#B99C5D"/>
</linearGradient>
<linearGradient id="paint7_linear" x1="20.6124" y1="56.7212" x2="20.6124" y2="59.162" gradientUnits="userSpaceOnUse">
<stop stop-color="#FFE5AC"/>
<stop offset="0.0001" stop-color="#FFE5AC"/>
<stop offset="1" stop-color="#B99C5D"/>
</linearGradient>
<linearGradient id="paint8_linear" x1="22.2035" y1="61.2539" x2="22.2035" y2="63.6949" gradientUnits="userSpaceOnUse">
<stop stop-color="#FFE5AC"/>
<stop offset="0.0001" stop-color="#FFE5AC"/>
<stop offset="1" stop-color="#B99C5D"/>
</linearGradient>
<linearGradient id="paint9_linear" x1="22.1832" y1="42.6333" x2="22.1832" y2="45.075" gradientUnits="userSpaceOnUse">
<stop stop-color="#FFE5AC"/>
<stop offset="0.0001" stop-color="#FFE5AC"/>
<stop offset="1" stop-color="#B99C5D"/>
</linearGradient>
<linearGradient id="paint10_linear" x1="46.2735" y1="30.9868" x2="46.2735" y2="33.4265" gradientUnits="userSpaceOnUse">
<stop stop-color="#FFE5AC"/>
<stop offset="0.0001" stop-color="#FFE5AC"/>
<stop offset="1" stop-color="#B99C5D"/>
</linearGradient>
<linearGradient id="paint11_linear" x1="20.0738" y1="51.9468" x2="20.0738" y2="54.3873" gradientUnits="userSpaceOnUse">
<stop stop-color="#FFE5AC"/>
<stop offset="0.0001" stop-color="#FFE5AC"/>
<stop offset="1" stop-color="#B99C5D"/>
</linearGradient>
<linearGradient id="paint12_linear" x1="60.8763" y1="61.2339" x2="60.8763" y2="63.6741" gradientUnits="userSpaceOnUse">
<stop stop-color="#FFE5AC"/>
<stop offset="0.0001" stop-color="#FFE5AC"/>
<stop offset="1" stop-color="#B99C5D"/>
</linearGradient>
<linearGradient id="paint13_linear" x1="28.1661" y1="68.7124" x2="28.1661" y2="71.1522" gradientUnits="userSpaceOnUse">
<stop stop-color="#FFE5AC"/>
<stop offset="0.0001" stop-color="#FFE5AC"/>
<stop offset="1" stop-color="#B99C5D"/>
</linearGradient>
<linearGradient id="paint14_linear" x1="24.766" y1="65.3174" x2="24.766" y2="67.7577" gradientUnits="userSpaceOnUse">
<stop stop-color="#FFE5AC"/>
<stop offset="0.0001" stop-color="#FFE5AC"/>
<stop offset="1" stop-color="#B99C5D"/>
</linearGradient>
<linearGradient id="paint15_linear" x1="24.7376" y1="38.5635" x2="24.7376" y2="41.0041" gradientUnits="userSpaceOnUse">
<stop stop-color="#FFE5AC"/>
<stop offset="0.0001" stop-color="#FFE5AC"/>
<stop offset="1" stop-color="#B99C5D"/>
</linearGradient>
<linearGradient id="paint16_linear" x1="32.2351" y1="71.269" x2="32.2351" y2="73.7099" gradientUnits="userSpaceOnUse">
<stop stop-color="#FFE5AC"/>
<stop offset="0.0001" stop-color="#FFE5AC"/>
<stop offset="1" stop-color="#B99C5D"/>
</linearGradient>
<linearGradient id="paint17_linear" x1="60.8557" y1="42.5693" x2="60.8557" y2="45.0104" gradientUnits="userSpaceOnUse">
<stop stop-color="#FFE5AC"/>
<stop offset="0.0001" stop-color="#FFE5AC"/>
<stop offset="1" stop-color="#B99C5D"/>
</linearGradient>
<linearGradient id="paint18_linear" x1="62.4628" y1="56.6973" x2="62.4628" y2="59.1374" gradientUnits="userSpaceOnUse">
<stop stop-color="#FFE5AC"/>
<stop offset="0.0001" stop-color="#FFE5AC"/>
<stop offset="1" stop-color="#B99C5D"/>
</linearGradient>
<linearGradient id="paint19_linear" x1="36.7716" y1="72.8525" x2="36.7716" y2="75.2941" gradientUnits="userSpaceOnUse">
<stop stop-color="#FFE5AC"/>
<stop offset="0.0001" stop-color="#FFE5AC"/>
<stop offset="1" stop-color="#B99C5D"/>
</linearGradient>
<linearGradient id="paint20_linear" x1="62.4516" y1="47.1006" x2="62.4516" y2="49.5415" gradientUnits="userSpaceOnUse">
<stop stop-color="#FFE5AC"/>
<stop offset="0.0001" stop-color="#FFE5AC"/>
<stop offset="1" stop-color="#B99C5D"/>
</linearGradient>
<linearGradient id="paint21_linear" x1="62.9956" y1="51.8745" x2="62.9956" y2="54.3644" gradientUnits="userSpaceOnUse">
<stop stop-color="#FFE5AC"/>
<stop offset="0.0001" stop-color="#FFE5AC"/>
<stop offset="1" stop-color="#B99C5D"/>
</linearGradient>
<linearGradient id="paint22_linear" x1="54.9195" y1="68.6992" x2="54.9195" y2="71.1393" gradientUnits="userSpaceOnUse">
<stop stop-color="#FFE5AC"/>
<stop offset="0.0001" stop-color="#FFE5AC"/>
<stop offset="1" stop-color="#B99C5D"/>
</linearGradient>
<linearGradient id="paint23_linear" x1="58.3168" y1="65.3003" x2="58.3168" y2="67.7417" gradientUnits="userSpaceOnUse">
<stop stop-color="#FFE5AC"/>
<stop offset="0.0001" stop-color="#FFE5AC"/>
<stop offset="1" stop-color="#B99C5D"/>
</linearGradient>
<linearGradient id="paint24_linear" x1="54.8847" y1="35.1182" x2="54.8847" y2="37.5582" gradientUnits="userSpaceOnUse">
<stop stop-color="#FFE5AC"/>
<stop offset="0.0001" stop-color="#FFE5AC"/>
<stop offset="1" stop-color="#B99C5D"/>
</linearGradient>
<linearGradient id="paint25_linear" x1="58.288" y1="38.5083" x2="58.288" y2="40.9486" gradientUnits="userSpaceOnUse">
<stop stop-color="#FFE5AC"/>
<stop offset="0.0001" stop-color="#FFE5AC"/>
<stop offset="1" stop-color="#B99C5D"/>
</linearGradient>
<linearGradient id="paint26_linear" x1="50.8126" y1="32.5654" x2="50.8126" y2="35.0065" gradientUnits="userSpaceOnUse">
<stop stop-color="#FFE5AC"/>
<stop offset="0.0001" stop-color="#FFE5AC"/>
<stop offset="1" stop-color="#B99C5D"/>
</linearGradient>
<linearGradient id="paint27_linear" x1="46.321" y1="72.8477" x2="46.321" y2="75.2884" gradientUnits="userSpaceOnUse">
<stop stop-color="#FFE5AC"/>
<stop offset="0.0001" stop-color="#FFE5AC"/>
<stop offset="1" stop-color="#B99C5D"/>
</linearGradient>
<linearGradient id="paint28_linear" x1="41.5459" y1="73.3843" x2="41.5459" y2="75.8254" gradientUnits="userSpaceOnUse">
<stop stop-color="#FFE5AC"/>
<stop offset="0.0001" stop-color="#FFE5AC"/>
<stop offset="1" stop-color="#B99C5D"/>
</linearGradient>
<linearGradient id="paint29_linear" x1="50.8555" y1="71.2588" x2="50.8555" y2="73.7" gradientUnits="userSpaceOnUse">
<stop stop-color="#FFE5AC"/>
<stop offset="0.0001" stop-color="#FFE5AC"/>
<stop offset="1" stop-color="#B99C5D"/>
</linearGradient>
<linearGradient id="paint30_linear" x1="42.7989" y1="46.6353" x2="42.7989" y2="59.8114" gradientUnits="userSpaceOnUse">
<stop stop-color="#FFE5AC"/>
<stop offset="0.0001" stop-color="#FFE5AC"/>
<stop offset="1" stop-color="#B99C5D"/>
</linearGradient>
</defs>
</svg>
