<svg width="110" height="110" viewBox="0 0 110 110" fill="none" xmlns="http://www.w3.org/2000/svg">
<path d="M56.7188 96.25H53.2812V99.6875H56.7188V96.25Z" fill="url(#paint0_linear)"/>
<path d="M79.0625 69.7572L74.262 64.9567C72.8002 63.4948 70.8174 62.6736 68.75 62.6736C66.6826 62.6736 64.6999 63.4948 63.238 64.9567C61.7761 66.4186 60.9548 68.4013 60.9548 70.4688C60.9548 72.5362 61.7761 74.5189 63.238 75.9808L73.4121 86.1566C72.7444 87.1668 72.1872 88.2458 71.7501 89.375H30.9375V67.0312H27.5V97.9688C27.5027 100.247 28.4089 102.431 30.02 104.042C31.6311 105.654 33.8154 106.56 36.0938 106.562H96.25C96.7058 106.562 97.143 106.381 97.4653 106.059C97.7877 105.737 97.9688 105.3 97.9688 104.844V72.2638C97.9753 67.7203 96.3383 63.3278 93.3597 59.8969L82.5 45.8199V18.9062C82.4973 16.6279 81.5911 14.4436 79.98 12.8325C78.3689 11.2214 76.1846 10.3152 73.9063 10.3125H72.1875V13.75H73.9063C75.2733 13.7515 76.5839 14.2953 77.5506 15.2619C78.5172 16.2286 79.061 17.5392 79.0625 18.9062V20.625H72.1875V24.0625H79.0625V69.7572ZM30.9375 97.9688V92.8125H70.8159C70.2516 96.3396 70.8353 99.9547 72.481 103.125H36.0938C34.7267 103.123 33.4161 102.58 32.4494 101.613C31.4828 100.646 30.939 99.3358 30.9375 97.9688ZM90.7045 62.078C93.1714 64.8979 94.5311 68.5171 94.5313 72.2638V103.125H76.4809C74.9238 100.928 74.0711 98.3091 74.0361 95.6163C74.001 92.9234 74.7851 90.2835 76.2846 88.0464L77.055 86.891C77.2754 86.5604 77.3744 86.1636 77.3352 85.7683C77.296 85.3729 77.1211 85.0033 76.8402 84.7223L65.6683 73.5505C64.851 72.7331 64.3918 71.6246 64.3918 70.4688C64.3918 69.3129 64.851 68.2044 65.6683 67.387C66.4856 66.5697 67.5941 66.1105 68.75 66.1105C69.9059 66.1105 71.0144 66.5697 71.8317 67.387L86.4411 81.9964L88.8714 79.5661L82.5 73.1947V51.4467L90.7045 62.078Z" fill="url(#paint1_linear)"/>
<path d="M12.0312 58.4375H25.1921L40.1943 70.107C40.4646 70.3177 40.7918 70.4427 41.1338 70.466C41.4758 70.4893 41.817 70.4099 42.1134 70.2378C42.4099 70.0658 42.6482 69.809 42.7976 69.5005C42.947 69.192 43.0008 68.8459 42.952 68.5066L41.5136 58.4375H60.1562C62.4346 58.4348 64.6189 57.5286 66.23 55.9175C67.8411 54.3064 68.7473 52.1221 68.75 49.8438V12.0312C68.7473 9.75287 67.8411 7.56856 66.23 5.9575C64.6189 4.34644 62.4346 3.44017 60.1562 3.4375H12.0312C9.75287 3.44017 7.56856 4.34644 5.9575 5.9575C4.34644 7.56856 3.44017 9.75287 3.4375 12.0312V49.8438C3.44017 52.1221 4.34644 54.3064 5.9575 55.9175C7.56856 57.5286 9.75287 58.4348 12.0312 58.4375ZM6.875 12.0312C6.87654 10.6642 7.42027 9.35358 8.38693 8.38693C9.35358 7.42027 10.6642 6.87654 12.0312 6.875H60.1562C61.5233 6.87654 62.8339 7.42027 63.8006 8.38693C64.7672 9.35358 65.311 10.6642 65.3125 12.0312V49.8438C65.311 51.2108 64.7672 52.5214 63.8006 53.4881C62.8339 54.4547 61.5233 54.9985 60.1562 55H39.5312C39.2849 54.9999 39.0415 55.0528 38.8173 55.155C38.5932 55.2573 38.3937 55.4065 38.2323 55.5925C38.0709 55.7786 37.9514 55.9972 37.8818 56.2335C37.8123 56.4698 37.7944 56.7183 37.8293 56.9622L38.9464 64.7812L26.8363 55.3618C26.5345 55.1275 26.1633 55.0003 25.7812 55H12.0312C10.6642 54.9985 9.35358 54.4547 8.38693 53.4881C7.42027 52.5214 6.87654 51.2108 6.875 49.8438V12.0312Z" fill="url(#paint2_linear)"/>
<path d="M13.75 37.8121H22.1042L25.3773 38.7473L24.1514 42.4246C24.0778 42.6446 24.0495 42.8773 24.0683 43.1086C24.0872 43.3399 24.1527 43.565 24.2609 43.7703C24.3692 43.9756 24.5179 44.1568 24.6982 44.3029C24.8784 44.4491 25.0865 44.5572 25.3097 44.6207L37.3409 48.0582C37.4942 48.1023 37.653 48.1247 37.8125 48.1246C38.1731 48.1244 38.5245 48.0109 38.817 47.8C39.1095 47.5892 39.3282 47.2917 39.4423 46.9496L40.7157 43.1297L45.9347 44.6207C46.1904 44.6937 46.4596 44.7063 46.721 44.6576C46.9825 44.6089 47.229 44.5002 47.4413 44.34C47.6537 44.1798 47.8259 43.9726 47.9445 43.7346C48.0632 43.4966 48.1249 43.2343 48.125 42.9683V15.4683C48.1249 15.2024 48.0632 14.9401 47.9445 14.7021C47.8259 14.464 47.6537 14.2568 47.4413 14.0966C47.229 13.9365 46.9825 13.8278 46.721 13.7791C46.4596 13.7304 46.1904 13.743 45.9347 13.816L22.1042 20.6246H13.75C13.2942 20.6246 12.857 20.8057 12.5347 21.128C12.2123 21.4503 12.0312 21.8875 12.0312 22.3433V36.0933C12.0312 36.5492 12.2123 36.9863 12.5347 37.3087C12.857 37.631 13.2942 37.8121 13.75 37.8121ZM36.703 44.3004L27.9804 41.8082L28.6853 39.6917L37.409 42.1839L36.703 44.3004ZM44.6875 40.691L24.0625 34.7978V23.641L44.6875 17.7478V40.691ZM15.4688 24.0621H20.625V34.3746H15.4688V24.0621Z" fill="url(#paint3_linear)"/>
<path d="M60.1562 27.5H53.2812V30.9375H60.1562V27.5Z" fill="url(#paint4_linear)"/>
<path d="M59.3872 15.6504L52.5122 19.0879L54.0497 22.1629L60.9247 18.7254L59.3872 15.6504Z" fill="url(#paint5_linear)"/>
<path d="M54.0497 36.2746L52.5122 39.3496L59.3872 42.7871L60.9247 39.7121L54.0497 36.2746Z" fill="url(#paint6_linear)"/>
<defs>
<linearGradient id="paint0_linear" x1="55" y1="96.25" x2="55" y2="99.6875" gradientUnits="userSpaceOnUse">
<stop stop-color="#FFE5AC"/>
<stop offset="0.0001" stop-color="#FFE5AC"/>
<stop offset="1" stop-color="#B99C5D"/>
</linearGradient>
<linearGradient id="paint1_linear" x1="62.7344" y1="10.3125" x2="62.7344" y2="106.562" gradientUnits="userSpaceOnUse">
<stop stop-color="#FFE5AC"/>
<stop offset="0.0001" stop-color="#FFE5AC"/>
<stop offset="1" stop-color="#B99C5D"/>
</linearGradient>
<linearGradient id="paint2_linear" x1="36.0938" y1="3.4375" x2="36.0938" y2="70.47" gradientUnits="userSpaceOnUse">
<stop stop-color="#FFE5AC"/>
<stop offset="0.0001" stop-color="#FFE5AC"/>
<stop offset="1" stop-color="#B99C5D"/>
</linearGradient>
<linearGradient id="paint3_linear" x1="30.0781" y1="13.75" x2="30.0781" y2="48.1246" gradientUnits="userSpaceOnUse">
<stop stop-color="#FFE5AC"/>
<stop offset="0.0001" stop-color="#FFE5AC"/>
<stop offset="1" stop-color="#B99C5D"/>
</linearGradient>
<linearGradient id="paint4_linear" x1="56.7188" y1="27.5" x2="56.7188" y2="30.9375" gradientUnits="userSpaceOnUse">
<stop stop-color="#FFE5AC"/>
<stop offset="0.0001" stop-color="#FFE5AC"/>
<stop offset="1" stop-color="#B99C5D"/>
</linearGradient>
<linearGradient id="paint5_linear" x1="55.9497" y1="17.3691" x2="57.4872" y2="20.4441" gradientUnits="userSpaceOnUse">
<stop stop-color="#FFE5AC"/>
<stop offset="0.0001" stop-color="#FFE5AC"/>
<stop offset="1" stop-color="#B99C5D"/>
</linearGradient>
<linearGradient id="paint6_linear" x1="53.281" y1="37.8121" x2="60.1559" y2="41.2496" gradientUnits="userSpaceOnUse">
<stop stop-color="#FFE5AC"/>
<stop offset="0.0001" stop-color="#FFE5AC"/>
<stop offset="1" stop-color="#B99C5D"/>
</linearGradient>
</defs>
</svg>
