<svg width="118" height="83" viewBox="0 0 118 83" fill="none" xmlns="http://www.w3.org/2000/svg">
<g clip-path="url(#clip0)">
<path d="M97.4539 0H54.4997C51.6022 0 49.2451 2.35723 49.2451 5.25479V77.7454C49.2451 80.6428 51.6023 83.0002 54.4999 83.0002H97.4539C100.351 83.0002 102.709 80.6429 102.709 77.7454V5.25479C102.708 2.35723 100.351 0 97.4539 0ZM51.8783 13.2074H100.075V68.0983H51.8783V13.2074ZM54.4997 2.63319H97.4539C98.8993 2.63319 100.075 3.80917 100.075 5.25479V11.4519H51.8783V5.25479C51.8783 3.80917 53.0543 2.63319 54.4997 2.63319ZM97.4539 80.3668H54.4997C53.0543 80.3668 51.8781 79.1908 51.8781 77.7452V69.8535H100.075V77.7452C100.075 79.1908 98.8993 80.3668 97.4539 80.3668Z" fill="url(#paint0_linear)"/>
<path d="M75.9771 71.0176C73.5994 71.0176 71.665 72.9521 71.665 75.3299C71.665 77.7076 73.5996 79.642 75.9771 79.642C78.3547 79.642 80.2892 77.7075 80.2892 75.3299C80.2892 72.9523 78.3549 71.0176 75.9771 71.0176ZM75.9771 77.8865C74.5673 77.8865 73.4205 76.7395 73.4205 75.3299C73.4205 73.9201 74.5673 72.773 75.9771 72.773C77.3869 72.773 78.5338 73.9201 78.5338 75.3299C78.5338 76.7395 77.3869 77.8865 75.9771 77.8865Z" fill="url(#paint1_linear)"/>
<path d="M70.0086 8.36386H81.9457C82.4306 8.36386 82.8234 7.97081 82.8234 7.48613C82.8234 7.00145 82.4306 6.6084 81.9457 6.6084H70.0086C69.5237 6.6084 69.1309 7.00145 69.1309 7.48613C69.1309 7.97081 69.5237 8.36386 70.0086 8.36386Z" fill="url(#paint2_linear)"/>
<path d="M66.8489 8.36386C67.0789 8.36386 67.3053 8.27082 67.4686 8.10756C67.6319 7.94255 67.7267 7.71785 67.7267 7.48613C67.7267 7.25441 67.6319 7.02971 67.4686 6.8647C67.3052 6.70144 67.0787 6.6084 66.8489 6.6084C66.6172 6.6084 66.3923 6.70144 66.2275 6.8647C66.0642 7.02795 65.9712 7.25441 65.9712 7.48613C65.9712 7.71785 66.0642 7.94255 66.2275 8.10756C66.3907 8.27082 66.6172 8.36386 66.8489 8.36386Z" fill="url(#paint3_linear)"/>
</g>
<g clip-path="url(#clip1)">
<path d="M34.2642 25.9214H24.4745C23.9342 25.9214 23.4956 26.36 23.4956 26.9003C23.4956 27.4407 23.9342 27.8793 24.4745 27.8793H34.2642C34.8046 27.8793 35.2432 27.4407 35.2432 26.9003C35.2432 26.36 34.8046 25.9214 34.2642 25.9214Z" fill="url(#paint4_linear)"/>
<path d="M41.117 25.9214H40.1381C39.5978 25.9214 39.1592 26.36 39.1592 26.9003C39.1592 27.4407 39.5978 27.8793 40.1381 27.8793H41.117C41.6574 27.8793 42.096 27.4407 42.096 26.9003C42.096 26.36 41.6574 25.9214 41.117 25.9214Z" fill="url(#paint5_linear)"/>
<path d="M30.5853 72.9121H28.1545C26.6656 72.9121 25.4536 74.1241 25.4536 75.613V76.0859C25.4536 77.5749 26.6656 78.786 28.1536 78.786H30.5844C32.0734 78.786 33.2853 77.5749 33.2853 76.0859V75.613C33.2853 74.1241 32.0734 72.9121 30.5853 72.9121ZM31.3275 76.0859C31.3275 76.4952 30.9946 76.828 30.5854 76.828H28.1545C27.7444 76.828 27.4115 76.4952 27.4115 76.0859V75.613C27.4115 75.2029 27.7443 74.87 28.1545 74.87H30.5844C30.9946 74.87 31.3275 75.2028 31.3275 75.613V76.0859Z" fill="url(#paint6_linear)"/>
<path d="M42.4737 22.9844H16.2656C14.3145 22.9844 12.7266 24.5723 12.7266 26.5234V78.1838C12.7266 80.1349 14.3145 81.7228 16.2656 81.7228H42.4727C44.4238 81.7228 46.0117 80.1349 46.0117 78.1849V26.5234C46.0118 24.5723 44.4239 22.9844 42.4737 22.9844ZM44.0538 78.1838C44.0538 79.0552 43.345 79.7649 42.4737 79.7649H16.2656C15.3933 79.7649 14.6845 79.0551 14.6845 78.1848V26.5234C14.6845 25.652 15.3933 24.9424 16.2656 24.9424H42.4727C43.3449 24.9424 44.0537 25.6522 44.0537 26.5234V78.1838H44.0538Z" fill="url(#paint7_linear)"/>
<path d="M45.0326 28.8584H13.7055C13.1652 28.8584 12.7266 29.297 12.7266 29.8373V70.9543C12.7266 71.4946 13.1652 71.9332 13.7055 71.9332H45.0327C45.5731 71.9332 46.0117 71.4946 46.0117 70.9543V29.8373C46.0117 29.297 45.5731 28.8584 45.0326 28.8584ZM44.0537 69.9753H14.6844V30.8164H44.0537V69.9753Z" fill="url(#paint8_linear)"/>
</g>
<defs>
<linearGradient id="paint0_linear" x1="75.9769" y1="0" x2="75.9769" y2="83.0002" gradientUnits="userSpaceOnUse">
<stop stop-color="#FFE5AC"/>
<stop offset="0.0001" stop-color="#FFE5AC"/>
<stop offset="1" stop-color="#B99C5D"/>
</linearGradient>
<linearGradient id="paint1_linear" x1="75.9771" y1="71.0176" x2="75.9771" y2="79.642" gradientUnits="userSpaceOnUse">
<stop stop-color="#FFE5AC"/>
<stop offset="0.0001" stop-color="#FFE5AC"/>
<stop offset="1" stop-color="#B99C5D"/>
</linearGradient>
<linearGradient id="paint2_linear" x1="75.9771" y1="6.6084" x2="75.9771" y2="8.36386" gradientUnits="userSpaceOnUse">
<stop stop-color="#FFE5AC"/>
<stop offset="0.0001" stop-color="#FFE5AC"/>
<stop offset="1" stop-color="#B99C5D"/>
</linearGradient>
<linearGradient id="paint3_linear" x1="66.8489" y1="6.6084" x2="66.8489" y2="8.36386" gradientUnits="userSpaceOnUse">
<stop stop-color="#FFE5AC"/>
<stop offset="0.0001" stop-color="#FFE5AC"/>
<stop offset="1" stop-color="#B99C5D"/>
</linearGradient>
<linearGradient id="paint4_linear" x1="29.3694" y1="25.9214" x2="29.3694" y2="27.8793" gradientUnits="userSpaceOnUse">
<stop stop-color="#FFE5AC"/>
<stop offset="0.0001" stop-color="#FFE5AC"/>
<stop offset="1" stop-color="#B99C5D"/>
</linearGradient>
<linearGradient id="paint5_linear" x1="40.6276" y1="25.9214" x2="40.6276" y2="27.8793" gradientUnits="userSpaceOnUse">
<stop stop-color="#FFE5AC"/>
<stop offset="0.0001" stop-color="#FFE5AC"/>
<stop offset="1" stop-color="#B99C5D"/>
</linearGradient>
<linearGradient id="paint6_linear" x1="29.3695" y1="72.9121" x2="29.3695" y2="78.786" gradientUnits="userSpaceOnUse">
<stop stop-color="#FFE5AC"/>
<stop offset="0.0001" stop-color="#FFE5AC"/>
<stop offset="1" stop-color="#B99C5D"/>
</linearGradient>
<linearGradient id="paint7_linear" x1="29.3691" y1="22.9844" x2="29.3691" y2="81.7228" gradientUnits="userSpaceOnUse">
<stop stop-color="#FFE5AC"/>
<stop offset="0.0001" stop-color="#FFE5AC"/>
<stop offset="1" stop-color="#B99C5D"/>
</linearGradient>
<linearGradient id="paint8_linear" x1="29.3691" y1="28.8584" x2="29.3691" y2="71.9332" gradientUnits="userSpaceOnUse">
<stop stop-color="#FFE5AC"/>
<stop offset="0.0001" stop-color="#FFE5AC"/>
<stop offset="1" stop-color="#B99C5D"/>
</linearGradient>
<clipPath id="clip0">
<rect x="34.4771" width="83" height="83" fill="white"/>
</clipPath>
<clipPath id="clip1">
<rect y="22.9844" width="58.7385" height="58.7385" fill="white"/>
</clipPath>
</defs>
</svg>
