<svg width="65" height="45" viewBox="0 0 65 45" fill="none" xmlns="http://www.w3.org/2000/svg">
<path d="M64.9995 43.5423V35.3351C64.9995 34.8349 64.594 34.4292 64.0938 34.4292H56.7908V23.3467C56.7908 22.8465 56.3852 22.4412 55.8851 22.4412H33.4043V13.3078H43.4438C43.9439 13.3078 44.3494 12.9025 44.3494 12.4023V1.45765C44.3494 0.957501 43.9439 0.551819 43.4438 0.551819H21.5548C21.0546 0.551819 20.6491 0.957501 20.6491 1.45765V12.4023C20.6491 12.9025 21.0546 13.3078 21.5548 13.3078H31.5929V22.4412H9.11261C8.6123 22.4412 8.20694 22.8465 8.20694 23.3467V34.4292H0.905176C0.405028 34.4292 -0.000488281 34.8349 -0.000488281 35.3351V43.5423C-0.000488281 44.0425 0.405028 44.4482 0.905176 44.4482H17.3212C17.8213 44.4482 18.2269 44.0425 18.2269 43.5423V35.3351C18.2269 34.8349 17.8213 34.4292 17.3212 34.4292H10.0181V24.2525H31.5928V34.4292H24.2904C23.79 34.4292 23.3847 34.8349 23.3847 35.3351V43.5423C23.3847 44.0425 23.79 44.4482 24.2904 44.4482H40.707C41.2073 44.4482 41.6127 44.0425 41.6127 43.5423V35.3351C41.6127 34.8349 41.2073 34.4292 40.707 34.4292H33.4041V24.2525H54.9794V34.4292H47.677C47.1767 34.4292 46.7713 34.8349 46.7713 35.3351V43.5423C46.7713 44.0425 47.1767 44.4482 47.677 44.4482H64.0937C64.594 44.4482 64.9995 44.0425 64.9995 43.5423ZM22.4604 11.4965V2.36315H42.5381V11.4965H32.4986H22.4604ZM16.4157 36.2406V42.6368H1.81084V36.2406H9.11261H16.4157ZM39.8015 36.2406V42.6368H25.1962V36.2406H32.4986H39.8015ZM63.1882 42.6368H48.5827V36.2406H55.8851H63.1882V42.6368Z" fill="url(#paint0_linear)"/>
<defs>
<linearGradient id="paint0_linear" x1="32.4995" y1="0.551819" x2="32.4995" y2="44.4482" gradientUnits="userSpaceOnUse">
<stop stop-color="#FFE5AC"/>
<stop offset="0.0001" stop-color="#FFE5AC"/>
<stop offset="1" stop-color="#B99C5D"/>
</linearGradient>
</defs>
</svg>
