<svg width="28" height="28" viewBox="0 0 28 28" fill="none" xmlns="http://www.w3.org/2000/svg">
<g clip-path="url(#clip0)">
<path d="M4.66665 18.667C4.02352 18.667 3.5 19.1905 3.5 19.8336C3.5 20.4768 4.02352 21.0003 4.66665 21.0003C5.30977 21.0003 5.8333 20.4768 5.8333 19.8337C5.8333 19.1906 5.30983 18.667 4.66665 18.667Z" fill="#191919"/>
<path d="M10.5001 3.5C9.85702 3.5 9.3335 4.02352 9.3335 4.66665C9.3335 5.30977 9.85702 5.8333 10.5001 5.8333C11.1433 5.8333 11.6668 5.30977 11.6668 4.66665C11.6668 4.02352 11.1433 3.5 10.5001 3.5Z" fill="#191919"/>
<path d="M23.3332 5.83301C20.76 5.83301 18.6665 7.9265 18.6665 10.4997C18.6665 12.2385 20.6704 15.3586 21.9237 17.1415C21.8486 17.1985 21.7821 17.2673 21.7404 17.359C21.6139 17.6364 21.7233 17.9611 21.9836 18.1081C21.729 18.2648 21.6316 18.5929 21.7677 18.8658C21.8703 19.0703 22.0759 19.1882 22.2901 19.1882C22.3778 19.1882 22.4667 19.1682 22.5504 19.1267L23.5913 18.6062L23.5916 18.6061L23.5941 18.6049C23.5974 18.6032 23.5987 18.5993 23.6021 18.5975C23.6763 18.5587 23.7439 18.5063 23.7963 18.438C24.2264 17.8762 27.9998 12.8837 27.9998 10.4997C27.9998 7.9265 25.9063 5.83301 23.3332 5.83301ZM23.3332 17.1066C22.0508 15.3424 19.8332 11.9848 19.8332 10.4997C19.8332 8.56963 21.4031 6.99966 23.3332 6.99966C25.2632 6.99966 26.8332 8.56963 26.8332 10.4997C26.8332 11.9848 24.6155 15.3423 23.3332 17.1066Z" fill="#191919"/>
<path d="M23.3332 9.33301C22.69 9.33301 22.1665 9.85653 22.1665 10.4997C22.1665 11.1428 22.69 11.6663 23.3332 11.6663C23.9763 11.6663 24.4998 11.1428 24.4998 10.4997C24.4998 9.85653 23.9763 9.33301 23.3332 9.33301Z" fill="#191919"/>
<path d="M6.09126 26.4527C7.34557 24.6664 9.33335 21.5646 9.33335 19.8327C9.33335 17.2595 7.23986 15.166 4.6667 15.166C2.09349 15.166 0 17.2595 0 19.8327C0 22.2167 3.77344 27.2092 4.20355 27.7709C4.23462 27.8114 4.27924 27.835 4.31878 27.8655C4.34257 27.8838 4.36023 27.9065 4.38627 27.9209C4.47185 27.9685 4.56597 27.9993 4.6667 27.9993L4.66698 27.9993L4.66725 27.9993C4.68065 27.9993 4.6935 27.9908 4.7069 27.9899C4.78335 27.9843 4.85893 27.9715 4.9262 27.9381C4.92663 27.9379 4.92712 27.9379 4.92756 27.9377L5.97116 27.4159C6.25942 27.2718 6.37618 26.9214 6.23208 26.6332C6.19648 26.5619 6.14791 26.5016 6.09126 26.4527ZM4.66665 26.4396C3.38434 24.6753 1.16665 21.3178 1.16665 19.8326C1.16665 17.9026 2.73662 16.3326 4.66665 16.3326C6.59668 16.3326 8.16665 17.9026 8.16665 19.8326C8.16665 21.3178 5.94896 24.6753 4.66665 26.4396Z" fill="#191919"/>
<path d="M20.1869 19.0033L18.3446 19.9244C18.0564 20.0685 17.9396 20.4189 18.0837 20.7072C18.1862 20.9117 18.3919 21.0296 18.6061 21.0296C18.6938 21.0296 18.7827 21.0097 18.8664 20.9681L20.7087 20.0469C20.997 19.9028 21.1137 19.5524 20.9696 19.2642C20.8256 18.9765 20.4746 18.8609 20.1869 19.0033Z" fill="#191919"/>
<path d="M9.1342 24.5307L7.29189 25.4519C7.00363 25.596 6.88687 25.9464 7.03097 26.2346C7.13351 26.4392 7.33914 26.5571 7.55335 26.5571C7.64107 26.5571 7.72993 26.5371 7.81366 26.4956L9.65597 25.5744C9.94423 25.4303 10.061 25.0799 9.91688 24.7917C9.77224 24.5034 9.42185 24.3883 9.1342 24.5307Z" fill="#191919"/>
<path d="M16.5024 20.8457L14.6601 21.7668C14.3718 21.9109 14.255 22.2613 14.3991 22.5496C14.5017 22.7541 14.7073 22.872 14.9215 22.872C15.0092 22.872 15.0981 22.8521 15.1818 22.8105L17.0241 21.8893C17.3124 21.7452 17.4292 21.3948 17.2851 21.1066C17.1404 20.8183 16.7906 20.7021 16.5024 20.8457Z" fill="#191919"/>
<path d="M12.8182 22.6882L10.9765 23.6094C10.6882 23.7535 10.5714 24.1038 10.7155 24.3921C10.8181 24.5966 11.0237 24.7145 11.2379 24.7145C11.3256 24.7145 11.4145 24.6946 11.4982 24.653L13.3399 23.7319C13.6282 23.5878 13.745 23.2374 13.6009 22.9491C13.4562 22.6609 13.1053 22.5452 12.8182 22.6882Z" fill="#191919"/>
<path d="M13.1736 13.4645C13.0403 13.7579 13.1696 14.1037 13.463 14.237L15.6043 15.2105C15.683 15.2464 15.765 15.2629 15.8453 15.2629C16.0675 15.2629 16.2794 15.1359 16.3768 14.9211C16.5101 14.6277 16.3808 14.2819 16.0874 14.1487L13.9461 13.1751C13.651 13.0401 13.3058 13.1723 13.1736 13.4645Z" fill="#191919"/>
<path d="M20.1291 17.2109C20.3513 17.2109 20.5632 17.0839 20.6606 16.8691C20.7939 16.5757 20.6646 16.2299 20.3712 16.0966L18.2293 15.1231C17.9325 14.9887 17.5895 15.1203 17.4568 15.4125C17.3235 15.7059 17.4528 16.0517 17.7462 16.185L19.8881 17.1585C19.9667 17.1944 20.0488 17.2109 20.1291 17.2109Z" fill="#191919"/>
<path d="M11.5614 13.3159C11.7836 13.3159 11.9955 13.1888 12.0929 12.9741C12.2262 12.6807 12.0964 12.3349 11.8035 12.2016L11.4006 12.0185C12.5056 10.5101 15.1668 6.67116 15.1668 4.66665C15.1668 2.09349 13.0733 0 10.5001 0C7.92699 0 5.8335 2.09349 5.8335 4.66665C5.8335 7.05069 9.60693 12.0432 10.037 12.6049C10.0421 12.6115 10.0505 12.614 10.0559 12.6203C10.0946 12.667 10.144 12.7032 10.1975 12.7367C10.2164 12.7485 10.2307 12.7657 10.2508 12.7752C10.2538 12.7766 10.2556 12.7795 10.2587 12.7809L11.3205 13.2634C11.3991 13.2993 11.4811 13.3159 11.5614 13.3159ZM7.00014 4.66665C7.00014 2.73662 8.57011 1.16665 10.5001 1.16665C12.4302 1.16665 14.0001 2.73662 14.0001 4.66665C14.0001 6.15174 11.7825 9.50933 10.5001 11.2736C9.21783 9.50933 7.00014 6.1518 7.00014 4.66665Z" fill="#191919"/>
</g>
<defs>
<clipPath id="clip0">
<rect width="28" height="28" fill="white"/>
</clipPath>
</defs>
</svg>
