<svg width="28" height="28" viewBox="0 0 28 28" fill="none" xmlns="http://www.w3.org/2000/svg">
<g clip-path="url(#clip0)">
<path d="M27.9943 10.704C27.9914 10.6719 27.9851 10.6401 27.9752 10.6093C27.9688 10.5818 27.9599 10.5549 27.9486 10.529C27.9356 10.5037 27.9199 10.4797 27.902 10.4576C27.884 10.4313 27.8631 10.407 27.8399 10.3852C27.8324 10.3787 27.8292 10.3698 27.8213 10.3633L23.3331 6.8776V3.26498C23.3331 2.49177 22.7062 1.86491 21.933 1.86491H16.8755L14.8505 0.29262C14.3502 -0.0975401 13.6487 -0.0975401 13.1485 0.29262L11.123 1.86491H6.06548C5.29226 1.86491 4.66541 2.49172 4.66541 3.26498V6.87766L0.178673 10.3633C0.170743 10.3699 0.167462 10.3788 0.160024 10.3853C0.13678 10.407 0.115943 10.4313 0.0979502 10.4576C0.0800118 10.4798 0.0643704 10.5037 0.0512994 10.5291C0.0399786 10.5549 0.0311187 10.5818 0.02472 10.6093C0.0149851 10.6397 0.00858637 10.671 0.0055784 10.7027C0.0055784 10.7125 0 10.7209 0 10.7307V26.5995C0.000656283 26.8963 0.0966924 27.1851 0.273943 27.4232C0.276733 27.4274 0.277225 27.4325 0.280452 27.4362C0.283733 27.4399 0.290733 27.4442 0.295382 27.4493C0.557567 27.7943 0.965337 27.9977 1.39865 27.9995H26.5999C27.0349 27.9982 27.4444 27.7938 27.7069 27.447C27.7106 27.4424 27.7162 27.4409 27.7195 27.4363C27.7228 27.4316 27.7232 27.4274 27.726 27.4232C27.9033 27.1851 27.9993 26.8963 28 26.5995V10.732C27.9999 10.7222 27.9948 10.7138 27.9943 10.704ZM13.7192 1.02903C13.8822 0.899518 14.113 0.899518 14.276 1.02903L15.3526 1.86486H12.6458L13.7192 1.02903ZM1.51623 27.0662L13.7193 17.5872C13.8824 17.4579 14.113 17.4579 14.276 17.5872L26.4823 27.0662H1.51623ZM27.0666 26.3386L14.8505 16.8508C14.3501 16.4609 13.6488 16.4609 13.1485 16.8508L0.931922 26.3386V11.4428L8.57959 17.3814C8.78336 17.5394 9.07661 17.5023 9.23461 17.2986C9.39261 17.0948 9.35553 16.8015 9.15176 16.6435L1.3823 10.6107L4.66546 8.05924V11.6654C4.66546 11.9231 4.87443 12.132 5.13213 12.132C5.38989 12.132 5.5988 11.9231 5.5988 11.6654V3.26493C5.5988 3.00717 5.80772 2.79826 6.06548 2.79826H21.9329C22.1907 2.79826 22.3996 3.00717 22.3996 3.26493V11.6654C22.3996 11.9231 22.6085 12.132 22.8663 12.132C23.124 12.132 23.3329 11.9231 23.3329 11.6654V8.05924L26.6161 10.6107L18.8331 16.6543C18.6992 16.7558 18.6302 16.9214 18.6524 17.0879C18.6746 17.2544 18.7846 17.3962 18.9404 17.459C19.0962 17.5219 19.2738 17.4962 19.4053 17.3916L27.0665 11.4428V26.3386H27.0666Z" fill="#191919"/>
<path d="M19.5995 11.1985V9.33173C19.5995 6.23878 17.0922 3.73145 13.9992 3.73145C10.9063 3.73145 8.39893 6.23878 8.39893 9.33173C8.39893 12.4247 10.9063 14.932 13.9992 14.932C14.257 14.932 14.4659 14.7231 14.4659 14.4653C14.4659 14.2076 14.257 13.9987 13.9992 13.9987C11.4218 13.9987 9.33232 11.9092 9.33232 9.33178C9.33232 6.75434 11.4218 4.6649 13.9992 4.6649C16.5766 4.6649 18.6661 6.75434 18.6661 9.33178V11.1985C18.6661 11.714 18.2482 12.1319 17.7327 12.1319C17.2172 12.1319 16.7993 11.714 16.7993 11.1985V9.33178C16.7993 9.07403 16.5904 8.86511 16.3326 8.86511C16.0749 8.86511 15.8659 9.07403 15.8659 9.33178C15.8659 10.3628 15.0302 11.1985 13.9992 11.1985C12.9682 11.1985 12.1325 10.3628 12.1325 9.33178C12.1325 8.30082 12.9682 7.46504 13.9992 7.46504C14.257 7.46504 14.4659 7.25612 14.4659 6.99837C14.4659 6.74061 14.257 6.5317 13.9992 6.5317C12.746 6.52891 11.6435 7.35916 11.3 8.56442C10.9566 9.76969 11.4557 11.0564 12.5222 11.7146C13.5886 12.3729 14.9626 12.2424 15.886 11.3951C15.9876 12.382 16.8454 13.1159 17.8362 13.0634C18.827 13.0109 19.6026 12.1907 19.5995 11.1985Z" fill="#191919"/>
</g>
<defs>
<clipPath id="clip0">
<rect width="28" height="28" fill="white"/>
</clipPath>
</defs>
</svg>
