<svg width="110" height="110" viewBox="0 0 110 110" fill="none" xmlns="http://www.w3.org/2000/svg">
<path d="M36.5623 96.8459C36.5623 100.84 33.3961 103.783 29.5124 103.783C25.6287 103.783 22.4624 100.84 22.4624 96.8459C22.4624 92.8246 25.6287 89.9092 29.5124 89.9092C33.3983 89.9092 36.5623 92.8246 36.5623 96.8459ZM33.4775 96.8459C33.4775 94.3505 31.6421 92.6414 29.5146 92.6414C27.3849 92.6414 25.5517 94.3482 25.5517 96.8459C25.5517 99.3168 27.3872 101.05 29.5146 101.05C31.6421 101.05 33.4775 99.3145 33.4775 96.8459Z" fill="url(#paint0_linear)"/>
<path d="M51.7713 96.8459C51.7713 100.84 48.605 103.783 44.7213 103.783C40.8376 103.783 37.6714 100.84 37.6714 96.8459C37.6714 92.8268 40.8376 89.9092 44.7213 89.9092C48.6073 89.9092 51.7713 92.8246 51.7713 96.8459ZM48.6865 96.8459C48.6865 94.3505 46.851 92.6414 44.7236 92.6414C42.5939 92.6414 40.7607 94.3482 40.7607 96.8459C40.7607 99.3168 42.5962 101.05 44.7236 101.05C46.851 101.05 48.6865 99.3145 48.6865 96.8459Z" fill="url(#paint1_linear)"/>
<path d="M66.3467 90.3299V102.785C66.3467 107.907 63.2868 110.001 59.6679 110.001C56.2618 110.001 54.2113 107.751 53.4395 105.912L56.126 104.809C56.6035 105.937 57.7759 107.271 59.6657 107.271C61.981 107.271 63.4181 105.861 63.4181 103.205V102.206H63.3095C62.6192 103.048 61.2884 103.783 59.6091 103.783C56.0943 103.781 52.876 100.761 52.876 96.8734C52.876 92.9571 56.0943 89.9121 59.6091 89.9121C61.2861 89.9121 62.6169 90.6471 63.3095 91.4625H63.4181V90.3343H66.349L66.3467 90.3299ZM63.6354 96.8734C63.6354 94.4316 61.9855 92.6444 59.8829 92.6444C57.7532 92.6444 55.9698 94.4294 55.9698 96.8734C55.9698 99.2906 57.7532 101.051 59.8829 101.051C61.9855 101.051 63.6354 99.2906 63.6354 96.8734Z" fill="url(#paint2_linear)"/>
<path d="M71.1786 83.0283V103.358H68.1685V83.0283H71.1786Z" fill="url(#paint3_linear)"/>
<path d="M82.9091 99.1294L85.3036 100.707C84.5295 101.835 82.6669 103.781 79.4486 103.781C75.4563 103.781 72.4756 100.733 72.4756 96.8439C72.4756 92.7177 75.4834 89.9072 79.1046 89.9072C82.7506 89.9072 84.5363 92.7713 85.118 94.3195L85.4371 95.1081L76.0424 98.9484C76.7621 100.34 77.8802 101.051 79.4486 101.051C81.0215 101.051 82.1102 100.287 82.9091 99.1294ZM75.5355 96.6339L81.8159 94.0603C81.4697 93.1935 80.4308 92.5903 79.2087 92.5903C77.6403 92.5903 75.4563 93.9576 75.5355 96.6339Z" fill="url(#paint4_linear)"/>
<path d="M11.0695 95.0434V92.099H21.1159C21.2132 92.6128 21.2653 93.2182 21.2653 93.875C21.2653 96.0823 20.6542 98.8145 18.683 100.758C16.766 102.729 14.3172 103.779 11.0717 103.779C5.05832 103.779 0 98.9441 0 93.006C0 87.0679 5.05605 82.2334 11.0717 82.2334C14.3987 82.2334 16.7683 83.5224 18.5494 85.2024L16.4446 87.2801C15.1682 86.0983 13.4368 85.1779 11.0672 85.1779C6.67653 85.1779 3.24095 88.6719 3.24095 93.006C3.24095 97.34 6.67653 100.834 11.0672 100.834C13.9166 100.834 15.5371 99.7059 16.5782 98.6782C17.4201 97.8472 17.9746 96.6587 18.1941 95.0345L11.0695 95.0434Z" fill="url(#paint5_linear)"/>
<g clip-path="url(#clip0)">
<path d="M61.0187 5.61621C44.7877 5.61621 31.6299 18.774 31.6299 35.0051C31.6299 51.2361 44.7877 64.3939 61.0187 64.3939C77.2498 64.3939 90.4076 51.2361 90.4076 35.0051C90.3899 18.7814 77.2424 5.63388 61.0187 5.61621ZM61.0187 8.41515C69.6633 8.42197 77.7639 12.6351 82.7329 19.7089L79.2342 23.2075C78.3828 22.6924 77.4081 22.4167 76.4129 22.4098C73.3213 22.4098 70.815 24.9161 70.815 28.0077C70.8199 29.004 71.094 29.9803 71.6085 30.8333L62.4448 39.997C60.7096 38.939 58.5289 38.939 56.7937 39.997L50.429 33.6322C50.9434 32.7792 51.2176 31.8029 51.2225 30.8067C51.2263 27.7212 48.7282 25.2168 45.6428 25.213C43.091 25.2098 40.8615 26.9359 40.2254 29.4072H35.0334C37.6831 17.1711 48.4991 8.43352 61.0187 8.41515ZM79.2118 28.0077C79.2118 29.5536 77.9588 30.8067 76.4129 30.8067C74.867 30.8067 73.614 29.5536 73.614 28.0077C73.614 26.4618 74.867 25.2088 76.4129 25.2088C77.9588 25.2088 79.2118 26.4618 79.2118 28.0077ZM62.4182 44.8014C62.4182 46.3472 61.1652 47.6003 59.6193 47.6003C58.0734 47.6003 56.8203 46.3472 56.8203 44.8014C56.8203 43.2555 58.0734 42.0024 59.6193 42.0024C61.1652 42.0024 62.4182 43.2555 62.4182 44.8014ZM48.4235 30.8067C48.4235 32.3526 47.1705 33.6056 45.6246 33.6056C44.0787 33.6056 42.8256 32.3526 42.8256 30.8067C42.8256 29.2608 44.0787 28.0077 45.6246 28.0077C47.1705 28.0077 48.4235 29.2608 48.4235 30.8067ZM73.9383 58.2548C69.9862 60.4492 65.5394 61.5988 61.0187 61.5948C46.3436 61.6048 34.4388 49.7165 34.4288 35.0413C34.4281 34.0942 34.4782 33.1476 34.5786 32.206H40.2254C40.8617 34.6699 43.0798 36.3947 45.6246 36.4044C46.6208 36.3995 47.5971 36.1253 48.4501 35.6109L54.8149 41.9757C54.3004 42.8286 54.0263 43.8049 54.0214 44.8012C54.0214 47.8928 56.5277 50.3991 59.6193 50.3991C62.7109 50.3991 65.2171 47.8928 65.2171 44.8012C65.2122 43.8049 64.9381 42.8286 64.4236 41.9757L73.5874 32.8119C74.4403 33.3264 75.4166 33.6005 76.4129 33.6054C79.5045 33.6054 82.0108 31.0991 82.0108 28.0075C82.0059 27.0113 81.7318 26.035 81.2173 25.182L84.2681 22.1326C91.3905 34.9601 86.7656 51.1326 73.9383 58.2548Z" fill="url(#paint6_linear)"/>
<path d="M96.0053 14.0138C98.55 14.0042 100.768 12.2795 101.404 9.81543H110V7.01649H101.404C100.768 4.55237 98.55 2.8277 96.0053 2.81808C92.9137 2.81808 90.4074 5.32436 90.4074 8.41596C90.4123 9.41221 90.6864 10.3885 91.2009 11.2415L88.742 13.7004C76.9768 -1.62751 55.0136 -4.51566 39.6857 7.2495C24.3578 19.0147 21.4697 40.9781 33.2349 56.306C44.3403 70.7742 64.6976 74.2839 80.0065 64.3696L84.2301 68.5931L86.209 70.572L97.4747 81.8377C100.34 84.703 104.985 84.703 107.85 81.8377C110.716 78.9725 110.716 74.3273 107.85 71.4621L96.5846 60.1963L94.6058 58.2175L90.3822 53.9939C97.8797 42.4455 97.8797 27.5665 90.3822 16.0179L93.1811 13.2189C94.0336 13.7336 95.0095 14.0082 96.0053 14.0138ZM96.0053 5.61702C97.5511 5.61702 98.8042 6.87007 98.8042 8.41596C98.8042 9.96185 97.5511 11.2149 96.0053 11.2149C94.4594 11.2149 93.2063 9.96185 93.2063 8.41596C93.2063 6.87007 94.4595 5.61702 96.0053 5.61702ZM105.872 73.4409C107.664 75.193 107.697 78.0665 105.944 79.8589C104.192 81.6513 101.319 81.684 99.5265 79.9318C99.5018 79.9079 99.4777 79.8835 99.4535 79.8589L88.1878 68.5931L94.6058 62.1752L105.872 73.4409ZM92.6269 60.1963L86.209 66.6143L82.3352 62.7406C82.5326 62.5894 82.7173 62.4229 82.9118 62.2676C83.1063 62.1122 83.3317 61.9261 83.5402 61.7511C83.8467 61.4936 84.1489 61.2333 84.4456 60.966C84.5982 60.8261 84.7437 60.6861 84.8935 60.5462C85.4672 60.0088 86.0228 59.4532 86.5602 58.8794C86.7002 58.7297 86.8401 58.5841 86.9801 58.4316C87.2474 58.1349 87.5077 57.8326 87.7652 57.5261C87.9406 57.319 88.1128 57.1096 88.2816 56.8978C88.4355 56.7047 88.6021 56.5199 88.7532 56.3226L92.6269 60.1963ZM87.1998 53.6958C86.759 54.3116 86.3041 54.9147 85.8241 55.4955C85.6842 55.6649 85.5344 55.8286 85.3903 55.9951C84.962 56.4933 84.5198 56.9767 84.0636 57.445C83.8649 57.6502 83.6628 57.8522 83.4576 58.0509C82.9911 58.5072 82.5079 58.9494 82.0078 59.3776C81.8412 59.5176 81.6775 59.6701 81.5081 59.8115C80.9274 60.2915 80.3242 60.7463 79.7084 61.1872C65.2211 71.5371 45.0864 68.1831 34.7365 53.6958C24.3865 39.2085 27.7405 19.0738 42.2278 8.72384C56.7152 -1.62611 76.8498 1.72772 87.1998 16.2152C95.2084 27.4253 95.2084 42.4857 87.1998 53.6958Z" fill="url(#paint7_linear)"/>
</g>
<defs>
<linearGradient id="paint0_linear" x1="29.5124" y1="89.9092" x2="29.5124" y2="103.783" gradientUnits="userSpaceOnUse">
<stop stop-color="#FFE5AC"/>
<stop offset="0.0001" stop-color="#FFE5AC"/>
<stop offset="1" stop-color="#B99C5D"/>
</linearGradient>
<linearGradient id="paint1_linear" x1="44.7213" y1="89.9092" x2="44.7213" y2="103.783" gradientUnits="userSpaceOnUse">
<stop stop-color="#FFE5AC"/>
<stop offset="0.0001" stop-color="#FFE5AC"/>
<stop offset="1" stop-color="#B99C5D"/>
</linearGradient>
<linearGradient id="paint2_linear" x1="59.6125" y1="89.9121" x2="59.6125" y2="110.001" gradientUnits="userSpaceOnUse">
<stop stop-color="#FFE5AC"/>
<stop offset="0.0001" stop-color="#FFE5AC"/>
<stop offset="1" stop-color="#B99C5D"/>
</linearGradient>
<linearGradient id="paint3_linear" x1="69.6735" y1="83.0283" x2="69.6735" y2="103.358" gradientUnits="userSpaceOnUse">
<stop stop-color="#FFE5AC"/>
<stop offset="0.0001" stop-color="#FFE5AC"/>
<stop offset="1" stop-color="#B99C5D"/>
</linearGradient>
<linearGradient id="paint4_linear" x1="78.9563" y1="89.9072" x2="78.9563" y2="103.781" gradientUnits="userSpaceOnUse">
<stop stop-color="#FFE5AC"/>
<stop offset="0.0001" stop-color="#FFE5AC"/>
<stop offset="1" stop-color="#B99C5D"/>
</linearGradient>
<linearGradient id="paint5_linear" x1="10.6327" y1="82.2334" x2="10.6327" y2="103.779" gradientUnits="userSpaceOnUse">
<stop stop-color="#FFE5AC"/>
<stop offset="0.0001" stop-color="#FFE5AC"/>
<stop offset="1" stop-color="#B99C5D"/>
</linearGradient>
<linearGradient id="paint6_linear" x1="61.0187" y1="5.61621" x2="61.0187" y2="64.3939" gradientUnits="userSpaceOnUse">
<stop stop-color="#FFE5AC"/>
<stop offset="0.0001" stop-color="#FFE5AC"/>
<stop offset="1" stop-color="#B99C5D"/>
</linearGradient>
<linearGradient id="paint7_linear" x1="68" y1="0.0146484" x2="68" y2="83.9867" gradientUnits="userSpaceOnUse">
<stop stop-color="#FFE5AC"/>
<stop offset="0.0001" stop-color="#FFE5AC"/>
<stop offset="1" stop-color="#B99C5D"/>
</linearGradient>
<clipPath id="clip0">
<rect x="26" width="84" height="84" fill="white"/>
</clipPath>
</defs>
</svg>
