<svg width="24" height="25" viewBox="0 0 24 25" fill="none" xmlns="http://www.w3.org/2000/svg">
<g clip-path="url(#clip0)">
<path d="M5.34743 11.5381C4.53344 11.5381 3.87124 12.2003 3.87124 13.0143V13.2929H1.78418C1.03652 13.2929 0.428223 13.9011 0.428223 14.6488V18.2881C0.428223 19.0357 1.03652 19.644 1.78418 19.644H3.87119V19.9226C3.87119 20.7366 4.53339 21.3988 5.34738 21.3988C6.16136 21.3988 6.82357 20.7366 6.82357 19.9226V13.0143C6.82361 12.2003 6.16136 11.5381 5.34743 11.5381ZM1.78418 18.9226C1.43425 18.9226 1.14958 18.638 1.14958 18.288V14.6488C1.14958 14.2988 1.43425 14.0142 1.78418 14.0142H3.87119V18.9226H1.78418ZM6.10221 19.9226C6.10221 20.3388 5.76358 20.6774 5.34738 20.6774C4.93118 20.6774 4.59255 20.3388 4.59255 19.9226V13.0143C4.59255 12.5981 4.93118 12.2594 5.34738 12.2594C5.76358 12.2594 6.10221 12.598 6.10221 13.0143V19.9226Z" fill="#191919"/>
<path d="M22.2159 13.2929H20.1289V13.0143C20.1289 12.2003 19.4667 11.5381 18.6528 11.5381C17.8388 11.5381 17.1766 12.2003 17.1766 13.0143V19.9226C17.1766 20.7365 17.8388 21.3987 18.6528 21.3987C19.4667 21.3987 20.1289 20.7365 20.1289 19.9226V19.6439H21.116V20.8701C21.116 22.1903 20.0419 23.2645 18.7216 23.2645H14.5806C14.5806 23.2645 14.5806 23.2645 14.5806 23.2645C14.433 22.8529 14.039 22.5575 13.5772 22.5575H12.8088C12.2212 22.5575 11.7432 23.0356 11.7432 23.6232C11.7432 24.2107 12.2212 24.6888 12.8088 24.6888H13.5771C14.0375 24.6888 14.4305 24.3954 14.5792 23.9858H18.7215C20.4396 23.9858 21.8372 22.5881 21.8372 20.8701V19.6439H22.2159C22.9636 19.6439 23.5718 19.0357 23.5718 18.288V14.6488C23.5718 13.9011 22.9636 13.2929 22.2159 13.2929ZM19.4076 19.9226C19.4076 20.3388 19.069 20.6774 18.6527 20.6774C18.2365 20.6774 17.8979 20.3388 17.8979 19.9226V13.0143C17.8979 12.5981 18.2365 12.2594 18.6527 12.2594C19.0689 12.2594 19.4076 12.598 19.4076 13.0143V19.9226ZM13.5771 23.9675H12.8088C12.6189 23.9675 12.4644 23.8131 12.4644 23.6232C12.4644 23.4333 12.6189 23.2788 12.8088 23.2788H13.5771C13.767 23.2788 13.9215 23.4333 13.9215 23.6232C13.9215 23.8131 13.767 23.9675 13.5771 23.9675ZM22.8505 18.288C22.8505 18.638 22.5659 18.9226 22.2159 18.9226H20.1289V14.0142H22.2159C22.5659 14.0142 22.8505 14.2988 22.8505 14.6488V18.288Z" fill="#191919"/>
<path d="M12.0001 2.06445C6.92246 2.06445 2.7915 6.19541 2.7915 11.273V11.7292C2.7915 11.9284 2.95299 12.0898 3.15216 12.0898C3.35133 12.0898 3.51282 11.9284 3.51282 11.7292V11.273C3.51282 6.59314 7.32019 2.78581 12.0001 2.78581C16.68 2.78581 20.4873 6.59314 20.4873 11.273V11.7292C20.4874 11.9284 20.6489 12.0898 20.848 12.0898C21.0473 12.0898 21.2087 11.9284 21.2087 11.7292V11.273C21.2087 6.19541 17.0777 2.06445 12.0001 2.06445Z" fill="#191919"/>
<path d="M19.4848 3.7887C17.4856 1.78948 14.8274 0.688477 12.0001 0.688477C9.17271 0.688477 6.51457 1.78948 4.5153 3.7887C2.51609 5.78796 1.41504 8.4461 1.41504 11.2735V11.7296C1.41504 11.9288 1.57652 12.0903 1.7757 12.0903C1.97487 12.0903 2.13635 11.9288 2.13635 11.7296V11.2735C2.13635 8.6388 3.16235 6.16179 5.02535 4.29879C6.8884 2.43579 9.36537 1.40979 12.0001 1.40979C14.6348 1.40979 17.1117 2.43579 18.9747 4.29879C20.8378 6.16179 21.8638 8.63876 21.8638 11.2735V11.7296C21.8638 11.9288 22.0252 12.0903 22.2244 12.0903C22.4237 12.0903 22.5851 11.9288 22.5851 11.7296V11.2735C22.5851 8.4461 21.4841 5.78796 19.4848 3.7887Z" fill="#191919"/>
</g>
<defs>
<clipPath id="clip0">
<rect y="0.688477" width="24" height="24" fill="white"/>
</clipPath>
</defs>
</svg>
