<svg width="100" height="100" viewBox="0 0 100 100" fill="none" xmlns="http://www.w3.org/2000/svg">
<g clip-path="url(#clip0)">
<path d="M48.9097 87.7134C48.9097 82.4475 44.6412 78.179 39.3762 78.179C34.1103 78.179 29.8417 82.4475 29.8417 87.7124C29.8417 92.9784 34.1103 97.2469 39.3762 97.2469C44.6384 97.2413 48.9041 92.9765 48.9097 87.7134ZM33.2235 87.7134C33.2235 84.3148 35.9775 81.5605 39.3762 81.5605C42.7739 81.5605 45.5281 84.3147 45.5281 87.7124C45.5281 91.1111 42.7739 93.8652 39.3762 93.8652C35.9794 93.8614 33.2272 91.1091 33.2235 87.7134Z" fill="#191919"/>
<path d="M74.6787 97.2469C79.9446 97.2478 84.2132 92.9792 84.2132 87.7134C84.214 82.4475 79.9455 78.179 74.6797 78.179C69.4138 78.179 65.1452 82.4475 65.1452 87.7134C65.1519 92.9755 69.4156 97.2403 74.6787 97.2469ZM74.6787 81.5605C78.0764 81.5605 80.8316 84.3147 80.8316 87.7124C80.8325 91.1101 78.0774 93.8652 74.6797 93.8652C71.282 93.8652 68.5268 91.1111 68.5268 87.7134C68.5306 84.3176 71.2829 81.5653 74.6787 81.5605Z" fill="#191919"/>
<path d="M1.69179 6.0393H12.0055C15.3994 6.02609 18.2933 8.49721 18.8103 11.8524L26.9748 63.425C27.7456 68.4257 32.0594 72.1102 37.1196 72.0905H87.5854C88.5185 72.0905 89.2762 71.3328 89.2762 70.3996C89.2762 69.4656 88.5185 68.7087 87.5854 68.7087H37.1196C33.7256 68.7219 30.8319 66.2499 30.3148 62.8957L28.927 54.1274H80.6127C84.9888 54.1256 88.8838 51.3534 90.3178 47.2198L99.9069 19.5441C100.087 19.027 100.005 18.4553 99.6881 18.009C99.3701 17.5637 98.8568 17.2985 98.3096 17.2985H23.0958L22.1504 11.3231C21.3796 6.32237 17.0658 2.63786 12.0055 2.65767H1.69179C0.75769 2.65767 0.000976562 3.41534 0.000976562 4.34848C0.000976562 5.28259 0.75769 6.0393 1.69179 6.0393ZM95.9338 20.6811L87.123 46.1121C86.1607 48.8851 83.548 50.7448 80.6127 50.7458H28.391L23.6309 20.68L95.9338 20.6811Z" fill="#191919"/>
</g>
<defs>
<clipPath id="clip0">
<rect width="100" height="100" fill="white"/>
</clipPath>
</defs>
</svg>
