<svg width="15" height="15" viewBox="0 0 15 15" fill="none" xmlns="http://www.w3.org/2000/svg">
<g clip-path="url(#clip0)">
<path d="M14.5701 2.05057C14.3494 1.82952 13.9914 1.82914 13.7707 2.04963L6.9887 8.81375L4.54176 6.15614C4.33033 5.92663 3.97285 5.91175 3.74296 6.12315C3.51324 6.33459 3.49853 6.69225 3.70997 6.92196L6.55546 10.0122C6.65967 10.1255 6.8055 10.1913 6.95928 10.1945C6.96341 10.1946 6.9674 10.1946 6.97135 10.1946C7.1208 10.1946 7.26456 10.1353 7.37047 10.0297L14.569 2.85011C14.7902 2.62965 14.7906 2.27161 14.5701 2.05057Z" fill="url(#paint0_linear)"/>
<path d="M14.4337 6.93466C14.1214 6.93466 13.8684 7.18772 13.8684 7.5C13.8684 11.0122 11.0112 13.8693 7.49902 13.8693C3.98703 13.8693 1.12968 11.0122 1.12968 7.5C1.12968 3.98801 3.98703 1.13065 7.49902 1.13065C7.81127 1.13065 8.06437 0.877588 8.06437 0.565342C8.06437 0.253066 7.81127 0 7.49902 0C3.36348 0 -0.000976562 3.36445 -0.000976562 7.5C-0.000976562 11.6354 3.36348 15 7.49902 15C11.6344 15 14.999 11.6354 14.999 7.5C14.999 7.18775 14.746 6.93466 14.4337 6.93466Z" fill="url(#paint1_linear)"/>
</g>
<defs>
<linearGradient id="paint0_linear" x1="9.14786" y1="1.88452" x2="9.14786" y2="10.1946" gradientUnits="userSpaceOnUse">
<stop stop-color="#FFE5AC"/>
<stop offset="0.0001" stop-color="#FFE5AC"/>
<stop offset="1" stop-color="#B99C5D"/>
</linearGradient>
<linearGradient id="paint1_linear" x1="7.49902" y1="0" x2="7.49902" y2="15" gradientUnits="userSpaceOnUse">
<stop stop-color="#FFE5AC"/>
<stop offset="0.0001" stop-color="#FFE5AC"/>
<stop offset="1" stop-color="#B99C5D"/>
</linearGradient>
<clipPath id="clip0">
<rect x="-0.000976562" width="15" height="15" fill="white"/>
</clipPath>
</defs>
</svg>
