<svg width="83" height="83" viewBox="0 0 83 83" fill="none" xmlns="http://www.w3.org/2000/svg">
<g clip-path="url(#clip0)">
<path d="M35.3884 67.8353L35.2488 65.4259C35.2467 65.396 35.2438 65.3661 35.2396 65.3368C34.5628 60.4568 31.203 56.3703 26.5466 54.7617L25.7622 54.4881C24.6929 54.1148 23.7212 53.5057 22.9197 52.7057L19.1332 48.9184L17.838 44.5385C17.194 42.1519 15.1593 40.3993 12.7036 40.1158L12.5105 39.4732C12.5084 39.4646 12.5055 39.4554 12.5027 39.4475C11.8893 37.5717 9.87172 36.3542 7.79573 36.4532L7.75654 36.3207C6.92444 33.5266 4.04128 31.8816 1.21297 32.5877C0.650872 32.7273 0.295375 33.2808 0.400813 33.8501L4.57274 56.3005C4.582 56.3518 4.59483 56.4017 4.61121 56.4508C5.59934 59.354 7.48939 61.8652 10.0064 63.6178L19.1168 69.8949C19.1353 69.9077 19.156 69.9206 19.1759 69.9327C19.7922 70.3003 20.2531 70.8809 20.4711 71.5648L21.1629 80.9118C21.1949 81.3513 21.4877 81.7282 21.9059 81.8685L22.0926 81.9312C26.2125 83.3254 30.6715 83.3568 34.8107 82.0196L35.2673 81.8735C35.7204 81.7282 36.0275 81.3071 36.0275 80.8312V75.5935C36.0047 73.1621 35.8073 70.7356 35.4376 68.3326C35.4148 68.1701 35.3984 68.0027 35.3884 67.8353ZM15.7278 45.1163C15.7299 45.1262 15.7328 45.1355 15.7356 45.1455L16.0968 46.3673C15.5625 46.1015 14.994 45.9113 14.4077 45.8016L13.4295 42.5373C14.5609 42.9847 15.4136 43.9415 15.7278 45.1163ZM10.4189 40.1165L12.1187 45.7888C11.6357 45.8707 11.1633 46.0075 10.7117 46.1963L8.4597 38.6724C9.35735 38.8099 10.1652 39.3592 10.4189 40.1165ZM33.8396 80.0291C30.4008 81.0756 26.7276 81.0713 23.2916 80.017L22.6454 71.2841C22.6397 71.2107 22.6269 71.1381 22.6069 71.0675C22.2557 69.8173 21.4421 68.7465 20.3315 68.074L11.2502 61.8168C9.14149 60.3485 7.55208 58.2497 6.70929 55.8225L2.76961 34.623C4.12178 34.7228 5.27163 35.6482 5.65847 36.9477L8.5744 46.6964L8.80166 47.4302C8.74681 47.4808 8.69338 47.5335 8.63994 47.5869C8.42836 47.7985 8.31294 48.087 8.32007 48.3855C8.32648 48.684 8.45543 48.9669 8.67628 49.1685L13.24 53.3383C14.5644 54.548 15.7748 55.8759 16.8577 57.3057C17.2225 57.7881 17.9092 57.8828 18.3908 57.518C18.8724 57.1533 18.9679 56.4665 18.6031 55.9849C17.4397 54.4489 16.1396 53.022 14.7176 51.7218L11.1135 48.4311C12.7912 47.4879 14.8914 47.7757 16.2536 49.1343L21.3723 54.2537C22.4082 55.2868 23.6627 56.074 25.0441 56.5563L25.8285 56.8299C29.6941 58.1649 32.4889 61.5503 33.0667 65.5997L33.2042 67.9635C33.2177 68.1922 33.2405 68.4216 33.2726 68.6432C33.6273 70.9436 33.8168 73.2668 33.8404 75.5943L33.8396 80.0291Z" fill="url(#paint0_linear)"/>
<path d="M81.9876 32.5877C79.1593 31.8816 76.2754 33.5266 75.444 36.3207L75.4048 36.4532C73.3288 36.3535 71.3113 37.5717 70.6979 39.4475C70.695 39.4561 70.6922 39.4646 70.6893 39.4732L70.497 40.1165C68.0413 40.3993 66.0066 42.1519 65.3618 44.5385L64.0674 48.9192L60.2795 52.7064C59.478 53.5064 58.5062 54.1155 57.4369 54.4896L56.6532 54.7617C51.9969 56.3703 48.6378 60.4568 47.9603 65.3369C47.9567 65.3661 47.9532 65.396 47.9517 65.4259L47.8121 67.8353C47.8021 68.0027 47.785 68.1701 47.7615 68.3333C47.3925 70.7363 47.1952 73.1628 47.1724 75.5936V80.8306C47.1724 81.2986 47.4694 81.7147 47.9126 81.8664C52.0938 83.2841 56.6205 83.3155 60.8209 81.9547L61.0759 81.8714C61.4899 81.736 61.7848 81.3684 61.8261 80.9353L62.7245 71.5755C62.941 70.8866 63.4034 70.3017 64.0232 69.9327C64.0439 69.9206 64.0631 69.9077 64.0823 69.8942L73.1956 63.6149C75.7119 61.8638 77.6012 59.3532 78.5886 56.4509C78.605 56.4017 78.6185 56.3518 78.6278 56.3005L82.7997 33.8501C82.9052 33.2808 82.549 32.7273 81.9876 32.5877ZM72.7817 40.1165C73.0353 39.3592 73.8432 38.8092 74.7408 38.6717L72.5345 46.0488L72.4889 46.1949C72.0365 46.0061 71.5649 45.8693 71.0819 45.7874L72.7817 40.1165ZM67.4727 45.1163C67.7869 43.9415 68.6397 42.9847 69.771 42.5373L68.7921 45.8023C68.2058 45.9113 67.6373 46.1015 67.1037 46.3666L67.4642 45.1448C67.4678 45.1355 67.4706 45.1255 67.4727 45.1163ZM76.4905 55.8225C75.6485 58.2483 74.0598 60.3464 71.9524 61.8147L62.8691 68.0733C61.7584 68.7465 60.9449 69.8166 60.5936 71.0668C60.5758 71.1303 60.5637 71.1944 60.5573 71.2599L59.7181 80.0056C56.3398 81.0094 52.7442 81.0172 49.3616 80.0298V75.5936C49.3844 73.2661 49.5746 70.9436 49.9287 68.6439C49.9608 68.4209 49.9836 68.1915 49.9971 67.9621L50.1346 65.599C50.7131 61.5496 53.5072 58.1642 57.3735 56.8284L58.1564 56.5563C59.5378 56.074 60.7924 55.2868 61.8282 54.2537L66.9477 49.1343C68.3098 47.7757 70.4093 47.4879 72.0871 48.4311L68.483 51.7218C67.061 53.022 65.7608 54.449 64.5981 55.9849C64.2334 56.4665 64.3281 57.1533 64.8104 57.5181C65.292 57.8828 65.9781 57.7881 66.3428 57.3058C67.4257 55.8759 68.6361 54.548 69.9598 53.3383L74.5243 49.1685C74.7451 48.9669 74.8741 48.6841 74.8805 48.3855C74.8876 48.087 74.7722 47.7985 74.5613 47.5869C74.5079 47.5335 74.4537 47.4808 74.3989 47.4302L74.629 46.6864L77.5421 36.9469C77.9289 35.6475 79.0788 34.7221 80.4309 34.6223L76.4905 55.8225Z" fill="url(#paint1_linear)"/>
<path d="M48.6091 43.8423C48.6134 43.5167 48.4723 43.2054 48.2244 42.9945L46.6407 41.6445L48.2743 40.0715C48.5079 39.8463 48.6298 39.5286 48.6062 39.2044C48.5827 38.881 48.4167 38.5839 48.1532 38.3944L46.1064 36.9254V21.2045C48.8713 21.0563 51.6362 20.7713 54.3426 20.356C55.5295 20.18 56.3567 19.0857 56.2014 17.896L54.2094 1.95844C54.1332 1.3536 53.8112 0.80646 53.3175 0.446688C52.8245 0.0876287 52.2047 -0.0512931 51.6055 0.0619816C49.5139 0.458087 45.4851 1.1242 42.0064 1.1242C38.3104 1.1242 33.4702 0.360485 31.5602 0.0320599C30.9653 -0.0705285 30.3548 0.0755175 29.8696 0.435289C29.3852 0.795061 29.0681 1.33721 28.9933 1.93636L26.9986 17.896C26.844 19.085 27.6704 20.1793 28.8566 20.3552C31.5638 20.7706 34.3279 21.0548 37.0936 21.203V49.2403C37.0936 49.6058 37.2759 49.9477 37.5808 50.1501L40.9926 52.4255C41.3602 52.6706 41.839 52.6706 42.2066 52.4255L45.6191 50.1501C45.9233 49.9477 46.1064 49.6058 46.1064 49.2403V46.365L48.2009 44.6787C48.4545 44.4749 48.6041 44.1679 48.6091 43.8423ZM44.9672 19.0665C44.3802 19.0907 43.9178 19.5737 43.9178 20.1608V37.4868C43.9178 37.8394 44.0874 38.17 44.3738 38.3759L45.81 39.4068L44.2527 40.9064C44.0304 41.1208 43.9093 41.4186 43.9185 41.7278C43.9278 42.0363 44.0674 42.327 44.3025 42.5272L45.7993 43.8038L44.326 44.9907C44.0681 45.198 43.9178 45.5115 43.9178 45.8428V48.6554L41.5996 50.1999L39.2821 48.654V20.16C39.2821 19.573 38.819 19.09 38.2327 19.0658C35.2042 18.9411 32.185 18.649 29.1885 18.1916C29.1764 18.1895 29.1686 18.1781 29.17 18.166L31.1655 2.20565L31.1897 2.18784C33.6305 2.60746 38.2812 3.31133 42.0064 3.31133C45.664 3.31133 49.8459 2.6217 52.0138 2.21064L51.8093 1.13489L52.0373 2.22916L54.0299 18.166C54.0313 18.1781 54.0235 18.1895 54.0114 18.1916C51.0149 18.6497 47.9957 18.9418 44.9672 19.0665Z" fill="url(#paint2_linear)"/>
<path d="M49.5102 6.79139C49.4397 6.21504 48.9303 5.79543 48.3518 5.83532L45.1331 6.04976C42.78 6.20578 40.419 6.20578 38.0659 6.04976L34.8479 5.83532C34.2687 5.794 33.7586 6.21433 33.6895 6.79139L33.2336 10.4311C33.168 10.9562 33.4879 11.4535 33.993 11.6109L41.2725 13.8857C41.4848 13.9526 41.7128 13.9526 41.9251 13.8857L49.2053 11.6109C49.7104 11.4535 50.0303 10.9562 49.9647 10.4311L49.5102 6.79139ZM41.5995 11.695L35.5197 9.79495L35.7328 8.08728L37.9213 8.23333C40.3713 8.39576 42.8299 8.39576 45.2799 8.23333L47.4684 8.08728L47.6822 9.79495L41.5995 11.695Z" fill="url(#paint3_linear)"/>
</g>
<defs>
<linearGradient id="paint0_linear" x1="18.2049" y1="32.4243" x2="18.2049" y2="83.0002" gradientUnits="userSpaceOnUse">
<stop stop-color="#FFE5AC"/>
<stop offset="0.0001" stop-color="#FFE5AC"/>
<stop offset="1" stop-color="#B99C5D"/>
</linearGradient>
<linearGradient id="paint1_linear" x1="64.9953" y1="32.4243" x2="64.9953" y2="82.953" gradientUnits="userSpaceOnUse">
<stop stop-color="#FFE5AC"/>
<stop offset="0.0001" stop-color="#FFE5AC"/>
<stop offset="1" stop-color="#B99C5D"/>
</linearGradient>
<linearGradient id="paint2_linear" x1="41.6" y1="0" x2="41.6" y2="52.6093" gradientUnits="userSpaceOnUse">
<stop stop-color="#FFE5AC"/>
<stop offset="0.0001" stop-color="#FFE5AC"/>
<stop offset="1" stop-color="#B99C5D"/>
</linearGradient>
<linearGradient id="paint3_linear" x1="41.5992" y1="5.83252" x2="41.5992" y2="13.9359" gradientUnits="userSpaceOnUse">
<stop stop-color="#FFE5AC"/>
<stop offset="0.0001" stop-color="#FFE5AC"/>
<stop offset="1" stop-color="#B99C5D"/>
</linearGradient>
<clipPath id="clip0">
<rect width="83" height="83" fill="white"/>
</clipPath>
</defs>
</svg>
