<svg width="100" height="100" viewBox="0 0 100 100" fill="none" xmlns="http://www.w3.org/2000/svg">
<g clip-path="url(#clip0)">
<path d="M100.001 82.3731V69.7466C100.001 68.9771 99.3771 68.3529 98.6076 68.3529H87.3721V51.3028C87.3721 50.5334 86.7483 49.9098 85.9788 49.9098H51.393V35.8585H66.8383C67.6077 35.8585 68.2317 35.2349 68.2317 34.4654V17.6274C68.2317 16.858 67.6077 16.2339 66.8383 16.2339H33.1628C32.3934 16.2339 31.7696 16.858 31.7696 17.6274V34.4654C31.7696 35.2349 32.3934 35.8585 33.1628 35.8585H48.6062V49.9098H14.0211C13.2514 49.9098 12.6278 50.5334 12.6278 51.3028V68.3529H1.39431C0.624848 68.3529 0.000976562 68.9771 0.000976562 69.7466V82.3731C0.000976562 83.1426 0.624848 83.7667 1.39431 83.7667H26.6497C27.4192 83.7667 28.0431 83.1426 28.0431 82.3731V69.7466C28.0431 68.9771 27.4192 68.3529 26.6497 68.3529H15.4142V52.6965H48.606V68.3529H37.3715C36.6018 68.3529 35.9782 68.9771 35.9782 69.7466V82.3731C35.9782 83.1426 36.6018 83.7667 37.3715 83.7667H62.628C63.3976 83.7667 64.0212 83.1426 64.0212 82.3731V69.7466C64.0212 68.9771 63.3976 68.3529 62.628 68.3529H51.3926V52.6965H84.5855V68.3529H73.351C72.5812 68.3529 71.9576 68.9771 71.9576 69.7466V82.3731C71.9576 83.1426 72.5812 83.7667 73.351 83.7667H98.6074C99.3771 83.7667 100.001 83.1426 100.001 82.3731ZM34.5562 33.0718V19.0206H65.4449V33.0718H49.9996H34.5562ZM25.2567 71.1396V80.98H2.78763V71.1396H14.0211H25.2567ZM61.2348 71.1396V80.98H38.7651V71.1396H49.9996H61.2348ZM97.2143 80.98H74.7443V71.1396H85.9788H97.2143V80.98Z" fill="#191919"/>
</g>
<defs>
<clipPath id="clip0">
<rect width="100" height="100" fill="white"/>
</clipPath>
</defs>
</svg>
