<svg width="100" height="100" viewBox="0 0 100 100" fill="none" xmlns="http://www.w3.org/2000/svg">
<path d="M89.064 3.12537H10.939C8.86777 3.12786 6.88208 3.95175 5.4175 5.41634C3.9529 6.88094 3.129 8.86663 3.12653 10.9379V70.3129C3.129 72.3841 3.9529 74.3698 5.4175 75.8345C6.88208 77.2989 8.86777 78.1229 10.939 78.1254H36.8094L33.2937 87.5003H29.6891C28.4459 87.5003 27.2536 87.9943 26.3745 88.8734C25.4954 89.7525 25.0016 90.9446 25.0016 92.1878V95.3129C25.0016 95.7272 25.1662 96.1248 25.4591 96.4177C25.7522 96.7108 26.1496 96.8754 26.564 96.8754H73.4391C73.8534 96.8754 74.2508 96.7108 74.5439 96.4177C74.8369 96.1248 75.0016 95.7272 75.0016 95.3129V92.1878C75.0016 90.9446 74.5077 89.7525 73.6286 88.8734C72.7496 87.9943 71.5573 87.5003 70.314 87.5003H66.7094L63.1937 78.1254H89.064C91.1353 78.1229 93.1209 77.2989 94.5856 75.8345C96.0502 74.3698 96.874 72.3841 96.8765 70.3129V10.9379C96.874 8.86663 96.0502 6.88094 94.5856 5.41634C93.1209 3.95175 91.1353 3.12786 89.064 3.12537ZM10.939 6.25037H89.064C90.3073 6.25037 91.4996 6.74423 92.3786 7.6233C93.2577 8.50238 93.7516 9.69467 93.7516 10.9379V59.3754H6.25153V10.9379C6.25153 9.69467 6.74539 8.50238 7.62446 7.6233C8.50354 6.74423 9.69582 6.25037 10.939 6.25037ZM71.8765 92.1878V93.7503H28.1265V92.1878C28.1265 91.7735 28.2911 91.376 28.5842 91.0831C28.8772 90.79 29.2746 90.6254 29.6891 90.6254H70.314C70.7285 90.6254 71.1259 90.79 71.4189 91.0831C71.7119 91.376 71.8765 91.7735 71.8765 92.1878ZM63.3719 87.5003H36.6313L40.1468 78.1254H59.8562L63.3719 87.5003ZM89.064 75.0003H10.939C9.69582 75.0003 8.50354 74.5065 7.62446 73.6274C6.74539 72.7483 6.25153 71.5561 6.25153 70.3129V62.5003H93.7516V70.3129C93.7516 71.5561 93.2577 72.7483 92.3786 73.6274C91.4996 74.5065 90.3073 75.0003 89.064 75.0003Z" fill="#191919"/>
<path d="M50.0015 64.0629C49.0744 64.0629 48.1681 64.3378 47.3972 64.8529C46.6264 65.3679 46.0255 66.0999 45.6708 66.9566C45.316 67.813 45.2232 68.7555 45.404 69.6649C45.5849 70.5741 46.0314 71.4093 46.6869 72.0649C47.3424 72.7204 48.1777 73.1669 49.0871 73.3478C49.9963 73.5286 50.9388 73.4358 51.7954 73.081C52.6518 72.7262 53.384 72.1255 53.8991 71.3546C54.4141 70.5836 54.6891 69.6775 54.6891 68.7502C54.6891 67.5072 54.1951 66.3149 53.316 65.4358C52.4369 64.5567 51.2448 64.0629 50.0015 64.0629ZM50.0015 70.3129C49.6924 70.3129 49.3903 70.2212 49.1334 70.0495C48.8764 69.8778 48.6761 69.6338 48.558 69.3483C48.4397 69.0627 48.4088 68.7486 48.4691 68.4455C48.5294 68.1424 48.6781 67.8639 48.8966 67.6455C49.1152 67.427 49.3935 67.2781 49.6966 67.2178C49.9998 67.1575 50.314 67.1886 50.5994 67.3067C50.8849 67.425 51.1289 67.6253 51.3006 67.8823C51.4723 68.1392 51.564 68.4413 51.564 68.7502C51.564 69.1647 51.3994 69.5621 51.1063 69.8552C50.8134 70.1482 50.4158 70.3129 50.0015 70.3129Z" fill="#191919"/>
</svg>
