<svg width="61" height="61" viewBox="0 0 61 61" fill="none" xmlns="http://www.w3.org/2000/svg">
<path d="M55.8916 0.03125H5.11035C3.76404 0.0328627 2.47334 0.568396 1.52136 1.52038C0.569372 2.47236 0.0338392 3.76307 0.0322266 5.10938V43.7031C0.0338392 45.0494 0.569372 46.3401 1.52136 47.2921C2.47334 48.2441 3.76404 48.7796 5.11035 48.7812H21.9261L19.6409 54.875H17.2979C16.4898 54.875 15.7148 55.196 15.1434 55.7674C14.572 56.3388 14.251 57.1138 14.251 57.9219V59.9531C14.251 60.2225 14.358 60.4808 14.5484 60.6713C14.7389 60.8617 14.9972 60.9688 15.2666 60.9688H45.7354C46.0047 60.9688 46.263 60.8617 46.4535 60.6713C46.644 60.4808 46.751 60.2225 46.751 59.9531V57.9219C46.751 57.1138 46.43 56.3388 45.8586 55.7674C45.2872 55.196 44.5122 54.875 43.7041 54.875H41.3611L39.0759 48.7812H55.8916C57.2379 48.7796 58.5286 48.2441 59.4806 47.2921C60.4326 46.3401 60.9681 45.0494 60.9697 43.7031V5.10938C60.9681 3.76307 60.4326 2.47236 59.4806 1.52038C58.5286 0.568396 57.2379 0.0328627 55.8916 0.03125V0.03125ZM5.11035 2.0625H55.8916C56.6997 2.0625 57.4747 2.38351 58.0461 2.95491C58.6175 3.52631 58.9385 4.30129 58.9385 5.10938V36.5938H2.06348V5.10938C2.06348 4.30129 2.38449 3.52631 2.95589 2.95491C3.52729 2.38351 4.30227 2.0625 5.11035 2.0625V2.0625ZM44.7197 57.9219V58.9375H16.2822V57.9219C16.2822 57.6525 16.3892 57.3942 16.5797 57.2037C16.7702 57.0133 17.0285 56.9062 17.2979 56.9062H43.7041C43.9735 56.9062 44.2318 57.0133 44.4223 57.2037C44.6127 57.3942 44.7197 57.6525 44.7197 57.9219ZM39.1917 54.875H21.8103L24.0954 48.7812H36.9065L39.1917 54.875ZM55.8916 46.75H5.11035C4.30227 46.75 3.52729 46.429 2.95589 45.8576C2.38449 45.2862 2.06348 44.5112 2.06348 43.7031V38.625H58.9385V43.7031C58.9385 44.5112 58.6175 45.2862 58.0461 45.8576C57.4747 46.429 56.6997 46.75 55.8916 46.75Z" fill="url(#paint0_linear)"/>
<path d="M30.501 39.6406C29.8984 39.6406 29.3093 39.8193 28.8082 40.1541C28.3072 40.4889 27.9166 40.9648 27.686 41.5215C27.4554 42.0783 27.3951 42.6909 27.5126 43.2819C27.6302 43.873 27.9204 44.4159 28.3465 44.842C28.7726 45.2681 29.3155 45.5583 29.9066 45.6758C30.4976 45.7934 31.1102 45.7331 31.667 45.5024C32.2237 45.2718 32.6996 44.8813 33.0344 44.3803C33.3692 43.8792 33.5479 43.2901 33.5479 42.6875C33.5479 41.8794 33.2268 41.1044 32.6554 40.533C32.084 39.9616 31.3091 39.6406 30.501 39.6406ZM30.501 43.7031C30.3001 43.7031 30.1037 43.6436 29.9367 43.532C29.7697 43.4204 29.6395 43.2617 29.5627 43.0762C29.4858 42.8906 29.4657 42.6864 29.5049 42.4894C29.5441 42.2923 29.6408 42.1114 29.7828 41.9693C29.9249 41.8273 30.1058 41.7306 30.3028 41.6914C30.4999 41.6522 30.7041 41.6723 30.8896 41.7492C31.0752 41.8261 31.2338 41.9562 31.3454 42.1233C31.457 42.2903 31.5166 42.4866 31.5166 42.6875C31.5166 42.9569 31.4096 43.2152 31.2191 43.4057C31.0287 43.5961 30.7703 43.7031 30.501 43.7031Z" fill="url(#paint1_linear)"/>
<defs>
<linearGradient id="paint0_linear" x1="30.501" y1="0.03125" x2="30.501" y2="60.9687" gradientUnits="userSpaceOnUse">
<stop stop-color="#FFE5AC"/>
<stop offset="0.0001" stop-color="#FFE5AC"/>
<stop offset="1" stop-color="#B99C5D"/>
</linearGradient>
<linearGradient id="paint1_linear" x1="30.501" y1="39.6406" x2="30.501" y2="45.7344" gradientUnits="userSpaceOnUse">
<stop stop-color="#FFE5AC"/>
<stop offset="0.0001" stop-color="#FFE5AC"/>
<stop offset="1" stop-color="#B99C5D"/>
</linearGradient>
</defs>
</svg>
