<svg width="16" height="16" viewBox="0 0 16 16" fill="none" xmlns="http://www.w3.org/2000/svg">
<path d="M14.5937 1.90625H1.40618C1.18971 1.90625 0.987055 1.95947 0.803711 2.04719L7.96868 9.21216L9.57458 7.66881C9.57458 7.66881 9.57471 7.66866 9.57474 7.66859C9.57477 7.66853 9.5749 7.66847 9.5749 7.66847L15.1964 2.04731C15.013 1.95953 14.8102 1.90625 14.5937 1.90625Z" fill="#6A6A6A"/>
<path d="M15.8589 2.71094L10.5688 8.00075L15.8588 13.2907C15.9465 13.1073 15.9997 12.9047 15.9997 12.6882V3.31319C15.9997 3.09684 15.9466 2.89422 15.8589 2.71094Z" fill="#6A6A6A"/>
<path d="M0.140938 2.70996C0.0532188 2.8933 0 3.09596 0 3.31243V12.6874C0 12.9038 0.0531562 13.1065 0.140813 13.2897L5.43091 7.99993L0.140938 2.70996Z" fill="#6A6A6A"/>
<path d="M9.90646 8.66217L8.30033 10.2057C8.20877 10.2973 8.08884 10.343 7.96893 10.343C7.84902 10.343 7.72905 10.2973 7.63752 10.2057L6.0939 8.66211L0.803711 13.952C0.987086 14.0397 1.18987 14.093 1.4064 14.093H14.5939C14.8104 14.093 15.013 14.0398 15.1964 13.9521L9.90646 8.66217Z" fill="#6A6A6A"/>
</svg>
