<svg width="83" height="83" viewBox="0 0 83 83" fill="none" xmlns="http://www.w3.org/2000/svg">
<g clip-path="url(#clip0)">
<path d="M76.7081 4.33496H69.9988C69.3238 4.33496 68.7765 4.88208 68.7765 5.55727C68.7765 6.23245 69.3236 6.77957 69.9988 6.77957H76.7081C78.8296 6.77957 80.5555 8.50555 80.5555 10.6271V18.3263H2.44445V10.6271C2.44445 8.50555 4.17043 6.77957 6.29195 6.77957H64.3662C65.0412 6.77957 65.5885 6.23245 65.5885 5.55727C65.5885 4.88208 65.0414 4.33496 64.3662 4.33496H6.29195C2.82265 4.33496 0 7.15761 0 10.6271V61.9793C0 65.4487 2.82265 68.2712 6.29195 68.2712H19.9279C24.9929 74.6024 32.7803 78.6657 41.5 78.6657C50.2197 78.6657 58.0071 74.6024 63.0721 68.2712H76.7081C80.1775 68.2712 83 65.4486 83 61.9793V10.6271C83 7.15761 80.1774 4.33496 76.7081 4.33496ZM41.5 76.2212C27.62 76.2212 16.3278 64.9292 16.3278 51.0492C16.3278 37.1692 27.62 25.8769 41.5 25.8769C55.38 25.8769 66.6722 37.1691 66.6722 51.0491C66.6722 64.929 55.38 76.2212 41.5 76.2212ZM76.7081 65.8266H64.8204C67.5396 61.5507 69.1168 56.4809 69.1168 51.0491C69.1168 35.8211 56.7281 23.4324 41.5002 23.4324C26.2723 23.4324 13.8834 35.8211 13.8834 51.0491C13.8834 56.4809 15.4605 61.5507 18.1798 65.8266H6.29195C4.17043 65.8266 2.44445 64.1006 2.44445 61.9791V20.7707H80.5554V61.9791C80.5556 64.1006 78.8296 65.8266 76.7081 65.8266Z" fill="url(#paint0_linear)"/>
<path d="M8.13086 12.5529C8.13086 13.8091 9.14923 14.8274 10.4054 14.8274C11.6616 14.8274 12.68 13.8091 12.68 12.5529C12.68 11.2967 11.6616 10.2783 10.4054 10.2783C9.14923 10.2783 8.13086 11.2967 8.13086 12.5529Z" fill="url(#paint1_linear)"/>
<path d="M15.1274 12.5529C15.1274 13.8091 16.1458 14.8274 17.402 14.8274C18.6582 14.8274 19.6766 13.8091 19.6766 12.5529C19.6766 11.2967 18.6582 10.2783 17.402 10.2783C16.1458 10.2783 15.1274 11.2967 15.1274 12.5529Z" fill="url(#paint2_linear)"/>
<path d="M22.1245 12.5529C22.1245 13.8091 23.1429 14.8274 24.3991 14.8274C25.6553 14.8274 26.6736 13.8091 26.6736 12.5529C26.6736 11.2967 25.6553 10.2783 24.3991 10.2783C23.1429 10.2783 22.1245 11.2967 22.1245 12.5529Z" fill="url(#paint3_linear)"/>
<path d="M28.4382 44.8172C27.807 44.5799 27.1016 44.8978 26.8632 45.5293C26.198 47.2923 25.8608 49.1494 25.8608 51.0493C25.8608 59.6729 32.8764 66.6885 41.5 66.6885C47.4932 66.6885 53.0356 63.1925 55.6197 57.7816C55.6201 57.7811 55.6202 57.7804 55.6204 57.78C56.6281 55.6695 57.139 53.4049 57.139 51.0493C57.139 47.3095 55.8188 43.8724 53.6209 41.1785C54.1003 40.4772 54.0204 39.5616 53.407 38.9484C52.7864 38.3278 51.8569 38.254 51.1525 38.7525C48.4924 36.6599 45.1394 35.4102 41.5 35.4102C37.2252 35.4102 33.2333 37.1024 30.26 40.175C29.7905 40.6601 29.8032 41.4338 30.2884 41.9034C30.6813 42.2528 31.3849 42.4382 32.0168 41.8751C34.2396 39.5778 37.1375 38.1976 40.2779 37.9123V47.6371C39.2509 48.4908 38.6568 48.9977 38.5018 49.1528C37.8738 49.7807 37.528 50.6154 37.528 51.5032C37.528 52.3911 37.8738 53.2258 38.5016 53.8538C39.1297 54.4817 39.9644 54.8275 40.8522 54.8275C41.7401 54.8275 42.5748 54.4817 43.2027 53.8538C43.2696 53.7869 43.404 53.6358 43.6019 53.4054L52.8333 57.8061C50.47 61.7521 46.1464 64.2441 41.5002 64.2441C34.2247 64.2441 28.3054 58.325 28.3054 51.0493C28.3054 49.4453 28.5896 47.8783 29.1505 46.3923C29.3887 45.7608 29.07 45.0557 28.4382 44.8172ZM42.7223 37.9109C45.1224 38.1323 47.3363 39.002 49.1924 40.3388C46.5517 42.487 44.3927 44.2495 42.7223 45.6205V37.9109ZM40.8521 52.383C40.4771 52.3923 39.5259 51.8341 40.2292 50.8822C40.3541 50.7595 41.2638 49.9598 47.4178 44.9375C42.3963 51.0905 41.596 52.0011 41.4733 52.1259C41.3073 52.2917 41.0866 52.383 40.8521 52.383ZM52.0446 43.1288C53.707 45.3364 54.6948 48.0793 54.6948 51.0493C54.6948 52.6246 54.4244 54.1508 53.8896 55.6015L45.2222 51.4697C46.7065 49.6756 48.9859 46.8888 52.0446 43.1288Z" fill="url(#paint4_linear)"/>
<path d="M41.5002 28.3218C28.968 28.3218 18.7725 38.5173 18.7725 51.0495C18.7725 63.5815 28.968 73.7771 41.5002 73.7771C43.6422 73.7771 45.7632 73.4778 47.8046 72.8876C48.4532 72.7002 48.8269 72.0224 48.6393 71.374C48.4519 70.7255 47.774 70.3514 47.1257 70.5393C45.3049 71.0658 43.4123 71.3326 41.5002 71.3326C30.3159 71.3326 21.2169 62.2338 21.2169 51.0495C21.2169 39.8653 30.3159 30.7662 41.5002 30.7662C52.6845 30.7662 61.7835 39.8653 61.7835 51.0495C61.7835 58.1569 58.1519 64.6263 52.0689 68.3558C51.4934 68.7086 51.313 69.4611 51.6658 70.0366C52.0185 70.6122 52.7713 70.7927 53.3465 70.4397C56.6049 68.4421 59.3316 65.6347 61.2315 62.3208C63.1917 58.9018 64.2279 55.0042 64.2279 51.0495C64.2279 38.5173 54.0324 28.3218 41.5002 28.3218Z" fill="url(#paint5_linear)"/>
<path d="M17.4024 26.8501H8.131C7.45597 26.8501 6.90869 27.3972 6.90869 28.0724C6.90869 28.7474 7.45581 29.2947 8.131 29.2947H17.4024C18.0774 29.2947 18.6247 28.7476 18.6247 28.0724C18.6247 27.3974 18.0775 26.8501 17.4024 26.8501Z" fill="url(#paint6_linear)"/>
<path d="M13.4699 31.9839H8.131C7.45597 31.9839 6.90869 32.531 6.90869 33.2062C6.90869 33.8814 7.45581 34.4285 8.131 34.4285H13.4699C14.1449 34.4285 14.6922 33.8814 14.6922 33.2062C14.6922 32.531 14.1451 31.9839 13.4699 31.9839Z" fill="url(#paint7_linear)"/>
<path d="M73.8228 25.2461C71.7899 25.2461 70.1362 26.8998 70.1362 28.9326C70.1362 30.9655 71.7899 32.6193 73.8228 32.6193C75.8556 32.6193 77.5095 30.9655 77.5095 28.9326C77.5095 26.8998 75.8556 25.2461 73.8228 25.2461ZM73.8228 30.1747C73.138 30.1747 72.5808 29.6175 72.5808 28.9326C72.5808 28.2479 73.138 27.6907 73.8228 27.6907C74.5077 27.6907 75.0648 28.2479 75.0648 28.9326C75.0648 29.6175 74.5077 30.1747 73.8228 30.1747Z" fill="url(#paint8_linear)"/>
<path d="M73.8228 34.874C71.7899 34.874 70.1362 36.5277 70.1362 38.5606C70.1362 40.5934 71.7899 42.2472 73.8228 42.2472C75.8556 42.2472 77.5095 40.5934 77.5095 38.5606C77.5095 36.5277 75.8556 34.874 73.8228 34.874ZM73.8228 39.8026C73.138 39.8026 72.5808 39.2455 72.5808 38.5606C72.5808 37.8758 73.138 37.3186 73.8228 37.3186C74.5077 37.3186 75.0648 37.8758 75.0648 38.5606C75.0648 39.2455 74.5077 39.8026 73.8228 39.8026Z" fill="url(#paint9_linear)"/>
</g>
<defs>
<linearGradient id="paint0_linear" x1="41.5" y1="4.33496" x2="41.5" y2="78.6657" gradientUnits="userSpaceOnUse">
<stop stop-color="#FFE5AC"/>
<stop offset="0.0001" stop-color="#FFE5AC"/>
<stop offset="1" stop-color="#B99C5D"/>
</linearGradient>
<linearGradient id="paint1_linear" x1="10.4054" y1="10.2783" x2="10.4054" y2="14.8274" gradientUnits="userSpaceOnUse">
<stop stop-color="#FFE5AC"/>
<stop offset="0.0001" stop-color="#FFE5AC"/>
<stop offset="1" stop-color="#B99C5D"/>
</linearGradient>
<linearGradient id="paint2_linear" x1="17.402" y1="10.2783" x2="17.402" y2="14.8274" gradientUnits="userSpaceOnUse">
<stop stop-color="#FFE5AC"/>
<stop offset="0.0001" stop-color="#FFE5AC"/>
<stop offset="1" stop-color="#B99C5D"/>
</linearGradient>
<linearGradient id="paint3_linear" x1="24.3991" y1="10.2783" x2="24.3991" y2="14.8274" gradientUnits="userSpaceOnUse">
<stop stop-color="#FFE5AC"/>
<stop offset="0.0001" stop-color="#FFE5AC"/>
<stop offset="1" stop-color="#B99C5D"/>
</linearGradient>
<linearGradient id="paint4_linear" x1="41.4999" y1="35.4102" x2="41.4999" y2="66.6885" gradientUnits="userSpaceOnUse">
<stop stop-color="#FFE5AC"/>
<stop offset="0.0001" stop-color="#FFE5AC"/>
<stop offset="1" stop-color="#B99C5D"/>
</linearGradient>
<linearGradient id="paint5_linear" x1="41.5002" y1="28.3218" x2="41.5002" y2="73.7771" gradientUnits="userSpaceOnUse">
<stop stop-color="#FFE5AC"/>
<stop offset="0.0001" stop-color="#FFE5AC"/>
<stop offset="1" stop-color="#B99C5D"/>
</linearGradient>
<linearGradient id="paint6_linear" x1="12.7667" y1="26.8501" x2="12.7667" y2="29.2947" gradientUnits="userSpaceOnUse">
<stop stop-color="#FFE5AC"/>
<stop offset="0.0001" stop-color="#FFE5AC"/>
<stop offset="1" stop-color="#B99C5D"/>
</linearGradient>
<linearGradient id="paint7_linear" x1="10.8005" y1="31.9839" x2="10.8005" y2="34.4285" gradientUnits="userSpaceOnUse">
<stop stop-color="#FFE5AC"/>
<stop offset="0.0001" stop-color="#FFE5AC"/>
<stop offset="1" stop-color="#B99C5D"/>
</linearGradient>
<linearGradient id="paint8_linear" x1="73.8228" y1="25.2461" x2="73.8228" y2="32.6193" gradientUnits="userSpaceOnUse">
<stop stop-color="#FFE5AC"/>
<stop offset="0.0001" stop-color="#FFE5AC"/>
<stop offset="1" stop-color="#B99C5D"/>
</linearGradient>
<linearGradient id="paint9_linear" x1="73.8228" y1="34.874" x2="73.8228" y2="42.2472" gradientUnits="userSpaceOnUse">
<stop stop-color="#FFE5AC"/>
<stop offset="0.0001" stop-color="#FFE5AC"/>
<stop offset="1" stop-color="#B99C5D"/>
</linearGradient>
<clipPath id="clip0">
<rect width="83" height="83" fill="white"/>
</clipPath>
</defs>
</svg>
