<svg width="83" height="83" viewBox="0 0 83 83" fill="none" xmlns="http://www.w3.org/2000/svg">
<g clip-path="url(#clip0)">
<path d="M64.4221 18.6936C63.9813 17.9302 63.16 17.4561 62.2785 17.4561H20.1349C19.2534 17.4561 18.4321 17.9302 17.9915 18.6936L14.9839 23.9027C14.6477 24.485 14.8472 25.2295 15.4295 25.5657C16.0117 25.902 16.7564 25.7024 17.0926 25.1201L19.4088 21.1084L28.199 36.3334H10.6186L14.3351 29.896C14.6713 29.3137 14.4718 28.569 13.8895 28.2329C13.3072 27.8964 12.5625 28.0963 12.2264 28.6786L7.72852 36.4692C7.30169 37.2083 7.39701 38.1326 7.96536 38.7694L39.7028 74.3156C40.0763 74.734 40.6122 74.9741 41.1733 74.9744H41.1743C41.7348 74.9744 42.2706 74.7348 42.6444 74.3171L74.4464 38.7704C75.0161 38.1336 75.1117 37.2088 74.6846 36.4687L64.4221 18.6936ZM43.7752 36.3335H32.4163L41.2065 21.1084L49.9968 36.3335H49.8912C49.2188 36.3335 48.6738 36.8787 48.6738 37.551C48.6738 38.2234 49.219 38.7684 49.8912 38.7684H50.4774L41.177 70.334L31.9329 38.7686H43.7752C44.4476 38.7686 44.9926 38.2234 44.9926 37.5511C44.9928 36.8787 44.4476 36.3335 43.7752 36.3335ZM52.1056 35.1161L43.3154 19.8909H60.8959L52.1056 35.1161ZM53.0162 38.7686H71.1807L44.0965 69.042L53.0162 38.7686ZM71.7948 36.3335H54.2144L63.0046 21.1085L71.7948 36.3335ZM21.5175 19.8909H39.098L30.3078 35.1159L21.5175 19.8909ZM29.3956 38.7686L38.2628 69.0467L11.2289 38.7686H29.3956Z" fill="url(#paint0_linear)"/>
<path d="M70.671 70.4361C70.6131 70.3975 70.552 70.364 70.4883 70.3358C69.7154 69.9939 69.0026 69.5901 68.3697 69.136C67.8236 68.744 67.0628 68.869 66.6706 69.4153C66.2786 69.9616 66.4036 70.7223 66.9499 71.1144C67.3212 71.3809 67.7136 71.6323 68.1246 71.8672C65.4952 73.3676 63.6716 75.517 62.7785 78.1744C61.8855 75.5174 60.0622 73.3682 57.4335 71.8679C60.0626 70.3676 61.8858 68.2182 62.7787 65.5609C62.791 65.5975 62.8037 65.634 62.8162 65.6704C63.0373 66.3054 63.7311 66.6408 64.3664 66.4199C65.0014 66.1988 65.3368 65.5048 65.1158 64.8696C65.0233 64.6043 64.9421 64.3285 64.8738 64.0503L64.3677 61.9828C64.1879 61.2486 63.5345 60.7358 62.7785 60.7358C62.0226 60.7358 61.3692 61.2486 61.1892 61.9829L60.6833 64.0503C59.8207 67.5741 57.1538 69.4134 55.0686 70.3359C55.0049 70.3642 54.9438 70.3977 54.8858 70.4365C54.4059 70.7563 54.1196 71.2914 54.1196 71.868C54.1196 72.4447 54.4061 72.9798 54.8858 73.2996C54.9436 73.3384 55.0047 73.3718 55.0686 73.4001C57.1538 74.3225 59.8205 76.162 60.6833 79.6858L61.1894 81.7533C61.3692 82.4875 62.0226 83.0003 62.7785 83.0003C63.5345 83.0003 64.1879 82.4875 64.3677 81.7531L64.8738 79.6858C65.7364 76.162 68.4033 74.3227 70.4885 73.4001C70.552 73.3719 70.6131 73.3384 70.6712 73.2998C71.151 72.9801 71.4375 72.4448 71.4375 71.868C71.4375 71.2913 71.1508 70.756 70.671 70.4361Z" fill="url(#paint1_linear)"/>
<path d="M76.4448 16.8037C76.3868 16.7649 76.3257 16.7314 76.2618 16.7032C74.9129 16.1064 74.0756 15.1777 73.7732 13.9428L73.5182 12.9004V12.9003C73.3612 12.2593 72.7905 11.8115 72.1308 11.8115C72.1308 11.8115 72.1306 11.8115 72.1304 11.8115C71.4705 11.8117 70.9 12.2596 70.7433 12.9004L70.4881 13.9428C70.1858 15.1777 69.3485 16.1064 67.9996 16.7032C67.9359 16.7314 67.8746 16.7649 67.8165 16.8037C67.4064 17.0772 67.1615 17.535 67.1616 18.0279C67.1616 18.5209 67.4067 18.9785 67.817 19.2519C67.8749 19.2904 67.9359 19.324 67.9996 19.3522C69.3486 19.9489 70.1858 20.8777 70.4881 22.1128L70.7433 23.1548C70.9002 23.7959 71.4706 24.2437 72.1306 24.2439H72.1309C72.7909 24.2439 73.3613 23.7963 73.5184 23.155L73.7736 22.1128C74.0759 20.8778 74.9132 19.9491 76.2621 19.3524C76.3257 19.3242 76.3868 19.2908 76.4446 19.252C76.8549 18.9787 77.0999 18.5211 77.1001 18.0281C77.0999 17.5348 76.8549 17.0772 76.4448 16.8037ZM72.1306 19.779C71.7243 19.1107 71.1889 18.5233 70.5337 18.0278C71.1891 17.5322 71.7245 16.9449 72.1308 16.2765C72.537 16.9449 73.0724 17.5322 73.7277 18.0278C73.0723 18.5233 72.5368 19.1105 72.1306 19.779Z" fill="url(#paint2_linear)"/>
<path d="M10.6497 14.1038L11.0153 15.5969C11.1822 16.2789 11.7893 16.7553 12.4914 16.7553C13.1937 16.7553 13.8008 16.2789 13.9676 15.5969L14.3332 14.1038C14.9236 11.6926 16.7598 10.429 18.1964 9.79335C18.2601 9.76514 18.3212 9.73159 18.3791 9.69284C18.8199 9.3991 19.083 8.90742 19.083 8.37781C19.083 7.84804 18.82 7.35636 18.3792 7.06246C18.3212 7.02371 18.2601 6.99016 18.1962 6.96195C16.7598 6.32648 14.9236 5.06284 14.3332 2.65162L13.9676 1.1586C13.8006 0.476439 13.1935 0 12.4913 0C11.7892 0 11.1821 0.476439 11.0151 1.15843L10.6495 2.65146C10.0595 5.06268 8.22309 6.32632 6.78664 6.96179C6.72293 6.98999 6.66165 7.02355 6.60378 7.06229C6.16284 7.35636 5.8999 7.84804 5.8999 8.37781C5.8999 8.90759 6.16317 9.39926 6.60394 9.69301C6.66182 9.73159 6.72293 9.76514 6.78648 9.79335C8.22309 10.4288 10.0595 11.6926 10.6497 14.1038ZM12.4913 4.74381C13.1622 6.21252 14.2459 7.44033 15.6993 8.37765C14.2461 9.31497 13.1622 10.5429 12.4913 12.0117C11.8203 10.5429 10.7364 9.31513 9.28329 8.37765C10.7364 7.44033 11.8203 6.21236 12.4913 4.74381Z" fill="url(#paint3_linear)"/>
</g>
<defs>
<linearGradient id="paint0_linear" x1="41.2066" y1="17.4561" x2="41.2066" y2="74.9744" gradientUnits="userSpaceOnUse">
<stop stop-color="#FFE5AC"/>
<stop offset="0.0001" stop-color="#FFE5AC"/>
<stop offset="1" stop-color="#B99C5D"/>
</linearGradient>
<linearGradient id="paint1_linear" x1="62.7785" y1="60.7358" x2="62.7785" y2="83.0003" gradientUnits="userSpaceOnUse">
<stop stop-color="#FFE5AC"/>
<stop offset="0.0001" stop-color="#FFE5AC"/>
<stop offset="1" stop-color="#B99C5D"/>
</linearGradient>
<linearGradient id="paint2_linear" x1="72.1308" y1="11.8115" x2="72.1308" y2="24.2439" gradientUnits="userSpaceOnUse">
<stop stop-color="#FFE5AC"/>
<stop offset="0.0001" stop-color="#FFE5AC"/>
<stop offset="1" stop-color="#B99C5D"/>
</linearGradient>
<linearGradient id="paint3_linear" x1="12.4914" y1="0" x2="12.4914" y2="16.7553" gradientUnits="userSpaceOnUse">
<stop stop-color="#FFE5AC"/>
<stop offset="0.0001" stop-color="#FFE5AC"/>
<stop offset="1" stop-color="#B99C5D"/>
</linearGradient>
<clipPath id="clip0">
<rect width="83" height="83" fill="white"/>
</clipPath>
</defs>
</svg>
