<svg width="65" height="65" viewBox="0 0 65 65" fill="none" xmlns="http://www.w3.org/2000/svg">
<g clip-path="url(#clip0)">
<path d="M48.6611 25.636C47.8074 14.5307 37.3586 5.95831 24.376 5.95831C10.9351 5.95831 0.000976562 15.4353 0.000976562 27.0833C0.0193139 30.9035 1.18976 34.6293 3.35931 37.7736L0.500393 46.3157C0.312241 46.8934 0.412301 47.5262 0.769489 48.0176C1.12668 48.509 1.69772 48.7994 2.30523 48.7987C2.43994 48.7986 2.57428 48.7845 2.70606 48.7565L14.0616 46.2312C17.3387 47.5536 20.8421 48.2252 24.376 48.2083C25.6923 48.2 27.0064 48.0987 28.3085 47.905C31.0796 54.3573 38.0791 58.6408 46.0426 58.6408C48.7904 58.6528 51.5139 58.1265 54.0593 57.0916L62.6306 59.0135C63.227 59.1389 63.845 58.9358 64.2507 58.4811C64.6564 58.0263 64.7881 57.3894 64.5958 56.8111L62.4584 50.3566C64.1091 47.9021 64.994 45.0129 65.001 42.055C65.001 33.6667 58.0362 26.7583 48.6611 25.636V25.636ZM14.509 44.07C14.2405 43.9571 13.9379 43.9571 13.6694 44.07C13.6277 44.0872 13.5872 44.1071 13.5481 44.1296L2.71473 46.54L5.50864 38.1799C5.72774 37.8092 5.70647 37.3439 5.45448 36.9947C3.34006 34.1207 2.18951 30.6512 2.16764 27.0833C2.16764 16.6302 12.1343 8.12498 24.376 8.12498C36.3403 8.12498 46.2994 16.4287 46.5767 26.6814C46.5854 26.8103 46.5843 26.9468 46.5843 27.0833C46.5843 36.075 39.1093 43.8858 28.8036 45.6571C27.3415 45.9126 25.8602 46.0412 24.376 46.0416C20.9873 46.0601 17.6303 45.3892 14.509 44.07V44.07ZM60.3827 49.5495C60.18 49.832 60.1252 50.1947 60.2354 50.5245L62.2851 56.7136L54.1991 54.9011C53.9764 54.8512 53.7436 54.8728 53.5339 54.9629C51.1666 55.9747 48.6171 56.4909 46.0426 56.4796C39.1364 56.4796 33.0578 52.9241 30.4946 47.5161C40.8719 45.1999 48.335 37.1659 48.7131 27.8286C56.7167 28.9315 62.8343 34.9916 62.8343 42.055C62.8237 44.7485 61.9661 47.3704 60.3827 49.5495Z" fill="url(#paint0_linear)"/>
<path d="M32.5008 18.8348C32.4036 14.157 28.6344 10.3882 23.9566 10.2916C21.6369 10.2589 19.4009 11.1575 17.749 12.7864C16.0971 14.4152 15.1672 16.6384 15.1675 18.9583C15.1675 19.5566 15.6525 20.0416 16.2508 20.0416C16.8491 20.0416 17.3341 19.5566 17.3341 18.9583C17.329 17.2177 18.0271 15.5488 19.2701 14.3303C20.5001 13.0947 22.1832 12.418 23.9262 12.4583C27.4172 12.5707 30.2211 15.3742 30.3341 18.8651C30.3669 21.2478 29.0948 23.4579 27.0181 24.6263C24.378 26.1225 22.7477 28.9238 22.7508 31.9583V33.0416C22.7508 33.6399 23.2358 34.125 23.8341 34.125C24.4325 34.125 24.9175 33.6399 24.9175 33.0416V31.9583C24.9134 29.7059 26.1226 27.6257 28.0819 26.5146C30.8498 24.9567 32.5449 22.0107 32.5008 18.8348V18.8348Z" fill="url(#paint1_linear)"/>
<path d="M23.8341 36.2916C22.5196 36.2916 21.3345 37.0835 20.8315 38.2979C20.3284 39.5123 20.6065 40.9102 21.536 41.8397C22.4655 42.7692 23.8634 43.0473 25.0778 42.5442C26.2922 42.0412 27.0841 40.8561 27.0841 39.5416C27.0841 37.7467 25.629 36.2916 23.8341 36.2916V36.2916ZM23.8341 40.625C23.2358 40.625 22.7507 40.1399 22.7507 39.5416C22.7507 38.9433 23.2358 38.4583 23.8341 38.4583C24.4324 38.4583 24.9174 38.9433 24.9174 39.5416C24.9174 40.1399 24.4324 40.625 23.8341 40.625Z" fill="url(#paint2_linear)"/>
</g>
<defs>
<linearGradient id="paint0_linear" x1="32.501" y1="5.95831" x2="32.501" y2="59.0499" gradientUnits="userSpaceOnUse">
<stop stop-color="#FFE5AC"/>
<stop offset="0.0001" stop-color="#FFE5AC"/>
<stop offset="1" stop-color="#B99C5D"/>
</linearGradient>
<linearGradient id="paint1_linear" x1="23.8346" y1="10.2908" x2="23.8346" y2="34.125" gradientUnits="userSpaceOnUse">
<stop stop-color="#FFE5AC"/>
<stop offset="0.0001" stop-color="#FFE5AC"/>
<stop offset="1" stop-color="#B99C5D"/>
</linearGradient>
<linearGradient id="paint2_linear" x1="23.834" y1="36.2916" x2="23.834" y2="42.7917" gradientUnits="userSpaceOnUse">
<stop stop-color="#FFE5AC"/>
<stop offset="0.0001" stop-color="#FFE5AC"/>
<stop offset="1" stop-color="#B99C5D"/>
</linearGradient>
<clipPath id="clip0">
<rect x="0.000976562" width="65" height="65" fill="white"/>
</clipPath>
</defs>
</svg>
