<svg width="100" height="100" viewBox="0 0 100 100" fill="none" xmlns="http://www.w3.org/2000/svg">
<g clip-path="url(#clip0)">
<path d="M74.8626 39.4403C73.5493 22.3553 57.4743 9.16699 37.501 9.16699C16.8226 9.16699 0.000976562 23.7469 0.000976562 41.6669C0.0291878 47.5441 1.82986 53.2761 5.16765 58.1136L0.76931 71.2553C0.479844 72.144 0.633784 73.1176 1.1833 73.8736C1.73282 74.6296 2.61135 75.0764 3.54598 75.0753C3.75323 75.0752 3.9599 75.0533 4.16265 75.0103L21.6326 71.1253C26.6745 73.1599 32.0642 74.1929 37.501 74.1669C39.5261 74.1543 41.5478 73.9983 43.551 73.7003C47.8143 83.6269 58.5826 90.2169 70.8343 90.2169C75.0615 90.2355 79.2515 89.4259 83.1677 87.8336L96.3543 90.7903C97.2718 90.9832 98.2225 90.6708 98.8467 89.9712C99.4709 89.2716 99.6734 88.2917 99.3777 87.402L96.0893 77.472C98.6289 73.696 99.9903 69.2509 100.001 64.7003C100.001 51.7953 89.2859 41.1669 74.8626 39.4403ZM22.321 67.8003C21.9079 67.6267 21.4423 67.6267 21.0293 67.8003C20.9651 67.8268 20.9029 67.8575 20.8426 67.892L4.17598 71.6003L8.47431 58.7387C8.81138 58.1684 8.77866 57.4525 8.39098 56.9153C5.13803 52.4937 3.36795 47.1561 3.33431 41.6669C3.33431 25.5853 18.6677 12.5003 37.501 12.5003C55.9077 12.5003 71.2293 25.2753 71.6559 41.0487C71.6693 41.2469 71.6677 41.4569 71.6677 41.6669C71.6677 55.5003 60.1677 67.5169 44.3126 70.242C42.0634 70.6351 39.7843 70.8331 37.501 70.8336C32.2877 70.862 27.123 69.83 22.321 67.8003ZM92.8959 76.2303C92.5841 76.6649 92.4998 77.2229 92.6693 77.7303L95.8226 87.252L83.3826 84.4636C83.0401 84.3868 82.6819 84.42 82.3593 84.5587C78.7173 86.1153 74.795 86.9093 70.8343 86.892C60.2093 86.892 50.8577 81.422 46.9143 73.102C62.8793 69.5387 74.361 57.1787 74.9426 42.8136C87.2559 44.5103 96.6677 53.8336 96.6677 64.7003C96.6514 68.8443 95.3318 72.878 92.8959 76.2303Z" fill="#191919"/>
<path d="M50.0013 28.9771C49.8519 21.7804 44.0529 15.9823 36.8563 15.8337C33.2876 15.7833 29.8476 17.1657 27.3063 19.6717C24.7648 22.1777 23.3343 25.5979 23.3347 29.1671C23.3347 30.0875 24.0808 30.8337 25.0013 30.8337C25.9217 30.8337 26.668 30.0875 26.668 29.1671C26.6601 26.4892 27.7341 23.9217 29.6463 22.0471C31.5387 20.1461 34.1281 19.1051 36.8096 19.1671C42.1803 19.34 46.4941 23.6531 46.668 29.0237C46.7184 32.6893 44.7613 36.0895 41.5663 37.8871C37.5047 40.1888 34.9964 44.4985 35.0013 49.1671V50.8337C35.0013 51.7541 35.7475 52.5004 36.668 52.5004C37.5884 52.5004 38.3347 51.7541 38.3347 50.8337V49.1671C38.3284 45.7017 40.1887 42.5016 43.2029 40.792C47.4613 38.3953 50.0692 33.8629 50.0013 28.9771Z" fill="#191919"/>
<path d="M36.6682 55.8336C34.6459 55.8336 32.8227 57.0519 32.0487 58.9203C31.2748 60.7887 31.7026 62.9392 33.1326 64.3692C34.5626 65.7992 36.7132 66.227 38.5815 65.4531C40.4499 64.6792 41.6682 62.856 41.6682 60.8336C41.6682 58.0723 39.4296 55.8336 36.6682 55.8336ZM36.6682 62.5003C35.7476 62.5003 35.0015 61.7542 35.0015 60.8336C35.0015 59.9132 35.7476 59.167 36.6682 59.167C37.5886 59.167 38.3348 59.9132 38.3348 60.8336C38.3348 61.7542 37.5886 62.5003 36.6682 62.5003Z" fill="#191919"/>
</g>
<defs>
<clipPath id="clip0">
<rect width="100" height="100" fill="white"/>
</clipPath>
</defs>
</svg>
