<svg width="84" height="83" viewBox="0 0 84 83" fill="none" xmlns="http://www.w3.org/2000/svg">
<path d="M42.9466 45.2979C42.7923 45.2647 42.634 45.2587 42.4777 45.282C40.9116 45.1005 39.7301 43.7816 39.7274 42.2128C39.7274 41.4609 39.115 40.8513 38.3596 40.8513C37.6043 40.8513 36.9918 41.4609 36.9918 42.2128C36.9958 44.8326 38.7564 47.1274 41.2943 47.8207V49.1822C41.2943 49.934 41.9067 50.5436 42.6621 50.5436C43.4174 50.5436 44.0299 49.934 44.0299 49.1822V47.9032C46.9592 47.2929 48.9501 44.5773 48.6422 41.6145C48.3336 38.6516 45.8258 36.4001 42.8331 36.3994C41.118 36.3994 39.7274 35.0153 39.7274 33.3082C39.7274 31.6011 41.118 30.2171 42.8331 30.2171C44.5481 30.2171 45.9387 31.6011 45.9387 33.3082C45.9387 34.0601 46.5511 34.6697 47.3065 34.6697C48.0618 34.6697 48.6743 34.0601 48.6743 33.3082C48.6703 30.5574 46.7341 28.1849 44.0299 27.6172V26.378C44.0299 25.6262 43.4174 25.0166 42.6621 25.0166C41.9067 25.0166 41.2943 25.6262 41.2943 26.378V27.7003C38.4718 28.4674 36.6552 31.1949 37.0439 34.0813C37.4326 36.9678 39.9071 39.1223 42.8331 39.1216C44.5254 39.1216 45.9059 40.4704 45.9367 42.1543C45.968 43.8381 44.6376 45.2368 42.9466 45.2979Z" fill="url(#paint0_linear)"/>
<path d="M22.9985 37.8648C22.9985 48.7683 31.8786 57.607 42.833 57.607C53.7874 57.607 62.6674 48.7683 62.6674 37.8648C62.6674 26.9613 53.7874 18.1226 42.833 18.1226C31.8839 18.1345 23.0112 26.9666 22.9985 37.8648ZM42.833 20.8454C52.2767 20.8454 59.9318 28.465 59.9318 37.8648C59.9318 47.2646 52.2767 54.8841 42.833 54.8841C33.3893 54.8841 25.7341 47.2646 25.7341 37.8648C25.7448 28.4696 33.394 20.8561 42.833 20.8454Z" fill="url(#paint1_linear)"/>
<path d="M69.4106 60.9634L58.6959 66.0023C57.2166 63.2635 54.3788 61.5205 51.2558 61.4327L41.3646 61.1622C39.7985 61.1176 38.2617 60.7228 36.8692 60.0068L35.8627 59.4876C30.7094 56.8139 24.567 56.8206 19.419 59.5049L19.4818 57.2354C19.5025 56.4836 18.9074 55.8573 18.1521 55.8367L7.30585 55.5396C6.55048 55.519 5.92202 56.1113 5.90131 56.8631L5.24613 80.554C5.22543 81.3059 5.8205 81.9321 6.57586 81.9527L17.4221 82.2499H17.4595C18.2008 82.2499 18.8073 81.6629 18.8273 80.9257L18.8587 79.7922L21.6764 78.2905C22.7824 77.6982 24.0754 77.5573 25.2836 77.8976L42.11 82.5982C42.1394 82.6068 42.1688 82.6135 42.1988 82.6201C43.415 82.8734 44.6546 83.0004 45.8968 82.9997C48.5282 83.001 51.1289 82.4367 53.5206 81.3438C53.5793 81.3172 53.6361 81.286 53.6902 81.2507L78.0869 65.5436C78.6947 65.1521 78.891 64.3577 78.535 63.7302C76.7238 60.5313 72.7065 59.3128 69.4106 60.9634ZM8.01847 79.2684L8.59818 58.299L16.7095 58.5211L16.1298 79.4911L8.01847 79.2684ZM52.2883 78.9121C49.317 80.2469 45.9983 80.6152 42.8046 79.9657L26.0236 75.2771C24.1349 74.746 22.1132 74.966 20.3854 75.8907L18.9455 76.6585L19.3309 62.7164C23.8938 59.6957 29.7457 59.3853 34.6051 61.9054L35.6116 62.4246C37.3708 63.3286 39.3109 63.8272 41.2898 63.8844L51.1817 64.1549C53.96 64.2347 56.3196 66.2038 56.8833 68.9133L42.1494 68.5085C41.394 68.4879 40.7656 69.0809 40.7442 69.832C40.7235 70.5839 41.3192 71.2101 42.0739 71.2307L58.3339 71.6761H58.372C59.1127 71.6754 59.7184 71.0885 59.7385 70.3519C59.7551 69.7602 59.7111 69.1679 59.6062 68.5856L70.596 63.4171C70.6067 63.4124 70.6174 63.4071 70.6281 63.4018C72.1869 62.6167 74.0716 62.8793 75.354 64.0605L52.2883 78.9121Z" fill="url(#paint2_linear)"/>
<path d="M44.2009 14.2951V1.36144C44.2009 0.60959 43.5885 0 42.8331 0C42.0778 0 41.4653 0.60959 41.4653 1.36144V14.2951C41.4653 15.047 42.0778 15.6566 42.8331 15.6566C43.5885 15.6566 44.2009 15.047 44.2009 14.2951Z" fill="url(#paint3_linear)"/>
<path d="M54.4592 14.295V8.16857C54.4592 7.41672 53.8468 6.80713 53.0914 6.80713C52.3361 6.80713 51.7236 7.41672 51.7236 8.16857V14.295C51.7236 15.0469 52.3361 15.6565 53.0914 15.6565C53.8468 15.6565 54.4592 15.0469 54.4592 14.295Z" fill="url(#paint4_linear)"/>
<path d="M33.9421 14.295V8.16857C33.9421 7.41672 33.3297 6.80713 32.5743 6.80713C31.819 6.80713 31.2065 7.41672 31.2065 8.16857V14.295C31.2065 15.0469 31.819 15.6565 32.5743 15.6565C33.3297 15.6565 33.9421 15.0469 33.9421 14.295Z" fill="url(#paint5_linear)"/>
<defs>
<linearGradient id="paint0_linear" x1="42.833" y1="25.0166" x2="42.833" y2="50.5436" gradientUnits="userSpaceOnUse">
<stop stop-color="#FFE5AC"/>
<stop offset="0.0001" stop-color="#FFE5AC"/>
<stop offset="1" stop-color="#B99C5D"/>
</linearGradient>
<linearGradient id="paint1_linear" x1="42.833" y1="18.1226" x2="42.833" y2="57.607" gradientUnits="userSpaceOnUse">
<stop stop-color="#FFE5AC"/>
<stop offset="0.0001" stop-color="#FFE5AC"/>
<stop offset="1" stop-color="#B99C5D"/>
</linearGradient>
<linearGradient id="paint2_linear" x1="41.9789" y1="55.5391" x2="41.9789" y2="82.9997" gradientUnits="userSpaceOnUse">
<stop stop-color="#FFE5AC"/>
<stop offset="0.0001" stop-color="#FFE5AC"/>
<stop offset="1" stop-color="#B99C5D"/>
</linearGradient>
<linearGradient id="paint3_linear" x1="42.8331" y1="0" x2="42.8331" y2="15.6566" gradientUnits="userSpaceOnUse">
<stop stop-color="#FFE5AC"/>
<stop offset="0.0001" stop-color="#FFE5AC"/>
<stop offset="1" stop-color="#B99C5D"/>
</linearGradient>
<linearGradient id="paint4_linear" x1="53.0914" y1="6.80713" x2="53.0914" y2="15.6565" gradientUnits="userSpaceOnUse">
<stop stop-color="#FFE5AC"/>
<stop offset="0.0001" stop-color="#FFE5AC"/>
<stop offset="1" stop-color="#B99C5D"/>
</linearGradient>
<linearGradient id="paint5_linear" x1="32.5743" y1="6.80713" x2="32.5743" y2="15.6565" gradientUnits="userSpaceOnUse">
<stop stop-color="#FFE5AC"/>
<stop offset="0.0001" stop-color="#FFE5AC"/>
<stop offset="1" stop-color="#B99C5D"/>
</linearGradient>
</defs>
</svg>
