<svg width="110" height="110" viewBox="0 0 110 110" fill="none" xmlns="http://www.w3.org/2000/svg">
<g clip-path="url(#clip0)">
<path d="M55 6.4165C24.673 6.4165 0 27.8005 0 54.0832C0 80.3658 24.673 101.75 55 101.75C63.136 101.785 71.1976 100.2 78.7142 97.0858L104.606 102.837C104.874 102.897 105.148 102.927 105.422 102.927C106.598 102.921 107.7 102.352 108.385 101.396C109.07 100.44 109.254 99.2132 108.882 98.0978L102.316 78.4133C107.289 71.2717 109.969 62.7853 110 54.0832C110 27.8005 85.327 6.4165 55 6.4165V6.4165ZM98.7947 77.0493C98.4515 77.5275 98.3588 78.1412 98.5453 78.6993L105.402 99.2602L78.9378 93.3788C78.8072 93.3497 78.6738 93.3349 78.54 93.3348C78.288 93.3344 78.0386 93.3849 77.8067 93.4833C70.597 96.5539 62.8362 98.1192 55 98.0832C26.6952 98.0832 3.66667 78.3455 3.66667 54.0832C3.66667 29.8208 26.6952 10.0832 55 10.0832C83.3048 10.0832 106.333 29.8227 106.333 54.0832C106.295 62.3404 103.657 70.3758 98.7947 77.0493Z" fill="url(#paint0_linear)"/>
<path d="M84.3332 32.0833H73.3332C72.3207 32.0833 71.4998 32.9041 71.4998 33.9167C71.4998 34.9292 72.3207 35.75 73.3332 35.75H79.9075L64.1665 51.491L56.296 43.6205C55.5801 42.9048 54.4196 42.9048 53.7037 43.6205L29.3332 67.991V26.5833C29.3332 25.5708 28.5124 24.75 27.4998 24.75C26.4873 24.75 25.6665 25.5708 25.6665 26.5833V81.5833C25.6665 82.5959 26.4873 83.4167 27.4998 83.4167H82.4998C83.5124 83.4167 84.3332 82.5959 84.3332 81.5833C84.3332 80.5708 83.5124 79.75 82.4998 79.75H75.1665V57.75C75.1665 56.7375 74.3457 55.9167 73.3332 55.9167C72.3207 55.9167 71.4998 56.7375 71.4998 57.75V79.75H65.9998V66.9167C65.9998 65.9041 65.179 65.0833 64.1665 65.0833C63.154 65.0833 62.3332 65.9041 62.3332 66.9167V79.75H56.8332V59.5833C56.8332 58.5708 56.0124 57.75 54.9998 57.75C53.9873 57.75 53.1665 58.5708 53.1665 59.5833V79.75H47.6665V66.9167C47.6665 65.9041 46.8457 65.0833 45.8332 65.0833C44.8207 65.0833 43.9998 65.9041 43.9998 66.9167V79.75H38.4998V74.25C38.4998 73.2375 37.679 72.4167 36.6665 72.4167C35.654 72.4167 34.8332 73.2375 34.8332 74.25V79.75H29.3332V73.1757L54.9998 47.509L62.8703 55.3795C63.5863 56.0952 64.7468 56.0952 65.4627 55.3795L82.4998 38.3423V44.9167C82.4998 45.9292 83.3207 46.75 84.3332 46.75C85.3457 46.75 86.1665 45.9292 86.1665 44.9167V33.9167C86.1665 32.9041 85.3457 32.0833 84.3332 32.0833Z" fill="url(#paint1_linear)"/>
</g>
<defs>
<linearGradient id="paint0_linear" x1="55" y1="6.4165" x2="55" y2="102.927" gradientUnits="userSpaceOnUse">
<stop stop-color="#FFE5AC"/>
<stop offset="0.0001" stop-color="#FFE5AC"/>
<stop offset="1" stop-color="#B99C5D"/>
</linearGradient>
<linearGradient id="paint1_linear" x1="55.9165" y1="24.75" x2="55.9165" y2="83.4167" gradientUnits="userSpaceOnUse">
<stop stop-color="#FFE5AC"/>
<stop offset="0.0001" stop-color="#FFE5AC"/>
<stop offset="1" stop-color="#B99C5D"/>
</linearGradient>
<clipPath id="clip0">
<rect width="110" height="110" fill="white"/>
</clipPath>
</defs>
</svg>
