<svg width="110" height="110" viewBox="0 0 110 110" fill="none" xmlns="http://www.w3.org/2000/svg">
<path d="M104.5 22H80.6667V14.6667C80.6604 9.6062 76.5605 5.50627 71.5 5.5H38.5C33.4395 5.50627 29.3396 9.6062 29.3333 14.6667V22H5.5C2.46265 22 0 24.4626 0 27.5V68.3096C0.0116374 70.6353 1.47705 72.704 3.66667 73.4855V99C3.66667 102.037 6.12931 104.5 9.16667 104.5H100.833C103.871 104.5 106.333 102.037 106.333 99V73.4873C108.523 72.7049 109.989 70.6353 110 68.3096V27.5C110 24.4626 107.537 22 104.5 22ZM33 14.6667C33 11.6293 35.4626 9.16667 38.5 9.16667H71.5C74.5374 9.16667 77 11.6293 77 14.6667V22H73.3333V14.6667C73.3333 13.6542 72.5125 12.8333 71.5 12.8333H38.5C37.4875 12.8333 36.6667 13.6542 36.6667 14.6667V22H33V14.6667ZM69.6667 22H40.3333V16.5H69.6667V22ZM102.667 99C102.667 100.012 101.846 100.833 100.833 100.833H9.16667C8.15422 100.833 7.33333 100.012 7.33333 99V74.1157L47.6667 79.6784V84.3333C47.6667 87.3707 50.1293 89.8333 53.1667 89.8333H56.8333C59.8707 89.8333 62.3333 87.3707 62.3333 84.3333V79.6784L102.667 74.1157V99ZM58.6667 84.3333C58.6667 85.3458 57.8458 86.1667 56.8333 86.1667H53.1667C52.1542 86.1667 51.3333 85.3458 51.3333 84.3333V73.3333C51.3333 72.3209 52.1542 71.5 53.1667 71.5H56.8333C57.8458 71.5 58.6667 72.3209 58.6667 73.3333V84.3333ZM106.333 68.3096C106.334 69.2236 105.662 69.9988 104.757 70.1268L104.248 70.1966L62.3333 75.9768V73.3333C62.3333 70.296 59.8707 67.8333 56.8333 67.8333H53.1667C50.1293 67.8333 47.6667 70.296 47.6667 73.3333V75.9768L5.24487 70.1268C4.33984 69.9997 3.66577 69.2244 3.66667 68.3096V27.5C3.66667 26.4875 4.48755 25.6667 5.5 25.6667H104.5C105.512 25.6667 106.333 26.4875 106.333 27.5V68.3096Z" fill="url(#paint0_linear)"/>
<defs>
<linearGradient id="paint0_linear" x1="55" y1="5.5" x2="55" y2="104.5" gradientUnits="userSpaceOnUse">
<stop stop-color="#FFE5AC"/>
<stop offset="0.0001" stop-color="#FFE5AC"/>
<stop offset="1" stop-color="#B99C5D"/>
</linearGradient>
</defs>
</svg>
