<svg width="110" height="110" viewBox="0 0 110 110" fill="none" xmlns="http://www.w3.org/2000/svg">
<g clip-path="url(#clip0)">
<path d="M67.2219 30.8052C67.6415 31.2248 68.1913 31.4344 68.7411 31.4344C69.2909 31.4344 69.8409 31.2248 70.2602 30.8052C71.0992 29.9662 71.0992 28.6058 70.2602 27.7666L70.2312 27.7376C69.3923 26.8987 68.0319 26.8987 67.1927 27.7376C66.3537 28.5766 66.3537 29.937 67.1927 30.7762L67.2219 30.8052Z" fill="url(#paint0_linear)"/>
<path d="M101.882 51.1328L109.371 43.6444C109.985 43.03 110.169 42.1057 109.836 41.3031C109.504 40.5002 108.72 39.9768 107.851 39.9768H92.3287C90.2997 31.671 86.0413 24.1027 79.9537 18.0149C71.1079 9.16867 59.3463 4.29688 46.8359 4.29688C34.3256 4.29688 22.564 9.16867 13.718 18.0149C4.8718 26.8611 0 38.6225 0 51.1328C0 63.6432 4.8718 75.4048 13.718 84.2508C16.3485 86.8813 19.2384 89.1574 22.3276 91.0613L15.855 102.496C15.4786 103.162 15.4838 103.977 15.8688 104.637C16.2536 105.297 16.9602 105.703 17.7246 105.703H28.7891C29.5631 105.703 30.2775 105.287 30.6588 104.613L35.2355 96.5274C38.9813 97.4776 42.8708 97.9688 46.8359 97.9688C50.8011 97.9688 54.6906 97.4776 58.4364 96.5274L63.013 104.613C63.3944 105.287 64.1087 105.703 64.8828 105.703H75.9473C76.7117 105.703 77.4183 105.297 77.8033 104.637C78.1883 103.977 78.1935 103.162 77.8171 102.497L71.3445 91.0615C74.4337 89.1574 77.3236 86.8815 79.9541 84.251C86.0393 78.1657 90.2999 70.5942 92.3287 62.289H107.852C108.72 62.289 109.504 61.7654 109.837 60.9628C110.169 60.1601 109.985 59.2359 109.371 58.6214L101.882 51.1328ZM97.9539 48.9844H82.9602L87.6709 44.2737H102.665L97.9539 48.9844ZM27.5363 101.406H21.4094L26.0857 93.1449C27.6906 93.9394 29.3382 94.6421 31.0239 95.245L27.5363 101.406ZM72.2625 101.406H66.1356L62.648 95.245C64.3337 94.6421 65.9813 93.9394 67.5862 93.1449L72.2625 101.406ZM76.9156 81.2124C74.0775 84.0505 70.9077 86.4357 67.4955 88.3371C67.4534 88.3575 67.4109 88.3768 67.3694 88.4003C67.3434 88.4151 67.3198 88.432 67.2947 88.4477C64.6772 89.8876 61.919 91.0437 59.0571 91.8975C58.9445 91.9198 58.8332 91.9529 58.7235 91.9942C54.9091 93.098 50.9169 93.6719 46.8359 93.6719C42.755 93.6719 38.7628 93.098 34.9484 91.9944C34.8384 91.9531 34.7271 91.92 34.6143 91.8977C31.7526 91.0439 28.9945 89.8878 26.3772 88.448C26.3521 88.4323 26.3285 88.4153 26.3025 88.4005C26.261 88.377 26.2187 88.3577 26.1766 88.3373C22.7644 86.4359 19.5946 84.0507 16.7565 81.2124C8.7218 73.1779 4.29688 62.4955 4.29688 51.1328C4.29688 39.7702 8.7218 29.0877 16.7563 21.0532C24.7908 13.0187 35.4733 8.59375 46.8359 8.59375C58.1986 8.59375 68.8811 13.0187 76.9156 21.0532C82.1949 26.3325 85.9603 32.8361 87.8937 39.9768H86.7812C86.2114 39.9768 85.6649 40.2033 85.262 40.6061L79.5599 46.3083C78.9845 42.4022 77.7217 38.6042 75.8147 35.1502C75.2413 34.1114 73.9342 33.7346 72.8954 34.3078C71.8566 34.8812 71.4796 36.1883 72.053 37.2271C74.0925 40.9211 75.2318 44.9374 75.5234 48.9846H66.0505C65.5722 44.6327 63.6492 40.6012 60.5086 37.4606C56.8565 33.8082 52.0008 31.7969 46.8359 31.7969C41.6711 31.7969 36.8154 33.8082 33.1635 37.4602C29.5114 41.1125 27.5 45.968 27.5 51.1328C27.5 56.2977 29.5114 61.1533 33.1633 64.8053C36.8154 68.4574 41.6711 70.4688 46.8359 70.4688C52.0008 70.4688 56.8565 68.4574 60.5084 64.8055C63.649 61.6649 65.572 57.6333 66.0503 53.2812H75.5139C75.0015 59.9973 72.1675 66.5148 67.1928 71.4897C61.7553 76.9274 54.5256 79.9219 46.8359 79.9219C39.1463 79.9219 31.9165 76.9274 26.4791 71.4897C21.0414 66.0522 18.0469 58.8227 18.0469 51.1328C18.0469 43.4429 21.0414 36.2134 26.4791 30.7759C35.4986 21.7564 49.5881 19.7579 60.7419 25.916C61.7805 26.4892 63.0876 26.1123 63.6612 25.0736C64.2346 24.0348 63.8576 22.7279 62.8188 22.1543C56.6646 18.7565 49.4181 17.4023 42.4149 18.3421C35.1779 19.3127 28.6165 22.5616 23.4407 27.7376C17.1916 33.9868 13.75 42.2952 13.75 51.1328C13.75 59.9704 17.1916 68.2791 23.4405 74.528C29.6897 80.7772 37.9983 84.2188 46.8359 84.2188C55.6735 84.2188 63.9822 80.7772 70.2311 74.5282C75.309 69.4506 78.5303 63.0395 79.5674 55.9653L85.2618 61.6597C85.6646 62.0626 86.2112 62.289 86.781 62.289H87.893C85.9596 69.4293 82.1928 75.9352 76.9156 81.2124ZM53.8527 47.0817C53.2596 46.0539 51.9456 45.702 50.918 46.2954L45.7617 49.2723C45.097 49.656 44.6875 50.3652 44.6875 51.1328C44.6875 51.9004 45.097 52.6096 45.7617 52.9934L50.918 55.9702C51.2563 56.1655 51.6257 56.2583 51.9903 56.2583C52.7328 56.2583 53.4548 55.8731 53.8527 55.1839C54.2014 54.5802 54.2214 53.8783 53.972 53.2812H61.7218C61.2666 56.4831 59.7977 59.4395 57.4701 61.7669C54.6296 64.6076 50.8531 66.1719 46.8359 66.1719C42.8188 66.1719 39.0423 64.6076 36.2016 61.7669C33.3612 58.9265 31.7969 55.15 31.7969 51.1328C31.7969 47.1157 33.3612 43.3391 36.2018 40.4985C39.0423 37.658 42.8188 36.0938 46.8359 36.0938C50.8531 36.0938 54.6296 37.658 57.4703 40.4987C59.7977 42.8261 61.2668 45.7826 61.722 48.9844H53.9722C54.2214 48.3871 54.2014 47.6854 53.8527 47.0817ZM87.6709 57.9919L82.9602 53.2812H97.9539L102.665 57.9919H87.6709Z" fill="url(#paint1_linear)"/>
</g>
<defs>
<linearGradient id="paint0_linear" x1="68.7265" y1="27.1084" x2="68.7265" y2="31.4344" gradientUnits="userSpaceOnUse">
<stop stop-color="#FFE5AC"/>
<stop offset="0.0001" stop-color="#FFE5AC"/>
<stop offset="1" stop-color="#B99C5D"/>
</linearGradient>
<linearGradient id="paint1_linear" x1="55.0001" y1="4.29687" x2="55.0001" y2="105.703" gradientUnits="userSpaceOnUse">
<stop stop-color="#FFE5AC"/>
<stop offset="0.0001" stop-color="#FFE5AC"/>
<stop offset="1" stop-color="#B99C5D"/>
</linearGradient>
<clipPath id="clip0">
<rect width="110" height="110" fill="white"/>
</clipPath>
</defs>
</svg>
