<svg width="110" height="110" viewBox="0 0 110 110" fill="none" xmlns="http://www.w3.org/2000/svg">
<g clip-path="url(#clip0)">
<path d="M19.3468 85.0672C17.8069 85.0672 16.3264 85.4516 15.013 86.1733C8.09441 77.3043 4.29688 66.2868 4.29688 55C4.29688 27.0418 27.0418 4.29688 55 4.29688C58.3989 4.29688 61.7961 4.63509 65.0977 5.30228C66.2592 5.53726 67.3938 4.78531 67.6288 3.62213C67.8638 2.45895 67.1118 1.32599 65.9486 1.09016C62.3676 0.366745 58.6842 0 55 0C40.3092 0 26.4971 5.72105 16.1091 16.1091C5.72105 26.4971 0 40.3092 0 55C0 67.3577 4.19617 79.4175 11.8357 89.0855C10.8521 90.555 10.3234 92.2821 10.3234 94.0907C10.3234 96.5009 11.2625 98.7669 12.967 100.471C14.6706 102.175 16.9366 103.114 19.3468 103.114C21.7571 103.114 24.0231 102.175 25.7275 100.471C27.432 98.7669 28.3703 96.5001 28.3703 94.0898C28.3703 91.6804 27.432 89.4136 25.7275 87.71C24.0231 86.0055 21.7571 85.0672 19.3468 85.0672ZM22.6887 97.4325C21.7966 98.3254 20.6091 98.8172 19.3468 98.8172C18.0846 98.8172 16.898 98.3254 16.005 97.4325C15.1121 96.5395 14.6203 95.3529 14.6203 94.0907C14.6203 92.8276 15.1121 91.6409 16.005 90.748C16.8971 89.855 18.0846 89.3641 19.3468 89.3641C20.6091 89.3641 21.7957 89.8559 22.6887 90.748C23.5816 91.6409 24.0734 92.8276 24.0734 94.0907C24.0734 95.3529 23.5816 96.5395 22.6887 97.4325Z" fill="url(#paint0_linear)"/>
<path d="M98.1626 20.9118C100.498 17.4081 100.123 12.6177 97.0339 9.52849C95.3294 7.82484 93.0635 6.88574 90.6532 6.88574C88.2429 6.88574 85.977 7.82484 84.2725 9.52849C82.568 11.233 81.6297 13.4989 81.6297 15.9092C81.6297 18.3195 82.568 20.5854 84.2725 22.2899C85.977 23.9944 88.2429 24.9326 90.6532 24.9326C92.1932 24.9326 93.6736 24.5482 94.987 23.8265C101.906 32.6964 105.703 43.713 105.703 54.9998C105.703 82.9581 82.9583 105.703 55 105.703C51.6347 105.703 48.2694 105.371 44.9989 104.717C43.8357 104.484 42.7036 105.239 42.4703 106.402C42.2378 107.566 42.9923 108.697 44.1555 108.931C47.7029 109.64 51.3519 110 55 110C69.6908 110 83.5029 104.279 93.8909 93.8907C104.279 83.5027 110 69.6906 110 54.9998C110 42.6413 105.803 30.5807 98.1626 20.9118ZM87.3114 19.2518C86.4184 18.3589 85.9266 17.1722 85.9266 15.9092C85.9266 14.647 86.4184 13.4603 87.3114 12.5674C88.2035 11.6744 89.391 11.1826 90.6532 11.1826C91.9154 11.1826 93.1029 11.6744 93.9958 12.5674C95.838 14.4103 95.838 17.4089 93.9958 19.2518C93.1029 20.144 91.9154 20.6357 90.6532 20.6357C89.3901 20.6357 88.2035 20.144 87.3114 19.2518Z" fill="url(#paint1_linear)"/>
<path d="M46.1343 91.9531C46.1343 93.1398 47.0969 94.1016 48.2827 94.1016H61.7163C62.903 94.1016 63.8648 93.1398 63.8648 91.9531V87.788C66.6896 87.0277 69.3903 85.9081 71.9281 84.4462L74.8688 87.3869C75.2716 87.7897 75.818 88.0163 76.3886 88.0163C76.9576 88.0163 77.5048 87.7897 77.9077 87.386L87.4027 77.8842C88.2411 77.045 88.2411 75.6846 87.4027 74.8462L84.4654 71.9089C85.9274 69.371 87.0469 66.6704 87.8073 63.8455H91.9564C93.1431 63.8455 94.1049 62.8838 94.1049 61.6971V48.2635C94.1049 47.0768 93.1431 46.115 91.9564 46.115H87.8064C87.0461 43.291 85.9274 40.5904 84.4654 38.0525L87.3868 35.1311C87.7896 34.7283 88.0162 34.1811 88.0162 33.6113C88.0154 33.0415 87.7888 32.4943 87.386 32.0914L77.8833 22.5964C77.0449 21.758 75.6845 21.758 74.8453 22.5972L71.9281 25.5152C69.3903 24.0533 66.6896 22.9337 63.8648 22.1734V18.0469C63.8648 16.8602 62.903 15.8984 61.7163 15.8984H48.2827C47.0969 15.8984 46.1343 16.8602 46.1343 18.0469V22.1742C43.3103 22.9337 40.6096 24.0533 38.0718 25.5152L35.1537 22.5972C34.3154 21.7588 32.955 21.758 32.1157 22.5964L22.6139 32.0923C22.2103 32.4951 21.9837 33.0415 21.9837 33.6113C21.9837 34.1811 22.2103 34.7283 22.6131 35.1311L25.5345 38.0525C24.0725 40.5904 22.953 43.2902 22.1926 46.115H18.051C16.8643 46.115 15.9026 47.0768 15.9026 48.2626L15.895 61.6962C15.8942 62.2661 16.1208 62.8133 16.5236 63.2161C16.9264 63.6189 17.4728 63.8455 18.0435 63.8455H22.1926C22.953 66.6704 24.0725 69.371 25.5345 71.9089L22.5971 74.8462C21.7587 75.6846 21.7579 77.045 22.5971 77.8842L32.0922 87.386C32.4951 87.7888 33.0414 88.0163 33.6112 88.0163H33.6121C34.1819 88.0163 34.7283 87.7897 35.1311 87.3869L38.0709 84.4462C40.6096 85.9081 43.3103 87.0277 46.1343 87.788V91.9531ZM38.9135 79.9277C38.0634 79.3781 36.9447 79.4972 36.228 80.2131L33.6121 82.829L27.1542 76.366L29.7675 73.7518C30.4834 73.036 30.6026 71.9173 30.0529 71.0671C28.105 68.0526 26.7354 64.7485 25.9834 61.2456C25.7703 60.2561 24.8958 59.5486 23.8828 59.5486H20.1927L20.1978 50.4119H23.8828C24.8958 50.4119 25.7703 49.7053 25.9834 48.715C26.7354 45.2129 28.105 41.9088 30.0529 38.8943C30.6026 38.0441 30.4834 36.9254 29.7675 36.2096L27.171 33.6121L33.6339 27.1542L36.228 29.7491C36.9447 30.465 38.0625 30.5833 38.9135 30.0345C41.9272 28.0866 45.2313 26.717 48.7342 25.965C49.7237 25.7519 50.4312 24.8766 50.4312 23.8644V20.1953H59.5679V23.8636C59.5679 24.8766 60.2745 25.7519 61.2648 25.9642C64.7669 26.717 68.0718 28.0858 71.0855 30.0336C71.9357 30.5833 73.0544 30.465 73.7702 29.7483L76.3651 27.1542L82.8281 33.6121L80.2315 36.2087C79.5148 36.9254 79.3965 38.0441 79.9462 38.8943C81.894 41.9088 83.2628 45.2129 84.0156 48.715C84.2279 49.7053 85.1032 50.4119 86.1162 50.4119H89.808V59.5486H86.1162C85.1032 59.5486 84.2288 60.2561 84.0156 61.2456C83.2636 64.7477 81.894 68.0526 79.9462 71.0663C79.3965 71.9173 79.5156 73.036 80.2315 73.7518L82.8449 76.3652L76.387 82.8281L73.7711 80.2131C73.0544 79.4964 71.9357 79.3781 71.0855 79.9277C68.071 81.8756 64.7669 83.2444 61.2648 83.9972C60.2745 84.2104 59.5679 85.0848 59.5679 86.0978V89.8047H50.4312V86.0978C50.4312 85.0857 49.7237 84.2104 48.7342 83.9972C45.2321 83.2452 41.928 81.8756 38.9135 79.9277Z" fill="url(#paint2_linear)"/>
<path d="M72.7522 55.0004C72.7522 45.2115 64.7887 37.248 54.9999 37.248C45.211 37.248 37.2476 45.2115 37.2476 55.0004C37.2476 64.7892 45.211 72.7527 54.9999 72.7527C64.7887 72.7527 72.7522 64.7892 72.7522 55.0004ZM41.5444 55.0004C41.5444 47.5807 47.5802 41.5449 54.9999 41.5449C62.4195 41.5449 68.4553 47.5815 68.4553 55.0004C68.4553 62.4192 62.4195 68.4558 54.9999 68.4558C47.5802 68.4558 41.5444 62.42 41.5444 55.0004Z" fill="url(#paint3_linear)"/>
<path d="M74.7822 8.12556C75.3479 8.12556 75.9018 7.89561 76.3012 7.49614C76.7007 7.09415 76.9307 6.54025 76.9307 5.97461C76.9307 5.41232 76.7016 4.85759 76.3012 4.4556C75.9018 4.05612 75.3479 3.82617 74.7822 3.82617C74.2149 3.82617 73.6635 4.05612 73.2641 4.4556C72.8637 4.85759 72.6338 5.40981 72.6338 5.97461C72.6338 6.54193 72.8637 7.09415 73.2641 7.49614C73.6635 7.89561 74.2149 8.12556 74.7822 8.12556Z" fill="url(#paint4_linear)"/>
<path d="M35.3115 101.913C34.7467 101.913 34.192 102.143 33.7925 102.543C33.393 102.942 33.1631 103.497 33.1631 104.062C33.1631 104.629 33.393 105.181 33.7925 105.581C34.192 105.98 34.7467 106.21 35.3115 106.21C35.8763 106.21 36.4311 105.98 36.8305 105.581C37.23 105.181 37.46 104.626 37.46 104.062C37.46 103.497 37.23 102.942 36.8305 102.543C36.4311 102.143 35.8763 101.913 35.3115 101.913Z" fill="url(#paint5_linear)"/>
</g>
<defs>
<linearGradient id="paint0_linear" x1="33.8359" y1="0" x2="33.8359" y2="103.114" gradientUnits="userSpaceOnUse">
<stop stop-color="#FFE5AC"/>
<stop offset="0.0001" stop-color="#FFE5AC"/>
<stop offset="1" stop-color="#B99C5D"/>
</linearGradient>
<linearGradient id="paint1_linear" x1="76.2141" y1="6.88574" x2="76.2141" y2="110" gradientUnits="userSpaceOnUse">
<stop stop-color="#FFE5AC"/>
<stop offset="0.0001" stop-color="#FFE5AC"/>
<stop offset="1" stop-color="#B99C5D"/>
</linearGradient>
<linearGradient id="paint2_linear" x1="54.9999" y1="15.8984" x2="54.9999" y2="94.1016" gradientUnits="userSpaceOnUse">
<stop stop-color="#FFE5AC"/>
<stop offset="0.0001" stop-color="#FFE5AC"/>
<stop offset="1" stop-color="#B99C5D"/>
</linearGradient>
<linearGradient id="paint3_linear" x1="54.9999" y1="37.248" x2="54.9999" y2="72.7527" gradientUnits="userSpaceOnUse">
<stop stop-color="#FFE5AC"/>
<stop offset="0.0001" stop-color="#FFE5AC"/>
<stop offset="1" stop-color="#B99C5D"/>
</linearGradient>
<linearGradient id="paint4_linear" x1="74.7822" y1="3.82617" x2="74.7822" y2="8.12556" gradientUnits="userSpaceOnUse">
<stop stop-color="#FFE5AC"/>
<stop offset="0.0001" stop-color="#FFE5AC"/>
<stop offset="1" stop-color="#B99C5D"/>
</linearGradient>
<linearGradient id="paint5_linear" x1="35.3115" y1="101.913" x2="35.3115" y2="106.21" gradientUnits="userSpaceOnUse">
<stop stop-color="#FFE5AC"/>
<stop offset="0.0001" stop-color="#FFE5AC"/>
<stop offset="1" stop-color="#B99C5D"/>
</linearGradient>
<clipPath id="clip0">
<rect width="110" height="110" fill="white"/>
</clipPath>
</defs>
</svg>
