<svg width="65" height="65" viewBox="0 0 65 65" fill="none" xmlns="http://www.w3.org/2000/svg">
<g clip-path="url(#clip0)">
<path d="M31.7902 57.0135C31.7902 53.5907 29.0156 50.8161 25.5934 50.8161C22.1706 50.8161 19.396 53.5907 19.396 57.0129C19.396 60.4357 22.1706 63.2103 25.5934 63.2103C29.0138 63.2066 31.7865 60.4345 31.7902 57.0135ZM21.5941 57.0135C21.5941 54.8044 23.3843 53.0142 25.5934 53.0142C27.8019 53.0142 29.5921 54.8044 29.5921 57.0129C29.5921 59.222 27.8019 61.0122 25.5934 61.0122C23.3855 61.0098 21.5965 59.2208 21.5941 57.0135Z" fill="url(#paint0_linear)"/>
<path d="M48.5405 63.2103C51.9634 63.2109 54.7379 60.4363 54.7379 57.0135C54.7385 53.5907 51.964 50.8161 48.5411 50.8161C45.1183 50.8161 42.3438 53.5907 42.3438 57.0135C42.348 60.4339 45.1195 63.206 48.5405 63.2103ZM48.5405 53.0142C50.749 53.0142 52.5399 54.8044 52.5399 57.0129C52.5405 59.2214 50.7496 61.0122 48.5411 61.0122C46.3327 61.0122 44.5418 59.222 44.5418 57.0135C44.5443 54.8062 46.3333 53.0172 48.5405 53.0142Z" fill="url(#paint1_linear)"/>
<path d="M1.09903 3.92528H7.80298C10.009 3.91669 11.89 5.52292 12.2261 7.7038L17.5329 41.226C18.034 44.4765 20.838 46.8714 24.1271 46.8585H56.9299C57.5364 46.8585 58.0289 46.366 58.0289 45.7595C58.0289 45.1523 57.5364 44.6605 56.9299 44.6605H24.1271C21.9211 44.669 20.0401 43.0622 19.704 40.8819L18.8018 35.1826H52.3976C55.2421 35.1813 57.7738 33.3795 58.706 30.6926L64.9389 12.7034C65.0561 12.3673 65.0027 11.9957 64.7966 11.7056C64.59 11.4161 64.2563 11.2438 63.9006 11.2438H15.0117L14.3971 7.35974C13.8961 4.10927 11.0921 1.71435 7.80298 1.72722H1.09903C0.491864 1.72722 0 2.2197 0 2.82625C0 3.43342 0.491864 3.92528 1.09903 3.92528ZM62.3563 13.4424L56.6294 29.9726C56.0038 31.7751 54.3056 32.9839 52.3976 32.9845H18.4535L15.3594 13.4418L62.3563 13.4424Z" fill="url(#paint2_linear)"/>
</g>
<defs>
<linearGradient id="paint0_linear" x1="25.5931" y1="50.8161" x2="25.5931" y2="63.2103" gradientUnits="userSpaceOnUse">
<stop stop-color="#FFE5AC"/>
<stop offset="0.0001" stop-color="#FFE5AC"/>
<stop offset="1" stop-color="#B99C5D"/>
</linearGradient>
<linearGradient id="paint1_linear" x1="48.5408" y1="50.8161" x2="48.5408" y2="63.2103" gradientUnits="userSpaceOnUse">
<stop stop-color="#FFE5AC"/>
<stop offset="0.0001" stop-color="#FFE5AC"/>
<stop offset="1" stop-color="#B99C5D"/>
</linearGradient>
<linearGradient id="paint2_linear" x1="32.5" y1="1.72717" x2="32.5" y2="46.8586" gradientUnits="userSpaceOnUse">
<stop stop-color="#FFE5AC"/>
<stop offset="0.0001" stop-color="#FFE5AC"/>
<stop offset="1" stop-color="#B99C5D"/>
</linearGradient>
<clipPath id="clip0">
<rect width="65" height="65" fill="white"/>
</clipPath>
</defs>
</svg>
