<svg width="83" height="83" viewBox="0 0 83 83" fill="none" xmlns="http://www.w3.org/2000/svg">
<path d="M77.4653 1.3833H5.53474C2.48303 1.3833 0 3.86649 0 6.91804V52.5666C0 53.3301 0.619744 53.9499 1.38328 53.9499H81.6166C82.3801 53.9499 82.9998 53.3301 82.9998 52.5666V6.91804C83 3.86649 80.517 1.3833 77.4653 1.3833ZM80.2333 51.1833H2.76672V6.91804C2.76672 5.39081 4.00896 4.15002 5.53474 4.15002H77.4653C78.991 4.15002 80.2333 5.39081 80.2333 6.91804V51.1833Z" fill="url(#paint0_linear)"/>
<path d="M81.6167 51.1836H1.38328C0.619744 51.1836 0 51.8033 0 52.5669V59.4821C0 62.5338 2.48303 65.0169 5.53474 65.0169H77.4653C80.517 65.0169 83 62.5338 83 59.4821V52.5669C83 51.8033 82.3803 51.1836 81.6167 51.1836ZM80.2333 59.4823C80.2333 61.0095 78.991 62.2503 77.4653 62.2503H5.53474C4.00896 62.2503 2.76672 61.0095 2.76672 59.4823V53.9503H80.2334V59.4823H80.2333Z" fill="url(#paint1_linear)"/>
<path d="M45.6501 56.7163H37.3501C36.5865 56.7163 35.9668 57.3361 35.9668 58.0996C35.9668 58.8631 36.5865 59.4829 37.3501 59.4829H45.6501C46.4136 59.4829 47.0334 58.8631 47.0334 58.0996C47.0334 57.3361 46.4136 56.7163 45.6501 56.7163Z" fill="url(#paint2_linear)"/>
<path d="M76.083 6.9165H6.91648C6.15295 6.9165 5.5332 7.53625 5.5332 8.29978V52.5665C5.5332 53.33 6.15295 53.9498 6.91648 53.9498H76.0832C76.8467 53.9498 77.4665 53.33 77.4665 52.5665V8.29978C77.4665 7.53625 76.8467 6.9165 76.083 6.9165ZM74.6998 51.1831H8.29976V9.68306H74.6998V51.1831Z" fill="url(#paint3_linear)"/>
<path d="M59.4833 73.3164H23.5167C21.2287 73.3164 19.3667 75.1784 19.3667 77.4664C19.3667 79.7544 21.2287 81.6164 23.5167 81.6164H59.4834C61.7714 81.6164 63.6334 79.7544 63.6334 77.4664C63.6334 75.1784 61.7713 73.3164 59.4833 73.3164ZM59.4833 78.8497H23.5167C22.7532 78.8497 22.1334 78.2286 22.1334 77.4664C22.1334 76.7042 22.7532 76.0831 23.5167 76.0831H59.4834C60.247 76.0831 60.8667 76.7042 60.8667 77.4664C60.8667 78.2286 60.247 78.8497 59.4833 78.8497Z" fill="url(#paint4_linear)"/>
<path d="M56.7169 73.3166C52.127 73.3166 49.8002 70.0588 49.8002 63.6333C49.8002 62.8697 49.1805 62.25 48.4169 62.25H34.5837C33.8201 62.25 33.2004 62.8697 33.2004 63.6333C33.2004 70.0588 30.8736 73.3166 26.2837 73.3166C25.5201 73.3166 24.9004 73.9363 24.9004 74.6998C24.9004 75.4634 25.5201 76.0831 26.2837 76.0831H56.7169C57.4805 76.0831 58.1002 75.4634 58.1002 74.6998C58.1002 73.9363 57.4805 73.3166 56.7169 73.3166ZM33.0217 73.3166C34.7247 71.4298 35.7275 68.6201 35.9295 65.0166H47.0722C47.2728 68.6201 48.2757 71.4298 49.98 73.3166H33.0217Z" fill="url(#paint5_linear)"/>
<path d="M66.1011 42.1414L62.7618 38.8021L64.6196 36.9444C64.9641 36.5999 65.1024 36.0991 64.9834 35.6274C64.8644 35.1556 64.5061 34.7821 64.0399 34.6411L50.2067 30.4911C49.7184 30.3444 49.1914 30.4786 48.8316 30.8383C48.4706 31.1981 48.3379 31.7264 48.4844 32.2134L52.6344 46.0466C52.7741 46.5142 53.1489 46.8724 53.6207 46.9914C54.091 47.1076 54.5932 46.972 54.9376 46.6276L56.8937 44.6702L60.2329 48.0109C60.4917 48.2709 60.8444 48.4162 61.211 48.4162C61.5775 48.4162 61.9302 48.2709 62.189 48.0109L66.101 44.0974C66.6419 43.5566 66.6419 42.6824 66.1011 42.1414ZM61.211 45.0769L58.1704 42.0349C57.8177 41.6822 57.3557 41.5064 56.8937 41.5064C56.4302 41.5064 55.9682 41.6835 55.6169 42.0335L54.6181 43.0322L51.8722 33.8787L61.0257 36.6247L59.9549 37.6954C59.6602 37.9914 59.4984 38.3844 59.4984 38.8021C59.4984 39.2213 59.6617 39.6169 59.9577 39.9101L63.167 43.1194L61.211 45.0769Z" fill="url(#paint6_linear)"/>
<path d="M58.1 12.4502H19.3667C18.6031 12.4502 17.9834 13.0699 17.9834 13.8335V20.7502C17.9834 21.5137 18.6031 22.1335 19.3667 22.1335H58.1C58.8635 22.1335 59.4832 21.5137 59.4832 20.7502V13.8335C59.4832 13.0699 58.8635 12.4502 58.1 12.4502ZM56.7167 19.3669H20.75V15.2169H56.7167V19.3669Z" fill="url(#paint7_linear)"/>
<path d="M35.9666 27.6665H24.8999C24.1363 27.6665 23.5166 28.2862 23.5166 29.0498V34.5831C23.5166 35.3466 24.1363 35.9663 24.8999 35.9663H35.9666C36.7301 35.9663 37.3499 35.3466 37.3499 34.5831V29.0498C37.3499 28.2862 36.7301 27.6665 35.9666 27.6665ZM34.5832 33.1998H26.2832V30.4331H34.5832V33.1998Z" fill="url(#paint8_linear)"/>
<path d="M58.1 12.4502H19.3667C18.6031 12.4502 17.9834 13.0699 17.9834 13.8335V40.1168C17.9834 40.8803 18.6031 41.5 19.3667 41.5H52.2984C52.7369 41.5 53.1477 41.294 53.4079 40.9425C53.6693 40.5912 53.7496 40.1375 53.6236 39.7183L51.8724 33.8793L57.7031 35.6292C58.1223 35.7552 58.5761 35.675 58.9259 35.4135C59.2772 35.1535 59.4834 34.7412 59.4834 34.304V13.8335C59.4832 13.0699 58.8635 12.4502 58.1 12.4502ZM56.7167 32.4449L50.2052 30.4917C49.717 30.345 49.1899 30.4792 48.8302 30.8389C48.4692 31.1999 48.3364 31.7269 48.483 32.2154L50.439 38.7336H20.75V15.2169H56.7167V32.4449Z" fill="url(#paint9_linear)"/>
<defs>
<linearGradient id="paint0_linear" x1="41.4999" y1="1.3833" x2="41.4999" y2="53.9499" gradientUnits="userSpaceOnUse">
<stop stop-color="#FFE5AC"/>
<stop offset="0.0001" stop-color="#FFE5AC"/>
<stop offset="1" stop-color="#B99C5D"/>
</linearGradient>
<linearGradient id="paint1_linear" x1="41.5" y1="51.1836" x2="41.5" y2="65.0169" gradientUnits="userSpaceOnUse">
<stop stop-color="#FFE5AC"/>
<stop offset="0.0001" stop-color="#FFE5AC"/>
<stop offset="1" stop-color="#B99C5D"/>
</linearGradient>
<linearGradient id="paint2_linear" x1="41.5001" y1="56.7163" x2="41.5001" y2="59.4829" gradientUnits="userSpaceOnUse">
<stop stop-color="#FFE5AC"/>
<stop offset="0.0001" stop-color="#FFE5AC"/>
<stop offset="1" stop-color="#B99C5D"/>
</linearGradient>
<linearGradient id="paint3_linear" x1="41.4998" y1="6.9165" x2="41.4998" y2="53.9498" gradientUnits="userSpaceOnUse">
<stop stop-color="#FFE5AC"/>
<stop offset="0.0001" stop-color="#FFE5AC"/>
<stop offset="1" stop-color="#B99C5D"/>
</linearGradient>
<linearGradient id="paint4_linear" x1="41.5001" y1="73.3164" x2="41.5001" y2="81.6164" gradientUnits="userSpaceOnUse">
<stop stop-color="#FFE5AC"/>
<stop offset="0.0001" stop-color="#FFE5AC"/>
<stop offset="1" stop-color="#B99C5D"/>
</linearGradient>
<linearGradient id="paint5_linear" x1="41.5003" y1="62.25" x2="41.5003" y2="76.0831" gradientUnits="userSpaceOnUse">
<stop stop-color="#FFE5AC"/>
<stop offset="0.0001" stop-color="#FFE5AC"/>
<stop offset="1" stop-color="#B99C5D"/>
</linearGradient>
<linearGradient id="paint6_linear" x1="57.4662" y1="30.4326" x2="57.4662" y2="48.4162" gradientUnits="userSpaceOnUse">
<stop stop-color="#FFE5AC"/>
<stop offset="0.0001" stop-color="#FFE5AC"/>
<stop offset="1" stop-color="#B99C5D"/>
</linearGradient>
<linearGradient id="paint7_linear" x1="38.7333" y1="12.4502" x2="38.7333" y2="22.1335" gradientUnits="userSpaceOnUse">
<stop stop-color="#FFE5AC"/>
<stop offset="0.0001" stop-color="#FFE5AC"/>
<stop offset="1" stop-color="#B99C5D"/>
</linearGradient>
<linearGradient id="paint8_linear" x1="30.4332" y1="27.6665" x2="30.4332" y2="35.9663" gradientUnits="userSpaceOnUse">
<stop stop-color="#FFE5AC"/>
<stop offset="0.0001" stop-color="#FFE5AC"/>
<stop offset="1" stop-color="#B99C5D"/>
</linearGradient>
<linearGradient id="paint9_linear" x1="38.7334" y1="12.4502" x2="38.7334" y2="41.5" gradientUnits="userSpaceOnUse">
<stop stop-color="#FFE5AC"/>
<stop offset="0.0001" stop-color="#FFE5AC"/>
<stop offset="1" stop-color="#B99C5D"/>
</linearGradient>
</defs>
</svg>
