<svg width="110" height="110" viewBox="0 0 110 110" fill="none" xmlns="http://www.w3.org/2000/svg">
<g clip-path="url(#clip0)">
<path d="M8.18929 101.953V93.8157L14.1297 76.5771H11.6083L6.96893 90.3457L2.94478 78.9615H0.191406L5.6578 93.7244V101.953H8.18929Z" fill="url(#paint0_linear)"/>
<path d="M19.1223 98.7786C18.6685 99.4787 17.8112 100.057 16.9438 100.057C15.663 100.057 15.0578 98.8395 15.0578 96.9726C15.0578 94.8824 15.7336 93.5025 18.8299 93.5025H19.1223V98.7786ZM21.5832 98.2916V90.6717C21.5832 86.7451 20.0099 85.5275 17.1657 85.5275C15.5419 85.5275 14.0694 86.1972 13.3332 86.806L13.8072 89.028C14.6443 88.2873 15.7336 87.6177 17.0044 87.6177C18.4163 87.6177 19.1223 88.5106 19.1223 90.6413V91.6052H18.7693C14.2611 91.6052 12.4961 93.7866 12.4961 97.2668C12.4961 100.453 14.0694 102.188 16.369 102.188C17.7809 102.188 18.6685 101.569 19.3745 100.676H19.5358C19.5661 101.092 19.667 101.609 19.7577 101.954H21.8656C21.7446 101.183 21.5832 99.8338 21.5832 98.2916ZM27.1807 89.3831C27.7556 88.5816 28.6431 87.78 29.7021 87.78C30.6603 87.78 31.2049 88.196 31.2049 89.4136V101.954H33.7263V89.1904C33.7263 86.7147 32.6068 85.5275 30.4989 85.5275C28.9961 85.5275 27.7859 86.5219 27.332 87.1307H27.1807V85.7203H24.6795V101.954H27.1807V89.3831ZM41.0787 102.188C42.3898 102.188 43.2874 101.569 43.9934 100.676H44.1548L44.3464 101.954H46.2022V78.9629H43.701V86.1363C43.2269 85.7812 42.4302 85.5275 41.6637 85.5275C38.4262 85.5275 36.1872 88.4497 36.1872 94.4664C36.1872 99.4787 37.9219 102.188 41.0787 102.188ZM43.701 98.809C43.2874 99.4483 42.6218 100.057 41.3712 100.057C39.5457 100.057 38.8498 97.7437 38.8498 93.949C38.8498 90.6413 39.8079 87.5872 41.8149 87.5872C42.652 87.5872 43.1967 87.8409 43.701 88.3584V98.809ZM57.9317 100.869L57.3569 98.9409C56.7215 99.3874 55.6927 100.027 54.2908 100.027C52.304 100.027 51.2853 98.0988 51.2853 94.436H57.9922V93.0459C57.9922 87.5467 56.2374 85.5275 53.5546 85.5275C50.1356 85.5275 48.6933 89.3223 48.6933 94.5273C48.6933 99.5193 50.7407 102.188 54.0589 102.188C55.6625 102.188 56.9131 101.67 57.9317 100.869ZM53.5546 87.5872C54.9867 87.5872 55.4406 89.6063 55.4406 92.3763H51.3156C51.477 89.4846 52.0216 87.5872 53.5546 87.5872ZM66.4036 85.7508L64.1949 91.6356L62.1173 85.7508H59.5353L62.5711 93.5634L59.2126 101.954H61.6735L64.1041 95.268L66.5953 101.954H69.1873L65.8288 93.3402L68.8343 85.7508H66.4036Z" fill="url(#paint1_linear)"/>
</g>
<g clip-path="url(#clip1)">
<path d="M61.0187 5.61621C44.7877 5.61621 31.6299 18.774 31.6299 35.0051C31.6299 51.2361 44.7877 64.3939 61.0187 64.3939C77.2498 64.3939 90.4076 51.2361 90.4076 35.0051C90.3899 18.7814 77.2424 5.63388 61.0187 5.61621ZM61.0187 8.41515C69.6633 8.42197 77.7639 12.6351 82.7329 19.7089L79.2342 23.2075C78.3828 22.6924 77.4081 22.4167 76.4129 22.4098C73.3213 22.4098 70.815 24.9161 70.815 28.0077C70.8199 29.004 71.094 29.9803 71.6085 30.8333L62.4448 39.997C60.7096 38.939 58.5289 38.939 56.7937 39.997L50.429 33.6322C50.9434 32.7792 51.2176 31.8029 51.2225 30.8067C51.2263 27.7212 48.7282 25.2168 45.6428 25.213C43.091 25.2098 40.8615 26.9359 40.2254 29.4072H35.0334C37.6831 17.1711 48.4991 8.43352 61.0187 8.41515ZM79.2118 28.0077C79.2118 29.5536 77.9588 30.8067 76.4129 30.8067C74.867 30.8067 73.614 29.5536 73.614 28.0077C73.614 26.4618 74.867 25.2088 76.4129 25.2088C77.9588 25.2088 79.2118 26.4618 79.2118 28.0077ZM62.4182 44.8014C62.4182 46.3472 61.1652 47.6003 59.6193 47.6003C58.0734 47.6003 56.8203 46.3472 56.8203 44.8014C56.8203 43.2555 58.0734 42.0024 59.6193 42.0024C61.1652 42.0024 62.4182 43.2555 62.4182 44.8014ZM48.4235 30.8067C48.4235 32.3526 47.1705 33.6056 45.6246 33.6056C44.0787 33.6056 42.8256 32.3526 42.8256 30.8067C42.8256 29.2608 44.0787 28.0077 45.6246 28.0077C47.1705 28.0077 48.4235 29.2608 48.4235 30.8067ZM73.9383 58.2548C69.9862 60.4492 65.5394 61.5988 61.0187 61.5948C46.3436 61.6048 34.4388 49.7165 34.4288 35.0413C34.4281 34.0942 34.4782 33.1476 34.5786 32.206H40.2254C40.8617 34.6699 43.0798 36.3947 45.6246 36.4044C46.6208 36.3995 47.5971 36.1253 48.4501 35.6109L54.8149 41.9757C54.3004 42.8286 54.0263 43.8049 54.0214 44.8012C54.0214 47.8928 56.5277 50.3991 59.6193 50.3991C62.7109 50.3991 65.2171 47.8928 65.2171 44.8012C65.2122 43.8049 64.9381 42.8286 64.4236 41.9757L73.5874 32.8119C74.4403 33.3264 75.4166 33.6005 76.4129 33.6054C79.5045 33.6054 82.0108 31.0991 82.0108 28.0075C82.0059 27.0113 81.7318 26.035 81.2173 25.182L84.2681 22.1326C91.3905 34.9601 86.7656 51.1326 73.9383 58.2548Z" fill="url(#paint2_linear)"/>
<path d="M96.0053 14.0138C98.55 14.0042 100.768 12.2795 101.404 9.81543H110V7.01649H101.404C100.768 4.55237 98.55 2.8277 96.0053 2.81808C92.9137 2.81808 90.4074 5.32436 90.4074 8.41596C90.4123 9.41221 90.6864 10.3885 91.2009 11.2415L88.742 13.7004C76.9768 -1.62751 55.0136 -4.51566 39.6857 7.2495C24.3578 19.0147 21.4697 40.9781 33.2349 56.306C44.3403 70.7742 64.6976 74.2839 80.0065 64.3696L84.2301 68.5931L86.209 70.572L97.4747 81.8377C100.34 84.703 104.985 84.703 107.85 81.8377C110.716 78.9725 110.716 74.3273 107.85 71.4621L96.5846 60.1963L94.6058 58.2175L90.3822 53.9939C97.8797 42.4455 97.8797 27.5665 90.3822 16.0179L93.1811 13.2189C94.0336 13.7336 95.0095 14.0082 96.0053 14.0138ZM96.0053 5.61702C97.5511 5.61702 98.8042 6.87007 98.8042 8.41596C98.8042 9.96185 97.5511 11.2149 96.0053 11.2149C94.4594 11.2149 93.2063 9.96185 93.2063 8.41596C93.2063 6.87007 94.4595 5.61702 96.0053 5.61702ZM105.872 73.4409C107.664 75.193 107.697 78.0665 105.944 79.8589C104.192 81.6513 101.319 81.684 99.5265 79.9318C99.5018 79.9079 99.4777 79.8835 99.4535 79.8589L88.1878 68.5931L94.6058 62.1752L105.872 73.4409ZM92.6269 60.1963L86.209 66.6143L82.3352 62.7406C82.5326 62.5894 82.7173 62.4229 82.9118 62.2676C83.1063 62.1122 83.3317 61.9261 83.5402 61.7511C83.8467 61.4936 84.1489 61.2333 84.4456 60.966C84.5982 60.8261 84.7437 60.6861 84.8935 60.5462C85.4672 60.0088 86.0228 59.4532 86.5602 58.8794C86.7002 58.7297 86.8401 58.5841 86.9801 58.4316C87.2474 58.1349 87.5077 57.8326 87.7652 57.5261C87.9406 57.319 88.1128 57.1096 88.2816 56.8978C88.4355 56.7047 88.6021 56.5199 88.7532 56.3226L92.6269 60.1963ZM87.1998 53.6958C86.759 54.3116 86.3041 54.9147 85.8241 55.4955C85.6842 55.6649 85.5344 55.8286 85.3903 55.9951C84.962 56.4933 84.5198 56.9767 84.0636 57.445C83.8649 57.6502 83.6628 57.8522 83.4576 58.0509C82.9911 58.5072 82.5079 58.9494 82.0078 59.3776C81.8412 59.5176 81.6775 59.6701 81.5081 59.8115C80.9274 60.2915 80.3242 60.7463 79.7084 61.1872C65.2211 71.5371 45.0864 68.1831 34.7365 53.6958C24.3865 39.2085 27.7405 19.0738 42.2278 8.72384C56.7152 -1.62611 76.8498 1.72772 87.1998 16.2152C95.2084 27.4253 95.2084 42.4857 87.1998 53.6958Z" fill="url(#paint3_linear)"/>
</g>
<defs>
<linearGradient id="paint0_linear" x1="7.16056" y1="76.5771" x2="7.16056" y2="101.953" gradientUnits="userSpaceOnUse">
<stop stop-color="#FFE5AC"/>
<stop offset="0.0001" stop-color="#FFE5AC"/>
<stop offset="1" stop-color="#B99C5D"/>
</linearGradient>
<linearGradient id="paint1_linear" x1="40.8417" y1="78.9629" x2="40.8417" y2="102.188" gradientUnits="userSpaceOnUse">
<stop stop-color="#FFE5AC"/>
<stop offset="0.0001" stop-color="#FFE5AC"/>
<stop offset="1" stop-color="#B99C5D"/>
</linearGradient>
<linearGradient id="paint2_linear" x1="61.0187" y1="5.61621" x2="61.0187" y2="64.3939" gradientUnits="userSpaceOnUse">
<stop stop-color="#FFE5AC"/>
<stop offset="0.0001" stop-color="#FFE5AC"/>
<stop offset="1" stop-color="#B99C5D"/>
</linearGradient>
<linearGradient id="paint3_linear" x1="68" y1="0.0146484" x2="68" y2="83.9867" gradientUnits="userSpaceOnUse">
<stop stop-color="#FFE5AC"/>
<stop offset="0.0001" stop-color="#FFE5AC"/>
<stop offset="1" stop-color="#B99C5D"/>
</linearGradient>
<clipPath id="clip0">
<rect y="71.4033" width="69.4737" height="38.5965" fill="white"/>
</clipPath>
<clipPath id="clip1">
<rect x="26" width="84" height="84" fill="white"/>
</clipPath>
</defs>
</svg>
