<svg width="89" height="89" viewBox="0 0 89 89" fill="none" xmlns="http://www.w3.org/2000/svg">
<path d="M88.0062 28.0238L45.3605 5.77383C44.8228 5.49206 44.1812 5.49206 43.6435 5.77383L0.997773 28.0238C0.385725 28.3428 0 28.9731 0 29.6667C0 30.3601 0.385725 30.9906 0.9976 31.3095L43.6434 53.5595C43.9104 53.7005 44.2071 53.7709 44.5 53.7709C44.7929 53.7709 45.0896 53.7005 45.3566 53.5595L88.0024 31.3095C88.6143 30.9906 89 30.3603 89 29.6667C89 28.9731 88.6143 28.3428 88.0062 28.0238ZM44.5 49.8288L5.86288 29.6667L44.5 9.50436L83.1371 29.6665L44.5 49.8288Z" fill="url(#paint0_linear)"/>
<path d="M88.0062 42.8537L81.806 39.6199C80.9012 39.1563 79.7775 39.4976 79.3028 40.4062C78.8281 41.3148 79.1804 42.4346 80.089 42.9093L83.1371 44.5002L44.5 64.6623L5.86288 44.5002L8.91478 42.9129C9.82338 42.4382 10.1756 41.3184 9.701 40.4098C9.22628 39.4976 8.10265 39.1602 7.19788 39.6236L0.9976 42.8573C0.385725 43.1763 0 43.8068 0 44.5002C0 45.1936 0.385725 45.824 0.9976 46.143L43.6434 68.393C43.9104 68.534 44.2071 68.6044 44.5 68.6044C44.7929 68.6044 45.0896 68.534 45.3566 68.393L88.0024 46.143C88.6143 45.824 89 45.1937 89 44.5002C89 43.8066 88.6143 43.1763 88.0062 42.8537Z" fill="url(#paint1_linear)"/>
<path d="M88.0062 57.6867L81.806 54.4529C80.9012 53.9893 79.7775 54.3306 79.3028 55.2392C78.8281 56.1478 79.1804 57.2676 80.089 57.7423L83.1373 59.3332L44.5 79.4955L5.86288 59.3332L8.91478 57.7459C9.82338 57.2712 10.1756 56.1514 9.701 55.2428C9.22628 54.3342 8.10265 53.9893 7.19788 54.4566L0.9976 57.6905C0.385725 58.0093 0 58.6398 0 59.3332C0 60.0266 0.385725 60.657 0.9976 60.976L43.6434 83.226C43.9104 83.367 44.2071 83.4374 44.5 83.4374C44.7929 83.4374 45.0896 83.367 45.3566 83.226L88.0024 60.976C88.6143 60.657 89 60.0267 89 59.3332C89 58.6398 88.6143 58.0093 88.0062 57.6867Z" fill="url(#paint2_linear)"/>
<defs>
<linearGradient id="paint0_linear" x1="44.5" y1="5.5625" x2="44.5" y2="53.7709" gradientUnits="userSpaceOnUse">
<stop stop-color="#FFE5AC"/>
<stop offset="0.0001" stop-color="#FFE5AC"/>
<stop offset="1" stop-color="#B99C5D"/>
</linearGradient>
<linearGradient id="paint1_linear" x1="44.5" y1="39.4136" x2="44.5" y2="68.6044" gradientUnits="userSpaceOnUse">
<stop stop-color="#FFE5AC"/>
<stop offset="0.0001" stop-color="#FFE5AC"/>
<stop offset="1" stop-color="#B99C5D"/>
</linearGradient>
<linearGradient id="paint2_linear" x1="44.5" y1="54.2466" x2="44.5" y2="83.4374" gradientUnits="userSpaceOnUse">
<stop stop-color="#FFE5AC"/>
<stop offset="0.0001" stop-color="#FFE5AC"/>
<stop offset="1" stop-color="#B99C5D"/>
</linearGradient>
</defs>
</svg>
