<svg width="66" height="66" viewBox="0 0 66 66" fill="none" xmlns="http://www.w3.org/2000/svg">
<path d="M40.2188 18.3366L42.2812 18.8523V21.6562C42.2812 23.3619 43.6693 24.75 45.375 24.75H47.4375C49.1432 24.75 50.5312 23.3619 50.5312 21.6562V20.9148L58.7812 22.9773V7.96021L40.2188 12.6008V18.3366ZM48.4688 21.6562C48.4688 22.2245 48.0057 22.6875 47.4375 22.6875H45.375C44.8068 22.6875 44.3438 22.2245 44.3438 21.6562V19.3679L48.4688 20.3991V21.6562ZM46.4062 17.7571V13.1804L52.5938 11.6335V19.304L46.4062 17.7571ZM56.7188 20.3352L54.6562 19.8196V11.1179L56.7188 10.6023V20.3352ZM42.2812 14.2116L44.3438 13.696V17.2415L42.2812 16.7258V14.2116Z" fill="url(#paint0_linear)"/>
<path d="M64.9688 15.4688C64.9688 7.5075 58.4925 1.03125 50.5312 1.03125C42.7732 1.03125 36.4423 7.18678 36.1237 14.8686C35.3667 13.9817 34.255 13.4062 33 13.4062C31.7625 13.4062 30.6632 13.9652 29.9062 14.8314C29.1493 13.9652 28.05 13.4062 26.8125 13.4062C25.575 13.4062 24.4757 13.9652 23.7188 14.8314C22.9618 13.9652 21.8625 13.4062 20.625 13.4062C18.3501 13.4062 16.5 15.2563 16.5 17.5312V19.5938H1.03125V42.2812H11.3438V44.5397C11.3438 49.3969 13.2712 53.987 16.6629 57.3891C15.9421 57.9552 15.4688 58.8256 15.4688 59.8125V64.9688H42.2812V59.8125C42.2812 58.7307 41.7213 57.7799 40.8777 57.2272C43.1104 54.1334 44.3438 50.3869 44.3438 46.562V42.2812H54.6562V29.2978C60.6117 27.5179 64.9688 21.9955 64.9688 15.4688ZM33 15.4688C34.1375 15.4688 35.0625 16.3938 35.0625 17.5312V19.5938H30.9375V17.5312C30.9375 16.3938 31.8625 15.4688 33 15.4688ZM21.5273 37.7262L20.9797 31.7027C21.1623 31.8636 21.3943 31.9688 21.6562 31.9688C22.2255 31.9688 22.6875 31.5068 22.6875 30.9375C22.6875 30.3682 22.2255 29.9062 21.6562 29.9062C21.2829 29.9062 20.9705 30.1146 20.79 30.4116C20.5208 29.3617 19.9134 28.4728 19.0957 27.8365C20.394 24.1642 23.892 21.6562 27.8438 21.6562C32.9608 21.6562 37.125 25.8204 37.125 30.9375C37.125 36.0546 32.9608 40.2188 27.8438 40.2188C25.4812 40.2188 23.2506 39.3308 21.5273 37.7262ZM26.8125 15.4688C27.95 15.4688 28.875 16.3938 28.875 17.5312V19.5938H24.75V17.5312C24.75 16.3938 25.675 15.4688 26.8125 15.4688ZM18.5625 17.5312C18.5625 16.3938 19.4875 15.4688 20.625 15.4688C21.7625 15.4688 22.6875 16.3938 22.6875 17.5312V19.5938H18.5625V17.5312ZM7.11459 21.6562C6.70312 23.6734 5.11088 25.2656 3.09375 25.6771V21.6562H7.11459ZM3.09375 36.1979C5.11088 36.6094 6.70312 38.2016 7.11459 40.2188H3.09375V36.1979ZM11.3438 31.6171V40.2188H9.19875C8.745 37.0642 6.24834 34.5675 3.09375 34.1138V27.7612C6.24834 27.3075 8.745 24.8108 9.19875 21.6562H21.3397C19.4999 22.9453 18.0448 24.7696 17.227 26.9455C16.8795 26.8661 16.5206 26.8125 16.1483 26.8125C13.4991 26.8125 11.3438 28.9678 11.3438 31.6171ZM40.2188 62.9062H17.5312V59.8125C17.5312 59.2443 17.9943 58.7812 18.5625 58.7812H39.1875C39.7557 58.7812 40.2188 59.2443 40.2188 59.8125V62.9062ZM42.2812 46.562C42.2812 50.2188 41.0231 53.8044 38.7379 56.66L38.6915 56.7188H18.9657C15.4358 53.6456 13.4062 49.2339 13.4062 44.5397V31.6171C13.4062 30.1053 14.6365 28.875 16.1483 28.875C17.5756 28.875 18.7502 29.9475 18.8791 31.3686L19.6402 39.7372L20.8313 40.6313C22.639 41.9873 23.7188 44.1468 23.7188 46.4062H25.7812C25.7812 44.9615 25.4368 43.5507 24.8067 42.2812H42.2812V46.562ZM48.5729 40.2188C48.9844 38.2016 50.5766 36.6094 52.5938 36.1979V40.2188H48.5729ZM52.5938 34.1138C49.4392 34.5685 46.9425 37.0642 46.4888 40.2188H34.3458C37.2683 38.1645 39.1875 34.7738 39.1875 30.9375C39.1875 27.1012 37.2683 23.7105 34.3458 21.6562H37.5066C39.83 26.5258 44.7862 29.9062 50.5312 29.9062C51.2335 29.9062 51.9183 29.8392 52.5938 29.7413V34.1138ZM50.5312 27.8438C43.7075 27.8438 38.1562 22.2925 38.1562 15.4688C38.1562 8.64497 43.7075 3.09375 50.5312 3.09375C57.355 3.09375 62.9062 8.64497 62.9062 15.4688C62.9062 22.2925 57.355 27.8438 50.5312 27.8438Z" fill="url(#paint1_linear)"/>
<path d="M28.875 25.9308V23.7188H26.8125V25.9308C25.6214 26.3082 24.75 27.4106 24.75 28.7244C24.75 29.8454 25.3729 30.855 26.3773 31.3572L28.3882 32.3617C28.6883 32.5122 28.875 32.8144 28.875 33.1506C28.875 33.6363 28.48 34.0312 27.9943 34.0312H27.6932C27.2075 34.0312 26.8125 33.6363 26.8125 33.1506V31.9688H24.75V33.1506C24.75 34.4644 25.6214 35.5668 26.8125 35.9442V38.1562H28.875V35.9442C30.0661 35.5668 30.9375 34.4644 30.9375 33.1506C30.9375 32.0296 30.3146 31.02 29.3102 30.5178L27.2993 29.5133C26.9992 29.3628 26.8125 29.0606 26.8125 28.7244C26.8125 28.2387 27.2075 27.8438 27.6932 27.8438H27.9943C28.48 27.8438 28.875 28.2387 28.875 28.7244V28.875H30.9375V28.7244C30.9375 27.4106 30.0661 26.3082 28.875 25.9308Z" fill="url(#paint2_linear)"/>
<path d="M34.0312 31.9688C34.6008 31.9688 35.0625 31.507 35.0625 30.9375C35.0625 30.368 34.6008 29.9062 34.0312 29.9062C33.4617 29.9062 33 30.368 33 30.9375C33 31.507 33.4617 31.9688 34.0312 31.9688Z" fill="url(#paint3_linear)"/>
<defs>
<linearGradient id="paint0_linear" x1="49.5" y1="7.96021" x2="49.5" y2="24.75" gradientUnits="userSpaceOnUse">
<stop stop-color="#FFE5AC"/>
<stop offset="0.0001" stop-color="#FFE5AC"/>
<stop offset="1" stop-color="#B99C5D"/>
</linearGradient>
<linearGradient id="paint1_linear" x1="33" y1="1.03125" x2="33" y2="64.9688" gradientUnits="userSpaceOnUse">
<stop stop-color="#FFE5AC"/>
<stop offset="0.0001" stop-color="#FFE5AC"/>
<stop offset="1" stop-color="#B99C5D"/>
</linearGradient>
<linearGradient id="paint2_linear" x1="27.8438" y1="23.7188" x2="27.8438" y2="38.1562" gradientUnits="userSpaceOnUse">
<stop stop-color="#FFE5AC"/>
<stop offset="0.0001" stop-color="#FFE5AC"/>
<stop offset="1" stop-color="#B99C5D"/>
</linearGradient>
<linearGradient id="paint3_linear" x1="34.0312" y1="29.9062" x2="34.0312" y2="31.9688" gradientUnits="userSpaceOnUse">
<stop stop-color="#FFE5AC"/>
<stop offset="0.0001" stop-color="#FFE5AC"/>
<stop offset="1" stop-color="#B99C5D"/>
</linearGradient>
</defs>
</svg>
