<svg width="64" height="64" viewBox="0 0 64 64" fill="none" xmlns="http://www.w3.org/2000/svg">
<path d="M51.9385 55.7419L49.5488 48.5718C48.7137 46.0686 46.5831 44.2208 43.9859 43.7481L37.0874 42.4928V41.9581C38.2879 41.2613 39.3325 40.3292 40.1645 39.2257H42.2486C43.956 39.2257 45.3454 37.8363 45.3454 36.129V23.7419C45.3454 16.3426 39.3253 10.3225 31.9261 10.3225C24.5268 10.3225 18.5067 16.3426 18.5067 23.7419V30.9677C18.5067 32.9579 19.9219 34.6229 21.7986 35.011C22.3777 37.9777 24.2316 40.4882 26.7648 41.9581V42.4928L19.8652 43.7481C17.269 44.2208 15.1374 46.0686 14.3034 48.5718L13.8904 49.8115L10.3746 46.2957C9.972 45.8931 9.972 45.2376 10.3746 44.835L14.452 40.7586L6.79884 33.1055L2.19084 37.7135C0.826191 39.0781 0.074707 40.8928 0.074707 42.8232C0.074707 44.7535 0.826191 46.5672 2.19084 47.9318L16.1418 61.8828C17.5065 63.2474 19.3212 63.9999 21.2515 63.9999C23.1818 63.9999 24.9955 63.2474 26.3281 61.9137L31.3563 57.3068L29.7883 55.7419H51.9385ZM43.2809 36.129C43.2809 36.6988 42.8174 37.1612 42.2486 37.1612H41.3805C41.6799 36.4789 41.907 35.7594 42.0536 35.011C42.4954 34.9192 42.9021 34.7437 43.2809 34.5228V36.129ZM42.2486 32.7452V29.1901C42.8628 29.5483 43.2809 30.2069 43.2809 30.9677C43.2809 31.7284 42.8628 32.387 42.2486 32.7452ZM21.6035 32.7452C20.9893 32.387 20.5712 31.7284 20.5712 30.9677C20.5712 30.2069 20.9893 29.5483 21.6035 29.1901V32.7452ZM21.6035 25.8064V26.9852C21.236 27.0812 20.8912 27.2257 20.5712 27.4126V23.7419C20.5712 17.4812 25.6654 12.387 31.9261 12.387C38.1867 12.387 43.2809 17.4812 43.2809 23.7419V27.4126C42.9609 27.2257 42.6161 27.0802 42.2486 26.9852V25.8064H41.2164C38.164 25.8064 35.2943 24.6172 33.1348 22.4588L31.9261 21.25L30.7173 22.4588C28.5578 24.6172 25.6881 25.8064 22.6357 25.8064H21.6035ZM23.668 33.0322V27.8317C26.7679 27.5984 29.6582 26.3194 31.9261 24.163C34.1939 26.3194 37.0843 27.5994 40.1841 27.8317V33.0322C40.1841 34.5372 39.7733 35.9452 39.0672 37.1612H31.9261V39.2257H37.3702C35.9147 40.5068 34.0123 41.2903 31.9261 41.2903C27.3728 41.2903 23.668 37.5855 23.668 33.0322ZM35.0228 42.8789V42.9274L31.9261 46.0242L28.8293 42.9274V42.8789C29.8079 43.1865 30.8474 43.3548 31.9261 43.3548C33.0048 43.3548 34.0443 43.1865 35.0228 42.8789ZM16.2605 49.2242C16.8561 47.4363 18.3787 46.1161 20.2337 45.7775L27.4492 44.4665L31.9261 48.9434L36.4019 44.4675L43.6164 45.7785C45.4714 46.1171 46.9939 47.4363 47.5896 49.2252L49.075 53.6773H27.7237L23.7031 49.6567L19.2355 53.698C18.8463 54.0892 18.1661 54.0892 17.7759 53.698L15.5214 51.4435L16.2605 49.2242ZM6.7978 36.0247L11.5317 40.7586L10.4107 41.8797L5.67677 37.1457L6.7978 36.0247ZM24.8985 60.4252C23.924 61.3976 22.6275 61.9354 21.2494 61.9354C19.8714 61.9354 18.5748 61.3976 17.5994 60.4232L3.64838 46.4732C2.67393 45.4988 2.13716 44.2023 2.13716 42.8242C2.13716 41.4451 2.67393 40.1486 3.64838 39.1741L4.21613 38.6064L8.95006 43.3403L8.9129 43.3775C7.70619 44.5852 7.70619 46.5496 8.9129 47.7573L16.3152 55.1597C16.9005 55.7439 17.6778 56.067 18.5057 56.067C19.3335 56.067 20.1108 55.745 20.6579 55.1958L20.7354 55.1266L25.491 59.8823L24.8985 60.4252ZM27.0146 58.4846L22.2693 53.7393L23.6329 52.5068L28.3699 57.2438L27.0146 58.4846Z" fill="url(#paint0_linear)"/>
<path d="M60.8294 0H46.3778C44.6704 0 43.281 1.38942 43.281 3.09677V11.3548C43.281 13.0622 44.6704 14.4516 46.3778 14.4516H49.1349L48.0676 20.6772L58.0289 14.4516H60.8294C62.5368 14.4516 63.9262 13.0622 63.9262 11.3548V3.09677C63.9262 1.38942 62.5368 0 60.8294 0ZM61.8617 11.3548C61.8617 11.9236 61.3982 12.3871 60.8294 12.3871H57.4364L50.8805 16.4841L51.5835 12.3871H46.3778C45.809 12.3871 45.3455 11.9236 45.3455 11.3548V3.09677C45.3455 2.528 45.809 2.06452 46.3778 2.06452H60.8294C61.3982 2.06452 61.8617 2.528 61.8617 3.09677V11.3548Z" fill="url(#paint1_linear)"/>
<path d="M59.7972 4.12915H47.4102V6.19367H59.7972V4.12915Z" fill="url(#paint2_linear)"/>
<path d="M55.6682 8.25806H47.4102V10.3226H55.6682V8.25806Z" fill="url(#paint3_linear)"/>
<path d="M59.7972 8.25806H57.7327V10.3226H59.7972V8.25806Z" fill="url(#paint4_linear)"/>
<path d="M31.9264 3.09668C18.4389 3.09668 6.82081 12.4262 3.80043 25.4399L1.8443 22.179L0.0739746 23.2412L3.70236 29.2871L9.7483 25.6587L8.6861 23.8884L5.88869 25.5669C8.81411 13.6618 19.5197 5.1612 31.9264 5.1612C34.6381 5.1612 37.3137 5.56378 39.8789 6.35862L40.49 4.387C37.7266 3.53023 34.8456 3.09668 31.9264 3.09668Z" fill="url(#paint5_linear)"/>
<path d="M63.4245 22.8562L57.3785 19.2278L53.7512 25.2748L55.5215 26.3369L57.328 23.3258C58.2787 26.1078 58.7649 29.0177 58.7649 31.9999C58.7649 38.1388 56.6384 44.1403 52.7788 48.898L54.3819 50.1986C58.5398 45.0745 60.8294 38.6105 60.8294 31.9999C60.8294 28.8422 60.3205 25.7589 59.3285 22.8066L62.3623 24.6265L63.4245 22.8562Z" fill="url(#paint6_linear)"/>
<defs>
<linearGradient id="paint0_linear" x1="26.0066" y1="10.3225" x2="26.0066" y2="63.9999" gradientUnits="userSpaceOnUse">
<stop stop-color="#FFE5AC"/>
<stop offset="0.0001" stop-color="#FFE5AC"/>
<stop offset="1" stop-color="#B99C5D"/>
</linearGradient>
<linearGradient id="paint1_linear" x1="53.6036" y1="0" x2="53.6036" y2="20.6772" gradientUnits="userSpaceOnUse">
<stop stop-color="#FFE5AC"/>
<stop offset="0.0001" stop-color="#FFE5AC"/>
<stop offset="1" stop-color="#B99C5D"/>
</linearGradient>
<linearGradient id="paint2_linear" x1="53.6037" y1="4.12915" x2="53.6037" y2="6.19367" gradientUnits="userSpaceOnUse">
<stop stop-color="#FFE5AC"/>
<stop offset="0.0001" stop-color="#FFE5AC"/>
<stop offset="1" stop-color="#B99C5D"/>
</linearGradient>
<linearGradient id="paint3_linear" x1="51.5392" y1="8.25806" x2="51.5392" y2="10.3226" gradientUnits="userSpaceOnUse">
<stop stop-color="#FFE5AC"/>
<stop offset="0.0001" stop-color="#FFE5AC"/>
<stop offset="1" stop-color="#B99C5D"/>
</linearGradient>
<linearGradient id="paint4_linear" x1="58.7649" y1="8.25806" x2="58.7649" y2="10.3226" gradientUnits="userSpaceOnUse">
<stop stop-color="#FFE5AC"/>
<stop offset="0.0001" stop-color="#FFE5AC"/>
<stop offset="1" stop-color="#B99C5D"/>
</linearGradient>
<linearGradient id="paint5_linear" x1="20.282" y1="3.09668" x2="20.282" y2="29.2871" gradientUnits="userSpaceOnUse">
<stop stop-color="#FFE5AC"/>
<stop offset="0.0001" stop-color="#FFE5AC"/>
<stop offset="1" stop-color="#B99C5D"/>
</linearGradient>
<linearGradient id="paint6_linear" x1="58.1016" y1="19.2278" x2="58.1016" y2="50.1986" gradientUnits="userSpaceOnUse">
<stop stop-color="#FFE5AC"/>
<stop offset="0.0001" stop-color="#FFE5AC"/>
<stop offset="1" stop-color="#B99C5D"/>
</linearGradient>
</defs>
</svg>
