<svg width="63" height="63" viewBox="0 0 63 63" fill="none" xmlns="http://www.w3.org/2000/svg">
<g clip-path="url(#clip0)">
<path d="M58.4464 30.2696H49.3395V1.23056C49.3395 0.732963 49.0396 0.284211 48.5799 0.0937343C48.12 -0.0968654 47.5908 0.00870885 47.239 0.360377L43.7532 3.84605L40.2676 0.3605C39.7871 -0.119998 39.008 -0.119998 38.5274 0.3605L35.0417 3.84617L31.5564 0.3605C31.0759 -0.119998 30.2968 -0.119998 29.8161 0.3605L26.3305 3.84617L22.8447 0.3605C22.3642 -0.119998 21.585 -0.119998 21.1045 0.3605L17.6189 3.84617L14.1334 0.3605C13.653 -0.119998 12.8738 -0.119998 12.3932 0.3605L8.90753 3.84617L5.42198 0.3605C4.94443 -0.117045 4.17207 -0.119506 3.69034 0.353732C3.43735 0.60241 3.31468 0.933775 3.32317 1.26293V56.6018C3.32317 60.1298 6.19336 63 9.72136 63H53.277C53.2772 63 53.2774 63 53.2776 63C53.278 63 53.2784 63 53.2787 63C56.8067 63 59.6769 60.1298 59.6769 56.6018V31.5C59.6769 30.8204 59.126 30.2696 58.4464 30.2696ZM9.72136 60.5391C7.55019 60.5391 5.78398 58.7727 5.78398 56.6017V4.20276L8.03746 6.45624C8.51796 6.93674 9.29709 6.93674 9.77771 6.45624L13.2634 2.97057L16.7491 6.45624C17.2296 6.93674 18.0087 6.93674 18.4893 6.45624L21.975 2.97057L25.4608 6.45624C25.9413 6.93674 26.7204 6.93674 27.2009 6.45624L30.6866 2.97057L34.1722 6.45624C34.6527 6.93674 35.4319 6.93674 35.9125 6.45624L39.3982 2.97057L42.8838 6.45624C43.3645 6.93674 44.1436 6.93674 44.624 6.45624L46.8793 4.20104V31.5C46.8793 31.5112 46.8807 31.5221 46.881 31.5333V56.6017C46.881 58.0859 47.3904 59.4524 48.2415 60.5391H9.72136ZM57.216 56.6017C57.216 58.7727 55.4496 60.5391 53.2786 60.5391C51.1076 60.5391 49.3412 58.7727 49.3412 56.6017V32.7304H57.216V56.6017Z" fill="url(#paint0_linear)"/>
<path d="M26.3314 19.5467C25.1102 19.5467 24.1167 18.696 24.1167 17.6504C24.1167 16.6048 25.1103 15.754 26.3314 15.754C27.5527 15.754 28.5461 16.6048 28.5461 17.6504C28.5461 18.33 29.097 18.8809 29.7766 18.8809C30.4562 18.8809 31.0071 18.33 31.0071 17.6504C31.0071 15.6447 29.5448 13.9523 27.5619 13.4475V12.614C27.5619 11.9344 27.011 11.3835 26.3314 11.3835C25.6518 11.3835 25.101 11.9344 25.101 12.614V13.4475C23.1179 13.9523 21.6558 15.6448 21.6558 17.6504C21.6558 20.0529 23.7533 22.0075 26.3314 22.0075C27.5527 22.0075 28.5461 22.8583 28.5461 23.9039C28.5461 24.9496 27.5527 25.8002 26.3314 25.8002C25.1102 25.8002 24.1167 24.9495 24.1167 23.9039C24.1167 23.2243 23.5658 22.6735 22.8862 22.6735C22.2066 22.6735 21.6558 23.2243 21.6558 23.9039C21.6558 25.9097 23.1181 27.6021 25.101 28.1068V29.1109C25.101 29.7905 25.6518 30.3414 26.3314 30.3414C27.011 30.3414 27.5619 29.7905 27.5619 29.1109V28.1068C29.5449 27.6021 31.0071 25.9097 31.0071 23.9039C31.0071 21.5014 28.9095 19.5467 26.3314 19.5467Z" fill="url(#paint1_linear)"/>
<path d="M38.6933 19.5469H36.2952C35.6156 19.5469 35.0647 20.0978 35.0647 20.7773C35.0647 21.4569 35.6156 22.0078 36.2952 22.0078H38.6933C39.3729 22.0078 39.9238 21.4569 39.9238 20.7773C39.9238 20.0978 39.3729 19.5469 38.6933 19.5469Z" fill="url(#paint2_linear)"/>
<path d="M16.3677 19.5469H13.9695C13.2899 19.5469 12.739 20.0978 12.739 20.7773C12.739 21.4569 13.2899 22.0078 13.9695 22.0078H16.3677C17.0473 22.0078 17.5981 21.4569 17.5981 20.7773C17.5981 20.0978 17.0473 19.5469 16.3677 19.5469Z" fill="url(#paint3_linear)"/>
<path d="M39.316 33.2236H19.8225C19.1429 33.2236 18.592 33.7745 18.592 34.4541C18.592 35.1337 19.1429 35.6846 19.8225 35.6846H39.316C39.9956 35.6846 40.5464 35.1337 40.5464 34.4541C40.5463 33.7745 39.9956 33.2236 39.316 33.2236Z" fill="url(#paint4_linear)"/>
<path d="M14.2166 33.5842C13.9878 33.3553 13.6703 33.2236 13.3467 33.2236C13.0231 33.2236 12.7056 33.3553 12.4767 33.5842C12.2479 33.813 12.1162 34.1305 12.1162 34.4541C12.1162 34.7777 12.2479 35.0952 12.4767 35.324C12.7056 35.5529 13.0231 35.6846 13.3467 35.6846C13.6703 35.6846 13.9878 35.5529 14.2166 35.324C14.4455 35.0952 14.5771 34.7777 14.5771 34.4541C14.5771 34.1305 14.4455 33.813 14.2166 33.5842Z" fill="url(#paint5_linear)"/>
<path d="M39.316 41.3442H19.8225C19.1429 41.3442 18.592 41.8951 18.592 42.5747C18.592 43.2543 19.1429 43.8052 19.8225 43.8052H39.316C39.9956 43.8052 40.5464 43.2543 40.5464 42.5747C40.5463 41.8951 39.9956 41.3442 39.316 41.3442Z" fill="url(#paint6_linear)"/>
<path d="M14.2166 41.7048C13.9878 41.4759 13.6703 41.3442 13.3467 41.3442C13.0231 41.3442 12.7056 41.4759 12.4767 41.7048C12.2479 41.9336 12.1162 42.2511 12.1162 42.5747C12.1162 42.8983 12.2479 43.2158 12.4767 43.4446C12.7056 43.6735 13.0231 43.8052 13.3467 43.8052C13.6703 43.8052 13.9878 43.6735 14.2166 43.4446C14.4455 43.2158 14.5771 42.8983 14.5771 42.5747C14.5771 42.2511 14.4455 41.9336 14.2166 41.7048Z" fill="url(#paint7_linear)"/>
<path d="M39.316 49.4653H19.8225C19.1429 49.4653 18.592 50.0162 18.592 50.6958C18.592 51.3754 19.1429 51.9263 19.8225 51.9263H39.316C39.9956 51.9263 40.5464 51.3754 40.5464 50.6958C40.5464 50.0162 39.9956 49.4653 39.316 49.4653Z" fill="url(#paint8_linear)"/>
<path d="M14.2166 49.8259C13.9878 49.597 13.6703 49.4653 13.3467 49.4653C13.0231 49.4653 12.7056 49.597 12.4767 49.8259C12.2479 50.0547 12.1162 50.3722 12.1162 50.6958C12.1162 51.0194 12.2479 51.3369 12.4767 51.5657C12.7056 51.7946 13.0231 51.9263 13.3467 51.9263C13.6703 51.9263 13.9878 51.7946 14.2166 51.5657C14.4455 51.3369 14.5771 51.0194 14.5771 50.6958C14.5771 50.3722 14.4455 50.0547 14.2166 49.8259Z" fill="url(#paint9_linear)"/>
<path d="M21.428 -157C-83.1 -157 -173.14 -84.696 -196.548 16.16L-211.708 -9.112L-225.428 -0.880005L-197.308 45.976L-150.452 17.856L-158.684 4.136L-180.364 17.144C-157.692 -75.12 -74.724 -141 21.428 -141C42.444 -141 63.18 -137.88 83.06 -131.72L87.796 -147C66.38 -153.64 44.052 -157 21.428 -157Z" fill="black"/>
</g>
<defs>
<linearGradient id="paint0_linear" x1="31.4998" y1="0" x2="31.4998" y2="63" gradientUnits="userSpaceOnUse">
<stop stop-color="#FFE5AC"/>
<stop offset="0.0001" stop-color="#FFE5AC"/>
<stop offset="1" stop-color="#B99C5D"/>
</linearGradient>
<linearGradient id="paint1_linear" x1="26.3314" y1="11.3835" x2="26.3314" y2="30.3414" gradientUnits="userSpaceOnUse">
<stop stop-color="#FFE5AC"/>
<stop offset="0.0001" stop-color="#FFE5AC"/>
<stop offset="1" stop-color="#B99C5D"/>
</linearGradient>
<linearGradient id="paint2_linear" x1="37.4943" y1="19.5469" x2="37.4943" y2="22.0078" gradientUnits="userSpaceOnUse">
<stop stop-color="#FFE5AC"/>
<stop offset="0.0001" stop-color="#FFE5AC"/>
<stop offset="1" stop-color="#B99C5D"/>
</linearGradient>
<linearGradient id="paint3_linear" x1="15.1686" y1="19.5469" x2="15.1686" y2="22.0078" gradientUnits="userSpaceOnUse">
<stop stop-color="#FFE5AC"/>
<stop offset="0.0001" stop-color="#FFE5AC"/>
<stop offset="1" stop-color="#B99C5D"/>
</linearGradient>
<linearGradient id="paint4_linear" x1="29.5692" y1="33.2236" x2="29.5692" y2="35.6846" gradientUnits="userSpaceOnUse">
<stop stop-color="#FFE5AC"/>
<stop offset="0.0001" stop-color="#FFE5AC"/>
<stop offset="1" stop-color="#B99C5D"/>
</linearGradient>
<linearGradient id="paint5_linear" x1="13.3467" y1="33.2236" x2="13.3467" y2="35.6846" gradientUnits="userSpaceOnUse">
<stop stop-color="#FFE5AC"/>
<stop offset="0.0001" stop-color="#FFE5AC"/>
<stop offset="1" stop-color="#B99C5D"/>
</linearGradient>
<linearGradient id="paint6_linear" x1="29.5692" y1="41.3442" x2="29.5692" y2="43.8052" gradientUnits="userSpaceOnUse">
<stop stop-color="#FFE5AC"/>
<stop offset="0.0001" stop-color="#FFE5AC"/>
<stop offset="1" stop-color="#B99C5D"/>
</linearGradient>
<linearGradient id="paint7_linear" x1="13.3467" y1="41.3442" x2="13.3467" y2="43.8052" gradientUnits="userSpaceOnUse">
<stop stop-color="#FFE5AC"/>
<stop offset="0.0001" stop-color="#FFE5AC"/>
<stop offset="1" stop-color="#B99C5D"/>
</linearGradient>
<linearGradient id="paint8_linear" x1="29.5692" y1="49.4653" x2="29.5692" y2="51.9263" gradientUnits="userSpaceOnUse">
<stop stop-color="#FFE5AC"/>
<stop offset="0.0001" stop-color="#FFE5AC"/>
<stop offset="1" stop-color="#B99C5D"/>
</linearGradient>
<linearGradient id="paint9_linear" x1="13.3467" y1="49.4653" x2="13.3467" y2="51.9263" gradientUnits="userSpaceOnUse">
<stop stop-color="#FFE5AC"/>
<stop offset="0.0001" stop-color="#FFE5AC"/>
<stop offset="1" stop-color="#B99C5D"/>
</linearGradient>
<clipPath id="clip0">
<rect width="63" height="63" fill="white"/>
</clipPath>
</defs>
</svg>
