<svg width="83" height="83" viewBox="0 0 83 83" fill="none" xmlns="http://www.w3.org/2000/svg">
<path d="M20.0006 41.8496C20.1423 43.4381 21.5023 44.6825 23.0972 44.6825H50.5224L49.7784 52.9784C49.7564 53.0545 49.6478 53.1838 49.5768 53.2187L42.3256 55.1783C41.9952 55.2676 41.6927 55.3493 41.4651 55.4104C41.2379 55.3493 40.9354 55.2678 40.6053 55.1786L33.367 53.224C33.2961 53.1893 33.188 53.0606 33.1663 52.9849L32.7759 48.6125C32.6338 47.0243 31.2735 45.7803 29.6791 45.7803H23.4918C22.6796 45.7803 21.9049 46.1183 21.3659 46.7074C20.827 47.2967 20.5592 48.0981 20.6313 48.9069L21.6291 60.1051C21.7544 61.5116 22.8751 62.8566 24.2354 63.2338L39.7351 67.5347C40.8968 67.857 41.2552 67.9565 41.505 67.9565C41.6164 67.9565 41.7064 67.9368 41.8365 67.9081C41.8884 67.8964 41.9025 67.8933 43.2252 67.527L58.7086 63.2336C59.8962 62.9041 61.1465 61.9888 61.2623 60.6872L63.5076 35.5398C63.5775 34.768 63.323 34.0024 62.8088 33.4392C62.2947 32.8767 61.5562 32.554 60.7821 32.554H31.3427L30.8303 26.8278H62.7584C63.6132 26.8278 64.3269 26.1762 64.4048 25.3252L65.1044 17.685C65.1717 16.9276 64.9246 16.1997 64.4086 15.6359C63.8654 15.0424 63.0721 14.7017 62.2322 14.7017C62.232 14.7017 62.2317 14.7017 62.2315 14.7017H20.7169C19.8764 14.7017 19.0825 15.0421 18.5393 15.6359C18.0236 16.1999 17.7766 16.9271 17.8439 17.6851L20.0006 41.8496ZM61.7543 18.0084L61.2493 23.5209H30.3543C29.5423 23.5209 28.7678 23.8587 28.2289 24.4478C27.6901 25.0371 27.4223 25.8386 27.4946 26.648L28.0652 33.0275C28.2065 34.6161 29.5671 35.8607 31.1623 35.8607H60.1593L58.0065 59.9769C57.9546 60.0026 57.8928 60.0283 57.8251 60.0469L42.3422 64.34C42.0077 64.4328 41.7002 64.5177 41.4694 64.5814C41.2612 64.525 40.9736 64.4464 40.6194 64.3481L25.1307 60.0505C25.0569 60.0145 24.9441 59.879 24.9219 59.7997L23.9675 49.0868H29.4989L29.8742 53.2902C29.9998 54.7013 31.1261 56.0439 32.4937 56.4132L39.7437 58.371C41.2418 58.7755 41.2418 58.7755 41.4658 58.7755C41.6893 58.7755 41.6893 58.7755 43.1882 58.3705L50.4509 56.408C51.8183 56.0389 52.9446 54.6966 53.0712 53.2861L53.8589 44.5037C53.9315 43.6948 53.6639 42.8926 53.1254 42.3034C52.5867 41.7141 51.8118 41.3759 50.9996 41.3759H23.2781L21.1926 18.0084H61.7543Z" fill="url(#paint0_linear)"/>
<path d="M77.5205 0.927752C76.9817 0.33816 76.2063 0 75.3941 0H7.6055C6.79366 0 6.0191 0.337836 5.48025 0.926779C4.94123 1.51588 4.67343 2.31735 4.7454 3.1266L10.9205 72.3867C11.0456 73.793 12.166 75.1383 13.5265 75.5162L39.7291 82.7917C40.2289 82.9306 40.8421 83 41.4556 83C42.0677 83 42.68 82.9308 43.1799 82.7923L69.4622 75.505C70.8231 75.1278 71.9438 73.7828 72.0693 72.3766L78.2542 3.1279C78.3267 2.31897 78.0594 1.51718 77.5205 0.927752ZM68.7767 72.0709C68.754 72.1518 68.6371 72.2911 68.5787 72.3185L42.2969 79.6056C41.8795 79.7212 41.0302 79.7213 40.6137 79.6054L14.4264 72.3351C14.3512 72.3021 14.2309 72.1576 14.2141 72.0936L8.08129 3.30671H74.918L68.7767 72.0709Z" fill="url(#paint1_linear)"/>
<path d="M30.9188 5.62183H12.5664C11.6534 5.62183 10.9131 6.36218 10.9131 7.27518C10.9131 8.18818 11.6534 8.92853 12.5664 8.92853H30.9188C31.832 8.92853 32.5722 8.18818 32.5722 7.27518C32.5722 6.36218 31.8318 5.62183 30.9188 5.62183Z" fill="url(#paint2_linear)"/>
<path d="M37.6976 5.62183H37.0362C36.1232 5.62183 35.3828 6.36218 35.3828 7.27518C35.3828 8.18818 36.1232 8.92853 37.0362 8.92853H37.6976C38.6107 8.92853 39.3509 8.18818 39.3509 7.27518C39.3509 6.36218 38.6106 5.62183 37.6976 5.62183Z" fill="url(#paint3_linear)"/>
<defs>
<linearGradient id="paint0_linear" x1="41.4741" y1="14.7017" x2="41.4741" y2="67.9565" gradientUnits="userSpaceOnUse">
<stop stop-color="#FFE5AC"/>
<stop offset="0.0001" stop-color="#FFE5AC"/>
<stop offset="1" stop-color="#B99C5D"/>
</linearGradient>
<linearGradient id="paint1_linear" x1="41.4999" y1="0" x2="41.4999" y2="83" gradientUnits="userSpaceOnUse">
<stop stop-color="#FFE5AC"/>
<stop offset="0.0001" stop-color="#FFE5AC"/>
<stop offset="1" stop-color="#B99C5D"/>
</linearGradient>
<linearGradient id="paint2_linear" x1="21.7426" y1="5.62183" x2="21.7426" y2="8.92853" gradientUnits="userSpaceOnUse">
<stop stop-color="#FFE5AC"/>
<stop offset="0.0001" stop-color="#FFE5AC"/>
<stop offset="1" stop-color="#B99C5D"/>
</linearGradient>
<linearGradient id="paint3_linear" x1="37.3669" y1="5.62183" x2="37.3669" y2="8.92853" gradientUnits="userSpaceOnUse">
<stop stop-color="#FFE5AC"/>
<stop offset="0.0001" stop-color="#FFE5AC"/>
<stop offset="1" stop-color="#B99C5D"/>
</linearGradient>
</defs>
</svg>
