<svg width="85" height="86" viewBox="0 0 85 86" fill="none" xmlns="http://www.w3.org/2000/svg">
<path d="M81.552 64.491L76.6979 48.4707C75.8311 45.6058 72.8257 43.9881 69.9942 44.8651C68.8572 45.2161 67.8753 45.937 67.2011 46.8925C66.5652 45.8982 65.6405 45.1574 64.5426 44.7486C66.6999 40.4411 67.8173 35.6661 67.8173 30.8325C67.8173 13.8377 54.1406 0 37.3433 0C27.1339 0 17.5987 5.16476 11.9545 13.7988C11.2607 13.5651 10.5293 13.4479 9.7776 13.4479C5.90617 13.4479 2.74658 16.6439 2.74658 20.5616C2.74658 23.5239 4.55776 26.0773 7.10033 27.1493C6.96564 28.3773 6.88814 29.6045 6.88814 30.8325C6.88814 47.8274 20.5649 61.665 37.3621 61.665C39.2117 61.665 41.0801 61.4899 42.8912 61.1588L44.3932 66.1088C40.9837 65.1344 37.3433 66.6159 35.5901 69.7342C35.2823 70.2801 35.4554 70.9622 35.9754 71.2934L49.6333 80.0249C53.4859 85.0922 60.0542 87.1965 66.1032 85.326L71.4773 83.6693C79.491 81.1943 83.9983 72.5991 81.552 64.491V64.491ZM5.05815 20.5814C5.05815 17.9503 7.17708 15.8064 9.7776 15.8064C12.3781 15.8064 14.497 17.9503 14.497 20.5814C14.497 23.2125 12.3781 25.3564 9.7776 25.3564C7.17708 25.3754 5.05815 23.2125 5.05815 20.5814ZM37.3621 59.3263C21.8366 59.3263 9.19971 46.5415 9.19971 30.8325C9.19971 29.7804 9.25765 28.7275 9.37352 27.6753C9.50822 27.6753 9.64291 27.6951 9.7776 27.6951C13.6498 27.6951 16.8086 24.4984 16.8086 20.5814C16.8086 18.2617 15.7108 16.1962 14.0155 14.9096C19.2549 7.03608 28.0007 2.33876 37.3621 2.35856C52.8885 2.35856 65.5253 15.1433 65.5253 30.8523C65.5253 35.6075 64.35 40.285 62.1152 44.4563C60.1317 44.6702 58.4364 45.9956 57.7042 47.886C57.5312 47.7695 57.3573 47.6523 57.1647 47.5548C54.8727 46.3268 52.0412 46.9313 50.4422 48.9967L49.9794 47.4772C59.0526 40.4213 60.7479 27.2856 53.7749 18.1056C46.801 8.92643 33.818 7.21118 24.7448 14.2663C15.6724 21.3214 13.9771 34.4579 20.9502 43.6371C22.4912 45.6645 24.3791 47.3797 26.5176 48.7242C26.4597 49.0363 26.4213 49.3675 26.4213 49.6987C26.4213 52.5247 28.6938 54.8246 31.4869 54.8246C33.5487 54.8246 35.3207 53.5768 36.11 51.7839V51.8037C36.5149 51.8228 36.9385 51.8425 37.3621 51.8425C38.2485 51.8425 39.1349 51.7839 40.0018 51.6674L42.217 58.9563C40.618 59.19 38.9995 59.3263 37.3621 59.3263V59.3263ZM35.2244 35.7834L39.3276 49.3287C38.4028 49.4261 37.4976 49.465 36.5728 49.4261V49.465C36.4765 46.7166 34.2417 44.5339 31.526 44.5339C29.8887 44.5339 28.4244 45.3333 27.4996 46.5605V46.5415C18.9275 41.0258 16.4234 29.5269 21.8749 20.854C27.3265 12.181 38.6917 9.64739 47.2638 15.1631C55.8359 20.6789 58.3401 32.1778 52.8885 40.8507C51.8869 42.4289 50.6732 43.832 49.2669 45.041L45.5106 32.6064C44.6437 29.7416 41.6391 28.1238 38.8069 29.0008C35.937 29.8969 34.3576 32.9178 35.2244 35.7834V35.7834ZM34.2417 49.6599C34.2417 51.1992 33.0091 52.447 31.4869 52.447C29.9654 52.447 28.7329 51.1992 28.7329 49.6599C28.7329 48.1197 29.9654 46.8727 31.4869 46.8727C33.0091 46.8727 34.2417 48.1197 34.2417 49.6599ZM38.2485 69.9877C39.9438 68.0578 42.737 67.5904 44.9522 68.8572L45.2991 69.0521L47.1479 75.1525C47.2254 75.3664 47.2826 75.6002 47.3601 75.8149L38.2485 69.9877ZM70.8031 81.4471L65.429 83.1037C60.2852 84.7024 54.6989 82.87 51.4242 78.5434C51.3858 78.4848 51.367 78.446 51.3279 78.4071C50.461 77.218 49.7868 75.8925 49.3632 74.4704L37.4396 35.1012C36.9385 33.4636 37.8437 31.7484 39.4623 31.2421C41.0801 30.7351 42.7754 31.6509 43.2765 33.2885L47.5332 47.3599L49.5174 53.9278L52.3873 63.4389C52.4069 63.4975 52.4265 63.5561 52.4453 63.595C52.4453 63.614 52.4453 63.614 52.4648 63.6338C52.4836 63.6924 52.5228 63.7312 52.5416 63.7701L52.5611 63.7899C52.5995 63.8287 52.6191 63.8675 52.6575 63.9064C52.6575 63.9064 52.6575 63.9064 52.6763 63.9261C52.7154 63.965 52.7538 64.0038 52.7921 64.0236L52.8117 64.0434C52.8501 64.0822 52.908 64.1012 52.9464 64.121H52.9652C53.0043 64.1408 53.0615 64.1599 53.1007 64.1797H53.1195C53.1774 64.1987 53.2158 64.2185 53.2737 64.2185H53.3121C53.37 64.2185 53.428 64.2383 53.4859 64.2383C53.5431 64.2383 53.5822 64.2383 53.6394 64.2185H53.6785C54.3136 64.121 54.738 63.5364 54.6417 62.893C54.6417 62.8344 54.6221 62.7766 54.6026 62.7179L51.7327 53.2068C51.2315 51.57 52.1375 49.8548 53.7553 49.3477C55.3731 48.8414 57.0684 49.7573 57.5695 51.3941L60.4394 60.9052C60.459 60.9639 60.4778 61.0225 60.4974 61.0613C60.4974 61.0803 60.4974 61.0803 60.5169 61.1001C60.5357 61.139 60.5741 61.1976 60.5937 61.2364L60.6132 61.2562C60.6516 61.295 60.6704 61.3339 60.7096 61.3727C60.7096 61.3727 60.7096 61.3727 60.7284 61.3925C60.7668 61.4313 60.8059 61.4701 60.8443 61.4899L60.8631 61.5097C60.9022 61.5486 60.9594 61.5676 60.9985 61.5874H61.0173C61.0557 61.6072 61.1136 61.6262 61.152 61.646H61.1716C61.2295 61.665 61.2679 61.665 61.3258 61.6848H61.3642C61.4221 61.6848 61.4801 61.7046 61.5185 61.7046C61.5568 61.7046 61.6148 61.7046 61.6532 61.6848H61.6915C61.7495 61.6848 61.7878 61.665 61.8458 61.646C62.4621 61.4511 62.8089 60.8078 62.6163 60.1843L59.7848 50.7508C59.2836 49.1338 60.1889 47.3987 61.7878 46.8925C62.058 46.8141 62.3274 46.7554 62.5967 46.7554C62.7126 46.7752 62.8473 46.7752 62.9632 46.7554C64.2153 46.8529 65.2552 47.7299 65.6216 48.9191L66.4494 51.6279L68.5111 58.4104C68.6646 58.8977 69.1078 59.2288 69.6089 59.2288C69.7241 59.2288 69.84 59.2098 69.9558 59.171C70.3411 59.0537 70.63 58.7416 70.7452 58.3328C70.7835 58.1965 70.7835 58.0594 70.7835 57.943C70.7835 57.8646 70.7647 57.7869 70.7452 57.7092L68.6842 50.9267C68.183 49.2891 69.089 47.5746 70.7068 47.0676C72.3246 46.5605 74.0199 47.4772 74.521 49.114L79.3752 65.1344C81.4173 72.0532 77.6031 79.3428 70.8031 81.4471V81.4471Z" fill="url(#paint0_linear)"/>
<defs>
<linearGradient id="paint0_linear" x1="42.4821" y1="0" x2="42.4821" y2="86" gradientUnits="userSpaceOnUse">
<stop stop-color="#FFE5AC"/>
<stop offset="0.0001" stop-color="#FFE5AC"/>
<stop offset="1" stop-color="#B99C5D"/>
</linearGradient>
</defs>
</svg>
