<svg width="64" height="64" viewBox="0 0 64 64" fill="none" xmlns="http://www.w3.org/2000/svg">
<g clip-path="url(#clip0)">
<path d="M57.6 0C54.0704 0 51.2 2.8704 51.2 6.4C51.2 9.5648 53.5115 12.1931 56.5333 12.704V14.9333H43.7333C43.1445 14.9333 42.6667 15.4112 42.6667 16V19.2H33.0667V12.704C36.0885 12.1941 38.4 9.56587 38.4 6.4C38.4 2.8704 35.5296 0 32 0C28.4704 0 25.6 2.8704 25.6 6.4C25.6 9.5648 27.9115 12.1931 30.9333 12.704V19.2H21.3333V16C21.3333 15.4112 20.8555 14.9333 20.2667 14.9333H7.46667V12.704C10.4885 12.1941 12.8 9.56587 12.8 6.4C12.8 2.8704 9.9296 0 6.4 0C2.8704 0 0 2.8704 0 6.4C0 9.5648 2.31147 12.1931 5.33333 12.704V16C5.33333 16.5888 5.8112 17.0667 6.4 17.0667H19.2V19.2H13.8667C13.2779 19.2 12.8 19.6779 12.8 20.2667V26.6667C12.8 27.0507 13.0059 27.4048 13.3397 27.5947L27.7333 35.7728V42.6667C27.7333 43.0603 27.9499 43.4219 28.2965 43.6075C28.4544 43.6917 28.6272 43.7333 28.8 43.7333C29.0069 43.7333 29.2128 43.6725 29.392 43.5541L35.792 39.2875C36.0885 39.0891 36.2667 38.7563 36.2667 38.4V35.7728L50.6603 27.5947C50.9941 27.4048 51.2 27.0507 51.2 26.6667V20.2667C51.2 19.6779 50.7221 19.2 50.1333 19.2H44.8V17.0667H57.6C58.1888 17.0667 58.6667 16.5888 58.6667 16V12.704C61.6885 12.1941 64 9.56587 64 6.4C64 2.8704 61.1296 0 57.6 0ZM2.13333 6.4C2.13333 4.04693 4.04693 2.13333 6.4 2.13333C8.75307 2.13333 10.6667 4.04693 10.6667 6.4C10.6667 8.75307 8.75307 10.6667 6.4 10.6667C4.04693 10.6667 2.13333 8.75307 2.13333 6.4ZM27.7333 6.4C27.7333 4.04693 29.6469 2.13333 32 2.13333C34.3531 2.13333 36.2667 4.04693 36.2667 6.4C36.2667 8.75307 34.3531 10.6667 32 10.6667C29.6469 10.6667 27.7333 8.75307 27.7333 6.4ZM49.0667 21.3333V26.0459L34.6731 34.224C34.3392 34.4139 34.1333 34.768 34.1333 35.152V37.8293L29.8667 40.6741V35.152C29.8667 34.768 29.6608 34.4139 29.3269 34.224L14.9333 26.0459V21.3333H49.0667ZM57.6 10.6667C55.2469 10.6667 53.3333 8.75307 53.3333 6.4C53.3333 4.04693 55.2469 2.13333 57.6 2.13333C59.9531 2.13333 61.8667 4.04693 61.8667 6.4C61.8667 8.75307 59.9531 10.6667 57.6 10.6667Z" fill="url(#paint0_linear)"/>
<path d="M31.9999 44.8C26.7071 44.8 22.3999 49.1072 22.3999 54.4C22.3999 59.6928 26.7071 64 31.9999 64C37.2927 64 41.5999 59.6928 41.5999 54.4C41.5999 49.1072 37.2927 44.8 31.9999 44.8ZM30.9332 57.6C30.3455 57.6 29.8666 57.1211 29.8666 56.5334H27.7332C27.7332 58.2976 29.169 59.7334 30.9332 59.7334V61.7814C27.3204 61.2608 24.5332 58.1536 24.5332 54.4C24.5332 50.6464 27.3204 47.5393 30.9332 47.0187V49.0667C29.169 49.0667 27.7332 50.5024 27.7332 52.2667C27.7332 54.031 29.169 55.4667 30.9332 55.4667H33.0666C33.6543 55.4667 34.1332 55.9456 34.1332 56.5334C34.1332 57.1211 33.6543 57.6 33.0666 57.6H30.9332ZM33.0666 61.7814V59.7334C34.8308 59.7334 36.2666 58.2976 36.2666 56.5334C36.2666 54.7691 34.8308 53.3334 33.0666 53.3334H30.9332C30.3455 53.3334 29.8666 52.8544 29.8666 52.2667C29.8666 51.679 30.3455 51.2 30.9332 51.2H33.0666C33.6543 51.2 34.1332 51.679 34.1332 52.2667H36.2666C36.2666 50.5024 34.8308 49.0667 33.0666 49.0667V47.0187C36.6794 47.5393 39.4666 50.6464 39.4666 54.4C39.4666 58.1536 36.6794 61.2608 33.0666 61.7814Z" fill="url(#paint1_linear)"/>
</g>
<defs>
<linearGradient id="paint0_linear" x1="32" y1="0" x2="32" y2="43.7333" gradientUnits="userSpaceOnUse">
<stop stop-color="#FFE5AC"/>
<stop offset="0.0001" stop-color="#FFE5AC"/>
<stop offset="1" stop-color="#B99C5D"/>
</linearGradient>
<linearGradient id="paint1_linear" x1="31.9999" y1="44.8" x2="31.9999" y2="64" gradientUnits="userSpaceOnUse">
<stop stop-color="#FFE5AC"/>
<stop offset="0.0001" stop-color="#FFE5AC"/>
<stop offset="1" stop-color="#B99C5D"/>
</linearGradient>
<clipPath id="clip0">
<rect width="64" height="64" fill="white"/>
</clipPath>
</defs>
</svg>
