<svg width="64" height="64" viewBox="0 0 64 64" fill="none" xmlns="http://www.w3.org/2000/svg">
<g clip-path="url(#clip0)">
<path d="M18.9561 14.7819C18.985 14.4712 19.0475 14.1665 19.1431 13.8702C19.4338 13.466 19.6704 13.0205 19.8424 12.5442C20.656 11.4965 21.92 10.875 23.25 10.875H26.75C27.3329 10.875 27.8976 10.9889 28.4286 11.2134C28.9058 11.4155 29.4556 11.1919 29.6572 10.7151C29.8589 10.2384 29.6359 9.68825 29.159 9.48662C29.0344 9.43388 28.9085 9.3855 28.7814 9.34125C29.8021 8.35225 30.4375 6.96775 30.4375 5.4375C30.4375 2.43925 27.9982 0 25 0C22.0018 0 19.5625 2.43925 19.5625 5.4375C19.5625 6.96912 20.1991 8.35475 21.2215 9.344C20.8309 9.48 20.4546 9.65462 20.0991 9.86487C19.6951 7.26275 17.4395 5.26487 14.7261 5.26487C11.7279 5.26487 9.28862 7.70413 9.28862 10.7024C9.28862 12.2329 9.92425 13.6176 10.9454 14.6066C10.6998 14.6919 10.4594 14.7927 10.2257 14.9087C9.52987 14.5846 8.7545 14.4035 7.93762 14.4035C4.93937 14.4035 2.50012 16.8428 2.50012 19.841C2.50012 21.3717 3.136 22.7566 4.15725 23.7458C1.73962 24.588 0 26.8901 0 29.5911V33.8411C0 36.0122 1.76638 37.7786 3.9375 37.7786H6.46037C6.97812 37.7786 7.39787 37.359 7.39787 36.8411C7.39787 36.3232 6.97812 35.9036 6.46037 35.9036H3.9375C2.80025 35.9036 1.875 34.9784 1.875 33.8411V29.5911C1.875 27.2133 3.80962 25.2786 6.1875 25.2786H9.6875C12.0654 25.2786 14 27.2133 14 29.5911V33.8411C14 34.9784 13.0747 35.9036 11.9375 35.9036H10.5069C9.98913 35.9036 9.56938 36.3232 9.56938 36.8411C9.56938 37.359 9.98913 37.7786 10.5069 37.7786H11.9375C14.1086 37.7786 15.875 36.0122 15.875 33.8411V29.5911C15.875 29.2677 15.85 28.9501 15.802 28.6401H18.7262C20.8974 28.6401 22.6637 26.8738 22.6637 24.7026V23.375H29C31.1711 23.375 32.9375 21.6086 32.9375 19.4375V15.1875C32.9375 14.3645 32.7784 13.5648 32.4644 12.8104C32.2654 12.3323 31.7166 12.1059 31.2385 12.3051C30.7605 12.5041 30.5343 13.0529 30.7332 13.5309C30.9517 14.0556 31.0625 14.613 31.0625 15.1875V19.4375C31.0625 20.5747 30.1372 21.5 29 21.5H22.6637V20.4525C22.6289 19.8324 22.4636 18.3923 21.4589 16.9513C20.5863 15.6997 19.5081 15.061 18.9561 14.7819ZM25 1.875C26.9644 1.875 28.5625 3.47312 28.5625 5.4375C28.5625 7.40188 26.9644 9 25 9C23.0356 9 21.4375 7.40188 21.4375 5.4375C21.4375 3.47312 23.0356 1.875 25 1.875ZM14.726 7.13987C16.6904 7.13987 18.2885 8.738 18.2885 10.7024C18.2885 11.041 18.241 11.3689 18.1523 11.6795C17.8752 12.0805 17.6475 12.513 17.4739 12.9672C16.8199 13.7592 15.8309 14.2649 14.726 14.2649C12.7616 14.2649 11.1635 12.6667 11.1635 10.7024C11.1635 8.738 12.7616 7.13987 14.726 7.13987ZM7.9375 16.2786C9.90187 16.2786 11.5 17.8768 11.5 19.8411C11.5 21.8055 9.90187 23.4036 7.9375 23.4036C5.97312 23.4036 4.375 21.8054 4.375 19.8411C4.375 17.8769 5.97312 16.2786 7.9375 16.2786ZM20.7887 24.7025C20.7887 25.8397 19.8635 26.765 18.7262 26.765H15.191C14.468 25.3627 13.2246 24.2706 11.7177 23.7458C12.7391 22.7566 13.3749 21.3717 13.3749 19.841C13.3749 18.4649 12.861 17.2065 12.015 16.2477C12.3284 16.1764 12.6506 16.14 12.9761 16.14H16.4761C16.9025 16.14 17.3236 16.2021 17.7279 16.3248C19.5586 16.8798 20.7886 18.5386 20.7886 20.4525L20.7887 24.7025Z" fill="url(#paint0_linear)"/>
<path d="M46.6875 33.125C39.2091 33.125 33.125 39.2091 33.125 46.6875C33.125 54.1659 39.2091 60.25 46.6875 60.25C54.1659 60.25 60.25 54.1659 60.25 46.6875C60.25 39.2091 54.1659 33.125 46.6875 33.125ZM46.6875 58.375C40.243 58.375 35 53.132 35 46.6875C35 40.243 40.243 35 46.6875 35C53.132 35 58.375 40.243 58.375 46.6875C58.375 53.132 53.132 58.375 46.6875 58.375Z" fill="url(#paint1_linear)"/>
<path d="M60.7159 36.5401C60.4121 36.1209 59.8259 36.0271 59.4066 36.331C58.9874 36.6349 58.8936 37.2209 59.1975 37.6403C61.1126 40.2835 62.125 43.412 62.125 46.6875C62.125 55.1999 55.1997 62.125 46.6875 62.125C38.1753 62.125 31.25 55.1999 31.25 46.6875C31.25 38.1751 38.1753 31.25 46.6875 31.25C50.3249 31.25 53.857 32.5392 56.6331 34.8802C57.029 35.2141 57.6204 35.1636 57.9541 34.768C58.2879 34.3721 58.2376 33.7807 57.8419 33.447C54.728 30.821 50.7666 29.375 46.6875 29.375C37.1414 29.375 29.375 37.1414 29.375 46.6875C29.375 56.2336 37.1414 64 46.6875 64C56.2336 64 64 56.2336 64 46.6875C64 43.0142 62.8644 39.5054 60.7159 36.5401Z" fill="url(#paint2_linear)"/>
<path d="M47.8561 40.6303V39.3197C47.8561 38.8018 47.4363 38.3822 46.9186 38.3822C46.4008 38.3822 45.9811 38.8018 45.9811 39.3197V40.6303C44.5213 40.8628 43.4021 42.1305 43.4021 43.6547V44.5627C43.4021 46.2515 44.776 47.6252 46.4646 47.6252H48.2168C48.4061 47.6252 48.5601 47.7791 48.5601 47.9683V49.7207C48.5601 50.3755 48.0273 50.9082 47.3726 50.9082H46.4646C45.8098 50.9082 45.2771 50.3755 45.2771 49.7207V49.2667C45.2771 48.7488 44.8573 48.3292 44.3396 48.3292C43.8218 48.3292 43.4021 48.7488 43.4021 49.2667V49.7207C43.4021 51.245 44.5213 52.5125 45.9811 52.7451V54.0557C45.9811 54.5736 46.4008 54.9932 46.9186 54.9932C47.4363 54.9932 47.8561 54.5736 47.8561 54.0557V52.7451C49.3158 52.5126 50.4351 51.245 50.4351 49.7207V47.9683C50.4351 46.7452 49.4401 45.7502 48.2168 45.7502H46.4646C45.8098 45.7502 45.2771 45.2175 45.2771 44.5627V43.6547C45.2771 43 45.8098 42.4672 46.4646 42.4672H47.3726C48.0273 42.4672 48.5601 43 48.5601 43.6547V44.1087C48.5601 44.6266 48.9798 45.0462 49.4976 45.0462C50.0153 45.0462 50.4351 44.6266 50.4351 44.1087V43.6547C50.4351 42.1303 49.3158 40.8628 47.8561 40.6303Z" fill="url(#paint3_linear)"/>
<path d="M41.3617 10.9149C46.5896 10.9149 50.9261 14.8038 51.6304 19.8407L50.9111 19.3093C50.4946 19.0014 49.9077 19.0897 49.5999 19.5063C49.2923 19.9228 49.3806 20.5097 49.7971 20.8173L52.1111 22.5265C52.2733 22.6465 52.4688 22.71 52.6681 22.71C52.7168 22.71 52.7657 22.7063 52.8144 22.6985C53.0624 22.6594 53.2843 22.5223 53.4304 22.318L55.2028 19.8414C55.5042 19.4204 55.4071 18.8348 54.9861 18.5334C54.5649 18.2322 53.9794 18.3292 53.6781 18.7503L53.4141 19.1192C52.3892 13.3967 47.3747 9.03979 41.3618 9.03979C40.8441 9.03979 40.4243 9.45942 40.4243 9.97729C40.4243 10.4952 40.8438 10.9149 41.3617 10.9149Z" fill="url(#paint4_linear)"/>
<path d="M19.6685 51.5031C19.3606 51.0865 18.7736 50.9984 18.3574 51.3061C17.9409 51.6137 17.8526 52.2006 18.1602 52.6171L18.6916 53.3365C13.6547 52.6321 9.76587 48.2956 9.76587 43.0679C9.76587 42.55 9.34612 42.1304 8.82837 42.1304C8.31062 42.1304 7.89087 42.55 7.89087 43.0679C7.89087 49.0807 12.2476 54.0951 17.9701 55.12L17.6012 55.384C17.1802 55.6854 17.0831 56.271 17.3845 56.692C17.5675 56.9479 17.8555 57.0841 18.1476 57.0841C18.3365 57.0841 18.5271 57.0271 18.6924 56.909L21.1691 55.1366C21.3732 54.9905 21.5104 54.7686 21.5495 54.5205C21.5886 54.2724 21.5267 54.019 21.3776 53.8171L19.6685 51.5031Z" fill="url(#paint5_linear)"/>
</g>
<defs>
<linearGradient id="paint0_linear" x1="16.4688" y1="0" x2="16.4688" y2="37.7786" gradientUnits="userSpaceOnUse">
<stop stop-color="#FFE5AC"/>
<stop offset="0.0001" stop-color="#FFE5AC"/>
<stop offset="1" stop-color="#B99C5D"/>
</linearGradient>
<linearGradient id="paint1_linear" x1="46.6875" y1="33.125" x2="46.6875" y2="60.25" gradientUnits="userSpaceOnUse">
<stop stop-color="#FFE5AC"/>
<stop offset="0.0001" stop-color="#FFE5AC"/>
<stop offset="1" stop-color="#B99C5D"/>
</linearGradient>
<linearGradient id="paint2_linear" x1="46.6875" y1="29.375" x2="46.6875" y2="64" gradientUnits="userSpaceOnUse">
<stop stop-color="#FFE5AC"/>
<stop offset="0.0001" stop-color="#FFE5AC"/>
<stop offset="1" stop-color="#B99C5D"/>
</linearGradient>
<linearGradient id="paint3_linear" x1="46.9186" y1="38.3822" x2="46.9186" y2="54.9932" gradientUnits="userSpaceOnUse">
<stop stop-color="#FFE5AC"/>
<stop offset="0.0001" stop-color="#FFE5AC"/>
<stop offset="1" stop-color="#B99C5D"/>
</linearGradient>
<linearGradient id="paint4_linear" x1="47.9012" y1="9.03979" x2="47.9012" y2="22.71" gradientUnits="userSpaceOnUse">
<stop stop-color="#FFE5AC"/>
<stop offset="0.0001" stop-color="#FFE5AC"/>
<stop offset="1" stop-color="#B99C5D"/>
</linearGradient>
<linearGradient id="paint5_linear" x1="14.7259" y1="42.1304" x2="14.7259" y2="57.0841" gradientUnits="userSpaceOnUse">
<stop stop-color="#FFE5AC"/>
<stop offset="0.0001" stop-color="#FFE5AC"/>
<stop offset="1" stop-color="#B99C5D"/>
</linearGradient>
<clipPath id="clip0">
<rect width="64" height="64" fill="white"/>
</clipPath>
</defs>
</svg>
