<svg width="64" height="64" viewBox="0 0 64 64" fill="none" xmlns="http://www.w3.org/2000/svg">
<g clip-path="url(#clip0)">
<path d="M50.8969 25.2419H50.807C49.5795 25.235 48.3935 25.6861 47.4804 26.5067C46.7413 24.4612 44.863 22.9909 42.663 22.9909C41.3147 23.0003 40.0267 23.5539 39.0926 24.5269C38.2336 22.788 36.5104 21.6083 34.5291 21.6083H34.4334C33.3716 21.592 32.3354 21.9374 31.4954 22.5872V10.1899C31.4954 7.19404 29.1629 4.75696 26.3258 4.75696C23.4918 4.75696 21.1715 7.19246 21.1699 10.1862L21.1462 34.7831L19.7542 33.0924C18.5336 31.5727 16.7368 30.6291 14.7928 30.4866C12.8888 30.3563 11.0157 31.0186 9.61742 32.3181L8.40624 33.3216C8.01566 33.6455 7.90421 34.1974 8.13814 34.6474L19.914 57.2829C22.0672 61.4195 26.1639 64.0001 30.6054 64.0001H43.8763V63.9886C50.6051 63.9886 56.0607 58.1498 56.0675 50.9805C56.0701 47.7727 56.058 45.3819 56.0601 43.4442C56.067 38.2599 56.0617 36.347 56.0486 30.6354C56.0417 27.6463 53.7261 25.2419 50.8969 25.2419ZM53.8912 43.4369C53.8891 45.3751 53.8859 47.7754 53.8827 50.9831C53.877 56.967 49.3598 61.8464 43.8132 61.8464H30.6059C26.9703 61.8464 23.6054 59.7095 21.8249 56.2883L10.4496 34.4298L11.011 33.9614C11.0252 33.9498 11.0389 33.9362 11.0525 33.9241C12.0182 33.0152 13.3177 32.5484 14.6409 32.6351C15.9935 32.7387 17.2414 33.4 18.0873 34.4603L21.3828 38.4702C21.6709 38.8219 22.1492 38.9538 22.5771 38.8009C23.005 38.6479 23.291 38.2421 23.291 37.7879L23.3105 10.1873C23.3115 8.37998 24.6783 6.90964 26.3269 6.90964C27.9754 6.90964 29.3422 8.38156 29.3422 10.1899V26.8315C29.3422 26.8894 29.3396 26.9477 29.3396 27.0066C29.3396 27.0318 29.3422 27.0576 29.3422 27.0823V34.1974C29.3422 34.792 29.8242 35.274 30.4188 35.274C31.0133 35.274 31.4954 34.792 31.4954 34.1974V26.8678C31.4954 25.1241 32.8275 23.7615 34.4334 23.7615H34.5291C36.1787 23.7615 37.5513 25.1993 37.5513 27.0076V33.5183C37.5513 34.1128 38.0333 34.5949 38.6279 34.5949C39.2224 34.5949 39.7045 34.1128 39.7045 33.5183V28.4102C39.7045 26.6013 41.0113 25.1299 42.6699 25.1299C44.319 25.1299 45.6258 26.6008 45.6258 28.4102V33.2291C45.6258 33.8237 46.1079 34.3057 46.7024 34.3057C47.297 34.3057 47.779 33.8237 47.779 33.2291V30.6196C47.779 28.8107 49.1574 27.3951 50.807 27.3951H50.8969C52.5423 27.3951 53.8833 28.8349 53.8875 30.638C53.9006 36.3454 53.898 38.2563 53.8912 43.4369Z" fill="url(#paint0_linear)"/>
<path d="M17.7497 10.6546C18.3442 10.6546 18.8263 10.1725 18.8263 9.57799C18.8437 5.46976 22.1791 2.149 26.2868 2.149C30.3951 2.149 33.73 5.46976 33.7474 9.57799C33.7474 10.1725 34.2294 10.6546 34.824 10.6546C35.4185 10.6546 35.9006 10.1725 35.9006 9.57799C35.8806 4.28223 31.5826 0 26.2868 0C20.9916 0 16.6931 4.28223 16.6731 9.57799C16.6731 10.1725 17.1551 10.6546 17.7497 10.6546Z" fill="url(#paint1_linear)"/>
</g>
<defs>
<linearGradient id="paint0_linear" x1="32.0422" y1="4.75696" x2="32.0422" y2="64.0001" gradientUnits="userSpaceOnUse">
<stop stop-color="#FFE5AC"/>
<stop offset="0.0001" stop-color="#FFE5AC"/>
<stop offset="1" stop-color="#B99C5D"/>
</linearGradient>
<linearGradient id="paint1_linear" x1="26.2868" y1="0" x2="26.2868" y2="10.6546" gradientUnits="userSpaceOnUse">
<stop stop-color="#FFE5AC"/>
<stop offset="0.0001" stop-color="#FFE5AC"/>
<stop offset="1" stop-color="#B99C5D"/>
</linearGradient>
<clipPath id="clip0">
<rect width="64" height="64" fill="white"/>
</clipPath>
</defs>
</svg>
