<svg width="81" height="81" viewBox="0 0 81 81" fill="none" xmlns="http://www.w3.org/2000/svg">
<g clip-path="url(#clip0)">
<path d="M43.8603 25.783L44.3603 25.783L44.3603 25.283L44.3603 6.79761C44.3603 6.31952 44.6492 5.88643 45.0953 5.70034C45.5385 5.51552 46.0483 5.61703 46.3883 5.95687L46.7418 5.60326L46.3883 5.95688L80.1521 39.7072C80.1523 39.7075 80.1526 39.7077 80.1528 39.7079C80.3747 39.9325 80.5002 40.2348 80.5002 40.5499C80.5002 40.865 80.3747 41.1667 80.1506 41.3907L46.3855 75.0445L46.3849 75.0451C46.0469 75.3831 45.5373 75.4842 45.0916 75.3013C44.6492 75.1151 44.3605 74.6823 44.3605 74.2043L44.3605 55.648L44.3605 55.148L43.8605 55.148L1.68699 55.148C1.03194 55.148 0.499999 54.6161 0.499999 53.961L0.499998 26.97C0.499998 26.3149 1.03194 25.783 1.68699 25.783L43.8603 25.783Z" stroke="#191919"/>
</g>
<defs>
<clipPath id="clip0">
<rect y="81" width="81" height="81" transform="rotate(-90 0 81)" fill="white"/>
</clipPath>
</defs>
</svg>
