<svg width="500" height="237" fill="none" xmlns="http://www.w3.org/2000/svg"><mask id="a" fill="#fff"><path d="M489.652 139.685c-4.814 20.579-23.679 39.453-54.207 54.235-30.528 14.782-71.35 24.809-117.302 28.812-45.952 4.003-94.971 1.802-140.858-6.323s-86.581-21.811-116.937-39.326l.952-.297c30.202 17.426 70.69 31.043 116.345 39.127 45.654 8.084 94.425 10.273 140.144 6.291 45.719-3.983 86.334-13.959 116.708-28.666 30.373-14.707 49.142-33.486 53.932-53.96l1.223.107z"/></mask><path d="M489.652 139.685c-4.814 20.579-23.679 39.453-54.207 54.235-30.528 14.782-71.35 24.809-117.302 28.812-45.952 4.003-94.971 1.802-140.858-6.323s-86.581-21.811-116.937-39.326l.952-.297c30.202 17.426 70.69 31.043 116.345 39.127 45.654 8.084 94.425 10.273 140.144 6.291 45.719-3.983 86.334-13.959 116.708-28.666 30.373-14.707 49.142-33.486 53.932-53.96l1.223.107z" stroke="#7887A6" stroke-width="2" stroke-dasharray="3 5" mask="url(#a)"/><path d="M490.24 136.308l5.245 18.317-6.119-14.353L477 150.008l13.24-13.7z" fill="#7887A6"/></svg>