<svg width="65" height="65" viewBox="0 0 65 65" fill="none" xmlns="http://www.w3.org/2000/svg">
<g clip-path="url(#clip0)">
<path d="M64.9995 53.5423V45.335C64.9995 44.8349 64.594 44.4292 64.0938 44.4292H56.7908V33.3466C56.7908 32.8465 56.3852 32.4411 55.8851 32.4411H33.4043V23.3078H43.4438C43.9439 23.3078 44.3494 22.9024 44.3494 22.4023V11.4576C44.3494 10.9574 43.9439 10.5518 43.4438 10.5518H21.5548C21.0546 10.5518 20.6491 10.9574 20.6491 11.4576V22.4023C20.6491 22.9024 21.0546 23.3078 21.5548 23.3078H31.5929V32.4411H9.11261C8.6123 32.4411 8.20694 32.8465 8.20694 33.3466V44.4292H0.905176C0.405028 44.4292 -0.000488281 44.8349 -0.000488281 45.335V53.5423C-0.000488281 54.0424 0.405028 54.4481 0.905176 54.4481H17.3212C17.8213 54.4481 18.2269 54.0424 18.2269 53.5423V45.335C18.2269 44.8349 17.8213 44.4292 17.3212 44.4292H10.0181V34.2524H31.5928V44.4292H24.2903C23.79 44.4292 23.3847 44.8349 23.3847 45.335V53.5423C23.3847 54.0424 23.79 54.4481 24.2903 54.4481H40.707C41.2073 54.4481 41.6127 54.0424 41.6127 53.5423V45.335C41.6127 44.8349 41.2073 44.4292 40.707 44.4292H33.4041V34.2524H54.9794V44.4292H47.677C47.1767 44.4292 46.7713 44.8349 46.7713 45.335V53.5423C46.7713 54.0424 47.1767 54.4481 47.677 54.4481H64.0937C64.594 54.4481 64.9995 54.0424 64.9995 53.5423ZM22.4604 21.4964V12.3631H42.5381V21.4964H32.4986H22.4604ZM16.4157 46.2405V52.6368H1.81084V46.2405H9.11261H16.4157ZM39.8015 46.2405V52.6368H25.1962V46.2405H32.4986H39.8015ZM63.1882 52.6368H48.5827V46.2405H55.8851H63.1882V52.6368Z" fill="#191919"/>
</g>
<defs>
<clipPath id="clip0">
<rect x="-0.000488281" width="65" height="65" fill="white"/>
</clipPath>
</defs>
</svg>
