<svg width="18" height="16" viewBox="0 0 18 16" fill="none" xmlns="http://www.w3.org/2000/svg">
<path d="M0.00379653 11.4904C0.00379653 13.8569 1.92212 15.7752 4.2886 15.7752C6.65511 15.7752 8.57343 13.8569 8.57343 11.4904C8.57343 9.12385 6.65511 7.20556 4.2886 7.20556C3.80225 7.20556 3.3367 7.29035 2.90087 7.43975C3.86514 1.90945 8.17771 -1.65697 4.17997 1.27826C-0.252929 4.53311 -0.000951095 11.3594 0.00400911 11.4845C0.00400911 11.4865 0.00379653 11.4882 0.00379653 11.4904Z" fill="#D6B56E"/>
<path d="M9.43032 11.4904C9.43032 13.8569 11.3486 15.7752 13.7152 15.7752C16.0817 15.7752 18 13.8569 18 11.4904C18 9.12385 16.0816 7.20556 13.7151 7.20556C13.2287 7.20556 12.7632 7.29035 12.3274 7.43975C13.2917 1.90945 17.6042 -1.65697 13.6065 1.27826C9.17359 4.53311 9.42554 11.3594 9.43053 11.4845C9.43053 11.4865 9.43032 11.4882 9.43032 11.4904Z" fill="#D6B56E"/>
</svg>
