<svg width="18" height="16" viewBox="0 0 18 16" fill="none" xmlns="http://www.w3.org/2000/svg">
<path d="M17.9962 4.50964C17.9962 2.14313 16.0779 0.224808 13.7114 0.224807C11.3449 0.224807 9.42656 2.14313 9.42656 4.50964C9.42656 6.87615 11.3449 8.79444 13.7114 8.79444C14.1977 8.79444 14.6633 8.70965 15.0991 8.56025C14.1348 14.0906 9.82227 17.657 13.82 14.7217C18.2529 11.4669 18.0009 4.64059 17.996 4.51549C17.996 4.51354 17.9962 4.5118 17.9962 4.50964Z" fill="#D6B56E"/>
<path d="M8.56967 4.50964C8.56967 2.14313 6.65134 0.224804 4.28483 0.224804C1.91832 0.224803 -7.156e-07 2.14313 -9.22487e-07 4.50964C-1.12937e-06 6.87615 1.91836 8.79444 4.28487 8.79444C4.77125 8.79444 5.23677 8.70965 5.67259 8.56024C4.70833 14.0905 0.395751 17.657 4.3935 14.7217C8.82639 11.4669 8.57445 4.64059 8.56945 4.51548C8.56945 4.51354 8.56967 4.5118 8.56967 4.50964Z" fill="#D6B56E"/>
</svg>
