<svg width="65" height="65" viewBox="0 0 65 65" fill="none" xmlns="http://www.w3.org/2000/svg">
<path d="M57.8916 2.03125H7.11035C5.76404 2.03286 4.47334 2.5684 3.52136 3.52038C2.56937 4.47236 2.03384 5.76307 2.03223 7.10938V45.7031C2.03384 47.0494 2.56937 48.3401 3.52136 49.2921C4.47334 50.2441 5.76404 50.7796 7.11035 50.7812H23.9261L21.6409 56.875H19.2979C18.4898 56.875 17.7148 57.196 17.1434 57.7674C16.572 58.3388 16.251 59.1138 16.251 59.9219V61.9531C16.251 62.2225 16.358 62.4808 16.5484 62.6713C16.7389 62.8617 16.9972 62.9688 17.2666 62.9688H47.7354C48.0047 62.9688 48.263 62.8617 48.4535 62.6713C48.644 62.4808 48.751 62.2225 48.751 61.9531V59.9219C48.751 59.1138 48.43 58.3388 47.8586 57.7674C47.2872 57.196 46.5122 56.875 45.7041 56.875H43.3611L41.0759 50.7812H57.8916C59.2379 50.7796 60.5286 50.2441 61.4806 49.2921C62.4326 48.3401 62.9681 47.0494 62.9697 45.7031V7.10938C62.9681 5.76307 62.4326 4.47236 61.4806 3.52038C60.5286 2.5684 59.2379 2.03286 57.8916 2.03125ZM7.11035 4.0625H57.8916C58.6997 4.0625 59.4747 4.38351 60.0461 4.95491C60.6175 5.52631 60.9385 6.30129 60.9385 7.10938V38.5938H4.06348V7.10938C4.06348 6.30129 4.38449 5.52631 4.95589 4.95491C5.52729 4.38351 6.30227 4.0625 7.11035 4.0625ZM46.7197 59.9219V60.9375H18.2822V59.9219C18.2822 59.6525 18.3892 59.3942 18.5797 59.2037C18.7702 59.0133 19.0285 58.9062 19.2979 58.9062H45.7041C45.9735 58.9062 46.2318 59.0133 46.4223 59.2037C46.6127 59.3942 46.7197 59.6525 46.7197 59.9219ZM41.1917 56.875H23.8103L26.0954 50.7812H38.9065L41.1917 56.875ZM57.8916 48.75H7.11035C6.30227 48.75 5.52729 48.429 4.95589 47.8576C4.38449 47.2862 4.06348 46.5112 4.06348 45.7031V40.625H60.9385V45.7031C60.9385 46.5112 60.6175 47.2862 60.0461 47.8576C59.4747 48.429 58.6997 48.75 57.8916 48.75Z" fill="#191919"/>
<path d="M32.501 41.6406C31.8984 41.6406 31.3093 41.8193 30.8082 42.1541C30.3072 42.4889 29.9166 42.9648 29.686 43.5215C29.4554 44.0783 29.3951 44.6909 29.5126 45.2819C29.6302 45.873 29.9204 46.4159 30.3465 46.842C30.7726 47.2681 31.3155 47.5583 31.9065 47.6758C32.4976 47.7934 33.1102 47.7331 33.667 47.5024C34.2237 47.2718 34.6996 46.8813 35.0344 46.3803C35.3691 45.8792 35.5478 45.2901 35.5478 44.6875C35.5478 43.8794 35.2268 43.1044 34.6554 42.533C34.084 41.9616 33.309 41.6406 32.501 41.6406ZM32.501 45.7031C32.3001 45.7031 32.1037 45.6436 31.9367 45.532C31.7697 45.4204 31.6395 45.2617 31.5626 45.0762C31.4858 44.8906 31.4657 44.6864 31.5049 44.4894C31.544 44.2923 31.6408 44.1114 31.7828 43.9693C31.9248 43.8273 32.1058 43.7306 32.3028 43.6914C32.4998 43.6522 32.704 43.6723 32.8896 43.7492C33.0752 43.8261 33.2338 43.9562 33.3454 44.1233C33.457 44.2903 33.5166 44.4866 33.5166 44.6875C33.5166 44.9569 33.4096 45.2152 33.2191 45.4057C33.0287 45.5961 32.7703 45.7031 32.501 45.7031Z" fill="#191919"/>
</svg>
