<svg width="60" height="60" viewBox="0 0 60 60" fill="none" xmlns="http://www.w3.org/2000/svg">
<g clip-path="url(#clip0)">
<path d="M46.5701 13.5133C46.2515 12.9614 45.6578 12.6187 45.0205 12.6187H14.5553C13.918 12.6187 13.3243 12.9614 13.0058 13.5133L10.8317 17.2788C10.5886 17.6998 10.7329 18.238 11.1538 18.4811C11.5746 18.7241 12.113 18.5799 12.356 18.1589L14.0304 15.2589L20.3848 26.2649H7.67603L10.3627 21.6114C10.6057 21.1904 10.4615 20.6521 10.0405 20.4092C9.61958 20.1659 9.08122 20.3104 8.83829 20.7313L5.58681 26.3631C5.27825 26.8974 5.34716 27.5656 5.75802 28.0259L28.7008 53.7219C28.9708 54.0244 29.3582 54.198 29.7638 54.1982H29.7645C30.1697 54.1982 30.557 54.025 30.8272 53.723L53.8166 28.0266C54.2284 27.5663 54.2975 26.8977 53.9888 26.3628L46.5701 13.5133ZM31.6446 26.265H23.4334L29.7878 15.2589L36.1422 26.265H36.0659C35.5798 26.265 35.1858 26.6591 35.1858 27.1451C35.1858 27.6312 35.5799 28.0252 36.0659 28.0252H36.4896L29.7665 50.8437L23.084 28.0253H31.6446C32.1307 28.0253 32.5247 27.6312 32.5247 27.1452C32.5248 26.6591 32.1307 26.265 31.6446 26.265ZM37.6666 25.3849L31.3123 14.3788H44.021L37.6666 25.3849ZM38.3249 28.0253H51.4559L31.8769 49.9097L38.3249 28.0253ZM51.8998 26.265H39.191L45.5454 15.259L51.8998 26.265ZM15.5548 14.3788H28.2635L21.9091 25.3848L15.5548 14.3788ZM21.2497 28.0253L27.6598 49.9131L8.11724 28.0253H21.2497Z" fill="url(#paint0_linear)"/>
<path d="M51.0877 50.9177C51.0458 50.8898 51.0016 50.8655 50.9556 50.8451C50.3968 50.598 49.8816 50.3061 49.4241 49.9778C49.0293 49.6945 48.4793 49.7848 48.1958 50.1797C47.9125 50.5746 48.0028 51.1245 48.3977 51.408C48.6661 51.6006 48.9498 51.7824 49.2469 51.9522C47.3461 53.0368 46.0278 54.5905 45.3823 56.5116C44.7367 54.5909 43.4187 53.0372 41.5184 51.9527C43.4189 50.8681 44.7369 49.3143 45.3824 47.3934C45.3913 47.4198 45.4004 47.4462 45.4094 47.4726C45.5693 47.9316 46.0709 48.1741 46.5301 48.0143C46.9891 47.8545 47.2316 47.3528 47.0719 46.8937C47.005 46.7018 46.9462 46.5025 46.8969 46.3014L46.531 44.8068C46.4011 44.2761 45.9287 43.9054 45.3823 43.9054C44.8358 43.9054 44.3634 44.2761 44.2334 44.8069L43.8676 46.3014C43.2441 48.8487 41.3162 50.1783 39.8088 50.8452C39.7628 50.8656 39.7186 50.8899 39.6766 50.9179C39.3298 51.1491 39.1228 51.5359 39.1228 51.9528C39.1228 52.3696 39.3299 52.7564 39.6766 52.9877C39.7185 53.0157 39.7626 53.0398 39.8088 53.0603C41.3162 53.7271 43.2439 55.0568 43.8676 57.6041L44.2335 59.0987C44.3634 59.6295 44.8358 60.0001 45.3823 60.0001C45.9287 60.0001 46.4011 59.6295 46.531 59.0986L46.8969 57.6041C47.5205 55.0568 49.4483 53.7272 50.9557 53.0603C51.0016 53.0399 51.0458 53.0157 51.0878 52.9878C51.4346 52.7567 51.6417 52.3697 51.6417 51.9528C51.6417 51.5358 51.4345 51.1489 51.0877 50.9177Z" fill="url(#paint1_linear)"/>
<path d="M55.2615 12.1472C55.2196 12.1192 55.1754 12.095 55.1292 12.0746C54.1541 11.6432 53.5488 10.9718 53.3303 10.0791L53.1459 9.3256V9.32548C53.0324 8.86212 52.6199 8.53845 52.1429 8.53845C52.1429 8.53845 52.1428 8.53845 52.1427 8.53845C51.6656 8.53857 51.2532 8.86236 51.1399 9.3256L50.9555 10.0791C50.7369 10.9718 50.1316 11.6432 49.1565 12.0746C49.1105 12.095 49.0662 12.1192 49.0242 12.1472C48.7277 12.3449 48.5507 12.6759 48.5508 13.0322C48.5508 13.3886 48.728 13.7194 49.0246 13.917C49.0664 13.9449 49.1105 13.9692 49.1565 13.9895C50.1318 14.4209 50.7369 15.0923 50.9555 15.9851L51.1399 16.7384C51.2534 17.2019 51.6657 17.5256 52.1428 17.5257H52.143C52.6201 17.5257 53.0325 17.2021 53.1461 16.7385L53.3305 15.9851C53.5491 15.0924 54.1543 14.421 55.1294 13.9897C55.1754 13.9693 55.2196 13.9451 55.2614 13.9171C55.558 13.7195 55.7351 13.3887 55.7352 13.0324C55.7351 12.6758 55.558 12.3449 55.2615 12.1472ZM52.1428 14.2981C51.8491 13.8149 51.4621 13.3904 50.9884 13.0321C51.4622 12.6739 51.8493 12.2493 52.1429 11.7661C52.4366 12.2493 52.8237 12.6739 53.2973 13.0321C52.8235 13.3904 52.4365 13.8148 52.1428 14.2981Z" fill="url(#paint2_linear)"/>
<path d="M7.69861 10.1955L7.96287 11.2748C8.08357 11.7679 8.52244 12.1123 9.02998 12.1123C9.53763 12.1123 9.9765 11.7679 10.0971 11.2748L10.3613 10.1955C10.7881 8.4525 12.1155 7.53902 13.154 7.07953C13.2001 7.05914 13.2443 7.03488 13.2861 7.00688C13.6047 6.79453 13.7949 6.4391 13.7949 6.05625C13.7949 5.67328 13.6049 5.31785 13.2862 5.10539C13.2443 5.07738 13.2001 5.05312 13.1539 5.03273C12.1155 4.57336 10.7881 3.65988 10.3613 1.91684L10.0971 0.837539C9.97638 0.344414 9.53751 0 9.02986 0C8.52232 0 8.08345 0.344414 7.96275 0.837422L7.69849 1.91672C7.27193 3.65977 5.94443 4.57324 4.90603 5.03262C4.85998 5.05301 4.81568 5.07727 4.77384 5.10527C4.45509 5.31785 4.26501 5.67328 4.26501 6.05625C4.26501 6.43922 4.45533 6.79465 4.77396 7.00699C4.8158 7.03488 4.85998 7.05914 4.90591 7.07953C5.94443 7.53891 7.27193 8.4525 7.69861 10.1955ZM9.02986 3.42926C9.5149 4.49098 10.2983 5.37855 11.3489 6.05613C10.2984 6.73371 9.5149 7.62141 9.02986 8.68313C8.54482 7.62141 7.7613 6.73383 6.71083 6.05613C7.7613 5.37855 8.54482 4.49086 9.02986 3.42926Z" fill="url(#paint3_linear)"/>
</g>
<defs>
<linearGradient id="paint0_linear" x1="29.7878" y1="12.6187" x2="29.7878" y2="54.1982" gradientUnits="userSpaceOnUse">
<stop stop-color="#373737"/>
<stop offset="1" stop-color="#181818"/>
</linearGradient>
<linearGradient id="paint1_linear" x1="45.3823" y1="43.9054" x2="45.3823" y2="60.0001" gradientUnits="userSpaceOnUse">
<stop stop-color="#373737"/>
<stop offset="1" stop-color="#181818"/>
</linearGradient>
<linearGradient id="paint2_linear" x1="52.143" y1="8.53845" x2="52.143" y2="17.5257" gradientUnits="userSpaceOnUse">
<stop stop-color="#373737"/>
<stop offset="1" stop-color="#181818"/>
</linearGradient>
<linearGradient id="paint3_linear" x1="9.02998" y1="0" x2="9.02998" y2="12.1123" gradientUnits="userSpaceOnUse">
<stop stop-color="#373737"/>
<stop offset="1" stop-color="#181818"/>
</linearGradient>
<clipPath id="clip0">
<rect width="60" height="60" fill="white"/>
</clipPath>
</defs>
</svg>
