<svg width="60" height="60" viewBox="0 0 60 60" fill="none" xmlns="http://www.w3.org/2000/svg">
<path d="M14.4582 30.2527C14.5606 31.401 15.5438 32.3006 16.6967 32.3006H36.5221L35.9843 38.2976C35.9684 38.3526 35.8899 38.4461 35.8386 38.4713L30.5968 39.8879C30.3579 39.9525 30.1393 40.0115 29.9747 40.0557C29.8104 40.0115 29.5918 39.9526 29.3532 39.8881L24.1206 38.4752C24.0694 38.4501 23.9912 38.3571 23.9755 38.3023L23.6934 35.1416C23.5906 33.9935 22.6073 33.0942 21.4547 33.0942H16.9819C16.3948 33.0942 15.8348 33.3385 15.4451 33.7644C15.0556 34.1903 14.862 34.7697 14.9141 35.3544L15.6354 43.4494C15.726 44.4662 16.5361 45.4385 17.5195 45.7112L28.7241 48.8203C29.5639 49.0532 29.823 49.1252 30.0036 49.1252C30.0841 49.1252 30.1491 49.1109 30.2432 49.0901C30.2807 49.0817 30.2909 49.0795 31.247 48.8146L42.4398 45.711C43.2984 45.4728 44.2022 44.8112 44.2859 43.8703L45.9091 25.6914C45.9596 25.1335 45.7756 24.58 45.4039 24.1729C45.0323 23.7663 44.4984 23.533 43.9388 23.533H22.6573L22.2869 19.3935H45.3674C45.9853 19.3935 46.5013 18.9226 46.5576 18.3073L47.0634 12.7843C47.112 12.2368 46.9334 11.7106 46.5604 11.303C46.1677 10.874 45.5942 10.6277 44.987 10.6277C44.9869 10.6277 44.9867 10.6277 44.9866 10.6277H14.976C14.3684 10.6277 13.7945 10.8738 13.4018 11.303C13.0291 11.7107 12.8505 12.2364 12.8991 12.7844L14.4582 30.2527ZM44.6416 13.0181L44.2765 17.003H21.9428C21.3558 17.003 20.7959 17.2473 20.4064 17.6731C20.0168 18.0991 19.8232 18.6785 19.8755 19.2636L20.288 23.8753C20.3902 25.0237 21.3737 25.9234 22.5269 25.9234H43.4886L41.9323 43.3568C41.8948 43.3754 41.8502 43.3939 41.8012 43.4074L30.6087 46.5109C30.367 46.5779 30.1446 46.6393 29.9778 46.6853C29.8273 46.6446 29.6194 46.5877 29.3634 46.5167L18.1667 43.41C18.1134 43.3839 18.0318 43.286 18.0157 43.2287L17.3259 35.4844H21.3244L21.5957 38.523C21.6865 39.5431 22.5007 40.5137 23.4893 40.7806L28.7303 42.1959C29.8132 42.4883 29.8132 42.4883 29.9752 42.4883C30.1368 42.4883 30.1368 42.4883 31.2203 42.1955L36.4704 40.7769C37.4589 40.51 38.2731 39.5397 38.3646 38.5201L38.9341 32.1713C38.9866 31.5866 38.7931 31.0067 38.4038 30.5807C38.0144 30.1548 37.4542 29.9103 36.8671 29.9103H16.8275L15.3198 13.0181H44.6416Z" fill="url(#paint0_linear)"/>
<path d="M56.0389 0.670664C55.6494 0.244453 55.0889 0 54.5017 0H5.49791C4.91103 0 4.35111 0.244219 3.96158 0.669961C3.57193 1.09582 3.37834 1.6752 3.43037 2.2602L7.89428 52.3277C7.98474 53.3443 8.79463 54.3169 9.77818 54.59L28.7198 59.8494C29.0811 59.9498 29.5244 60 29.9678 60C30.4103 60 30.853 59.95 31.2144 59.8499L50.2136 54.582C51.1974 54.3093 52.0075 53.337 52.0982 52.3205L56.5693 2.26113C56.6217 1.67637 56.4284 1.09676 56.0389 0.670664ZM49.718 52.0995C49.7016 52.1579 49.6171 52.2586 49.5749 52.2784L30.576 57.5462C30.2743 57.6298 29.6603 57.6299 29.3593 57.5461L10.4287 52.2905C10.3743 52.2666 10.2874 52.1621 10.2752 52.1159L5.84185 2.39039H54.1576L49.718 52.0995Z" fill="url(#paint1_linear)"/>
<path d="M22.351 4.06396H9.08425C8.42425 4.06396 7.88905 4.59916 7.88905 5.25916C7.88905 5.91916 8.42425 6.45436 9.08425 6.45436H22.351C23.0112 6.45436 23.5462 5.91916 23.5462 5.25916C23.5462 4.59916 23.011 4.06396 22.351 4.06396Z" fill="url(#paint2_linear)"/>
<path d="M27.2513 4.06396H26.7732C26.1132 4.06396 25.578 4.59916 25.578 5.25916C25.578 5.91916 26.1132 6.45436 26.7732 6.45436H27.2513C27.9115 6.45436 28.4465 5.91916 28.4465 5.25916C28.4465 4.59916 27.9113 4.06396 27.2513 4.06396Z" fill="url(#paint3_linear)"/>
<defs>
<linearGradient id="paint0_linear" x1="29.9812" y1="10.6277" x2="29.9812" y2="49.1252" gradientUnits="userSpaceOnUse">
<stop stop-color="#373737"/>
<stop offset="1" stop-color="#181818"/>
</linearGradient>
<linearGradient id="paint1_linear" x1="29.9999" y1="0" x2="29.9999" y2="60" gradientUnits="userSpaceOnUse">
<stop stop-color="#373737"/>
<stop offset="1" stop-color="#181818"/>
</linearGradient>
<linearGradient id="paint2_linear" x1="15.7176" y1="4.06396" x2="15.7176" y2="6.45436" gradientUnits="userSpaceOnUse">
<stop stop-color="#373737"/>
<stop offset="1" stop-color="#181818"/>
</linearGradient>
<linearGradient id="paint3_linear" x1="27.0123" y1="4.06396" x2="27.0123" y2="6.45436" gradientUnits="userSpaceOnUse">
<stop stop-color="#373737"/>
<stop offset="1" stop-color="#181818"/>
</linearGradient>
</defs>
</svg>
