<svg width="60" height="60" viewBox="0 0 60 60" fill="none" xmlns="http://www.w3.org/2000/svg">
<path d="M16.0506 37.7618C16.6109 37.4386 16.8027 36.7213 16.4795 36.161C16.1559 35.6011 15.439 35.4089 14.8787 35.7321C14.3184 36.0557 14.1261 36.773 14.4498 37.3329C14.773 37.8932 15.4903 38.0854 16.0506 37.7618Z" fill="url(#paint0_linear)"/>
<path d="M11.2483 45.85L17.1498 56.0724C18.4233 58.2806 21.288 59.0982 23.5535 57.7885C25.7951 56.493 26.5655 53.6288 25.2687 51.3853L21.7531 45.2952L24.7977 43.5374C25.358 43.2133 25.5502 42.4969 25.2266 41.9366L23.7027 39.2971C23.8844 39.2619 25.0792 39.0275 46.1487 34.8944C48.7533 34.7529 50.3139 31.9043 48.9983 29.6269L45.1036 22.8813L47.5925 19.1116C47.8369 18.7408 47.8516 18.2643 47.6295 17.8798L45.2858 13.8203C45.0638 13.4358 44.6422 13.2106 44.2004 13.2367L39.6919 13.5072L35.3683 6.01819C34.7421 4.93329 33.6201 4.2764 32.3677 4.26083C32.3526 4.26038 32.3379 4.26038 32.3228 4.26038C31.1125 4.26038 30.0139 4.86279 29.3629 5.88132L14.0544 25.383L4.10216 31.1288C0.187824 33.3879 -1.16807 38.4095 1.09969 42.3344C3.17153 45.9233 7.53951 47.335 11.2483 45.85ZM23.2394 52.5576C23.8867 53.6773 23.5036 55.1101 22.3807 55.7588C21.2541 56.4102 19.8195 56.0101 19.1795 54.9009L13.3201 44.7509L17.3796 42.4072C24.1609 54.1543 23.1305 52.3695 23.2394 52.5576ZM20.5812 43.265L19.4093 41.2353L21.439 40.0634L22.6109 42.0932L20.5812 43.265ZM43.6182 15.6193L45.2377 18.4245L43.7935 20.6117L41.002 15.7763L43.6182 15.6193ZM31.3231 7.16626C31.6376 6.65173 32.1365 6.59863 32.3389 6.60413C32.5389 6.60641 33.0374 6.66867 33.3382 7.18961L46.9685 30.7988C47.4126 31.5674 46.8729 32.5337 45.9825 32.5557C45.8227 32.5593 45.749 32.5882 45.3398 32.6646L30.9216 7.69131C31.2242 7.30222 31.2631 7.26468 31.3231 7.16626ZM29.362 9.67801L42.9086 33.1416L22.464 37.1516L16.2475 26.3846L29.362 9.67801ZM3.12941 41.1625C2.61489 40.2722 2.34298 39.2614 2.34298 38.2388C2.34298 36.1487 3.46633 34.2022 5.27404 33.1585L14.4078 27.8851L20.2672 38.0337L11.1334 43.3076C8.3351 44.9226 4.74486 43.9604 3.12941 41.1625Z" fill="url(#paint1_linear)"/>
<path d="M12.4201 38.5048C12.0964 37.9445 11.3796 37.7522 10.8193 38.0759L8.78953 39.2477C8.23014 39.5709 7.51191 39.3782 7.18873 38.8188C6.86509 38.2585 6.14823 38.0663 5.58793 38.3899C5.02763 38.7135 4.83537 39.4304 5.15901 39.9907C6.12351 41.6615 8.275 42.2507 9.96141 41.2775L11.9911 40.1056C12.5514 39.782 12.7437 39.0656 12.4201 38.5048Z" fill="url(#paint2_linear)"/>
<path d="M58.2582 6.76715L51.7282 10.4009C51.1629 10.7158 50.9592 11.4295 51.2741 11.9948C51.5881 12.5597 52.3013 12.7643 52.868 12.4489L59.3976 8.81519C59.9634 8.50025 60.1666 7.78659 59.8517 7.22126C59.5372 6.65546 58.8235 6.45221 58.2582 6.76715Z" fill="url(#paint3_linear)"/>
<path d="M57.5734 18.9043L53.0457 17.6912C52.4203 17.5237 51.7777 17.8945 51.6101 18.5198C51.4426 19.1451 51.8138 19.7873 52.4391 19.9549L56.9673 21.168C57.5963 21.3369 58.2358 20.9601 58.4024 20.3394C58.5699 19.7141 58.1987 19.0714 57.5734 18.9043Z" fill="url(#paint4_linear)"/>
<path d="M46.1952 2.50955L44.9808 7.03775C44.8132 7.66305 45.184 8.30529 45.8093 8.47329C46.4342 8.64038 47.0769 8.2705 47.2449 7.64474L48.4589 3.11654C48.6264 2.49124 48.2556 1.84854 47.6303 1.681C47.0055 1.51345 46.3628 1.88424 46.1952 2.50955Z" fill="url(#paint5_linear)"/>
<defs>
<linearGradient id="paint0_linear" x1="15.4645" y1="35.5752" x2="15.4645" y2="37.919" gradientUnits="userSpaceOnUse">
<stop stop-color="#373737"/>
<stop offset="1" stop-color="#181818"/>
</linearGradient>
<linearGradient id="paint1_linear" x1="24.7372" y1="4.26038" x2="24.7372" y2="58.4167" gradientUnits="userSpaceOnUse">
<stop stop-color="#373737"/>
<stop offset="1" stop-color="#181818"/>
</linearGradient>
<linearGradient id="paint2_linear" x1="8.78953" y1="37.9187" x2="8.78953" y2="41.7478" gradientUnits="userSpaceOnUse">
<stop stop-color="#373737"/>
<stop offset="1" stop-color="#181818"/>
</linearGradient>
<linearGradient id="paint3_linear" x1="55.5629" y1="6.6189" x2="55.5629" y2="12.5972" gradientUnits="userSpaceOnUse">
<stop stop-color="#373737"/>
<stop offset="1" stop-color="#181818"/>
</linearGradient>
<linearGradient id="paint4_linear" x1="55.0063" y1="17.651" x2="55.0063" y2="21.2084" gradientUnits="userSpaceOnUse">
<stop stop-color="#373737"/>
<stop offset="1" stop-color="#181818"/>
</linearGradient>
<linearGradient id="paint5_linear" x1="46.7198" y1="1.64075" x2="46.7198" y2="8.51342" gradientUnits="userSpaceOnUse">
<stop stop-color="#373737"/>
<stop offset="1" stop-color="#181818"/>
</linearGradient>
</defs>
</svg>
