<svg width="15" height="15" viewBox="0 0 15 15" fill="none" xmlns="http://www.w3.org/2000/svg">
<path d="M14.571 2.05057C14.3503 1.82952 13.9923 1.82914 13.7716 2.04963L6.98958 8.81375L4.54265 6.15614C4.33121 5.92663 3.97373 5.91175 3.74384 6.12315C3.51412 6.33459 3.49942 6.69225 3.71085 6.92196L6.55634 10.0122C6.66055 10.1255 6.80639 10.1913 6.96017 10.1945C6.9643 10.1946 6.96828 10.1946 6.97224 10.1946C7.12168 10.1946 7.26544 10.1353 7.37135 10.0297L14.5699 2.85011C14.7911 2.62965 14.7915 2.27161 14.571 2.05057Z" fill="url(#paint0_linear)"/>
<path d="M14.4347 6.93466C14.1224 6.93466 13.8693 7.18772 13.8693 7.5C13.8693 11.0122 11.0122 13.8693 7.5 13.8693C3.98801 13.8693 1.13065 11.0122 1.13065 7.5C1.13065 3.98801 3.98801 1.13065 7.5 1.13065C7.81225 1.13065 8.06534 0.877588 8.06534 0.565342C8.06534 0.253066 7.81225 0 7.5 0C3.36445 0 0 3.36445 0 7.5C0 11.6354 3.36445 15 7.5 15C11.6354 15 15 11.6354 15 7.5C15 7.18775 14.7469 6.93466 14.4347 6.93466Z" fill="url(#paint1_linear)"/>
<defs>
<linearGradient id="paint0_linear" x1="9.14874" y1="1.88452" x2="9.14874" y2="10.1946" gradientUnits="userSpaceOnUse">
<stop stop-color="#FFE5AC"/>
<stop offset="0.0001" stop-color="#FFE5AC"/>
<stop offset="1" stop-color="#B99C5D"/>
</linearGradient>
<linearGradient id="paint1_linear" x1="7.5" y1="0" x2="7.5" y2="15" gradientUnits="userSpaceOnUse">
<stop stop-color="#FFE5AC"/>
<stop offset="0.0001" stop-color="#FFE5AC"/>
<stop offset="1" stop-color="#B99C5D"/>
</linearGradient>
</defs>
</svg>
