<svg width="20" height="20" viewBox="0 0 20 20" fill="none" xmlns="http://www.w3.org/2000/svg">
<circle cx="10" cy="10" r="9.5" stroke="url(#paint0_linear)"/>
<path d="M9.10219 12.96C9.10219 12.4373 9.20885 11.9627 9.42219 11.536C9.63552 11.0987 9.89152 10.7307 10.1902 10.432C10.4889 10.1333 10.7875 9.84533 11.0862 9.568C11.3849 9.29067 11.6409 8.98667 11.8542 8.656C12.0675 8.31467 12.1742 7.952 12.1742 7.568C12.1742 6.94933 11.9609 6.48533 11.5342 6.176C11.1182 5.856 10.5795 5.696 9.91819 5.696C8.60619 5.696 7.79552 6.23467 7.48619 7.312L6.54219 6.784C6.78752 6.06933 7.21419 5.53067 7.82219 5.168C8.44085 4.79467 9.13952 4.608 9.91819 4.608C10.8569 4.608 11.6515 4.86933 12.3022 5.392C12.9635 5.904 13.2942 6.62933 13.2942 7.568C13.2942 8.02667 13.1875 8.45333 12.9742 8.848C12.7609 9.24267 12.5049 9.58933 12.2062 9.888C11.9075 10.176 11.6089 10.464 11.3102 10.752C11.0115 11.04 10.7555 11.376 10.5422 11.76C10.3289 12.1333 10.2222 12.5333 10.2222 12.96H9.10219ZM10.2862 15.904C10.1155 16.0747 9.90752 16.16 9.66219 16.16C9.41685 16.16 9.20885 16.0747 9.03819 15.904C8.86752 15.7333 8.78219 15.5253 8.78219 15.28C8.78219 15.0347 8.86752 14.8267 9.03819 14.656C9.20885 14.4853 9.41685 14.4 9.66219 14.4C9.90752 14.4 10.1155 14.4853 10.2862 14.656C10.4569 14.8267 10.5422 15.0347 10.5422 15.28C10.5422 15.5253 10.4569 15.7333 10.2862 15.904Z" fill="url(#paint1_linear)"/>
<defs>
<linearGradient id="paint0_linear" x1="10" y1="0" x2="10" y2="20" gradientUnits="userSpaceOnUse">
<stop stop-color="#FFE5AC"/>
<stop offset="0.0001" stop-color="#FFE5AC"/>
<stop offset="1" stop-color="#B99C5D"/>
</linearGradient>
<linearGradient id="paint1_linear" x1="10" y1="2" x2="10" y2="16" gradientUnits="userSpaceOnUse">
<stop stop-color="#FFE5AC"/>
<stop offset="0.0001" stop-color="#FFE5AC"/>
<stop offset="1" stop-color="#B99C5D"/>
</linearGradient>
</defs>
</svg>
