<svg width="20" height="20" viewBox="0 0 20 20" fill="none" xmlns="http://www.w3.org/2000/svg">
<g clip-path="url(#clip0)">
<path d="M11.4889 10.001L19.692 1.79793C20.103 1.38683 20.103 0.72035 19.692 0.309296C19.2809 -0.101797 18.6143 -0.101797 18.2033 0.309296L10.0002 8.51233L1.79719 0.309296C1.3861 -0.101797 0.719618 -0.101797 0.308564 0.309296C-0.10249 0.720389 -0.102529 1.38687 0.308564 1.79793L8.5116 10.001L0.308564 18.204C-0.102529 18.6151 -0.102529 19.2816 0.308564 19.6926C0.719657 20.1037 1.38614 20.1037 1.79719 19.6926L10.0002 11.4896L18.2032 19.6926C18.6143 20.1037 19.2808 20.1037 19.6919 19.6926C20.1029 19.2815 20.1029 18.615 19.6919 18.204L11.4889 10.001Z" fill="#9A3335"/>
</g>
<defs>
<clipPath id="clip0">
<rect x="0.000244141" width="20" height="20" fill="white"/>
</clipPath>
</defs>
</svg>
