<svg width="65" height="65" viewBox="0 0 65 65" fill="none" xmlns="http://www.w3.org/2000/svg">
<g clip-path="url(#clip0)">
<path d="M31.7903 57.0136C31.7903 53.5907 29.0157 50.8162 25.5935 50.8162C22.1707 50.8162 19.3961 53.5907 19.3961 57.0129C19.3961 60.4358 22.1707 63.2103 25.5935 63.2103C29.0139 63.2067 31.7866 60.4345 31.7903 57.0136ZM21.5942 57.0136C21.5942 54.8045 23.3844 53.0142 25.5935 53.0142C27.802 53.0142 29.5922 54.8044 29.5922 57.0129C29.5922 59.222 27.802 61.0123 25.5935 61.0123C23.3856 61.0098 21.5966 59.2208 21.5942 57.0136Z" fill="#191919"/>
<path d="M48.5406 63.2103C51.9634 63.2109 54.738 60.4364 54.738 57.0136C54.7386 53.5907 51.964 50.8162 48.5412 50.8162C45.1184 50.8162 42.3438 53.5907 42.3438 57.0136C42.3481 60.4339 45.1196 63.206 48.5406 63.2103ZM48.5406 53.0142C50.7491 53.0142 52.5399 54.8044 52.5399 57.0129C52.5405 59.2214 50.7497 61.0123 48.5412 61.0123C46.3327 61.0123 44.5419 59.222 44.5419 57.0136C44.5443 54.8063 46.3333 53.0173 48.5406 53.0142Z" fill="#191919"/>
<path d="M1.09903 3.92516H7.80298C10.009 3.91657 11.89 5.5228 12.2261 7.70368L17.5329 41.2259C18.034 44.4763 20.838 46.8713 24.1271 46.8584H56.9299C57.5364 46.8584 58.0289 46.3659 58.0289 45.7594C58.0289 45.1522 57.5364 44.6603 56.9299 44.6603H24.1271C21.9211 44.6689 20.0401 43.0621 19.704 40.8818L18.8018 35.1824H52.3976C55.2421 35.1812 57.7738 33.3794 58.706 30.6925L64.9389 12.7033C65.0561 12.3672 65.0027 11.9955 64.7966 11.7054C64.59 11.416 64.2563 11.2436 63.9006 11.2436H15.0117L14.3971 7.35962C13.8961 4.10915 11.0921 1.71422 7.80298 1.7271H1.09903C0.491864 1.7271 0 2.21958 0 2.82613C0 3.43329 0.491864 3.92516 1.09903 3.92516ZM62.3563 13.4423L56.6294 29.9725C56.0038 31.775 54.3056 32.9838 52.3976 32.9844H18.4535L15.3594 13.4417L62.3563 13.4423Z" fill="#191919"/>
</g>
<defs>
<clipPath id="clip0">
<rect width="65" height="65" fill="white"/>
</clipPath>
</defs>
</svg>
