<svg width="30" height="30" fill="none" xmlns="http://www.w3.org/2000/svg"><path d="M20.625 0H9.375A9.376 9.376 0 000 9.375v11.25A9.376 9.376 0 009.375 30h11.25A9.376 9.376 0 0030 20.625V9.375A9.376 9.376 0 0020.625 0zm6.563 20.625a6.57 6.57 0 01-6.563 6.563H9.375a6.57 6.57 0 01-6.563-6.563V9.375a6.57 6.57 0 016.563-6.563h11.25a6.57 6.57 0 016.563 6.563v11.25z" fill="url(#paint0_linear)"/><path d="M15 7.5a7.5 7.5 0 100 15 7.5 7.5 0 000-15zm0 12.188A4.694 4.694 0 0110.312 15 4.693 4.693 0 0115 10.312 4.693 4.693 0 0119.688 15 4.694 4.694 0 0115 19.688z" fill="url(#paint1_linear)"/><path d="M23.063 7.936a1 1 0 100-1.999 1 1 0 000 2z" fill="url(#paint2_linear)"/><defs><linearGradient id="paint0_linear" x1="2.746" y1="27.254" x2="27.254" y2="2.746" gradientUnits="userSpaceOnUse"><stop stop-color="#FFC107"/><stop offset=".507" stop-color="#F44336"/><stop offset=".99" stop-color="#9C27B0"/></linearGradient><linearGradient id="paint1_linear" x1="9.697" y1="20.303" x2="20.303" y2="9.697" gradientUnits="userSpaceOnUse"><stop stop-color="#FFC107"/><stop offset=".507" stop-color="#F44336"/><stop offset=".99" stop-color="#9C27B0"/></linearGradient><linearGradient id="paint2_linear" x1="22.356" y1="7.644" x2="23.769" y2="6.23" gradientUnits="userSpaceOnUse"><stop stop-color="#FFC107"/><stop offset=".507" stop-color="#F44336"/><stop offset=".99" stop-color="#9C27B0"/></linearGradient></defs></svg>