<svg width="36" height="36" fill="none" xmlns="http://www.w3.org/2000/svg"><g clip-path="url(#clip0)" fill="#7887A6"><path d="M26.152 15.584V8.771a.789.789 0 00-.217-.518L18.297.233A.761.761 0 0017.749 0H5.639C3.403 0 1.617 1.823 1.617 4.06v22.899a4.01 4.01 0 004.022 4.029h9.559C17.006 33.989 20.293 36 24.036 36c5.688 0 10.332-4.622 10.332-10.317.008-4.974-3.564-9.131-8.216-10.099zM18.5 2.634l5.125 5.394H20.3c-.99 0-1.8-.817-1.8-1.808V2.634zM5.64 29.487a2.514 2.514 0 01-2.521-2.528v-22.9c0-1.41 1.118-2.558 2.52-2.558h11.36v4.72A3.308 3.308 0 0020.3 9.528h4.352v5.86c-.225-.008-.405-.03-.6-.03-2.619 0-5.027 1.005-6.843 2.581h-9.53a.752.752 0 00-.75.75c0 .413.338.75.75.75h8.134c-.533.75-.975 1.501-1.32 2.327H7.68a.752.752 0 00-.75.75c0 .413.337.75.75.75h6.325a10.1 10.1 0 00-.285 2.416c0 1.35.262 2.686.735 3.812H5.639v-.008zm18.405 5.02c-4.862 0-8.816-3.954-8.816-8.816s3.946-8.816 8.816-8.816c4.87 0 8.816 3.954 8.816 8.816s-3.954 8.816-8.816 8.816z"/><path d="M9.75 17.5h7.601c.413 0 .75-.337.75-.75a.752.752 0 00-.75-.75h-7.6a.752.752 0 00-.751.75c0 .413.338.75.75.75zm14.827 2.653a.755.755 0 00-.548-.24c-.21 0-.405.09-.548.24l-4.397 4.72c-.285.3-.262.78.038 1.058.3.285.788.262 1.073-.038L23.3 22.57v8.194c0 .412.338.75.75.75.413 0 .75-.338.75-.75V22.57l3.084 3.324c.15.158.346.24.548.24a.76.76 0 00.51-.202.748.748 0 00.038-1.058l-4.404-4.72z"/></g><defs><clipPath id="clip0"><path fill="#fff" d="M0 0h36v36H0z"/></clipPath></defs></svg>