<svg width="9" height="9" viewBox="0 0 9 9" fill="none" xmlns="http://www.w3.org/2000/svg">
<path d="M8.74244 1.23024C8.61004 1.09761 8.39522 1.09739 8.26282 1.22968L4.19361 5.28815L2.72545 3.69359C2.59859 3.55588 2.3841 3.54695 2.24616 3.67379C2.10833 3.80066 2.09951 4.01525 2.22637 4.15308L3.93366 6.00724C3.99619 6.07519 4.08369 6.11466 4.17596 6.11657C4.17844 6.11668 4.18083 6.11668 4.1832 6.11668C4.27287 6.11668 4.35913 6.08107 4.42267 6.01775L8.74177 1.70997C8.87451 1.57769 8.87473 1.36287 8.74244 1.23024Z" fill="url(#paint0_linear)"/>
<path d="M8.6608 4.1608C8.47345 4.1608 8.32161 4.31263 8.32161 4.5C8.32161 6.60732 6.60732 8.32161 4.5 8.32161C2.3928 8.32161 0.678393 6.60732 0.678393 4.5C0.678393 2.3928 2.3928 0.678393 4.5 0.678393C4.68735 0.678393 4.8392 0.526553 4.8392 0.339205C4.83921 0.15184 4.68735 0 4.5 0C2.01867 0 0 2.01867 0 4.5C0 6.98122 2.01867 9 4.5 9C6.98122 9 9 6.98122 9 4.5C9 4.31265 8.84816 4.1608 8.6608 4.1608Z" fill="url(#paint1_linear)"/>
<defs>
<linearGradient id="paint0_linear" x1="5.48911" y1="1.13062" x2="5.48911" y2="6.11668" gradientUnits="userSpaceOnUse">
<stop stop-color="#FFE5AC"/>
<stop offset="0.0001" stop-color="#FFE5AC"/>
<stop offset="1" stop-color="#B99C5D"/>
</linearGradient>
<linearGradient id="paint1_linear" x1="4.5" y1="0" x2="4.5" y2="9" gradientUnits="userSpaceOnUse">
<stop stop-color="#FFE5AC"/>
<stop offset="0.0001" stop-color="#FFE5AC"/>
<stop offset="1" stop-color="#B99C5D"/>
</linearGradient>
</defs>
</svg>
