<svg width="38" height="38" viewBox="0 0 38 38" fill="none" xmlns="http://www.w3.org/2000/svg">
<g filter="url(#filter0_d)">
<circle cx="19.001" cy="15" r="15" fill="url(#paint0_linear)"/>
</g>
<g clip-path="url(#clip0)">
<path d="M19.4226 18.9741L26.5101 11.867C26.7422 11.6341 26.7418 11.2571 26.5089 11.0246C26.276 10.7924 25.8988 10.793 25.6665 11.0258L19.0009 17.71L12.3353 11.0256C12.103 10.7927 11.726 10.7921 11.4931 11.0244C11.3764 11.1409 11.318 11.2936 11.318 11.4463C11.318 11.5986 11.376 11.7506 11.4919 11.8669L18.5792 18.9741C18.6908 19.0863 18.8427 19.1492 19.0009 19.1492C19.1591 19.1492 19.3108 19.0861 19.4226 18.9741Z" fill="white"/>
</g>
<defs>
<filter id="filter0_d" x="0.000976562" y="0" width="38" height="38" filterUnits="userSpaceOnUse" color-interpolation-filters="sRGB">
<feFlood flood-opacity="0" result="BackgroundImageFix"/>
<feColorMatrix in="SourceAlpha" type="matrix" values="0 0 0 0 0 0 0 0 0 0 0 0 0 0 0 0 0 0 127 0"/>
<feOffset dy="4"/>
<feGaussianBlur stdDeviation="2"/>
<feColorMatrix type="matrix" values="0 0 0 0 0.839216 0 0 0 0 0.709804 0 0 0 0 0.431373 0 0 0 0.2 0"/>
<feBlend mode="normal" in2="BackgroundImageFix" result="effect1_dropShadow"/>
<feBlend mode="normal" in="SourceGraphic" in2="effect1_dropShadow" result="shape"/>
</filter>
<linearGradient id="paint0_linear" x1="19.001" y1="0" x2="19.001" y2="30" gradientUnits="userSpaceOnUse">
<stop stop-color="#FFE5AC"/>
<stop offset="0.0001" stop-color="#FFE5AC"/>
<stop offset="1" stop-color="#B99C5D"/>
</linearGradient>
<clipPath id="clip0">
<rect x="26.6838" y="7.31689" width="15.3659" height="15.3659" transform="rotate(90 26.6838 7.31689)" fill="white"/>
</clipPath>
</defs>
</svg>
