<svg width="49" height="49" viewBox="0 0 49 49" fill="none" xmlns="http://www.w3.org/2000/svg">
<g filter="url(#filter0_d)">
<circle cx="24.5" cy="20.5" r="20.5" fill="url(#paint0_linear)"/>
</g>
<g clip-path="url(#clip0)">
<path d="M25.0763 25.9313L34.7625 16.2182C35.0797 15.8999 35.0792 15.3847 34.7609 15.067C34.4426 14.7495 33.9271 14.7503 33.6097 15.0686L24.5 24.2036L15.3903 15.0683C15.0728 14.7501 14.5576 14.7492 14.2393 15.0667C14.0798 15.2259 14 15.4346 14 15.6432C14 15.8513 14.0793 16.0591 14.2377 16.2181L23.9237 25.9313C24.0762 26.0846 24.2837 26.1706 24.5 26.1706C24.7162 26.1706 24.9235 26.0843 25.0763 25.9313Z" fill="white"/>
</g>
<defs>
<filter id="filter0_d" x="0" y="0" width="49" height="49" filterUnits="userSpaceOnUse" color-interpolation-filters="sRGB">
<feFlood flood-opacity="0" result="BackgroundImageFix"/>
<feColorMatrix in="SourceAlpha" type="matrix" values="0 0 0 0 0 0 0 0 0 0 0 0 0 0 0 0 0 0 127 0"/>
<feOffset dy="4"/>
<feGaussianBlur stdDeviation="2"/>
<feColorMatrix type="matrix" values="0 0 0 0 0.839216 0 0 0 0 0.709804 0 0 0 0 0.431373 0 0 0 0.2 0"/>
<feBlend mode="normal" in2="BackgroundImageFix" result="effect1_dropShadow"/>
<feBlend mode="normal" in="SourceGraphic" in2="effect1_dropShadow" result="shape"/>
</filter>
<linearGradient id="paint0_linear" x1="24.5" y1="0" x2="24.5" y2="41" gradientUnits="userSpaceOnUse">
<stop stop-color="#FFE5AC"/>
<stop offset="0.0001" stop-color="#FFE5AC"/>
<stop offset="1" stop-color="#B99C5D"/>
</linearGradient>
<clipPath id="clip0">
<rect x="35" y="10" width="21" height="21" transform="rotate(90 35 10)" fill="white"/>
</clipPath>
</defs>
</svg>
