<svg width="49" height="49" viewBox="0 0 49 49" fill="none" xmlns="http://www.w3.org/2000/svg">
<g filter="url(#filter0_d)">
<circle cx="24.4995" cy="20.5" r="20.5" fill="url(#paint0_linear)"/>
</g>
<g clip-path="url(#clip0)">
<path d="M25.0758 15.0687L34.762 24.7818C35.0792 25.1001 35.0787 25.6153 34.7604 25.933C34.4422 26.2505 33.9266 26.2497 33.6092 25.9314L24.4995 16.7964L15.3898 25.9317C15.0723 26.2499 14.5571 26.2508 14.2388 25.9333C14.0793 25.7741 13.9995 25.5654 13.9995 25.3568C13.9995 25.1487 14.0788 24.9409 14.2372 24.7819L23.9232 15.0687C24.0757 14.9154 24.2832 14.8294 24.4995 14.8294C24.7157 14.8294 24.923 14.9157 25.0758 15.0687Z" fill="white"/>
</g>
<defs>
<filter id="filter0_d" x="-0.000488281" y="0" width="49" height="49" filterUnits="userSpaceOnUse" color-interpolation-filters="sRGB">
<feFlood flood-opacity="0" result="BackgroundImageFix"/>
<feColorMatrix in="SourceAlpha" type="matrix" values="0 0 0 0 0 0 0 0 0 0 0 0 0 0 0 0 0 0 127 0"/>
<feOffset dy="4"/>
<feGaussianBlur stdDeviation="2"/>
<feColorMatrix type="matrix" values="0 0 0 0 0.839216 0 0 0 0 0.709804 0 0 0 0 0.431373 0 0 0 0.2 0"/>
<feBlend mode="normal" in2="BackgroundImageFix" result="effect1_dropShadow"/>
<feBlend mode="normal" in="SourceGraphic" in2="effect1_dropShadow" result="shape"/>
</filter>
<linearGradient id="paint0_linear" x1="24.4995" y1="0" x2="24.4995" y2="41" gradientUnits="userSpaceOnUse">
<stop stop-color="#FFE5AC"/>
<stop offset="0.0001" stop-color="#FFE5AC"/>
<stop offset="1" stop-color="#B99C5D"/>
</linearGradient>
<clipPath id="clip0">
<rect width="21" height="21" transform="matrix(-4.37114e-08 -1 -1 4.37114e-08 34.9995 31)" fill="white"/>
</clipPath>
</defs>
</svg>
