<svg width="39" height="38" viewBox="0 0 39 38" fill="none" xmlns="http://www.w3.org/2000/svg">
<g filter="url(#filter0_d)">
<circle cx="19.7285" cy="15" r="15" fill="url(#paint0_linear)"/>
</g>
<g clip-path="url(#clip0)">
<path d="M20.1501 11.0259L27.2376 18.133C27.4697 18.3659 27.4693 18.7429 27.2364 18.9754C27.0036 19.2076 26.6263 19.207 26.3941 18.9742L19.7284 12.29L13.0628 18.9744C12.8305 19.2073 12.4535 19.2079 12.2206 18.9756C12.1039 18.8591 12.0455 18.7064 12.0455 18.5537C12.0455 18.4014 12.1035 18.2494 12.2194 18.1331L19.3068 11.0259C19.4183 10.9137 19.5702 10.8508 19.7284 10.8508C19.8866 10.8508 20.0383 10.9139 20.1501 11.0259Z" fill="white"/>
</g>
<defs>
<filter id="filter0_d" x="0.728516" y="0" width="38" height="38" filterUnits="userSpaceOnUse" color-interpolation-filters="sRGB">
<feFlood flood-opacity="0" result="BackgroundImageFix"/>
<feColorMatrix in="SourceAlpha" type="matrix" values="0 0 0 0 0 0 0 0 0 0 0 0 0 0 0 0 0 0 127 0"/>
<feOffset dy="4"/>
<feGaussianBlur stdDeviation="2"/>
<feColorMatrix type="matrix" values="0 0 0 0 0.839216 0 0 0 0 0.709804 0 0 0 0 0.431373 0 0 0 0.2 0"/>
<feBlend mode="normal" in2="BackgroundImageFix" result="effect1_dropShadow"/>
<feBlend mode="normal" in="SourceGraphic" in2="effect1_dropShadow" result="shape"/>
</filter>
<linearGradient id="paint0_linear" x1="19.7285" y1="0" x2="19.7285" y2="30" gradientUnits="userSpaceOnUse">
<stop stop-color="#FFE5AC"/>
<stop offset="0.0001" stop-color="#FFE5AC"/>
<stop offset="1" stop-color="#B99C5D"/>
</linearGradient>
<clipPath id="clip0">
<rect width="15.3659" height="15.3659" transform="matrix(-4.37114e-08 -1 -1 4.37114e-08 27.4114 22.6831)" fill="white"/>
</clipPath>
</defs>
</svg>
