<?xml version="1.0" encoding="UTF-8"?>
<!DOCTYPE svg PUBLIC "-//W3C//DTD SVG 1.1//EN" "http://www.w3.org/Graphics/SVG/1.1/DTD/svg11.dtd">
<!-- Creator: CorelDRAW 2017 -->
<svg xmlns="http://www.w3.org/2000/svg" xml:space="preserve" width="101.6mm" height="169.333mm" version="1.1" style="shape-rendering:geometricPrecision; text-rendering:geometricPrecision; image-rendering:optimizeQuality; fill-rule:evenodd; clip-rule:evenodd"
viewBox="0 0 10160 16933.32"
 xmlns:xlink="http://www.w3.org/1999/xlink">
 <defs>
  <style type="text/css">
   <![CDATA[
    .fil0 {fill:#020202}
    .fil1 {fill:#161616}
   ]]>
  </style>
 </defs>
 <g id="Слой_x0020_1">
  <metadata id="CorelCorpID_0Corel-Layer"/>
  <g id="_897220256">
   <path class="fil0" d="M4813.41 5516.14c-4.55,-24.04 15.99,-45.17 8.04,-8.04 -0.19,0.86 0.36,52.37 -8.04,8.04zm-342.9 330.2c-242.96,0 -140.88,314.08 -77.41,433.01l46.65 67.64c26.12,36.86 36.65,58.86 81.56,70.85 -15.18,56.85 -254.1,203.2 190.5,203.2 0,176.04 139.7,519.23 139.7,673.1 0,153.32 -184.13,432.59 -262.34,575.86l-154.21 264.89c-18.22,30.2 -37.1,59.7 -52.72,86.98 -71.81,125.52 -229.3,427.09 -270.23,567.97 -35.07,120.72 -88.95,315.51 -68.06,454.69 6.42,42.74 6.09,83.72 12.47,127.4 6.46,44.22 14.23,79.58 19.58,120.13 27.21,206.41 201.9,752.71 281.94,975.36 12.88,35.85 25.79,57.91 36.37,103.32l25.4 0c-8.03,-34.48 -9.41,-23.25 -19.12,-57.07 -96.9,-337.51 -158.68,-817.31 -158.68,-1162.13 0,-212.31 70.43,-383.91 136.03,-537.07 33.06,-77.21 71.18,-145.33 107.23,-222.97 135.41,-291.64 299.12,-552.46 442.43,-903.77l46.81 -118.29c96.32,-322.64 -38.22,-534.65 -137.59,-781.31 -19.14,-47.51 -39.55,-121.33 -61.51,-167.09 135.38,0 235.9,-7.13 346.35,-21.95 118.06,-15.83 244.09,7.73 363.01,-5.29 171.44,-18.77 313.31,-31.32 486.99,-71.82l149.85 -40.64c-9.24,111 -241.3,670.03 -241.3,914.4 0,290.09 73,414.01 194.74,656.16 129.98,258.54 300.56,657.07 300.56,982.14 0,757.42 -138.73,1349.64 -218.15,2080.55 -16.13,148.36 -42.5,299.69 -65.06,455.65 -47.18,326.18 -126.68,818.9 -161.3,1134.1 -8.83,80.38 -25.39,154.69 -25.39,241.31 52.74,-14.08 34.94,-13.95 44.26,-82.74 6.08,-44.86 11.54,-87.45 17.37,-122.33 126.84,-758.61 227.21,-1355.42 392.47,-2122.14 33.84,-157.03 68.82,-303.83 95.52,-463.28 49.66,-296.64 148.88,-642.03 148.88,-968.72 0,-740.3 -401.08,-1144.78 -615.12,-1632.78 -61.56,-140.36 -40.61,-226.39 -10.45,-377.09 50.91,-254.3 136.55,-475.01 193.77,-720.63 136.04,-11.32 406.4,-196.39 406.4,-457.2 0,-324.54 -303.16,-275.22 -509.76,-204.85 -102.49,34.91 -112.54,75.5 -112.54,-74.55 1.8,2.59 3.42,4.17 4.21,8.48l15.24 22.87c19.07,18.93 2.08,11.63 31.35,19.45l-2 -101.65c10.88,-76.52 30.79,-34.68 -3.28,-185.18 -26.35,-116.45 -45.52,-167.41 -45.52,-310.07 -28.41,11.46 -9.11,-7.53 -31.57,44.63l-6.53 18.87c-12.65,-54.31 -10.25,-62.04 -76.2,-63.5 -43.98,183.68 45.89,488.49 88.9,673.1 -196.48,103.96 -186.58,70.33 -403.35,117.35 -271.02,58.78 -502.24,110.35 -765.05,-15.75 11.3,-48.52 15.46,-98.88 27.81,-150 13.21,-54.71 22.99,-93.1 22.99,-167.5l12.7 0c0,86.6 -10.19,194.58 38.1,266.7 47.93,-12.8 50.84,-26.77 64.22,-75.48 46.44,-169.06 65.15,-389.54 34.25,-569.09 -11.6,-67.4 -18.28,-75.74 -73.07,-104.73 -114.54,76.7 -151.47,463.49 -164.39,635.71 -2.93,38.93 14.56,128.5 -16.33,142.9 -13.83,6.45 -186.43,-80.11 -238.38,-80.11z"/>
   <path class="fil0" d="M7061.31 4525.53c-29.3,-109.72 -647.48,-426.83 -748.57,-483.33 -29.2,-16.32 -20.38,-12.92 -58.81,-30.09 -757.72,-338.56 -582.69,-186.03 -1137.36,-361.24 -149.64,-47.27 -355.99,-136.57 -488.24,-210.26 -43.44,-24.2 -79.41,-35.47 -119.23,-58.57l-221.98 -133.61c-254.93,-152.25 -491.75,-336.84 -722.31,-522.3 -132.3,-106.41 -233,-176.3 -92.1,-328.7 222.52,-240.68 695.95,141.98 877.47,279.94 39.05,29.68 18.17,27.79 69.53,32.06 -4.97,-59.68 -57.11,-82.29 -142.73,-162.07 -25.98,-24.21 -56.2,-45.98 -84.23,-68.17 -92.49,-73.24 -156.3,-135.2 -272.29,-197.6 -184.99,-99.53 -398.72,-98.75 -564.08,50.31 -31.1,28.03 -65.23,86.66 -77.85,125.95 -34.58,107.66 20.43,214.56 73.54,303.22 34.21,57.11 43.38,67.35 85.82,117.39 32.54,38.36 57.15,76.84 89.76,113.43l94.98 108.23c34.22,37 65.73,65.23 101.64,101.55l218.07 188.33c41.08,32.29 73.68,56.97 116.58,86.62l320.8 187.21 351.94 143.35c181.55,51.71 269.68,90.29 484.22,125.38 112.64,18.43 238.99,21.63 366.92,39.49 116.58,16.27 231.66,27.72 342.35,64.04 369.62,121.29 518.81,205.59 858.37,360.83 64.38,29.43 211.47,123.1 277.79,128.61z"/>
   <path class="fil0" d="M4470.51 12882.15c0,109.14 20.11,55.08 63.5,114.3 -65.27,123.35 -62.7,188.39 83.26,297.74 114.07,85.47 222.09,147.7 355.88,202.92 74.53,30.76 113.77,64.41 195.86,83.54 -8.71,37.36 -12.7,38.76 -12.7,88.9 363,0 477.93,139.7 635,139.7 51.46,0 -9.49,-29.97 46.72,-105.62 93.08,-125.31 -133.23,-218.85 -216.12,-258.38 -94.67,-45.14 -434.46,-201.74 -503.7,-207.5 -11.09,-133.23 -235.73,-288.66 -385.4,-338.5 -72.06,-24 -126.79,-25.73 -198.8,-42.5 8.29,-11.32 227.46,-228.6 292.1,-228.6 77.22,0 115.44,161.44 177.8,203.2 -1,-45.06 -61.12,-254 -190.5,-254 -60.75,0 -165.46,80.02 -205.39,112.11 -27.16,21.83 -137.51,158.6 -137.51,192.69z"/>
   <path class="fil0" d="M4749.91 2772.93l152.54 39.3c35.46,16.07 267,217.3 547.23,289.63 131.28,33.88 100.31,82.13 240.03,-11.43 -1.8,-80.98 -20.01,-41.09 0,-127 -89.36,-47.28 -169.31,-190.91 -267.26,-253.44 -85.28,-54.43 -239.24,-191.06 -329.64,-191.06 -29.09,0 -14.77,4.31 -50.8,12.7 5.64,67.83 28.72,70.87 61.51,103.59 19.45,19.4 16.55,6.17 27.39,36.11 -89.09,-47.14 0.38,16.32 -129.33,-47.45 -75.51,-37.13 -52.4,7.73 -99.94,-53.48 -25.39,-32.67 -25.47,-39.15 -62.83,-64.17 -34.09,22.83 -60.99,63.86 -74.18,103.62 -15.94,48.09 -14.72,100.08 -14.72,163.08z"/>
   <path class="fil0" d="M3886.31 6849.64c51.97,-13.88 59.9,-47.97 78.05,-99.75 16.4,-46.79 29.28,-88.52 43.82,-146.68 25.63,-102.5 51.06,-190.53 76.33,-291.98 100.06,-401.8 143.78,-862.89 273.51,-1212.39 57.16,-153.98 104.5,-256.05 244.67,-314.13 48.3,-20.01 90.79,-38.58 147.22,-43.28l0 -25.4c-296.88,0 -359.13,65.38 -475.47,273.84 -140.97,252.58 -223.95,1166.54 -314.56,1552.34l-73.57 307.43z"/>
   <path class="fil0" d="M3416.41 10075.44c-23.16,34.59 -62.5,77.36 -90.65,112.55 -34.17,42.72 -57.07,80.45 -90.74,125.17 -108.41,144 -71.29,130.56 -90.78,226.72 -7.01,34.62 -17.12,49.43 -25.65,88.65 -23.78,109.39 6.08,276.56 5.43,399.71 -1.14,213.78 33.33,237.26 63.79,368.01 66.98,-1.5 87.61,-36.35 114.3,-76.2 -16.52,-61.89 -21.37,-8.15 -25.84,-88.46 -10.55,-189.48 0.88,-498.2 -69.53,-642.85 -27.65,-56.8 23.47,-100.57 97.83,-218.73 56.26,-89.38 243.78,-378.66 302.34,-421.57 -15,64.39 -49.32,105.9 -72.17,169.14 -42,116.23 -3.92,145.14 8.67,199.16l38.1 0c-10.76,-129.29 -10.48,-78.89 49.33,-242.77 55.72,-152.67 39.57,-88.64 39.57,-277.93 -66.36,5.53 -18.68,-11.32 -43.54,19.96l-210.46 259.44z"/>
   <path class="fil1" d="M3873.61 9008.64l12.42 267.85c7.02,94.19 -43.6,120.05 25.68,138.55l12.66 -279.44c-0.38,-102.19 9.7,-186.08 23.39,-268.71 69.8,-421.33 344.95,-992.37 344.95,-1433.05 0,-221.92 24.9,-262.58 -38.1,-279.4 14.81,177.94 -4.07,310.6 -43.33,490.07l-129.84 441.66c-80.75,247.11 -207.83,694.44 -207.83,922.47z"/>
   <path class="fil0" d="M5270.61 2163.33c89.25,-20.79 229.64,-107.51 396.66,-2.96 20.56,12.88 33.62,21.31 50.9,38l46.22 55.38c149.17,209.13 138.38,639.55 229.2,837.61 16.18,35.28 11.08,39.02 51.72,49.87 -1.39,-62.37 -24.45,-97.79 -38.39,-152.11 -92.76,-361.47 14.41,-711.88 -273.47,-894.93 -122.05,-77.6 -235.23,-72.96 -362.87,-21.39 -23.89,9.64 -36.55,15.83 -59.25,29.65 -41.38,25.22 -36.33,8.12 -40.72,60.88z"/>
   <path class="fil0" d="M3619.61 10773.94l0 0zm0 0c0,-135.88 -37.37,-84.66 -81.77,-18.36 -69.03,103.09 -105.69,214 -152.26,330.44 -25.69,64.24 -55.77,118.86 -70.77,183.23 49,-13.09 46.54,-26.33 92.98,-110.23 14.53,-26.26 21.88,-45.72 33.48,-68.98 0.4,-0.81 17.25,-29.85 18.03,-30.57 70.66,-66.31 -7.34,134.96 209.39,-261.85 94.93,-173.82 138.54,-286.76 213.4,-434.3 26.29,-51.81 53.46,-91.02 55.02,-160.88 -58.82,15.71 -41.45,41.58 -84.5,131.4l-216.82 418.19c-15.43,24.24 -4.9,8.93 -16.18,21.91z"/>
   <path class="fil1" d="M5219.81 13733.05c22.41,61.91 166.13,129.01 224.2,156.8l277.33 103.67 692.27 82.43 0 -38.1c-62.26,0 -121.18,-12.8 -168.35,-22.15 -166.39,-32.97 -299.43,-46.4 -476.96,-94.54 -43.43,-11.77 -93.78,-27.31 -146.87,-43.63l-269.26 -111.75c-34.75,-14.64 -103.57,-65.19 -132.36,-32.73z"/>
   <path class="fil1" d="M3695.81 8741.94l38.1 0c0,-72.91 0.33,-126.92 8.72,-181.77l55.2 -541.71c1.87,-62.75 -2.71,-128.59 -0.84,-191.34l27.71 -480.29c4.13,-38.96 10.81,-36.4 10.81,-90.79l-38.1 0 -37.86 355.83c-6.05,122.17 -15.34,265.09 -24.97,381.44 -10.61,128.11 -7.38,268.49 -13.39,393.01 -6.48,134.11 -25.38,230.52 -25.38,355.62z"/>
   <path class="fil1" d="M3416.41 10075.44c45.48,-195.19 -53.97,-82.85 92.98,-376.92 53.86,-107.78 164.01,-249.71 135.62,-308.88 -39.88,10.65 -45.74,33.19 -63.15,63.85 -154.04,271.17 -274.73,322.1 -195.29,575.59 18.02,57.51 -16.12,27.81 29.84,46.36z"/>
   <path class="fil1" d="M3632.31 10227.84c53.42,-4.44 29.02,7.82 55.84,-33.06l119.78 -159.62c103.45,-157.06 65.68,-193.16 65.68,-289.92l-25.4 0c-56.83,243.92 -215.9,372.37 -215.9,482.6z"/>
  </g>
 </g>
</svg>
